<svg xmlns="http://www.w3.org/2000/svg" width="393" height="852" viewBox="0 0 393 852" fill="none">
<g clip-path="url(#clip0_231_12726)">
<rect width="393" height="852" rx="40" fill="url(#paint0_linear_231_12726)"/>
<rect x="130" y="839" width="134" height="5" rx="2.5" fill="black"/>
<rect x="20" y="65" width="44" height="44" rx="15" fill="#F9F9F9"/>
<path d="M45 94L38 87L45 80" stroke="black" stroke-width="1.5" stroke-linecap="round" stroke-linejoin="round"/>
<rect x="89" y="83" width="30" height="8" rx="4" fill="#FFF3F4"/>
<rect x="122" y="83" width="30" height="8" rx="4" fill="#FFF3F4"/>
<rect x="155" y="83" width="30" height="8" rx="4" fill="#FF657D"/>
<rect x="188" y="83" width="30" height="8" rx="4" fill="#FFF3F4"/>
<rect x="221" y="83" width="30" height="8" rx="4" fill="#FFF3F4"/>
<rect x="254" y="83" width="30" height="8" rx="4" fill="#FFF3F4"/>
<rect x="287" y="83" width="30" height="8" rx="4" fill="#FFF3F4"/>
<path d="M346.986 92.66C346.197 92.66 345.488 92.516 344.858 92.228C344.24 91.94 343.733 91.5133 343.338 90.948C342.954 90.3827 342.73 89.7 342.666 88.9H344.746C344.842 89.604 345.077 90.132 345.45 90.484C345.824 90.836 346.32 91.012 346.938 91.012C347.493 91.012 347.941 90.8573 348.282 90.548C348.634 90.2387 348.81 89.796 348.81 89.22C348.81 88.644 348.64 88.18 348.298 87.828C347.968 87.476 347.445 87.3 346.73 87.3H345.562V85.684H346.682C347.312 85.684 347.776 85.5347 348.074 85.236C348.384 84.9267 348.538 84.532 348.538 84.052C348.538 83.572 348.4 83.188 348.122 82.9C347.856 82.612 347.445 82.468 346.89 82.468C346.378 82.468 345.936 82.6227 345.562 82.932C345.2 83.2307 344.981 83.6787 344.906 84.276H342.794C342.88 83.5613 343.098 82.948 343.45 82.436C343.813 81.924 344.293 81.5293 344.89 81.252C345.488 80.964 346.176 80.82 346.954 80.82C347.722 80.82 348.389 80.948 348.954 81.204C349.52 81.4493 349.957 81.8013 350.266 82.26C350.586 82.708 350.746 83.2467 350.746 83.876C350.746 84.42 350.624 84.8947 350.378 85.3C350.133 85.7053 349.813 86.0253 349.418 86.26C349.034 86.484 348.629 86.596 348.202 86.596L348.154 86.26C348.752 86.26 349.264 86.3987 349.69 86.676C350.117 86.9427 350.442 87.3053 350.666 87.764C350.901 88.2227 351.018 88.74 351.018 89.316C351.018 89.988 350.842 90.58 350.49 91.092C350.149 91.5933 349.674 91.9827 349.066 92.26C348.458 92.5267 347.765 92.66 346.986 92.66ZM355.186 93.668L359.362 80.292H361.122L356.946 93.668H355.186ZM367.261 92.5C367.421 90.676 367.864 88.9053 368.589 87.188C369.314 85.4707 370.29 83.828 371.517 82.26L371.549 82.628H365.181V80.98H373.437V82.468C372.669 83.5773 372.008 84.676 371.453 85.764C370.909 86.8413 370.472 87.9347 370.141 89.044C369.821 90.1533 369.618 91.3053 369.533 92.5H367.261Z" fill="black"/>
<path d="M66.897 158V139.94H59.847V136.4H78.567V139.94H71.517V158H66.897ZM84.7676 158.3C83.0676 158.3 81.5876 157.97 80.3276 157.31C79.0676 156.63 78.0876 155.69 77.3876 154.49C76.7076 153.29 76.3676 151.91 76.3676 150.35C76.3676 148.77 76.7076 147.39 77.3876 146.21C78.0876 145.01 79.0576 144.08 80.2976 143.42C81.5376 142.74 82.9776 142.4 84.6176 142.4C86.1976 142.4 87.5676 142.72 88.7276 143.36C89.8876 144 90.7876 144.89 91.4276 146.03C92.0676 147.17 92.3876 148.51 92.3876 150.05C92.3876 150.37 92.3776 150.67 92.3576 150.95C92.3376 151.21 92.3076 151.46 92.2676 151.7H79.0076V148.73H88.6376L87.8576 149.27C87.8576 148.03 87.5576 147.12 86.9576 146.54C86.3776 145.94 85.5776 145.64 84.5576 145.64C83.3776 145.64 82.4576 146.04 81.7976 146.84C81.1576 147.64 80.8376 148.84 80.8376 150.44C80.8376 152 81.1576 153.16 81.7976 153.92C82.4576 154.68 83.4376 155.06 84.7376 155.06C85.4576 155.06 86.0776 154.94 86.5976 154.7C87.1176 154.46 87.5076 154.07 87.7676 153.53H91.9976C91.4976 155.01 90.6376 156.18 89.4176 157.04C88.2176 157.88 86.6676 158.3 84.7676 158.3ZM94.7941 158V136.4H99.2941V158H94.7941ZM102.88 158V136.4H107.38V158H102.88ZM125.349 158.3C122.269 158.3 119.959 157.46 118.419 155.78C116.899 154.08 116.139 151.61 116.139 148.37V136.4H120.759V149.18C120.759 151.06 121.169 152.44 121.989 153.32C122.809 154.2 123.939 154.64 125.379 154.64C126.819 154.64 127.949 154.2 128.769 153.32C129.589 152.44 129.999 151.07 129.999 149.21V136.4H134.619V148.43C134.619 151.63 133.849 154.08 132.309 155.78C130.769 157.46 128.449 158.3 125.349 158.3ZM143.777 158.3C141.537 158.3 139.757 157.85 138.437 156.95C137.117 156.05 136.397 154.81 136.277 153.23H140.297C140.397 153.91 140.737 154.43 141.317 154.79C141.917 155.13 142.737 155.3 143.777 155.3C144.717 155.3 145.397 155.17 145.817 154.91C146.257 154.63 146.477 154.24 146.477 153.74C146.477 153.36 146.347 153.07 146.087 152.87C145.847 152.65 145.397 152.47 144.737 152.33L142.277 151.82C140.457 151.44 139.117 150.87 138.257 150.11C137.397 149.33 136.967 148.33 136.967 147.11C136.967 145.63 137.537 144.48 138.677 143.66C139.817 142.82 141.407 142.4 143.447 142.4C145.467 142.4 147.077 142.81 148.277 143.63C149.477 144.43 150.137 145.55 150.257 146.99H146.237C146.157 146.47 145.877 146.08 145.397 145.82C144.917 145.54 144.237 145.4 143.357 145.4C142.557 145.4 141.957 145.52 141.557 145.76C141.177 145.98 140.987 146.3 140.987 146.72C140.987 147.08 141.147 147.37 141.467 147.59C141.787 147.79 142.317 147.97 143.057 148.13L145.817 148.7C147.357 149.02 148.517 149.62 149.297 150.5C150.097 151.36 150.497 152.38 150.497 153.56C150.497 155.06 149.907 156.23 148.727 157.07C147.567 157.89 145.917 158.3 143.777 158.3ZM164.997 158V149.27L156.957 136.4H162.507L168.867 147.83H166.257L172.587 136.4H177.657L169.617 149.27V158H164.997ZM183.675 158.3C181.995 158.3 180.515 157.97 179.235 157.31C177.975 156.63 176.985 155.69 176.265 154.49C175.565 153.27 175.215 151.87 175.215 150.29C175.215 148.71 175.565 147.33 176.265 146.15C176.985 144.97 177.975 144.05 179.235 143.39C180.515 142.73 181.995 142.4 183.675 142.4C185.375 142.4 186.855 142.73 188.115 143.39C189.395 144.05 190.385 144.97 191.085 146.15C191.785 147.33 192.135 148.71 192.135 150.29C192.135 151.87 191.775 153.27 191.055 154.49C190.355 155.69 189.365 156.63 188.085 157.31C186.825 157.97 185.355 158.3 183.675 158.3ZM183.675 154.76C184.375 154.76 185.005 154.58 185.565 154.22C186.145 153.86 186.605 153.35 186.945 152.69C187.285 152.01 187.455 151.2 187.455 150.26C187.455 148.88 187.085 147.82 186.345 147.08C185.625 146.32 184.735 145.94 183.675 145.94C182.615 145.94 181.715 146.32 180.975 147.08C180.255 147.84 179.895 148.9 179.895 150.26C179.895 151.2 180.065 152.01 180.405 152.69C180.745 153.35 181.195 153.86 181.755 154.22C182.335 154.58 182.975 154.76 183.675 154.76ZM199.471 158.3C198.391 158.3 197.461 158.07 196.681 157.61C195.921 157.13 195.341 156.5 194.941 155.72C194.541 154.92 194.341 154.03 194.341 153.05V142.7H198.841V152.18C198.841 153.02 199.051 153.65 199.471 154.07C199.891 154.49 200.481 154.7 201.241 154.7C201.921 154.7 202.521 154.54 203.041 154.22C203.561 153.9 203.971 153.46 204.271 152.9C204.591 152.32 204.751 151.66 204.751 150.92L205.141 154.61C204.641 155.71 203.911 156.6 202.951 157.28C201.991 157.96 200.831 158.3 199.471 158.3ZM204.841 158V154.4H204.751V142.7H209.251V158H204.841ZM212.861 158V142.7H217.271V146.3H217.361V158H212.861ZM217.361 150.02L216.971 146.39C217.331 145.09 217.921 144.1 218.741 143.42C219.561 142.74 220.581 142.4 221.801 142.4C222.181 142.4 222.461 142.44 222.641 142.52V146.72C222.541 146.68 222.401 146.66 222.221 146.66C222.041 146.64 221.821 146.63 221.561 146.63C220.121 146.63 219.061 146.89 218.381 147.41C217.701 147.91 217.361 148.78 217.361 150.02ZM235.837 158L229.747 136.4H234.427L239.467 156.17H237.997L242.497 136.4H247.747L252.187 156.17H250.747L255.817 136.4H260.287L254.197 158H249.037L244.447 138.62H245.647L240.997 158H235.837ZM268.43 158.3C266.73 158.3 265.25 157.97 263.99 157.31C262.73 156.63 261.75 155.69 261.05 154.49C260.37 153.29 260.03 151.91 260.03 150.35C260.03 148.77 260.37 147.39 261.05 146.21C261.75 145.01 262.72 144.08 263.96 143.42C265.2 142.74 266.64 142.4 268.28 142.4C269.86 142.4 271.23 142.72 272.39 143.36C273.55 144 274.45 144.89 275.09 146.03C275.73 147.17 276.05 148.51 276.05 150.05C276.05 150.37 276.04 150.67 276.02 150.95C276 151.21 275.97 151.46 275.93 151.7H262.67V148.73H272.3L271.52 149.27C271.52 148.03 271.22 147.12 270.62 146.54C270.04 145.94 269.24 145.64 268.22 145.64C267.04 145.64 266.12 146.04 265.46 146.84C264.82 147.64 264.5 148.84 264.5 150.44C264.5 152 264.82 153.16 265.46 153.92C266.12 154.68 267.1 155.06 268.4 155.06C269.12 155.06 269.74 154.94 270.26 154.7C270.78 154.46 271.17 154.07 271.43 153.53H275.66C275.16 155.01 274.3 156.18 273.08 157.04C271.88 157.88 270.33 158.3 268.43 158.3ZM278.339 158V142.7H282.839V158H278.339ZM278.189 140.66V135.8H282.989V140.66H278.189ZM293.329 164.45C291.209 164.45 289.479 164 288.139 163.1C286.819 162.2 286.039 160.98 285.799 159.44H290.059C290.219 159.82 290.559 160.11 291.079 160.31C291.619 160.51 292.299 160.61 293.119 160.61C294.479 160.61 295.469 160.35 296.089 159.83C296.709 159.31 297.019 158.5 297.019 157.4V154.07L297.259 154.13C297.059 155.25 296.479 156.14 295.519 156.8C294.559 157.44 293.369 157.76 291.949 157.76C290.589 157.76 289.399 157.45 288.379 156.83C287.379 156.19 286.599 155.3 286.039 154.16C285.479 153.02 285.199 151.68 285.199 150.14C285.199 148.58 285.489 147.22 286.069 146.06C286.649 144.9 287.459 144 288.499 143.36C289.559 142.72 290.789 142.4 292.189 142.4C293.629 142.4 294.799 142.74 295.699 143.42C296.619 144.1 297.159 145.03 297.319 146.21L297.109 146.24V142.7H301.519V157.34C301.519 159.54 300.789 161.27 299.329 162.53C297.869 163.81 295.869 164.45 293.329 164.45ZM293.509 154.31C294.569 154.31 295.429 153.95 296.089 153.23C296.749 152.49 297.079 151.44 297.079 150.08C297.079 148.72 296.739 147.68 296.059 146.96C295.399 146.22 294.529 145.85 293.449 145.85C292.409 145.85 291.549 146.22 290.869 146.96C290.209 147.7 289.879 148.75 289.879 150.11C289.879 151.47 290.209 152.51 290.869 153.23C291.549 153.95 292.429 154.31 293.509 154.31ZM305.116 158V136.4H309.616V158H305.116ZM315.766 158V148.52C315.766 147.68 315.546 147.05 315.106 146.63C314.686 146.21 314.066 146 313.246 146C312.546 146 311.916 146.16 311.356 146.48C310.816 146.8 310.386 147.24 310.066 147.8C309.766 148.36 309.616 149.02 309.616 149.78L309.226 146.09C309.726 144.97 310.456 144.08 311.416 143.42C312.396 142.74 313.596 142.4 315.016 142.4C316.716 142.4 318.016 142.88 318.916 143.84C319.816 144.78 320.266 146.05 320.266 147.65V158H315.766ZM330.306 158.33C328.346 158.33 326.886 157.86 325.926 156.92C324.986 155.96 324.516 154.51 324.516 152.57V139.28L329.016 137.6V152.72C329.016 153.4 329.206 153.91 329.586 154.25C329.966 154.59 330.556 154.76 331.356 154.76C331.656 154.76 331.936 154.73 332.196 154.67C332.456 154.61 332.716 154.54 332.976 154.46V157.88C332.716 158.02 332.346 158.13 331.866 158.21C331.406 158.29 330.886 158.33 330.306 158.33ZM321.666 146.12V142.7H332.976V146.12H321.666Z" fill="black"/>
<rect x="20" y="766" width="353" height="52" rx="26" fill="#FF657D"/>
<path d="M167.787 797.66C166.966 797.66 166.209 797.516 165.515 797.228C164.833 796.929 164.235 796.513 163.723 795.98C163.211 795.447 162.817 794.817 162.539 794.092C162.262 793.367 162.123 792.572 162.123 791.708C162.123 790.844 162.262 790.055 162.539 789.34C162.817 788.625 163.206 788.007 163.707 787.484C164.219 786.951 164.817 786.54 165.499 786.252C166.193 785.964 166.955 785.82 167.787 785.82C168.705 785.82 169.531 786.001 170.267 786.364C171.003 786.727 171.606 787.239 172.075 787.9C172.555 788.551 172.849 789.319 172.955 790.204H170.907C170.779 789.34 170.433 788.679 169.867 788.22C169.302 787.751 168.614 787.516 167.803 787.516C167.089 787.516 166.465 787.687 165.931 788.028C165.398 788.369 164.982 788.855 164.683 789.484C164.385 790.103 164.235 790.839 164.235 791.692C164.235 792.567 164.385 793.324 164.683 793.964C164.982 794.593 165.403 795.084 165.947 795.436C166.491 795.788 167.115 795.964 167.819 795.964C168.609 795.964 169.286 795.735 169.851 795.276C170.417 794.807 170.774 794.145 170.923 793.292H172.987C172.859 794.167 172.555 794.935 172.075 795.596C171.606 796.257 171.003 796.769 170.267 797.132C169.531 797.484 168.705 797.66 167.787 797.66ZM178.237 797.66C177.373 797.66 176.61 797.479 175.949 797.116C175.298 796.753 174.792 796.252 174.429 795.612C174.066 794.961 173.885 794.22 173.885 793.388C173.885 792.556 174.066 791.825 174.429 791.196C174.792 790.567 175.298 790.076 175.949 789.724C176.61 789.361 177.373 789.18 178.237 789.18C179.112 789.18 179.874 789.361 180.525 789.724C181.176 790.076 181.682 790.567 182.045 791.196C182.408 791.825 182.589 792.556 182.589 793.388C182.589 794.22 182.402 794.961 182.029 795.612C181.666 796.252 181.16 796.753 180.509 797.116C179.858 797.479 179.101 797.66 178.237 797.66ZM178.237 796.044C178.664 796.044 179.048 795.937 179.389 795.724C179.73 795.5 179.997 795.191 180.189 794.796C180.381 794.391 180.477 793.916 180.477 793.372C180.477 792.572 180.264 791.943 179.837 791.484C179.421 791.025 178.888 790.796 178.237 790.796C177.586 790.796 177.048 791.025 176.621 791.484C176.194 791.943 175.981 792.572 175.981 793.372C175.981 793.916 176.077 794.391 176.269 794.796C176.472 795.191 176.738 795.5 177.069 795.724C177.41 795.937 177.8 796.044 178.237 796.044ZM184.072 797.5V789.34H186.04V791.26H186.088V797.5H184.072ZM189.8 797.5V792.348C189.8 791.847 189.672 791.468 189.416 791.212C189.16 790.956 188.787 790.828 188.296 790.828C187.869 790.828 187.485 790.924 187.144 791.116C186.813 791.308 186.552 791.575 186.36 791.916C186.179 792.257 186.088 792.652 186.088 793.1L185.88 791.148C186.157 790.551 186.563 790.076 187.096 789.724C187.629 789.361 188.269 789.18 189.016 789.18C189.901 789.18 190.589 789.431 191.08 789.932C191.581 790.433 191.832 791.1 191.832 791.932V797.5H189.8ZM197.236 797.66C196.233 797.66 195.492 797.425 195.012 796.956C194.543 796.476 194.308 795.761 194.308 794.812V787.484L196.34 786.732V794.86C196.34 795.255 196.447 795.548 196.66 795.74C196.873 795.932 197.209 796.028 197.668 796.028C197.849 796.028 198.009 796.017 198.148 795.996C198.297 795.964 198.436 795.927 198.564 795.884V797.452C198.436 797.516 198.255 797.564 198.02 797.596C197.785 797.639 197.524 797.66 197.236 797.66ZM192.74 790.924V789.34H198.564V790.924H192.74ZM200.025 797.5V789.34H202.041V797.5H200.025ZM199.929 787.996V785.772H202.121V787.996H199.929ZM204.181 797.5V789.34H206.149V791.26H206.197V797.5H204.181ZM209.909 797.5V792.348C209.909 791.847 209.781 791.468 209.525 791.212C209.269 790.956 208.896 790.828 208.405 790.828C207.979 790.828 207.595 790.924 207.253 791.116C206.923 791.308 206.661 791.575 206.469 791.916C206.288 792.257 206.197 792.652 206.197 793.1L205.989 791.148C206.267 790.551 206.672 790.076 207.205 789.724C207.739 789.361 208.379 789.18 209.125 789.18C210.011 789.18 210.699 789.431 211.189 789.932C211.691 790.433 211.941 791.1 211.941 791.932V797.5H209.909ZM216.431 797.66C215.865 797.66 215.375 797.543 214.959 797.308C214.553 797.063 214.239 796.732 214.015 796.316C213.801 795.9 213.695 795.431 213.695 794.908V789.34H215.711V794.492C215.711 794.993 215.833 795.372 216.079 795.628C216.335 795.884 216.692 796.012 217.151 796.012C217.567 796.012 217.929 795.916 218.239 795.724C218.559 795.532 218.809 795.265 218.991 794.924C219.183 794.572 219.279 794.177 219.279 793.74L219.487 795.692C219.22 796.289 218.82 796.769 218.287 797.132C217.764 797.484 217.145 797.66 216.431 797.66ZM219.343 797.5V795.58H219.279V789.34H221.311V797.5H219.343ZM227.064 797.66C226.2 797.66 225.443 797.479 224.792 797.116C224.152 796.753 223.651 796.252 223.288 795.612C222.936 794.972 222.76 794.236 222.76 793.404C222.76 792.572 222.936 791.841 223.288 791.212C223.651 790.572 224.152 790.076 224.792 789.724C225.432 789.361 226.179 789.18 227.032 789.18C227.843 789.18 228.547 789.351 229.144 789.692C229.741 790.023 230.205 790.492 230.536 791.1C230.867 791.708 231.032 792.417 231.032 793.228C231.032 793.377 231.027 793.516 231.016 793.644C231.005 793.772 230.989 793.9 230.968 794.028H224.008V792.62H229.416L229 793.004C229 792.236 228.824 791.66 228.472 791.276C228.12 790.892 227.629 790.7 227 790.7C226.317 790.7 225.773 790.935 225.368 791.404C224.973 791.873 224.776 792.551 224.776 793.436C224.776 794.311 224.973 794.983 225.368 795.452C225.773 795.911 226.344 796.14 227.08 796.14C227.507 796.14 227.88 796.06 228.2 795.9C228.52 795.74 228.755 795.495 228.904 795.164H230.808C230.541 795.932 230.088 796.54 229.448 796.988C228.819 797.436 228.024 797.66 227.064 797.66Z" fill="white"/>
<rect x="192" y="197" width="7" height="7" rx="3.5" fill="#FF657D"/>
<path d="M35.7609 337.004C35.9209 335.18 36.3635 333.409 37.0889 331.692C37.8142 329.975 38.7902 328.332 40.0169 326.764L40.0489 327.132H33.6809V325.484H41.9369V326.972C41.1689 328.081 40.5075 329.18 39.9529 330.268C39.4089 331.345 38.9715 332.439 38.6409 333.548C38.3209 334.657 38.1182 335.809 38.0329 337.004H35.7609ZM47.283 337.164C46.3443 337.164 45.5123 336.913 44.787 336.412C44.0617 335.9 43.491 335.196 43.075 334.3C42.6697 333.393 42.467 332.359 42.467 331.196C42.467 330.033 42.6697 329.015 43.075 328.14C43.4803 327.255 44.0457 326.567 44.771 326.076C45.507 325.575 46.3443 325.324 47.283 325.324C48.2323 325.324 49.0697 325.575 49.795 326.076C50.5203 326.567 51.0857 327.255 51.491 328.14C51.907 329.015 52.115 330.033 52.115 331.196C52.115 332.369 51.907 333.404 51.491 334.3C51.0857 335.196 50.5203 335.9 49.795 336.412C49.0697 336.913 48.2323 337.164 47.283 337.164ZM47.283 335.42C47.8697 335.42 48.355 335.233 48.739 334.86C49.123 334.487 49.411 333.98 49.603 333.34C49.8057 332.7 49.907 331.98 49.907 331.18C49.907 330.38 49.811 329.671 49.619 329.052C49.427 328.433 49.1337 327.948 48.739 327.596C48.355 327.244 47.8697 327.068 47.283 327.068C46.707 327.068 46.2217 327.249 45.827 327.612C45.443 327.964 45.155 328.449 44.963 329.068C44.771 329.687 44.675 330.391 44.675 331.18C44.675 331.991 44.771 332.716 44.963 333.356C45.155 333.996 45.4483 334.503 45.843 334.876C46.2377 335.239 46.7177 335.42 47.283 335.42Z" fill="black"/>
<path d="M128.081 292.164C127.228 292.164 126.481 292.02 125.841 291.732C125.201 291.444 124.7 291.049 124.337 290.548C123.985 290.036 123.809 289.449 123.809 288.788C123.809 288.212 123.937 287.695 124.193 287.236C124.449 286.777 124.796 286.42 125.233 286.164C125.681 285.897 126.193 285.764 126.769 285.764L126.945 286.1C126.369 286.1 125.868 285.993 125.441 285.78C125.015 285.556 124.689 285.247 124.465 284.852C124.241 284.447 124.129 283.983 124.129 283.46C124.129 282.831 124.289 282.281 124.609 281.812C124.94 281.343 125.399 280.98 125.985 280.724C126.583 280.457 127.276 280.324 128.065 280.324C128.865 280.324 129.559 280.457 130.145 280.724C130.732 280.98 131.185 281.343 131.505 281.812C131.836 282.281 132.001 282.825 132.001 283.444C132.001 283.977 131.889 284.447 131.665 284.852C131.441 285.247 131.116 285.556 130.689 285.78C130.263 285.993 129.756 286.1 129.169 286.1L129.361 285.764C129.937 285.764 130.444 285.897 130.881 286.164C131.329 286.42 131.681 286.777 131.937 287.236C132.193 287.695 132.321 288.212 132.321 288.788C132.321 289.449 132.145 290.036 131.793 290.548C131.441 291.06 130.945 291.46 130.305 291.748C129.676 292.025 128.935 292.164 128.081 292.164ZM128.065 290.516C128.705 290.516 129.201 290.351 129.553 290.02C129.916 289.679 130.097 289.215 130.097 288.628C130.097 288.041 129.911 287.583 129.537 287.252C129.175 286.921 128.684 286.756 128.065 286.756C127.436 286.756 126.94 286.921 126.577 287.252C126.215 287.583 126.033 288.041 126.033 288.628C126.033 289.225 126.215 289.689 126.577 290.02C126.94 290.351 127.436 290.516 128.065 290.516ZM128.065 285.236C128.588 285.236 129.009 285.092 129.329 284.804C129.649 284.505 129.809 284.105 129.809 283.604C129.809 283.092 129.644 282.692 129.313 282.404C128.993 282.116 128.572 281.972 128.049 281.972C127.537 281.972 127.121 282.121 126.801 282.42C126.481 282.708 126.321 283.103 126.321 283.604C126.321 284.105 126.481 284.505 126.801 284.804C127.132 285.092 127.553 285.236 128.065 285.236ZM138.299 292.164C137.36 292.164 136.528 291.913 135.803 291.412C135.077 290.9 134.507 290.196 134.091 289.3C133.685 288.393 133.483 287.359 133.483 286.196C133.483 285.033 133.685 284.015 134.091 283.14C134.496 282.255 135.061 281.567 135.787 281.076C136.523 280.575 137.36 280.324 138.299 280.324C139.248 280.324 140.085 280.575 140.811 281.076C141.536 281.567 142.101 282.255 142.507 283.14C142.923 284.015 143.131 285.033 143.131 286.196C143.131 287.369 142.923 288.404 142.507 289.3C142.101 290.196 141.536 290.9 140.811 291.412C140.085 291.913 139.248 292.164 138.299 292.164ZM138.299 290.42C138.885 290.42 139.371 290.233 139.755 289.86C140.139 289.487 140.427 288.98 140.619 288.34C140.821 287.7 140.923 286.98 140.923 286.18C140.923 285.38 140.827 284.671 140.635 284.052C140.443 283.433 140.149 282.948 139.755 282.596C139.371 282.244 138.885 282.068 138.299 282.068C137.723 282.068 137.237 282.249 136.843 282.612C136.459 282.964 136.171 283.449 135.979 284.068C135.787 284.687 135.691 285.391 135.691 286.18C135.691 286.991 135.787 287.716 135.979 288.356C136.171 288.996 136.464 289.503 136.859 289.876C137.253 290.239 137.733 290.42 138.299 290.42Z" fill="black"/>
<path d="M255.828 292.164C255.049 292.164 254.377 292.02 253.812 291.732C253.247 291.444 252.799 291.033 252.468 290.5C252.137 289.967 251.924 289.337 251.828 288.612H253.94C254.004 289.263 254.201 289.743 254.532 290.052C254.863 290.361 255.316 290.516 255.892 290.516C256.297 290.516 256.644 290.436 256.932 290.276C257.22 290.105 257.455 289.849 257.636 289.508C257.817 289.156 257.945 288.703 258.02 288.148C258.105 287.593 258.148 286.927 258.148 286.148V285.108L258.708 285.14C258.601 285.641 258.393 286.079 258.084 286.452C257.775 286.825 257.385 287.119 256.916 287.332C256.447 287.535 255.924 287.636 255.348 287.636C254.623 287.636 253.983 287.481 253.428 287.172C252.884 286.863 252.452 286.436 252.132 285.892C251.823 285.348 251.668 284.724 251.668 284.02C251.668 283.273 251.844 282.628 252.196 282.084C252.548 281.529 253.039 281.097 253.668 280.788C254.297 280.479 255.028 280.324 255.86 280.324C257.343 280.324 258.473 280.82 259.252 281.812C260.041 282.793 260.436 284.228 260.436 286.116C260.436 287.385 260.255 288.473 259.892 289.38C259.54 290.276 259.017 290.964 258.324 291.444C257.641 291.924 256.809 292.164 255.828 292.164ZM256.004 286.02C256.644 286.02 257.145 285.844 257.508 285.492C257.871 285.14 258.052 284.671 258.052 284.084C258.052 283.679 257.967 283.316 257.796 282.996C257.636 282.676 257.401 282.425 257.092 282.244C256.783 282.063 256.415 281.972 255.988 281.972C255.359 281.972 254.863 282.164 254.5 282.548C254.137 282.921 253.956 283.407 253.956 284.004C253.956 284.591 254.132 285.076 254.484 285.46C254.847 285.833 255.353 286.02 256.004 286.02ZM267.064 292.004V288.964L267.16 288.644V282.068L267.96 282.42L263.224 288.772L262.312 288.02H270.44V289.668H261.416V288.084L267.128 280.484H269.192V292.004H267.064Z" fill="black"/>
<path d="M341.285 338.004V328.324L341.589 328.516C341.44 328.836 341.205 329.14 340.885 329.428C340.565 329.705 340.192 329.945 339.765 330.148C339.339 330.351 338.88 330.495 338.389 330.58V328.58C338.816 328.516 339.248 328.377 339.685 328.164C340.123 327.951 340.517 327.7 340.869 327.412C341.221 327.113 341.472 326.804 341.621 326.484H343.317V338.004H341.285ZM349.713 338.164C348.774 338.164 347.942 337.913 347.217 337.412C346.491 336.9 345.921 336.196 345.505 335.3C345.099 334.393 344.897 333.359 344.897 332.196C344.897 331.033 345.099 330.015 345.505 329.14C345.91 328.255 346.475 327.567 347.201 327.076C347.937 326.575 348.774 326.324 349.713 326.324C350.662 326.324 351.499 326.575 352.225 327.076C352.95 327.567 353.515 328.255 353.921 329.14C354.337 330.015 354.545 331.033 354.545 332.196C354.545 333.369 354.337 334.404 353.921 335.3C353.515 336.196 352.95 336.9 352.225 337.412C351.499 337.913 350.662 338.164 349.713 338.164ZM349.713 336.42C350.299 336.42 350.785 336.233 351.169 335.86C351.553 335.487 351.841 334.98 352.033 334.34C352.235 333.7 352.337 332.98 352.337 332.18C352.337 331.38 352.241 330.671 352.049 330.052C351.857 329.433 351.563 328.948 351.169 328.596C350.785 328.244 350.299 328.068 349.713 328.068C349.137 328.068 348.651 328.249 348.257 328.612C347.873 328.964 347.585 329.449 347.393 330.068C347.201 330.687 347.105 331.391 347.105 332.18C347.105 332.991 347.201 333.716 347.393 334.356C347.585 334.996 347.878 335.503 348.273 335.876C348.667 336.239 349.147 336.42 349.713 336.42ZM361.119 338.004V334.964L361.215 334.644V328.068L362.015 328.42L357.279 334.772L356.367 334.02H364.495V335.668H355.471V334.084L361.183 326.484H363.247V338.004H361.119Z" fill="black"/>
<line x1="195.5" y1="283.004" x2="195.5" y2="184.999" stroke="#FF657D" stroke-width="2"/>
<line x1="207.5" y1="224.004" x2="207.5" y2="243.004" stroke="#F6ECFA"/>
<line y1="-0.5" x2="19" y2="-0.5" transform="matrix(0 1 1 0 187 224.004)" stroke="#F6ECFA"/>
<line x1="225.5" y1="225.004" x2="225.5" y2="244.004" stroke="#F6ECFA"/>
<line y1="-0.5" x2="19" y2="-0.5" transform="matrix(0 1 1 0 169 225.004)" stroke="#F6ECFA"/>
<line x1="234.5" y1="227.004" x2="234.5" y2="246.004" stroke="#F6ECFA"/>
<line y1="-0.5" x2="19" y2="-0.5" transform="matrix(0 1 1 0 160 226.004)" stroke="#F6ECFA"/>
<line x1="243.5" y1="228.004" x2="243.5" y2="247.004" stroke="#F6ECFA"/>
<line y1="-0.5" x2="19" y2="-0.5" transform="matrix(0 1 1 0 151 228.004)" stroke="#F6ECFA"/>
<line x1="252.5" y1="230.004" x2="252.5" y2="249.004" stroke="#F6ECFA"/>
<line y1="-0.5" x2="19" y2="-0.5" transform="matrix(0 1 1 0 142 230.004)" stroke="#F6ECFA"/>
<line x1="270.5" y1="235.004" x2="270.5" y2="254.004" stroke="#F6ECFA"/>
<line y1="-0.5" x2="19" y2="-0.5" transform="matrix(0 1 1 0 124 235.004)" stroke="#F6ECFA"/>
<line x1="279.5" y1="238.004" x2="279.5" y2="257.004" stroke="#F6ECFA"/>
<line y1="-0.5" x2="19" y2="-0.5" transform="matrix(0 1 1 0 115 238.004)" stroke="#F6ECFA"/>
<line x1="288.5" y1="241.004" x2="288.5" y2="260.004" stroke="#F6ECFA"/>
<line y1="-0.5" x2="19" y2="-0.5" transform="matrix(0 1 1 0 106 241.004)" stroke="#F6ECFA"/>
<line x1="297.5" y1="245.004" x2="297.5" y2="264.004" stroke="#F6ECFA"/>
<line y1="-0.5" x2="19" y2="-0.5" transform="matrix(0 1 1 0 97 245.004)" stroke="#F6ECFA"/>
<line x1="315.5" y1="254.004" x2="315.5" y2="273.004" stroke="#F6ECFA"/>
<line y1="-0.5" x2="19" y2="-0.5" transform="matrix(0 1 1 0 79 254.004)" stroke="#F6ECFA"/>
<line x1="324.5" y1="259.004" x2="324.5" y2="278.004" stroke="#F6ECFA"/>
<line y1="-0.5" x2="19" y2="-0.5" transform="matrix(0 1 1 0 70 259.004)" stroke="#F6ECFA"/>
<line x1="333.5" y1="265.004" x2="333.5" y2="284.004" stroke="#F6ECFA"/>
<line y1="-0.5" x2="19" y2="-0.5" transform="matrix(0 1 1 0 61 265.004)" stroke="#F6ECFA"/>
<line x1="342.5" y1="271.004" x2="342.5" y2="290.004" stroke="#F6ECFA"/>
<line y1="-0.5" x2="19" y2="-0.5" transform="matrix(0 1 1 0 52 271.004)" stroke="#F6ECFA"/>
<line x1="360.5" y1="286.004" x2="360.5" y2="305.004" stroke="#F6ECFA"/>
<line y1="-0.5" x2="19" y2="-0.5" transform="matrix(0 1 1 0 34 286.004)" stroke="#F6ECFA"/>
<path d="M369 294.004V313.004" stroke="#F6ECFA"/>
<path d="M25 294.004V313.004" stroke="#F6ECFA"/>
<path d="M378 304.004V323.004" stroke="#F6ECFA"/>
<path d="M16 302.004V321.004" stroke="#F6ECFA"/>
<path d="M387 313.004V332.004" stroke="#F6ECFA"/>
<path d="M7 312.004V331.004" stroke="#F6ECFA"/>
<line x1="216.5" y1="225.004" x2="216.5" y2="258.004" stroke="#5682FF"/>
<line y1="-0.5" x2="33" y2="-0.5" transform="matrix(0 1 1 0 178 225.004)" stroke="#5682FF"/>
<line x1="261.5" y1="232.004" x2="261.5" y2="272.004" stroke="#FF657D"/>
<line x1="133.5" y1="232.004" x2="133.5" y2="272.004" stroke="#FF657D"/>
<line x1="306.5" y1="250.004" x2="306.5" y2="283.004" stroke="#5682FF"/>
<line y1="-0.5" x2="33" y2="-0.5" transform="matrix(0 1 1 0 88 249.004)" stroke="#5682FF"/>
<line x1="351.5" y1="278.004" x2="351.5" y2="318.004" stroke="#FF657D"/>
<line x1="43.5" y1="277.004" x2="43.5" y2="317.004" stroke="#FF657D"/>
<rect x="192" y="279.004" width="7" height="7" rx="3.5" fill="#FF657D"/>
<path d="M178.256 412.304C176.616 412.304 175.176 412.034 173.936 411.494C172.696 410.954 171.726 410.204 171.026 409.244C170.326 408.284 169.976 407.164 169.976 405.884C169.976 404.804 170.206 403.844 170.666 403.004C171.146 402.164 171.806 401.504 172.646 401.024C173.506 400.544 174.496 400.304 175.616 400.304L176.096 400.934C174.916 400.934 173.916 400.744 173.096 400.364C172.276 399.964 171.646 399.394 171.206 398.654C170.786 397.914 170.576 397.044 170.576 396.044C170.576 394.844 170.886 393.804 171.506 392.924C172.146 392.024 173.036 391.334 174.176 390.854C175.316 390.354 176.666 390.104 178.226 390.104C179.786 390.104 181.136 390.354 182.276 390.854C183.416 391.334 184.296 392.024 184.916 392.924C185.556 393.804 185.876 394.844 185.876 396.044C185.876 397.044 185.656 397.914 185.216 398.654C184.796 399.394 184.176 399.964 183.356 400.364C182.536 400.744 181.526 400.934 180.326 400.934L180.836 400.304C181.956 400.304 182.936 400.544 183.776 401.024C184.636 401.504 185.296 402.164 185.756 403.004C186.236 403.844 186.476 404.814 186.476 405.914C186.476 407.194 186.126 408.314 185.426 409.274C184.746 410.234 183.786 410.984 182.546 411.524C181.326 412.044 179.896 412.304 178.256 412.304ZM178.226 408.764C179.286 408.764 180.106 408.484 180.686 407.924C181.286 407.364 181.586 406.574 181.586 405.554C181.586 404.554 181.276 403.774 180.656 403.214C180.036 402.654 179.226 402.374 178.226 402.374C177.206 402.374 176.386 402.654 175.766 403.214C175.166 403.774 174.866 404.554 174.866 405.554C174.866 406.594 175.166 407.394 175.766 407.954C176.366 408.494 177.186 408.764 178.226 408.764ZM178.226 399.134C179.046 399.134 179.716 398.894 180.236 398.414C180.756 397.914 181.016 397.234 181.016 396.374C181.016 395.514 180.756 394.844 180.236 394.364C179.716 393.884 179.036 393.644 178.196 393.644C177.376 393.644 176.706 393.894 176.186 394.394C175.686 394.874 175.436 395.534 175.436 396.374C175.436 397.234 175.696 397.914 176.216 398.414C176.756 398.894 177.426 399.134 178.226 399.134ZM191.125 412.004C191.425 408.584 192.265 405.294 193.645 402.134C195.045 398.954 196.815 396.034 198.955 393.374V393.944H187.375V390.404H203.305V393.704C201.945 395.644 200.755 397.594 199.735 399.554C198.715 401.514 197.895 403.524 197.275 405.584C196.655 407.624 196.255 409.764 196.075 412.004H191.125ZM204.711 412.004V400.484H207.175V412.004H204.711ZM206.391 406.02L211.575 400.484H214.855L209.383 406.02H206.391ZM211.831 412.004L206.359 406.02H209.383L215.175 412.004H211.831ZM219.537 415.444C218.407 415.444 217.484 415.204 216.769 414.724C216.065 414.244 215.649 413.593 215.521 412.772H217.793C217.879 412.975 218.06 413.129 218.337 413.236C218.625 413.343 218.988 413.396 219.425 413.396C220.151 413.396 220.679 413.257 221.009 412.98C221.34 412.703 221.505 412.271 221.505 411.684V409.908L221.633 409.94C221.527 410.537 221.217 411.012 220.705 411.364C220.193 411.705 219.559 411.876 218.801 411.876C218.076 411.876 217.441 411.711 216.897 411.38C216.364 411.039 215.948 410.564 215.649 409.956C215.351 409.348 215.201 408.633 215.201 407.812C215.201 406.98 215.356 406.255 215.665 405.636C215.975 405.017 216.407 404.537 216.961 404.196C217.527 403.855 218.183 403.684 218.929 403.684C219.697 403.684 220.321 403.865 220.801 404.228C221.292 404.591 221.58 405.087 221.665 405.716L221.553 405.732V403.844H223.905V411.652C223.905 412.825 223.516 413.748 222.737 414.42C221.959 415.103 220.892 415.444 219.537 415.444ZM219.633 410.036C220.199 410.036 220.657 409.844 221.009 409.46C221.361 409.065 221.537 408.505 221.537 407.78C221.537 407.055 221.356 406.5 220.993 406.116C220.641 405.721 220.177 405.524 219.601 405.524C219.047 405.524 218.588 405.721 218.225 406.116C217.873 406.511 217.697 407.071 217.697 407.796C217.697 408.521 217.873 409.076 218.225 409.46C218.588 409.844 219.057 410.036 219.633 410.036Z" fill="black"/>
<line x1="71" y1="477.65" x2="185" y2="477.65" stroke="url(#paint1_linear_231_12726)" stroke-width="2.7071"/>
<line y1="-1.35355" x2="114" y2="-1.35355" transform="matrix(-1 0 0 1 320 479)" stroke="url(#paint2_linear_231_12726)" stroke-width="2.7071"/>
<rect x="184" y="467" width="24" height="24" rx="12" fill="#FF657D"/>
<rect x="190" y="473" width="12" height="12" rx="6" fill="white"/>
<path d="M45.4795 26.0597C44.4644 26.0597 43.6358 25.7438 42.9936 25.1119C42.3617 24.4697 42.0458 23.61 42.0458 22.5327C42.0458 22.0356 42.1183 21.5591 42.2633 21.1033C42.4187 20.6476 42.6466 20.2488 42.947 19.907C43.2474 19.5548 43.6151 19.2803 44.0501 19.0835C44.4955 18.8867 44.9979 18.7883 45.5572 18.7883C46.3755 18.7883 47.0436 18.9592 47.5615 19.301C48.0898 19.6325 48.4834 20.0572 48.7424 20.5751C49.0013 21.093 49.1722 21.6264 49.2551 22.1754C49.3379 22.7244 49.3794 23.2837 49.3794 23.8534C49.3794 24.3299 49.3379 24.884 49.2551 25.5159C49.1826 26.1374 49.0168 26.8003 48.7579 27.5047C48.4989 28.1986 48.095 28.7891 47.546 29.2759C46.997 29.7627 46.2875 30.0061 45.4174 30.0061C44.8166 30.0061 44.3039 29.9077 43.8792 29.7109C43.4545 29.5245 43.1179 29.2811 42.8693 28.9807C42.6207 28.6699 42.4394 28.354 42.3255 28.0329C42.2219 27.7015 42.1701 27.3855 42.1701 27.0851H43.5374C43.5788 27.6445 43.7601 28.0847 44.0812 28.4058C44.4023 28.7166 44.8373 28.8719 45.3863 28.8719C46.1321 28.8719 46.7122 28.5456 47.1265 27.8931C47.5512 27.2405 47.8464 26.2047 48.0121 24.7856L47.981 24.7546C47.7842 25.1585 47.4476 25.4796 46.9711 25.7179C46.505 25.9458 46.0078 26.0597 45.4795 26.0597ZM45.6815 24.8323C45.899 24.8323 46.1217 24.8012 46.3496 24.739C46.5879 24.6665 46.8157 24.5422 47.0333 24.3661C47.2508 24.19 47.4269 23.9363 47.5615 23.6048C47.7065 23.2734 47.779 22.8538 47.779 22.3463C47.779 21.673 47.5926 21.1189 47.2197 20.6838C46.8572 20.2384 46.3082 20.0157 45.5728 20.0157C44.9409 20.0157 44.4282 20.2436 44.0346 20.6994C43.6513 21.1448 43.4597 21.7352 43.4597 22.4706C43.4597 22.9678 43.527 23.3769 43.6617 23.698C43.7963 24.0088 43.9724 24.247 44.1899 24.4127C44.4178 24.5785 44.6561 24.6924 44.9047 24.7546C45.1533 24.8064 45.4122 24.8323 45.6815 24.8323ZM52.6214 28.064V29.7109H51.0056V28.064H52.6214ZM52.6214 21.6937V23.3407H51.0056V21.6937H52.6214ZM61.7312 27.0541H60.1309V29.7109H58.7636V27.0541H53.9937V25.7179L58.9967 18.7883H60.1309V25.8732H61.7312V27.0541ZM58.7325 20.9169L55.2522 25.8732H58.7636V20.9169H58.7325ZM67.4437 18.7883V29.7109H65.9832V21.9579H63.4351V20.8703C63.9426 20.8392 64.3466 20.7926 64.647 20.7304C64.9474 20.6683 65.2063 20.5699 65.4239 20.4352C65.6414 20.3006 65.8278 20.1038 65.9832 19.8448C66.1386 19.5859 66.268 19.2337 66.3716 18.7883H67.4437Z" fill="black"/>
<path opacity="0.35" d="M341.709 17.8496H357.246C358.999 17.8498 360.419 19.2708 360.419 21.0234V25.5928C360.419 27.3454 358.999 28.7664 357.246 28.7666H341.709C339.956 28.7666 338.535 27.3455 338.535 25.5928V21.0234C338.535 19.2707 339.956 17.8496 341.709 17.8496Z" fill="black" stroke="black" stroke-width="0.9643"/>
<path opacity="0.4" d="M361.816 21.9375V25.7947C362.592 25.468 363.097 24.7081 363.097 23.8661C363.097 23.0241 362.592 22.2642 361.816 21.9375Z" fill="black"/>
<path d="M339.881 21.0232C339.881 20.0137 340.699 19.1953 341.709 19.1953H357.246C358.255 19.1953 359.074 20.0137 359.074 21.0232V25.593C359.074 26.6025 358.256 27.4209 357.246 27.4209H341.709C340.699 27.4209 339.881 26.6025 339.881 25.593V21.0232Z" fill="black"/>
<path d="M321.706 26.5846C323.004 25.4642 324.904 25.4642 326.202 26.5846C326.267 26.6448 326.305 26.7302 326.307 26.8199C326.308 26.9096 326.275 26.9963 326.212 27.0592L324.18 29.152C324.12 29.2134 324.039 29.2486 323.954 29.2486C323.869 29.2486 323.788 29.2135 323.729 29.152L321.696 27.0592C321.634 26.9963 321.599 26.9097 321.601 26.8199C321.602 26.7301 321.641 26.6448 321.706 26.5846ZM318.959 24.0035C321.755 21.3489 326.085 21.349 328.881 24.0035C328.944 24.0657 328.98 24.1513 328.98 24.2408C328.981 24.3303 328.947 24.4166 328.886 24.4801L327.711 25.692C327.59 25.8156 327.395 25.8181 327.271 25.6979C326.352 24.8492 325.158 24.3794 323.919 24.3795C322.681 24.38 321.488 24.8498 320.57 25.6979C320.446 25.8183 320.25 25.8157 320.129 25.692L318.955 24.4801C318.893 24.4166 318.859 24.3304 318.859 24.2408C318.86 24.1514 318.896 24.0657 318.959 24.0035ZM316.215 21.4273C320.503 17.2325 327.268 17.2326 331.557 21.4273C331.619 21.4897 331.654 21.5748 331.654 21.6637C331.655 21.7525 331.621 21.8379 331.56 21.901L330.384 23.1129C330.263 23.2372 330.065 23.2382 329.942 23.1158C328.309 21.5305 326.141 20.6463 323.887 20.6461C321.632 20.6461 319.463 21.5302 317.829 23.1158C317.706 23.2383 317.51 23.2371 317.389 23.1129L316.212 21.901C316.151 21.8379 316.117 21.7525 316.117 21.6637C316.118 21.5748 316.153 21.4896 316.215 21.4273Z" fill="black"/>
<path d="M301.495 21.0231C301.495 20.5183 301.904 20.1092 302.409 20.1092H303.323C303.828 20.1092 304.237 20.5183 304.237 21.0231V28.3347C304.237 28.8395 303.828 29.2487 303.323 29.2487H302.409C301.904 29.2487 301.495 28.8395 301.495 28.3347V21.0231Z" fill="black"/>
<path d="M306.065 19.1952C306.065 18.6904 306.474 18.2812 306.979 18.2812H307.893C308.397 18.2812 308.807 18.6904 308.807 19.1952V28.3347C308.807 28.8395 308.397 29.2487 307.893 29.2487H306.979C306.474 29.2487 306.065 28.8395 306.065 28.3347V19.1952Z" fill="black"/>
<path d="M296.925 24.2219C296.925 23.7172 297.334 23.308 297.839 23.308H298.753C299.258 23.308 299.667 23.7172 299.667 24.2219V28.3347C299.667 28.8395 299.258 29.2487 298.753 29.2487H297.839C297.334 29.2487 296.925 28.8395 296.925 28.3347V24.2219Z" fill="black"/>
<path d="M292.355 26.5068C292.355 26.0021 292.765 25.5929 293.269 25.5929H294.183C294.688 25.5929 295.097 26.0021 295.097 26.5068V28.3347C295.097 28.8395 294.688 29.2487 294.183 29.2487H293.269C292.765 29.2487 292.355 28.8395 292.355 28.3347V26.5068Z" fill="black"/>
</g>
<defs>
<linearGradient id="paint0_linear_231_12726" x1="196.5" y1="0" x2="196.5" y2="852" gradientUnits="userSpaceOnUse">
<stop stop-color="white"/>
<stop offset="1" stop-color="#FFF0F2"/>
</linearGradient>
<linearGradient id="paint1_linear_231_12726" x1="71" y1="479.504" x2="155.918" y2="479.571" gradientUnits="userSpaceOnUse">
<stop stop-color="white"/>
<stop offset="1" stop-color="#EB4A9B" stop-opacity="0.5"/>
</linearGradient>
<linearGradient id="paint2_linear_231_12726" x1="0" y1="0.5" x2="84.9179" y2="0.567491" gradientUnits="userSpaceOnUse">
<stop stop-color="white"/>
<stop offset="1" stop-color="#EB4A9B" stop-opacity="0.5"/>
</linearGradient>
<clipPath id="clip0_231_12726">
<rect width="393" height="852" rx="40" fill="white"/>
</clipPath>
</defs>
</svg>