<svg xmlns="http://www.w3.org/2000/svg" width="393" height="852" viewBox="0 0 393 852" fill="none">
<g clip-path="url(#clip0_231_12792)">
<rect width="393" height="852" rx="40" fill="url(#paint0_linear_231_12792)"/>
<rect x="130" y="839" width="134" height="5" rx="2.5" fill="black"/>
<rect x="20" y="65" width="44" height="44" rx="15" fill="#F9F9F9"/>
<path d="M45 94L38 87L45 80" stroke="black" stroke-width="1.5" stroke-linecap="round" stroke-linejoin="round"/>
<rect x="88" y="83" width="30" height="8" rx="4" fill="#FFF3F4"/>
<rect x="121" y="83" width="30" height="8" rx="4" fill="#FFF3F4"/>
<rect x="154" y="83" width="30" height="8" rx="4" fill="#FFF3F4"/>
<rect x="187" y="83" width="30" height="8" rx="4" fill="#FF657D"/>
<rect x="220" y="83" width="30" height="8" rx="4" fill="#FFF3F4"/>
<rect x="253" y="83" width="30" height="8" rx="4" fill="#FFF3F4"/>
<rect x="286" y="83" width="30" height="8" rx="4" fill="#FFF3F4"/>
<path d="M346.525 92.5V89.46L346.621 89.14V82.564L347.421 82.916L342.685 89.268L341.773 88.516H349.901V90.164H340.877V88.58L346.589 80.98H348.653V92.5H346.525ZM353.975 93.668L358.151 80.292H359.911L355.735 93.668H353.975ZM366.05 92.5C366.21 90.676 366.653 88.9053 367.378 87.188C368.103 85.4707 369.079 83.828 370.306 82.26L370.338 82.628H363.97V80.98H372.226V82.468C371.458 83.5773 370.797 84.676 370.242 85.764C369.698 86.8413 369.261 87.9347 368.93 89.044C368.61 90.1533 368.407 91.3053 368.322 92.5H366.05Z" fill="black"/>
<path d="M71.9526 158V139.94H64.9026V136.4H83.6226V139.94H76.5726V158H71.9526ZM89.8232 158.3C88.1232 158.3 86.6432 157.97 85.3832 157.31C84.1232 156.63 83.1432 155.69 82.4432 154.49C81.7632 153.29 81.4232 151.91 81.4232 150.35C81.4232 148.77 81.7632 147.39 82.4432 146.21C83.1432 145.01 84.1132 144.08 85.3532 143.42C86.5932 142.74 88.0332 142.4 89.6732 142.4C91.2532 142.4 92.6232 142.72 93.7832 143.36C94.9432 144 95.8432 144.89 96.4832 146.03C97.1232 147.17 97.4432 148.51 97.4432 150.05C97.4432 150.37 97.4332 150.67 97.4132 150.95C97.3932 151.21 97.3632 151.46 97.3232 151.7H84.0632V148.73H93.6932L92.9132 149.27C92.9132 148.03 92.6132 147.12 92.0132 146.54C91.4332 145.94 90.6332 145.64 89.6132 145.64C88.4332 145.64 87.5132 146.04 86.8532 146.84C86.2132 147.64 85.8932 148.84 85.8932 150.44C85.8932 152 86.2132 153.16 86.8532 153.92C87.5132 154.68 88.4932 155.06 89.7932 155.06C90.5132 155.06 91.1332 154.94 91.6532 154.7C92.1732 154.46 92.5632 154.07 92.8232 153.53H97.0532C96.5532 155.01 95.6932 156.18 94.4732 157.04C93.2732 157.88 91.7232 158.3 89.8232 158.3ZM99.8498 158V136.4H104.35V158H99.8498ZM107.936 158V136.4H112.436V158H107.936ZM130.405 158.3C127.325 158.3 125.015 157.46 123.475 155.78C121.955 154.08 121.195 151.61 121.195 148.37V136.4H125.815V149.18C125.815 151.06 126.225 152.44 127.045 153.32C127.865 154.2 128.995 154.64 130.435 154.64C131.875 154.64 133.005 154.2 133.825 153.32C134.645 152.44 135.055 151.07 135.055 149.21V136.4H139.675V148.43C139.675 151.63 138.905 154.08 137.365 155.78C135.825 157.46 133.505 158.3 130.405 158.3ZM148.833 158.3C146.593 158.3 144.813 157.85 143.493 156.95C142.173 156.05 141.453 154.81 141.333 153.23H145.353C145.453 153.91 145.793 154.43 146.373 154.79C146.973 155.13 147.793 155.3 148.833 155.3C149.773 155.3 150.453 155.17 150.873 154.91C151.313 154.63 151.533 154.24 151.533 153.74C151.533 153.36 151.403 153.07 151.143 152.87C150.903 152.65 150.453 152.47 149.793 152.33L147.333 151.82C145.513 151.44 144.173 150.87 143.313 150.11C142.453 149.33 142.023 148.33 142.023 147.11C142.023 145.63 142.593 144.48 143.733 143.66C144.873 142.82 146.463 142.4 148.503 142.4C150.523 142.4 152.133 142.81 153.333 143.63C154.533 144.43 155.193 145.55 155.313 146.99H151.293C151.213 146.47 150.933 146.08 150.453 145.82C149.973 145.54 149.293 145.4 148.413 145.4C147.613 145.4 147.013 145.52 146.613 145.76C146.233 145.98 146.043 146.3 146.043 146.72C146.043 147.08 146.203 147.37 146.523 147.59C146.843 147.79 147.373 147.97 148.113 148.13L150.873 148.7C152.413 149.02 153.573 149.62 154.353 150.5C155.153 151.36 155.553 152.38 155.553 153.56C155.553 155.06 154.963 156.23 153.783 157.07C152.623 157.89 150.973 158.3 148.833 158.3ZM170.053 158V149.27L162.013 136.4H167.563L173.923 147.83H171.313L177.643 136.4H182.713L174.673 149.27V158H170.053ZM188.731 158.3C187.051 158.3 185.571 157.97 184.291 157.31C183.031 156.63 182.041 155.69 181.321 154.49C180.621 153.27 180.271 151.87 180.271 150.29C180.271 148.71 180.621 147.33 181.321 146.15C182.041 144.97 183.031 144.05 184.291 143.39C185.571 142.73 187.051 142.4 188.731 142.4C190.431 142.4 191.911 142.73 193.171 143.39C194.451 144.05 195.441 144.97 196.141 146.15C196.841 147.33 197.191 148.71 197.191 150.29C197.191 151.87 196.831 153.27 196.111 154.49C195.411 155.69 194.421 156.63 193.141 157.31C191.881 157.97 190.411 158.3 188.731 158.3ZM188.731 154.76C189.431 154.76 190.061 154.58 190.621 154.22C191.201 153.86 191.661 153.35 192.001 152.69C192.341 152.01 192.511 151.2 192.511 150.26C192.511 148.88 192.141 147.82 191.401 147.08C190.681 146.32 189.791 145.94 188.731 145.94C187.671 145.94 186.771 146.32 186.031 147.08C185.311 147.84 184.951 148.9 184.951 150.26C184.951 151.2 185.121 152.01 185.461 152.69C185.801 153.35 186.251 153.86 186.811 154.22C187.391 154.58 188.031 154.76 188.731 154.76ZM204.526 158.3C203.446 158.3 202.516 158.07 201.736 157.61C200.976 157.13 200.396 156.5 199.996 155.72C199.596 154.92 199.396 154.03 199.396 153.05V142.7H203.896V152.18C203.896 153.02 204.106 153.65 204.526 154.07C204.946 154.49 205.536 154.7 206.296 154.7C206.976 154.7 207.576 154.54 208.096 154.22C208.616 153.9 209.026 153.46 209.326 152.9C209.646 152.32 209.806 151.66 209.806 150.92L210.196 154.61C209.696 155.71 208.966 156.6 208.006 157.28C207.046 157.96 205.886 158.3 204.526 158.3ZM209.896 158V154.4H209.806V142.7H214.306V158H209.896ZM217.916 158V142.7H222.326V146.3H222.416V158H217.916ZM222.416 150.02L222.026 146.39C222.386 145.09 222.976 144.1 223.796 143.42C224.616 142.74 225.636 142.4 226.856 142.4C227.236 142.4 227.516 142.44 227.696 142.52V146.72C227.596 146.68 227.456 146.66 227.276 146.66C227.096 146.64 226.876 146.63 226.616 146.63C225.176 146.63 224.116 146.89 223.436 147.41C222.756 147.91 222.416 148.78 222.416 150.02ZM235.282 158V136.4H239.902V158H235.282ZM249.262 158V136.4H253.882V158H249.262ZM237.442 144.98H251.362V148.52H237.442V144.98ZM264.374 158.3C262.674 158.3 261.194 157.97 259.934 157.31C258.674 156.63 257.694 155.69 256.994 154.49C256.314 153.29 255.974 151.91 255.974 150.35C255.974 148.77 256.314 147.39 256.994 146.21C257.694 145.01 258.664 144.08 259.904 143.42C261.144 142.74 262.584 142.4 264.224 142.4C265.804 142.4 267.174 142.72 268.334 143.36C269.494 144 270.394 144.89 271.034 146.03C271.674 147.17 271.994 148.51 271.994 150.05C271.994 150.37 271.984 150.67 271.964 150.95C271.944 151.21 271.914 151.46 271.874 151.7H258.614V148.73H268.244L267.464 149.27C267.464 148.03 267.164 147.12 266.564 146.54C265.984 145.94 265.184 145.64 264.164 145.64C262.984 145.64 262.064 146.04 261.404 146.84C260.764 147.64 260.444 148.84 260.444 150.44C260.444 152 260.764 153.16 261.404 153.92C262.064 154.68 263.044 155.06 264.344 155.06C265.064 155.06 265.684 154.94 266.204 154.7C266.724 154.46 267.114 154.07 267.374 153.53H271.604C271.104 155.01 270.244 156.18 269.024 157.04C267.824 157.88 266.274 158.3 264.374 158.3ZM274.283 158V142.7H278.783V158H274.283ZM274.133 140.66V135.8H278.933V140.66H274.133ZM289.273 164.45C287.153 164.45 285.423 164 284.083 163.1C282.763 162.2 281.983 160.98 281.743 159.44H286.003C286.163 159.82 286.503 160.11 287.023 160.31C287.563 160.51 288.243 160.61 289.063 160.61C290.423 160.61 291.413 160.35 292.033 159.83C292.653 159.31 292.963 158.5 292.963 157.4V154.07L293.203 154.13C293.003 155.25 292.423 156.14 291.463 156.8C290.503 157.44 289.313 157.76 287.893 157.76C286.533 157.76 285.343 157.45 284.323 156.83C283.323 156.19 282.543 155.3 281.983 154.16C281.423 153.02 281.143 151.68 281.143 150.14C281.143 148.58 281.433 147.22 282.013 146.06C282.593 144.9 283.403 144 284.443 143.36C285.503 142.72 286.733 142.4 288.133 142.4C289.573 142.4 290.743 142.74 291.643 143.42C292.563 144.1 293.103 145.03 293.263 146.21L293.053 146.24V142.7H297.463V157.34C297.463 159.54 296.733 161.27 295.273 162.53C293.813 163.81 291.813 164.45 289.273 164.45ZM289.453 154.31C290.513 154.31 291.373 153.95 292.033 153.23C292.693 152.49 293.023 151.44 293.023 150.08C293.023 148.72 292.683 147.68 292.003 146.96C291.343 146.22 290.473 145.85 289.393 145.85C288.353 145.85 287.493 146.22 286.813 146.96C286.153 147.7 285.823 148.75 285.823 150.11C285.823 151.47 286.153 152.51 286.813 153.23C287.493 153.95 288.373 154.31 289.453 154.31ZM301.061 158V136.4H305.561V158H301.061ZM311.711 158V148.52C311.711 147.68 311.491 147.05 311.051 146.63C310.631 146.21 310.011 146 309.191 146C308.491 146 307.861 146.16 307.301 146.48C306.761 146.8 306.331 147.24 306.011 147.8C305.711 148.36 305.561 149.02 305.561 149.78L305.171 146.09C305.671 144.97 306.401 144.08 307.361 143.42C308.341 142.74 309.541 142.4 310.961 142.4C312.661 142.4 313.961 142.88 314.861 143.84C315.761 144.78 316.211 146.05 316.211 147.65V158H311.711ZM326.25 158.33C324.29 158.33 322.83 157.86 321.87 156.92C320.93 155.96 320.46 154.51 320.46 152.57V139.28L324.96 137.6V152.72C324.96 153.4 325.15 153.91 325.53 154.25C325.91 154.59 326.5 154.76 327.3 154.76C327.6 154.76 327.88 154.73 328.14 154.67C328.4 154.61 328.66 154.54 328.92 154.46V157.88C328.66 158.02 328.29 158.13 327.81 158.21C327.35 158.29 326.83 158.33 326.25 158.33ZM317.61 146.12V142.7H328.92V146.12H317.61Z" fill="black"/>
<rect x="20" y="766" width="353" height="52" rx="26" fill="#FF657D"/>
<path d="M167.787 797.66C166.966 797.66 166.209 797.516 165.515 797.228C164.833 796.929 164.235 796.513 163.723 795.98C163.211 795.447 162.817 794.817 162.539 794.092C162.262 793.367 162.123 792.572 162.123 791.708C162.123 790.844 162.262 790.055 162.539 789.34C162.817 788.625 163.206 788.007 163.707 787.484C164.219 786.951 164.817 786.54 165.499 786.252C166.193 785.964 166.955 785.82 167.787 785.82C168.705 785.82 169.531 786.001 170.267 786.364C171.003 786.727 171.606 787.239 172.075 787.9C172.555 788.551 172.849 789.319 172.955 790.204H170.907C170.779 789.34 170.433 788.679 169.867 788.22C169.302 787.751 168.614 787.516 167.803 787.516C167.089 787.516 166.465 787.687 165.931 788.028C165.398 788.369 164.982 788.855 164.683 789.484C164.385 790.103 164.235 790.839 164.235 791.692C164.235 792.567 164.385 793.324 164.683 793.964C164.982 794.593 165.403 795.084 165.947 795.436C166.491 795.788 167.115 795.964 167.819 795.964C168.609 795.964 169.286 795.735 169.851 795.276C170.417 794.807 170.774 794.145 170.923 793.292H172.987C172.859 794.167 172.555 794.935 172.075 795.596C171.606 796.257 171.003 796.769 170.267 797.132C169.531 797.484 168.705 797.66 167.787 797.66ZM178.237 797.66C177.373 797.66 176.61 797.479 175.949 797.116C175.298 796.753 174.792 796.252 174.429 795.612C174.066 794.961 173.885 794.22 173.885 793.388C173.885 792.556 174.066 791.825 174.429 791.196C174.792 790.567 175.298 790.076 175.949 789.724C176.61 789.361 177.373 789.18 178.237 789.18C179.112 789.18 179.874 789.361 180.525 789.724C181.176 790.076 181.682 790.567 182.045 791.196C182.408 791.825 182.589 792.556 182.589 793.388C182.589 794.22 182.402 794.961 182.029 795.612C181.666 796.252 181.16 796.753 180.509 797.116C179.858 797.479 179.101 797.66 178.237 797.66ZM178.237 796.044C178.664 796.044 179.048 795.937 179.389 795.724C179.73 795.5 179.997 795.191 180.189 794.796C180.381 794.391 180.477 793.916 180.477 793.372C180.477 792.572 180.264 791.943 179.837 791.484C179.421 791.025 178.888 790.796 178.237 790.796C177.586 790.796 177.048 791.025 176.621 791.484C176.194 791.943 175.981 792.572 175.981 793.372C175.981 793.916 176.077 794.391 176.269 794.796C176.472 795.191 176.738 795.5 177.069 795.724C177.41 795.937 177.8 796.044 178.237 796.044ZM184.072 797.5V789.34H186.04V791.26H186.088V797.5H184.072ZM189.8 797.5V792.348C189.8 791.847 189.672 791.468 189.416 791.212C189.16 790.956 188.787 790.828 188.296 790.828C187.869 790.828 187.485 790.924 187.144 791.116C186.813 791.308 186.552 791.575 186.36 791.916C186.179 792.257 186.088 792.652 186.088 793.1L185.88 791.148C186.157 790.551 186.563 790.076 187.096 789.724C187.629 789.361 188.269 789.18 189.016 789.18C189.901 789.18 190.589 789.431 191.08 789.932C191.581 790.433 191.832 791.1 191.832 791.932V797.5H189.8ZM197.236 797.66C196.233 797.66 195.492 797.425 195.012 796.956C194.543 796.476 194.308 795.761 194.308 794.812V787.484L196.34 786.732V794.86C196.34 795.255 196.447 795.548 196.66 795.74C196.873 795.932 197.209 796.028 197.668 796.028C197.849 796.028 198.009 796.017 198.148 795.996C198.297 795.964 198.436 795.927 198.564 795.884V797.452C198.436 797.516 198.255 797.564 198.02 797.596C197.785 797.639 197.524 797.66 197.236 797.66ZM192.74 790.924V789.34H198.564V790.924H192.74ZM200.025 797.5V789.34H202.041V797.5H200.025ZM199.929 787.996V785.772H202.121V787.996H199.929ZM204.181 797.5V789.34H206.149V791.26H206.197V797.5H204.181ZM209.909 797.5V792.348C209.909 791.847 209.781 791.468 209.525 791.212C209.269 790.956 208.896 790.828 208.405 790.828C207.979 790.828 207.595 790.924 207.253 791.116C206.923 791.308 206.661 791.575 206.469 791.916C206.288 792.257 206.197 792.652 206.197 793.1L205.989 791.148C206.267 790.551 206.672 790.076 207.205 789.724C207.739 789.361 208.379 789.18 209.125 789.18C210.011 789.18 210.699 789.431 211.189 789.932C211.691 790.433 211.941 791.1 211.941 791.932V797.5H209.909ZM216.431 797.66C215.865 797.66 215.375 797.543 214.959 797.308C214.553 797.063 214.239 796.732 214.015 796.316C213.801 795.9 213.695 795.431 213.695 794.908V789.34H215.711V794.492C215.711 794.993 215.833 795.372 216.079 795.628C216.335 795.884 216.692 796.012 217.151 796.012C217.567 796.012 217.929 795.916 218.239 795.724C218.559 795.532 218.809 795.265 218.991 794.924C219.183 794.572 219.279 794.177 219.279 793.74L219.487 795.692C219.22 796.289 218.82 796.769 218.287 797.132C217.764 797.484 217.145 797.66 216.431 797.66ZM219.343 797.5V795.58H219.279V789.34H221.311V797.5H219.343ZM227.064 797.66C226.2 797.66 225.443 797.479 224.792 797.116C224.152 796.753 223.651 796.252 223.288 795.612C222.936 794.972 222.76 794.236 222.76 793.404C222.76 792.572 222.936 791.841 223.288 791.212C223.651 790.572 224.152 790.076 224.792 789.724C225.432 789.361 226.179 789.18 227.032 789.18C227.843 789.18 228.547 789.351 229.144 789.692C229.741 790.023 230.205 790.492 230.536 791.1C230.867 791.708 231.032 792.417 231.032 793.228C231.032 793.377 231.027 793.516 231.016 793.644C231.005 793.772 230.989 793.9 230.968 794.028H224.008V792.62H229.416L229 793.004C229 792.236 228.824 791.66 228.472 791.276C228.12 790.892 227.629 790.7 227 790.7C226.317 790.7 225.773 790.935 225.368 791.404C224.973 791.873 224.776 792.551 224.776 793.436C224.776 794.311 224.973 794.983 225.368 795.452C225.773 795.911 226.344 796.14 227.08 796.14C227.507 796.14 227.88 796.06 228.2 795.9C228.52 795.74 228.755 795.495 228.904 795.164H230.808C230.541 795.932 230.088 796.54 229.448 796.988C228.819 797.436 228.024 797.66 227.064 797.66Z" fill="white"/>
<rect x="192" y="197" width="7" height="7" rx="3.5" fill="#FF657D"/>
<path d="M33.5664 337.004V327.324L33.8704 327.516C33.7211 327.836 33.4864 328.14 33.1664 328.428C32.8464 328.705 32.4731 328.945 32.0464 329.148C31.6198 329.351 31.1611 329.495 30.6704 329.58V327.58C31.0971 327.516 31.5291 327.377 31.9664 327.164C32.4038 326.951 32.7984 326.7 33.1504 326.412C33.5024 326.113 33.7531 325.804 33.9024 325.484H35.5984V337.004H33.5664ZM41.1646 337.164C40.0019 337.164 39.0526 336.86 38.3166 336.252C37.5806 335.644 37.1272 334.807 36.9566 333.74H39.0686C39.1646 334.305 39.3992 334.743 39.7726 335.052C40.1566 335.361 40.6046 335.516 41.1166 335.516C41.6819 335.516 42.1406 335.329 42.4926 334.956C42.8552 334.583 43.0366 334.007 43.0366 333.228C43.0366 332.471 42.8606 331.9 42.5086 331.516C42.1672 331.121 41.7086 330.924 41.1326 330.924C40.7592 330.924 40.4232 331.004 40.1246 331.164C39.8259 331.324 39.6019 331.548 39.4526 331.836H37.5646L38.1246 325.484H44.5726V327.132H38.9726L39.9966 326.844L39.6766 330.796L39.0366 330.684C39.2926 330.289 39.6232 329.975 40.0286 329.74C40.4339 329.505 40.9459 329.388 41.5646 329.388C42.3006 329.388 42.9406 329.548 43.4846 329.868C44.0392 330.188 44.4712 330.636 44.7806 331.212C45.1006 331.777 45.2606 332.46 45.2606 333.26C45.2606 334.081 45.0899 334.785 44.7486 335.372C44.4072 335.948 43.9326 336.391 43.3246 336.7C42.7166 337.009 41.9966 337.164 41.1646 337.164ZM51.1814 337.164C50.2428 337.164 49.4108 336.913 48.6854 336.412C47.9601 335.9 47.3894 335.196 46.9734 334.3C46.5681 333.393 46.3654 332.359 46.3654 331.196C46.3654 330.033 46.5681 329.015 46.9734 328.14C47.3788 327.255 47.9441 326.567 48.6694 326.076C49.4054 325.575 50.2428 325.324 51.1814 325.324C52.1308 325.324 52.9681 325.575 53.6934 326.076C54.4188 326.567 54.9841 327.255 55.3894 328.14C55.8054 329.015 56.0134 330.033 56.0134 331.196C56.0134 332.369 55.8054 333.404 55.3894 334.3C54.9841 335.196 54.4188 335.9 53.6934 336.412C52.9681 336.913 52.1308 337.164 51.1814 337.164ZM51.1814 335.42C51.7681 335.42 52.2534 335.233 52.6374 334.86C53.0214 334.487 53.3094 333.98 53.5014 333.34C53.7041 332.7 53.8054 331.98 53.8054 331.18C53.8054 330.38 53.7094 329.671 53.5174 329.052C53.3254 328.433 53.0321 327.948 52.6374 327.596C52.2534 327.244 51.7681 327.068 51.1814 327.068C50.6054 327.068 50.1201 327.249 49.7254 327.612C49.3414 327.964 49.0534 328.449 48.8614 329.068C48.6694 329.687 48.5734 330.391 48.5734 331.18C48.5734 331.991 48.6694 332.716 48.8614 333.356C49.0534 333.996 49.3468 334.503 49.7414 334.876C50.1361 335.239 50.6161 335.42 51.1814 335.42Z" fill="black"/>
<path d="M123.199 292.004V282.324L123.503 282.516C123.354 282.836 123.119 283.14 122.799 283.428C122.479 283.705 122.106 283.945 121.679 284.148C121.253 284.351 120.794 284.495 120.303 284.58V282.58C120.73 282.516 121.162 282.377 121.599 282.164C122.037 281.951 122.431 281.7 122.783 281.412C123.135 281.113 123.386 280.804 123.535 280.484H125.231V292.004H123.199ZM131.387 292.164C129.925 292.164 128.795 291.673 127.995 290.692C127.205 289.7 126.811 288.292 126.811 286.468C126.811 285.188 126.997 284.089 127.371 283.172C127.755 282.255 128.299 281.551 129.003 281.06C129.717 280.569 130.555 280.324 131.515 280.324C132.592 280.324 133.472 280.617 134.155 281.204C134.837 281.78 135.259 282.585 135.419 283.62H133.307C133.243 283.087 133.045 282.681 132.715 282.404C132.395 282.116 131.989 281.972 131.499 281.972C130.667 281.972 130.037 282.329 129.611 283.044C129.195 283.759 128.987 284.857 128.987 286.34V287.38L128.539 287.236C128.645 286.724 128.853 286.281 129.163 285.908C129.472 285.535 129.861 285.247 130.331 285.044C130.8 284.841 131.317 284.74 131.883 284.74C132.619 284.74 133.264 284.895 133.819 285.204C134.373 285.513 134.805 285.945 135.115 286.5C135.435 287.044 135.595 287.689 135.595 288.436C135.595 289.183 135.419 289.839 135.067 290.404C134.715 290.959 134.224 291.391 133.595 291.7C132.965 292.009 132.229 292.164 131.387 292.164ZM131.275 290.516C131.883 290.516 132.384 290.335 132.779 289.972C133.173 289.609 133.371 289.097 133.371 288.436C133.371 287.764 133.173 287.252 132.779 286.9C132.384 286.537 131.872 286.356 131.243 286.356C130.624 286.356 130.101 286.532 129.675 286.884C129.259 287.225 129.051 287.721 129.051 288.372C129.051 288.809 129.152 289.193 129.355 289.524C129.557 289.844 129.824 290.089 130.155 290.26C130.496 290.431 130.869 290.516 131.275 290.516ZM141.549 292.164C140.61 292.164 139.778 291.913 139.053 291.412C138.327 290.9 137.757 290.196 137.341 289.3C136.935 288.393 136.733 287.359 136.733 286.196C136.733 285.033 136.935 284.015 137.341 283.14C137.746 282.255 138.311 281.567 139.037 281.076C139.773 280.575 140.61 280.324 141.549 280.324C142.498 280.324 143.335 280.575 144.061 281.076C144.786 281.567 145.351 282.255 145.757 283.14C146.173 284.015 146.381 285.033 146.381 286.196C146.381 287.369 146.173 288.404 145.757 289.3C145.351 290.196 144.786 290.9 144.061 291.412C143.335 291.913 142.498 292.164 141.549 292.164ZM141.549 290.42C142.135 290.42 142.621 290.233 143.005 289.86C143.389 289.487 143.677 288.98 143.869 288.34C144.071 287.7 144.173 286.98 144.173 286.18C144.173 285.38 144.077 284.671 143.885 284.052C143.693 283.433 143.399 282.948 143.005 282.596C142.621 282.244 142.135 282.068 141.549 282.068C140.973 282.068 140.487 282.249 140.093 282.612C139.709 282.964 139.421 283.449 139.229 284.068C139.037 284.687 138.941 285.391 138.941 286.18C138.941 286.991 139.037 287.716 139.229 288.356C139.421 288.996 139.714 289.503 140.109 289.876C140.503 290.239 140.983 290.42 141.549 290.42Z" fill="black"/>
<path d="M252.441 292.004V282.324L252.745 282.516C252.596 282.836 252.361 283.14 252.041 283.428C251.721 283.705 251.348 283.945 250.921 284.148C250.495 284.351 250.036 284.495 249.545 284.58V282.58C249.972 282.516 250.404 282.377 250.841 282.164C251.279 281.951 251.673 281.7 252.025 281.412C252.377 281.113 252.628 280.804 252.777 280.484H254.473V292.004H252.441ZM257.847 292.004C258.007 290.18 258.449 288.409 259.175 286.692C259.9 284.975 260.876 283.332 262.103 281.764L262.135 282.132H255.767V280.484H264.023V281.972C263.255 283.081 262.593 284.18 262.039 285.268C261.495 286.345 261.057 287.439 260.727 288.548C260.407 289.657 260.204 290.809 260.119 292.004H257.847ZM268.963 292.004V288.964L269.059 288.644V282.068L269.859 282.42L265.123 288.772L264.211 288.02H272.339V289.668H263.315V288.084L269.027 280.484H271.091V292.004H268.963Z" fill="black"/>
<path d="M341.387 338.004V328.324L341.691 328.516C341.541 328.836 341.307 329.14 340.987 329.428C340.667 329.705 340.293 329.945 339.867 330.148C339.44 330.351 338.981 330.495 338.491 330.58V328.58C338.917 328.516 339.349 328.377 339.787 328.164C340.224 327.951 340.619 327.7 340.971 327.412C341.323 327.113 341.573 326.804 341.723 326.484H343.419V338.004H341.387ZM349.159 338.164C348.306 338.164 347.559 338.02 346.919 337.732C346.279 337.444 345.778 337.049 345.415 336.548C345.063 336.036 344.887 335.449 344.887 334.788C344.887 334.212 345.015 333.695 345.271 333.236C345.527 332.777 345.874 332.42 346.311 332.164C346.759 331.897 347.271 331.764 347.847 331.764L348.023 332.1C347.447 332.1 346.946 331.993 346.519 331.78C346.093 331.556 345.767 331.247 345.543 330.852C345.319 330.447 345.207 329.983 345.207 329.46C345.207 328.831 345.367 328.281 345.687 327.812C346.018 327.343 346.477 326.98 347.063 326.724C347.661 326.457 348.354 326.324 349.143 326.324C349.943 326.324 350.637 326.457 351.223 326.724C351.81 326.98 352.263 327.343 352.583 327.812C352.914 328.281 353.079 328.825 353.079 329.444C353.079 329.977 352.967 330.447 352.743 330.852C352.519 331.247 352.194 331.556 351.767 331.78C351.341 331.993 350.834 332.1 350.247 332.1L350.439 331.764C351.015 331.764 351.522 331.897 351.959 332.164C352.407 332.42 352.759 332.777 353.015 333.236C353.271 333.695 353.399 334.212 353.399 334.788C353.399 335.449 353.223 336.036 352.871 336.548C352.519 337.06 352.023 337.46 351.383 337.748C350.754 338.025 350.013 338.164 349.159 338.164ZM349.143 336.516C349.783 336.516 350.279 336.351 350.631 336.02C350.994 335.679 351.175 335.215 351.175 334.628C351.175 334.041 350.989 333.583 350.615 333.252C350.253 332.921 349.762 332.756 349.143 332.756C348.514 332.756 348.018 332.921 347.655 333.252C347.293 333.583 347.111 334.041 347.111 334.628C347.111 335.225 347.293 335.689 347.655 336.02C348.018 336.351 348.514 336.516 349.143 336.516ZM349.143 331.236C349.666 331.236 350.087 331.092 350.407 330.804C350.727 330.505 350.887 330.105 350.887 329.604C350.887 329.092 350.722 328.692 350.391 328.404C350.071 328.116 349.65 327.972 349.127 327.972C348.615 327.972 348.199 328.121 347.879 328.42C347.559 328.708 347.399 329.103 347.399 329.604C347.399 330.105 347.559 330.505 347.879 330.804C348.21 331.092 348.631 331.236 349.143 331.236ZM360.018 338.004V334.964L360.114 334.644V328.068L360.914 328.42L356.178 334.772L355.266 334.02H363.394V335.668H354.37V334.084L360.082 326.484H362.146V338.004H360.018Z" fill="black"/>
<line x1="195.5" y1="283.004" x2="195.5" y2="184.999" stroke="#FF657D" stroke-width="2"/>
<line x1="207.5" y1="224.004" x2="207.5" y2="243.004" stroke="#F6ECFA"/>
<line y1="-0.5" x2="19" y2="-0.5" transform="matrix(0 1 1 0 187 224.004)" stroke="#F6ECFA"/>
<line x1="225.5" y1="225.004" x2="225.5" y2="244.004" stroke="#F6ECFA"/>
<line y1="-0.5" x2="19" y2="-0.5" transform="matrix(0 1 1 0 169 225.004)" stroke="#F6ECFA"/>
<line x1="234.5" y1="227.004" x2="234.5" y2="246.004" stroke="#F6ECFA"/>
<line y1="-0.5" x2="19" y2="-0.5" transform="matrix(0 1 1 0 160 226.004)" stroke="#F6ECFA"/>
<line x1="243.5" y1="228.004" x2="243.5" y2="247.004" stroke="#F6ECFA"/>
<line y1="-0.5" x2="19" y2="-0.5" transform="matrix(0 1 1 0 151 228.004)" stroke="#F6ECFA"/>
<line x1="252.5" y1="230.004" x2="252.5" y2="249.004" stroke="#F6ECFA"/>
<line y1="-0.5" x2="19" y2="-0.5" transform="matrix(0 1 1 0 142 230.004)" stroke="#F6ECFA"/>
<line x1="270.5" y1="235.004" x2="270.5" y2="254.004" stroke="#F6ECFA"/>
<line y1="-0.5" x2="19" y2="-0.5" transform="matrix(0 1 1 0 124 235.004)" stroke="#F6ECFA"/>
<line x1="279.5" y1="238.004" x2="279.5" y2="257.004" stroke="#F6ECFA"/>
<line y1="-0.5" x2="19" y2="-0.5" transform="matrix(0 1 1 0 115 238.004)" stroke="#F6ECFA"/>
<line x1="288.5" y1="241.004" x2="288.5" y2="260.004" stroke="#F6ECFA"/>
<line y1="-0.5" x2="19" y2="-0.5" transform="matrix(0 1 1 0 106 241.004)" stroke="#F6ECFA"/>
<line x1="297.5" y1="245.004" x2="297.5" y2="264.004" stroke="#F6ECFA"/>
<line y1="-0.5" x2="19" y2="-0.5" transform="matrix(0 1 1 0 97 245.004)" stroke="#F6ECFA"/>
<line x1="315.5" y1="254.004" x2="315.5" y2="273.004" stroke="#F6ECFA"/>
<line y1="-0.5" x2="19" y2="-0.5" transform="matrix(0 1 1 0 79 254.004)" stroke="#F6ECFA"/>
<line x1="324.5" y1="259.004" x2="324.5" y2="278.004" stroke="#F6ECFA"/>
<line y1="-0.5" x2="19" y2="-0.5" transform="matrix(0 1 1 0 70 259.004)" stroke="#F6ECFA"/>
<line x1="333.5" y1="265.004" x2="333.5" y2="284.004" stroke="#F6ECFA"/>
<line y1="-0.5" x2="19" y2="-0.5" transform="matrix(0 1 1 0 61 265.004)" stroke="#F6ECFA"/>
<line x1="342.5" y1="271.004" x2="342.5" y2="290.004" stroke="#F6ECFA"/>
<line y1="-0.5" x2="19" y2="-0.5" transform="matrix(0 1 1 0 52 271.004)" stroke="#F6ECFA"/>
<line x1="360.5" y1="286.004" x2="360.5" y2="305.004" stroke="#F6ECFA"/>
<line y1="-0.5" x2="19" y2="-0.5" transform="matrix(0 1 1 0 34 286.004)" stroke="#F6ECFA"/>
<path d="M369 294.004V313.004" stroke="#F6ECFA"/>
<path d="M25 294.004V313.004" stroke="#F6ECFA"/>
<path d="M378 304.004V323.004" stroke="#F6ECFA"/>
<path d="M16 302.004V321.004" stroke="#F6ECFA"/>
<path d="M387 313.004V332.004" stroke="#F6ECFA"/>
<path d="M7 312.004V331.004" stroke="#F6ECFA"/>
<line x1="216.5" y1="225.004" x2="216.5" y2="258.004" stroke="#5682FF"/>
<line y1="-0.5" x2="33" y2="-0.5" transform="matrix(0 1 1 0 178 225.004)" stroke="#5682FF"/>
<line x1="261.5" y1="232.004" x2="261.5" y2="272.004" stroke="#FF657D"/>
<line x1="133.5" y1="232.004" x2="133.5" y2="272.004" stroke="#FF657D"/>
<line x1="306.5" y1="250.004" x2="306.5" y2="283.004" stroke="#5682FF"/>
<line y1="-0.5" x2="33" y2="-0.5" transform="matrix(0 1 1 0 88 249.004)" stroke="#5682FF"/>
<line x1="351.5" y1="278.004" x2="351.5" y2="318.004" stroke="#FF657D"/>
<line x1="43.5" y1="277.004" x2="43.5" y2="317.004" stroke="#FF657D"/>
<rect x="192" y="279.004" width="7" height="7" rx="3.5" fill="#FF657D"/>
<path d="M165.467 412.004V394.364L165.977 394.814C165.677 395.434 165.247 396.014 164.687 396.554C164.127 397.074 163.467 397.524 162.707 397.904C161.967 398.264 161.137 398.534 160.217 398.714V394.214C160.957 394.114 161.727 393.874 162.527 393.494C163.327 393.094 164.047 392.624 164.687 392.084C165.347 391.524 165.817 390.964 166.097 390.404H169.967V412.004H165.467ZM181.27 412.304C178.43 412.304 176.23 411.384 174.67 409.544C173.13 407.684 172.36 405.064 172.36 401.684C172.36 399.304 172.73 397.254 173.47 395.534C174.23 393.794 175.3 392.454 176.68 391.514C178.06 390.574 179.68 390.104 181.54 390.104C183.64 390.104 185.35 390.664 186.67 391.784C188.01 392.884 188.83 394.414 189.13 396.374H184.54C184.44 395.494 184.11 394.824 183.55 394.364C183.01 393.884 182.33 393.644 181.51 393.644C180.05 393.644 178.96 394.274 178.24 395.534C177.52 396.794 177.16 398.744 177.16 401.384V403.334L176.23 403.064C176.45 402.104 176.84 401.274 177.4 400.574C177.96 399.874 178.66 399.334 179.5 398.954C180.36 398.574 181.32 398.384 182.38 398.384C183.78 398.384 185.01 398.674 186.07 399.254C187.13 399.814 187.95 400.614 188.53 401.654C189.13 402.674 189.43 403.874 189.43 405.254C189.43 406.674 189.09 407.914 188.41 408.974C187.75 410.034 186.81 410.854 185.59 411.434C184.37 412.014 182.93 412.304 181.27 412.304ZM180.94 408.764C181.96 408.764 182.81 408.474 183.49 407.894C184.19 407.294 184.54 406.424 184.54 405.284C184.54 404.144 184.18 403.294 183.46 402.734C182.76 402.154 181.9 401.864 180.88 401.864C179.84 401.864 178.96 402.154 178.24 402.734C177.52 403.294 177.16 404.124 177.16 405.224C177.16 405.964 177.33 406.604 177.67 407.144C178.03 407.664 178.49 408.064 179.05 408.344C179.63 408.624 180.26 408.764 180.94 408.764ZM194.094 412.004C194.394 408.584 195.234 405.294 196.614 402.134C198.014 398.954 199.784 396.034 201.924 393.374V393.944H190.344V390.404H206.274V393.704C204.914 395.644 203.724 397.594 202.704 399.554C201.684 401.514 200.864 403.524 200.244 405.584C199.624 407.624 199.224 409.764 199.044 412.004H194.094ZM213.136 412.164C212.304 412.164 211.536 412.02 210.832 411.732C210.128 411.433 209.515 411.017 208.992 410.484C208.48 409.951 208.08 409.321 207.792 408.596C207.504 407.86 207.36 407.06 207.36 406.196C207.36 405.332 207.499 404.543 207.776 403.828C208.064 403.113 208.464 402.495 208.976 401.972C209.499 401.439 210.112 401.033 210.816 400.756C211.52 400.468 212.293 400.324 213.136 400.324C214.085 400.324 214.939 400.511 215.696 400.884C216.464 401.247 217.088 401.764 217.568 402.436C218.059 403.097 218.357 403.876 218.464 404.772H216.064C215.925 403.951 215.589 403.332 215.056 402.916C214.523 402.489 213.888 402.276 213.152 402.276C212.501 402.276 211.925 402.431 211.424 402.74C210.933 403.049 210.549 403.497 210.272 404.084C209.995 404.66 209.856 405.359 209.856 406.18C209.856 407.012 209.995 407.732 210.272 408.34C210.56 408.937 210.955 409.401 211.456 409.732C211.957 410.052 212.533 410.212 213.184 410.212C213.877 410.212 214.491 410.004 215.024 409.588C215.557 409.172 215.904 408.553 216.064 407.732H218.496C218.357 408.628 218.043 409.412 217.552 410.084C217.061 410.745 216.437 411.257 215.68 411.62C214.923 411.983 214.075 412.164 213.136 412.164ZM219.84 412.004V403.844H222.192V405.764H222.24V412.004H219.84ZM225.328 412.004V406.82C225.328 406.404 225.216 406.1 224.992 405.908C224.779 405.705 224.475 405.604 224.08 405.604C223.739 405.604 223.424 405.684 223.136 405.844C222.859 405.993 222.64 406.212 222.48 406.5C222.32 406.777 222.24 407.108 222.24 407.492L222.032 405.652C222.299 405.055 222.683 404.58 223.184 404.228C223.696 403.865 224.309 403.684 225.024 403.684C225.877 403.684 226.539 403.924 227.008 404.404C227.488 404.884 227.728 405.487 227.728 406.212V412.004H225.328ZM230.816 412.004V406.82C230.816 406.404 230.704 406.1 230.48 405.908C230.267 405.705 229.963 405.604 229.568 405.604C229.227 405.604 228.912 405.684 228.624 405.844C228.347 405.993 228.128 406.212 227.968 406.5C227.808 406.777 227.728 407.108 227.728 407.492L227.36 405.652C227.627 405.055 228.021 404.58 228.544 404.228C229.077 403.865 229.717 403.684 230.464 403.684C231.349 403.684 232.027 403.935 232.496 404.436C232.976 404.927 233.216 405.572 233.216 406.372V412.004H230.816Z" fill="black"/>
<line x1="71" y1="477.65" x2="185" y2="477.65" stroke="url(#paint1_linear_231_12792)" stroke-width="2.7071"/>
<line y1="-1.35355" x2="114" y2="-1.35355" transform="matrix(-1 0 0 1 320 479)" stroke="url(#paint2_linear_231_12792)" stroke-width="2.7071"/>
<rect x="184" y="467" width="24" height="24" rx="12" fill="#FF657D"/>
<rect x="190" y="473" width="12" height="12" rx="6" fill="white"/>
<path d="M45.4795 26.0597C44.4644 26.0597 43.6358 25.7438 42.9936 25.1119C42.3617 24.4697 42.0458 23.61 42.0458 22.5327C42.0458 22.0356 42.1183 21.5591 42.2633 21.1033C42.4187 20.6476 42.6466 20.2488 42.947 19.907C43.2474 19.5548 43.6151 19.2803 44.0501 19.0835C44.4955 18.8867 44.9979 18.7883 45.5572 18.7883C46.3755 18.7883 47.0436 18.9592 47.5615 19.301C48.0898 19.6325 48.4834 20.0572 48.7424 20.5751C49.0013 21.093 49.1722 21.6264 49.2551 22.1754C49.3379 22.7244 49.3794 23.2837 49.3794 23.8534C49.3794 24.3299 49.3379 24.884 49.2551 25.5159C49.1826 26.1374 49.0168 26.8003 48.7579 27.5047C48.4989 28.1986 48.095 28.7891 47.546 29.2759C46.997 29.7627 46.2875 30.0061 45.4174 30.0061C44.8166 30.0061 44.3039 29.9077 43.8792 29.7109C43.4545 29.5245 43.1179 29.2811 42.8693 28.9807C42.6207 28.6699 42.4394 28.354 42.3255 28.0329C42.2219 27.7015 42.1701 27.3855 42.1701 27.0851H43.5374C43.5788 27.6445 43.7601 28.0847 44.0812 28.4058C44.4023 28.7166 44.8373 28.8719 45.3863 28.8719C46.1321 28.8719 46.7122 28.5456 47.1265 27.8931C47.5512 27.2405 47.8464 26.2047 48.0121 24.7856L47.981 24.7546C47.7842 25.1585 47.4476 25.4796 46.9711 25.7179C46.505 25.9458 46.0078 26.0597 45.4795 26.0597ZM45.6815 24.8323C45.899 24.8323 46.1217 24.8012 46.3496 24.739C46.5879 24.6665 46.8157 24.5422 47.0333 24.3661C47.2508 24.19 47.4269 23.9363 47.5615 23.6048C47.7065 23.2734 47.779 22.8538 47.779 22.3463C47.779 21.673 47.5926 21.1189 47.2197 20.6838C46.8572 20.2384 46.3082 20.0157 45.5728 20.0157C44.9409 20.0157 44.4282 20.2436 44.0346 20.6994C43.6513 21.1448 43.4597 21.7352 43.4597 22.4706C43.4597 22.9678 43.527 23.3769 43.6617 23.698C43.7963 24.0088 43.9724 24.247 44.1899 24.4127C44.4178 24.5785 44.6561 24.6924 44.9047 24.7546C45.1533 24.8064 45.4122 24.8323 45.6815 24.8323ZM52.6214 28.064V29.7109H51.0056V28.064H52.6214ZM52.6214 21.6937V23.3407H51.0056V21.6937H52.6214ZM61.7312 27.0541H60.1309V29.7109H58.7636V27.0541H53.9937V25.7179L58.9967 18.7883H60.1309V25.8732H61.7312V27.0541ZM58.7325 20.9169L55.2522 25.8732H58.7636V20.9169H58.7325ZM67.4437 18.7883V29.7109H65.9832V21.9579H63.4351V20.8703C63.9426 20.8392 64.3466 20.7926 64.647 20.7304C64.9474 20.6683 65.2063 20.5699 65.4239 20.4352C65.6414 20.3006 65.8278 20.1038 65.9832 19.8448C66.1386 19.5859 66.268 19.2337 66.3716 18.7883H67.4437Z" fill="black"/>
<path opacity="0.35" d="M341.709 17.8496H357.246C358.999 17.8498 360.419 19.2708 360.419 21.0234V25.5928C360.419 27.3454 358.999 28.7664 357.246 28.7666H341.709C339.956 28.7666 338.535 27.3455 338.535 25.5928V21.0234C338.535 19.2707 339.956 17.8496 341.709 17.8496Z" fill="black" stroke="black" stroke-width="0.9643"/>
<path opacity="0.4" d="M361.816 21.9375V25.7947C362.592 25.468 363.097 24.7081 363.097 23.8661C363.097 23.0241 362.592 22.2642 361.816 21.9375Z" fill="black"/>
<path d="M339.881 21.0232C339.881 20.0137 340.699 19.1953 341.709 19.1953H357.246C358.255 19.1953 359.074 20.0137 359.074 21.0232V25.593C359.074 26.6025 358.256 27.4209 357.246 27.4209H341.709C340.699 27.4209 339.881 26.6025 339.881 25.593V21.0232Z" fill="black"/>
<path d="M321.706 26.5846C323.004 25.4642 324.904 25.4642 326.202 26.5846C326.267 26.6448 326.305 26.7302 326.307 26.8199C326.308 26.9096 326.275 26.9963 326.212 27.0592L324.18 29.152C324.12 29.2134 324.039 29.2486 323.954 29.2486C323.869 29.2486 323.788 29.2135 323.729 29.152L321.696 27.0592C321.634 26.9963 321.599 26.9097 321.601 26.8199C321.602 26.7301 321.641 26.6448 321.706 26.5846ZM318.959 24.0035C321.755 21.3489 326.085 21.349 328.881 24.0035C328.944 24.0657 328.98 24.1513 328.98 24.2408C328.981 24.3303 328.947 24.4166 328.886 24.4801L327.711 25.692C327.59 25.8156 327.395 25.8181 327.271 25.6979C326.352 24.8492 325.158 24.3794 323.919 24.3795C322.681 24.38 321.488 24.8498 320.57 25.6979C320.446 25.8183 320.25 25.8157 320.129 25.692L318.955 24.4801C318.893 24.4166 318.859 24.3304 318.859 24.2408C318.86 24.1514 318.896 24.0657 318.959 24.0035ZM316.215 21.4273C320.503 17.2325 327.268 17.2326 331.557 21.4273C331.619 21.4897 331.654 21.5748 331.654 21.6637C331.655 21.7525 331.621 21.8379 331.56 21.901L330.384 23.1129C330.263 23.2372 330.065 23.2382 329.942 23.1158C328.309 21.5305 326.141 20.6463 323.887 20.6461C321.632 20.6461 319.463 21.5302 317.829 23.1158C317.706 23.2383 317.51 23.2371 317.389 23.1129L316.212 21.901C316.151 21.8379 316.117 21.7525 316.117 21.6637C316.118 21.5748 316.153 21.4896 316.215 21.4273Z" fill="black"/>
<path d="M301.495 21.0231C301.495 20.5183 301.904 20.1092 302.409 20.1092H303.323C303.828 20.1092 304.237 20.5183 304.237 21.0231V28.3347C304.237 28.8395 303.828 29.2487 303.323 29.2487H302.409C301.904 29.2487 301.495 28.8395 301.495 28.3347V21.0231Z" fill="black"/>
<path d="M306.065 19.1952C306.065 18.6904 306.474 18.2812 306.979 18.2812H307.893C308.397 18.2812 308.807 18.6904 308.807 19.1952V28.3347C308.807 28.8395 308.397 29.2487 307.893 29.2487H306.979C306.474 29.2487 306.065 28.8395 306.065 28.3347V19.1952Z" fill="black"/>
<path d="M296.925 24.2219C296.925 23.7172 297.334 23.308 297.839 23.308H298.753C299.258 23.308 299.667 23.7172 299.667 24.2219V28.3347C299.667 28.8395 299.258 29.2487 298.753 29.2487H297.839C297.334 29.2487 296.925 28.8395 296.925 28.3347V24.2219Z" fill="black"/>
<path d="M292.355 26.5068C292.355 26.0021 292.765 25.5929 293.269 25.5929H294.183C294.688 25.5929 295.097 26.0021 295.097 26.5068V28.3347C295.097 28.8395 294.688 29.2487 294.183 29.2487H293.269C292.765 29.2487 292.355 28.8395 292.355 28.3347V26.5068Z" fill="black"/>
</g>
<defs>
<linearGradient id="paint0_linear_231_12792" x1="196.5" y1="0" x2="196.5" y2="852" gradientUnits="userSpaceOnUse">
<stop stop-color="white"/>
<stop offset="1" stop-color="#FFF0F2"/>
</linearGradient>
<linearGradient id="paint1_linear_231_12792" x1="71" y1="479.504" x2="155.918" y2="479.571" gradientUnits="userSpaceOnUse">
<stop stop-color="white"/>
<stop offset="1" stop-color="#EB4A9B" stop-opacity="0.5"/>
</linearGradient>
<linearGradient id="paint2_linear_231_12792" x1="0" y1="0.5" x2="84.9179" y2="0.567491" gradientUnits="userSpaceOnUse">
<stop stop-color="white"/>
<stop offset="1" stop-color="#EB4A9B" stop-opacity="0.5"/>
</linearGradient>
<clipPath id="clip0_231_12792">
<rect width="393" height="852" rx="40" fill="white"/>
</clipPath>
</defs>
</svg>