<svg xmlns="http://www.w3.org/2000/svg" width="393" height="852" viewBox="0 0 393 852" fill="none">
<g clip-path="url(#clip0_231_12858)">
<rect width="393" height="852" rx="40" fill="url(#paint0_linear_231_12858)"/>
<rect x="130" y="839" width="134" height="5" rx="2.5" fill="black"/>
<rect x="20" y="65" width="44" height="44" rx="15" fill="#F9F9F9"/>
<path d="M45 94L38 87L45 80" stroke="black" stroke-width="1.5" stroke-linecap="round" stroke-linejoin="round"/>
<rect x="89" y="83" width="30" height="8" rx="4" fill="#FFF3F4"/>
<rect x="122" y="83" width="30" height="8" rx="4" fill="#FFF3F4"/>
<rect x="155" y="83" width="30" height="8" rx="4" fill="#FFF3F4"/>
<rect x="188" y="83" width="30" height="8" rx="4" fill="#FFF3F4"/>
<rect x="221" y="83" width="30" height="8" rx="4" fill="#FF657D"/>
<rect x="254" y="83" width="30" height="8" rx="4" fill="#FFF3F4"/>
<rect x="287" y="83" width="30" height="8" rx="4" fill="#FFF3F4"/>
<path d="M346.907 92.66C345.744 92.66 344.795 92.356 344.059 91.748C343.323 91.14 342.869 90.3027 342.699 89.236H344.811C344.907 89.8013 345.141 90.2387 345.515 90.548C345.899 90.8573 346.347 91.012 346.859 91.012C347.424 91.012 347.883 90.8253 348.235 90.452C348.597 90.0787 348.779 89.5027 348.779 88.724C348.779 87.9667 348.603 87.396 348.251 87.012C347.909 86.6173 347.451 86.42 346.875 86.42C346.501 86.42 346.165 86.5 345.867 86.66C345.568 86.82 345.344 87.044 345.195 87.332H343.307L343.867 80.98H350.315V82.628H344.715L345.739 82.34L345.419 86.292L344.779 86.18C345.035 85.7853 345.365 85.4707 345.771 85.236C346.176 85.0013 346.688 84.884 347.307 84.884C348.043 84.884 348.683 85.044 349.227 85.364C349.781 85.684 350.213 86.132 350.523 86.708C350.843 87.2733 351.003 87.956 351.003 88.756C351.003 89.5773 350.832 90.2813 350.491 90.868C350.149 91.444 349.675 91.8867 349.067 92.196C348.459 92.5053 347.739 92.66 346.907 92.66ZM355.201 93.668L359.377 80.292H361.137L356.961 93.668H355.201ZM367.277 92.5C367.437 90.676 367.879 88.9053 368.605 87.188C369.33 85.4707 370.306 83.828 371.533 82.26L371.565 82.628H365.197V80.98H373.453V82.468C372.685 83.5773 372.023 84.676 371.469 85.764C370.925 86.8413 370.487 87.9347 370.157 89.044C369.837 90.1533 369.634 91.3053 369.549 92.5H367.277Z" fill="black"/>
<path d="M43.6787 158V136.4H48.2987V158H43.6787ZM45.8387 158V154.46H58.6787V158H45.8387ZM67.7607 158.3C66.0607 158.3 64.5807 157.97 63.3207 157.31C62.0607 156.63 61.0807 155.69 60.3807 154.49C59.7007 153.29 59.3607 151.91 59.3607 150.35C59.3607 148.77 59.7007 147.39 60.3807 146.21C61.0807 145.01 62.0507 144.08 63.2907 143.42C64.5307 142.74 65.9707 142.4 67.6107 142.4C69.1907 142.4 70.5607 142.72 71.7207 143.36C72.8807 144 73.7807 144.89 74.4207 146.03C75.0607 147.17 75.3807 148.51 75.3807 150.05C75.3807 150.37 75.3707 150.67 75.3507 150.95C75.3307 151.21 75.3007 151.46 75.2607 151.7H62.0007V148.73H71.6307L70.8507 149.27C70.8507 148.03 70.5507 147.12 69.9507 146.54C69.3707 145.94 68.5707 145.64 67.5507 145.64C66.3707 145.64 65.4507 146.04 64.7907 146.84C64.1507 147.64 63.8307 148.84 63.8307 150.44C63.8307 152 64.1507 153.16 64.7907 153.92C65.4507 154.68 66.4307 155.06 67.7307 155.06C68.4507 155.06 69.0707 154.94 69.5907 154.7C70.1107 154.46 70.5007 154.07 70.7607 153.53H74.9907C74.4907 155.01 73.6307 156.18 72.4107 157.04C71.2107 157.88 69.6607 158.3 67.7607 158.3ZM77.7873 158V142.7H82.1973V146.3H82.2873V158H77.7873ZM88.4373 158V148.52C88.4373 147.68 88.2173 147.05 87.7773 146.63C87.3573 146.21 86.7373 146 85.9173 146C85.2173 146 84.5873 146.16 84.0273 146.48C83.4873 146.8 83.0573 147.24 82.7373 147.8C82.4373 148.36 82.2873 149.02 82.2873 149.78L81.8973 146.09C82.3973 144.97 83.1273 144.08 84.0873 143.42C85.0673 142.74 86.2673 142.4 87.6873 142.4C89.3873 142.4 90.6873 142.88 91.5873 143.84C92.4873 144.78 92.9373 146.05 92.9373 147.65V158H88.4373ZM103.353 164.45C101.233 164.45 99.5029 164 98.1629 163.1C96.8429 162.2 96.0629 160.98 95.8229 159.44H100.083C100.243 159.82 100.583 160.11 101.103 160.31C101.643 160.51 102.323 160.61 103.143 160.61C104.503 160.61 105.493 160.35 106.113 159.83C106.733 159.31 107.043 158.5 107.043 157.4V154.07L107.283 154.13C107.083 155.25 106.503 156.14 105.543 156.8C104.583 157.44 103.393 157.76 101.973 157.76C100.613 157.76 99.4229 157.45 98.4029 156.83C97.4029 156.19 96.6229 155.3 96.0629 154.16C95.5029 153.02 95.2229 151.68 95.2229 150.14C95.2229 148.58 95.5129 147.22 96.0929 146.06C96.6729 144.9 97.4829 144 98.5229 143.36C99.5829 142.72 100.813 142.4 102.213 142.4C103.653 142.4 104.823 142.74 105.723 143.42C106.643 144.1 107.183 145.03 107.343 146.21L107.133 146.24V142.7H111.543V157.34C111.543 159.54 110.813 161.27 109.353 162.53C107.893 163.81 105.893 164.45 103.353 164.45ZM103.533 154.31C104.593 154.31 105.453 153.95 106.113 153.23C106.773 152.49 107.103 151.44 107.103 150.08C107.103 148.72 106.763 147.68 106.083 146.96C105.423 146.22 104.553 145.85 103.473 145.85C102.433 145.85 101.573 146.22 100.893 146.96C100.233 147.7 99.9029 148.75 99.9029 150.11C99.9029 151.47 100.233 152.51 100.893 153.23C101.573 153.95 102.453 154.31 103.533 154.31ZM122.401 158.33C120.441 158.33 118.981 157.86 118.021 156.92C117.081 155.96 116.611 154.51 116.611 152.57V139.28L121.111 137.6V152.72C121.111 153.4 121.301 153.91 121.681 154.25C122.061 154.59 122.651 154.76 123.451 154.76C123.751 154.76 124.031 154.73 124.291 154.67C124.551 154.61 124.811 154.54 125.071 154.46V157.88C124.811 158.02 124.441 158.13 123.961 158.21C123.501 158.29 122.981 158.33 122.401 158.33ZM113.761 146.12V142.7H125.071V146.12H113.761ZM127.768 158V136.4H132.268V158H127.768ZM138.418 158V148.52C138.418 147.68 138.198 147.05 137.758 146.63C137.338 146.21 136.718 146 135.898 146C135.198 146 134.568 146.16 134.008 146.48C133.468 146.8 133.038 147.24 132.718 147.8C132.418 148.36 132.268 149.02 132.268 149.78L131.878 146.09C132.378 144.97 133.108 144.08 134.068 143.42C135.048 142.74 136.248 142.4 137.668 142.4C139.368 142.4 140.668 142.88 141.568 143.84C142.468 144.78 142.918 146.05 142.918 147.65V158H138.418ZM159.315 158.3C157.635 158.3 156.155 157.97 154.875 157.31C153.615 156.63 152.625 155.69 151.905 154.49C151.205 153.27 150.855 151.87 150.855 150.29C150.855 148.71 151.205 147.33 151.905 146.15C152.625 144.97 153.615 144.05 154.875 143.39C156.155 142.73 157.635 142.4 159.315 142.4C161.015 142.4 162.495 142.73 163.755 143.39C165.035 144.05 166.025 144.97 166.725 146.15C167.425 147.33 167.775 148.71 167.775 150.29C167.775 151.87 167.415 153.27 166.695 154.49C165.995 155.69 165.005 156.63 163.725 157.31C162.465 157.97 160.995 158.3 159.315 158.3ZM159.315 154.76C160.015 154.76 160.645 154.58 161.205 154.22C161.785 153.86 162.245 153.35 162.585 152.69C162.925 152.01 163.095 151.2 163.095 150.26C163.095 148.88 162.725 147.82 161.985 147.08C161.265 146.32 160.375 145.94 159.315 145.94C158.255 145.94 157.355 146.32 156.615 147.08C155.895 147.84 155.535 148.9 155.535 150.26C155.535 151.2 155.705 152.01 156.045 152.69C156.385 153.35 156.835 153.86 157.395 154.22C157.975 154.58 158.615 154.76 159.315 154.76ZM171.037 158V141.68C171.037 139.84 171.537 138.45 172.537 137.51C173.537 136.57 175.017 136.1 176.977 136.1C177.397 136.1 177.757 136.12 178.057 136.16C178.377 136.2 178.687 136.27 178.987 136.37V139.82C178.847 139.76 178.677 139.72 178.477 139.7C178.277 139.66 178.037 139.64 177.757 139.64C176.997 139.64 176.437 139.82 176.077 140.18C175.717 140.54 175.537 141.06 175.537 141.74V158H171.037ZM168.487 146.12V142.7H178.657V146.12H168.487ZM193.488 158V149.27L185.448 136.4H190.998L197.358 147.83H194.748L201.078 136.4H206.148L198.108 149.27V158H193.488ZM212.166 158.3C210.486 158.3 209.006 157.97 207.726 157.31C206.466 156.63 205.476 155.69 204.756 154.49C204.056 153.27 203.706 151.87 203.706 150.29C203.706 148.71 204.056 147.33 204.756 146.15C205.476 144.97 206.466 144.05 207.726 143.39C209.006 142.73 210.486 142.4 212.166 142.4C213.866 142.4 215.346 142.73 216.606 143.39C217.886 144.05 218.876 144.97 219.576 146.15C220.276 147.33 220.626 148.71 220.626 150.29C220.626 151.87 220.266 153.27 219.546 154.49C218.846 155.69 217.856 156.63 216.576 157.31C215.316 157.97 213.846 158.3 212.166 158.3ZM212.166 154.76C212.866 154.76 213.496 154.58 214.056 154.22C214.636 153.86 215.096 153.35 215.436 152.69C215.776 152.01 215.946 151.2 215.946 150.26C215.946 148.88 215.576 147.82 214.836 147.08C214.116 146.32 213.226 145.94 212.166 145.94C211.106 145.94 210.206 146.32 209.466 147.08C208.746 147.84 208.386 148.9 208.386 150.26C208.386 151.2 208.556 152.01 208.896 152.69C209.236 153.35 209.686 153.86 210.246 154.22C210.826 154.58 211.466 154.76 212.166 154.76ZM227.962 158.3C226.882 158.3 225.952 158.07 225.172 157.61C224.412 157.13 223.832 156.5 223.432 155.72C223.032 154.92 222.832 154.03 222.832 153.05V142.7H227.332V152.18C227.332 153.02 227.542 153.65 227.962 154.07C228.382 154.49 228.972 154.7 229.732 154.7C230.412 154.7 231.012 154.54 231.532 154.22C232.052 153.9 232.462 153.46 232.762 152.9C233.082 152.32 233.242 151.66 233.242 150.92L233.632 154.61C233.132 155.71 232.402 156.6 231.442 157.28C230.482 157.96 229.322 158.3 227.962 158.3ZM233.332 158V154.4H233.242V142.7H237.742V158H233.332ZM241.352 158V142.7H245.762V146.3H245.852V158H241.352ZM245.852 150.02L245.462 146.39C245.822 145.09 246.412 144.1 247.232 143.42C248.052 142.74 249.072 142.4 250.292 142.4C250.672 142.4 250.952 142.44 251.132 142.52V146.72C251.032 146.68 250.892 146.66 250.712 146.66C250.532 146.64 250.312 146.63 250.052 146.63C248.612 146.63 247.552 146.89 246.872 147.41C246.192 147.91 245.852 148.78 245.852 150.02ZM258.718 158V136.4H268.978C270.578 136.4 271.948 136.68 273.088 137.24C274.248 137.8 275.138 138.58 275.758 139.58C276.398 140.58 276.718 141.75 276.718 143.09C276.718 144.43 276.398 145.61 275.758 146.63C275.118 147.65 274.218 148.45 273.058 149.03C271.918 149.59 270.558 149.87 268.978 149.87H262.378V146.33H268.738C269.798 146.33 270.618 146.04 271.198 145.46C271.798 144.86 272.098 144.08 272.098 143.12C272.098 142.16 271.798 141.39 271.198 140.81C270.618 140.23 269.798 139.94 268.738 139.94H263.338V158H258.718ZM285.612 158.3C283.912 158.3 282.432 157.97 281.172 157.31C279.912 156.63 278.932 155.69 278.232 154.49C277.552 153.29 277.212 151.91 277.212 150.35C277.212 148.77 277.552 147.39 278.232 146.21C278.932 145.01 279.902 144.08 281.142 143.42C282.382 142.74 283.822 142.4 285.462 142.4C287.042 142.4 288.412 142.72 289.572 143.36C290.732 144 291.632 144.89 292.272 146.03C292.912 147.17 293.232 148.51 293.232 150.05C293.232 150.37 293.222 150.67 293.202 150.95C293.182 151.21 293.152 151.46 293.112 151.7H279.852V148.73H289.482L288.702 149.27C288.702 148.03 288.402 147.12 287.802 146.54C287.222 145.94 286.422 145.64 285.402 145.64C284.222 145.64 283.302 146.04 282.642 146.84C282.002 147.64 281.682 148.84 281.682 150.44C281.682 152 282.002 153.16 282.642 153.92C283.302 154.68 284.282 155.06 285.582 155.06C286.302 155.06 286.922 154.94 287.442 154.7C287.962 154.46 288.352 154.07 288.612 153.53H292.842C292.342 155.01 291.482 156.18 290.262 157.04C289.062 157.88 287.512 158.3 285.612 158.3ZM295.639 158V142.7H300.049V146.3H300.139V158H295.639ZM300.139 150.02L299.749 146.39C300.109 145.09 300.699 144.1 301.519 143.42C302.339 142.74 303.359 142.4 304.579 142.4C304.959 142.4 305.239 142.44 305.419 142.52V146.72C305.319 146.68 305.179 146.66 304.999 146.66C304.819 146.64 304.599 146.63 304.339 146.63C302.899 146.63 301.839 146.89 301.159 147.41C300.479 147.91 300.139 148.78 300.139 150.02ZM307.358 158V142.7H311.858V158H307.358ZM307.208 140.66V135.8H312.008V140.66H307.208ZM322.645 158.3C320.965 158.3 319.485 157.97 318.205 157.31C316.945 156.63 315.955 155.69 315.235 154.49C314.535 153.27 314.185 151.87 314.185 150.29C314.185 148.71 314.535 147.33 315.235 146.15C315.955 144.97 316.945 144.05 318.205 143.39C319.485 142.73 320.965 142.4 322.645 142.4C324.345 142.4 325.825 142.73 327.085 143.39C328.365 144.05 329.355 144.97 330.055 146.15C330.755 147.33 331.105 148.71 331.105 150.29C331.105 151.87 330.745 153.27 330.025 154.49C329.325 155.69 328.335 156.63 327.055 157.31C325.795 157.97 324.325 158.3 322.645 158.3ZM322.645 154.76C323.345 154.76 323.975 154.58 324.535 154.22C325.115 153.86 325.575 153.35 325.915 152.69C326.255 152.01 326.425 151.2 326.425 150.26C326.425 148.88 326.055 147.82 325.315 147.08C324.595 146.32 323.705 145.94 322.645 145.94C321.585 145.94 320.685 146.32 319.945 147.08C319.225 147.84 318.865 148.9 318.865 150.26C318.865 151.2 319.035 152.01 319.375 152.69C319.715 153.35 320.165 153.86 320.725 154.22C321.305 154.58 321.945 154.76 322.645 154.76ZM344.613 158V154.61L344.913 154.67C344.713 155.77 344.113 156.65 343.113 157.31C342.133 157.97 340.953 158.3 339.573 158.3C338.173 158.3 336.953 157.98 335.913 157.34C334.893 156.68 334.103 155.76 333.543 154.58C332.983 153.4 332.703 152.01 332.703 150.41C332.703 148.79 332.993 147.38 333.573 146.18C334.153 144.98 334.963 144.05 336.003 143.39C337.063 142.73 338.293 142.4 339.693 142.4C341.153 142.4 342.333 142.74 343.233 143.42C344.153 144.1 344.693 145.03 344.853 146.21L344.523 146.24V136.4H349.023V158H344.613ZM341.013 154.7C342.073 154.7 342.933 154.33 343.593 153.59C344.253 152.83 344.583 151.75 344.583 150.35C344.583 148.95 344.243 147.88 343.563 147.14C342.903 146.38 342.033 146 340.953 146C339.913 146 339.053 146.38 338.373 147.14C337.713 147.9 337.383 148.98 337.383 150.38C337.383 151.78 337.713 152.85 338.373 153.59C339.053 154.33 339.933 154.7 341.013 154.7Z" fill="black"/>
<rect x="20" y="766" width="353" height="52" rx="26" fill="#FF657D"/>
<path d="M167.787 797.66C166.966 797.66 166.209 797.516 165.515 797.228C164.833 796.929 164.235 796.513 163.723 795.98C163.211 795.447 162.817 794.817 162.539 794.092C162.262 793.367 162.123 792.572 162.123 791.708C162.123 790.844 162.262 790.055 162.539 789.34C162.817 788.625 163.206 788.007 163.707 787.484C164.219 786.951 164.817 786.54 165.499 786.252C166.193 785.964 166.955 785.82 167.787 785.82C168.705 785.82 169.531 786.001 170.267 786.364C171.003 786.727 171.606 787.239 172.075 787.9C172.555 788.551 172.849 789.319 172.955 790.204H170.907C170.779 789.34 170.433 788.679 169.867 788.22C169.302 787.751 168.614 787.516 167.803 787.516C167.089 787.516 166.465 787.687 165.931 788.028C165.398 788.369 164.982 788.855 164.683 789.484C164.385 790.103 164.235 790.839 164.235 791.692C164.235 792.567 164.385 793.324 164.683 793.964C164.982 794.593 165.403 795.084 165.947 795.436C166.491 795.788 167.115 795.964 167.819 795.964C168.609 795.964 169.286 795.735 169.851 795.276C170.417 794.807 170.774 794.145 170.923 793.292H172.987C172.859 794.167 172.555 794.935 172.075 795.596C171.606 796.257 171.003 796.769 170.267 797.132C169.531 797.484 168.705 797.66 167.787 797.66ZM178.237 797.66C177.373 797.66 176.61 797.479 175.949 797.116C175.298 796.753 174.792 796.252 174.429 795.612C174.066 794.961 173.885 794.22 173.885 793.388C173.885 792.556 174.066 791.825 174.429 791.196C174.792 790.567 175.298 790.076 175.949 789.724C176.61 789.361 177.373 789.18 178.237 789.18C179.112 789.18 179.874 789.361 180.525 789.724C181.176 790.076 181.682 790.567 182.045 791.196C182.408 791.825 182.589 792.556 182.589 793.388C182.589 794.22 182.402 794.961 182.029 795.612C181.666 796.252 181.16 796.753 180.509 797.116C179.858 797.479 179.101 797.66 178.237 797.66ZM178.237 796.044C178.664 796.044 179.048 795.937 179.389 795.724C179.73 795.5 179.997 795.191 180.189 794.796C180.381 794.391 180.477 793.916 180.477 793.372C180.477 792.572 180.264 791.943 179.837 791.484C179.421 791.025 178.888 790.796 178.237 790.796C177.586 790.796 177.048 791.025 176.621 791.484C176.194 791.943 175.981 792.572 175.981 793.372C175.981 793.916 176.077 794.391 176.269 794.796C176.472 795.191 176.738 795.5 177.069 795.724C177.41 795.937 177.8 796.044 178.237 796.044ZM184.072 797.5V789.34H186.04V791.26H186.088V797.5H184.072ZM189.8 797.5V792.348C189.8 791.847 189.672 791.468 189.416 791.212C189.16 790.956 188.787 790.828 188.296 790.828C187.869 790.828 187.485 790.924 187.144 791.116C186.813 791.308 186.552 791.575 186.36 791.916C186.179 792.257 186.088 792.652 186.088 793.1L185.88 791.148C186.157 790.551 186.563 790.076 187.096 789.724C187.629 789.361 188.269 789.18 189.016 789.18C189.901 789.18 190.589 789.431 191.08 789.932C191.581 790.433 191.832 791.1 191.832 791.932V797.5H189.8ZM197.236 797.66C196.233 797.66 195.492 797.425 195.012 796.956C194.543 796.476 194.308 795.761 194.308 794.812V787.484L196.34 786.732V794.86C196.34 795.255 196.447 795.548 196.66 795.74C196.873 795.932 197.209 796.028 197.668 796.028C197.849 796.028 198.009 796.017 198.148 795.996C198.297 795.964 198.436 795.927 198.564 795.884V797.452C198.436 797.516 198.255 797.564 198.02 797.596C197.785 797.639 197.524 797.66 197.236 797.66ZM192.74 790.924V789.34H198.564V790.924H192.74ZM200.025 797.5V789.34H202.041V797.5H200.025ZM199.929 787.996V785.772H202.121V787.996H199.929ZM204.181 797.5V789.34H206.149V791.26H206.197V797.5H204.181ZM209.909 797.5V792.348C209.909 791.847 209.781 791.468 209.525 791.212C209.269 790.956 208.896 790.828 208.405 790.828C207.979 790.828 207.595 790.924 207.253 791.116C206.923 791.308 206.661 791.575 206.469 791.916C206.288 792.257 206.197 792.652 206.197 793.1L205.989 791.148C206.267 790.551 206.672 790.076 207.205 789.724C207.739 789.361 208.379 789.18 209.125 789.18C210.011 789.18 210.699 789.431 211.189 789.932C211.691 790.433 211.941 791.1 211.941 791.932V797.5H209.909ZM216.431 797.66C215.865 797.66 215.375 797.543 214.959 797.308C214.553 797.063 214.239 796.732 214.015 796.316C213.801 795.9 213.695 795.431 213.695 794.908V789.34H215.711V794.492C215.711 794.993 215.833 795.372 216.079 795.628C216.335 795.884 216.692 796.012 217.151 796.012C217.567 796.012 217.929 795.916 218.239 795.724C218.559 795.532 218.809 795.265 218.991 794.924C219.183 794.572 219.279 794.177 219.279 793.74L219.487 795.692C219.22 796.289 218.82 796.769 218.287 797.132C217.764 797.484 217.145 797.66 216.431 797.66ZM219.343 797.5V795.58H219.279V789.34H221.311V797.5H219.343ZM227.064 797.66C226.2 797.66 225.443 797.479 224.792 797.116C224.152 796.753 223.651 796.252 223.288 795.612C222.936 794.972 222.76 794.236 222.76 793.404C222.76 792.572 222.936 791.841 223.288 791.212C223.651 790.572 224.152 790.076 224.792 789.724C225.432 789.361 226.179 789.18 227.032 789.18C227.843 789.18 228.547 789.351 229.144 789.692C229.741 790.023 230.205 790.492 230.536 791.1C230.867 791.708 231.032 792.417 231.032 793.228C231.032 793.377 231.027 793.516 231.016 793.644C231.005 793.772 230.989 793.9 230.968 794.028H224.008V792.62H229.416L229 793.004C229 792.236 228.824 791.66 228.472 791.276C228.12 790.892 227.629 790.7 227 790.7C226.317 790.7 225.773 790.935 225.368 791.404C224.973 791.873 224.776 792.551 224.776 793.436C224.776 794.311 224.973 794.983 225.368 795.452C225.773 795.911 226.344 796.14 227.08 796.14C227.507 796.14 227.88 796.06 228.2 795.9C228.52 795.74 228.755 795.495 228.904 795.164H230.808C230.541 795.932 230.088 796.54 229.448 796.988C228.819 797.436 228.024 797.66 227.064 797.66Z" fill="white"/>
<path d="M45.4795 26.0597C44.4644 26.0597 43.6358 25.7438 42.9936 25.1119C42.3617 24.4697 42.0458 23.61 42.0458 22.5327C42.0458 22.0356 42.1183 21.5591 42.2633 21.1033C42.4187 20.6476 42.6466 20.2488 42.947 19.907C43.2474 19.5548 43.6151 19.2803 44.0501 19.0835C44.4955 18.8867 44.9979 18.7883 45.5572 18.7883C46.3755 18.7883 47.0436 18.9592 47.5615 19.301C48.0898 19.6325 48.4834 20.0572 48.7424 20.5751C49.0013 21.093 49.1722 21.6264 49.2551 22.1754C49.3379 22.7244 49.3794 23.2837 49.3794 23.8534C49.3794 24.3299 49.3379 24.884 49.2551 25.5159C49.1826 26.1374 49.0168 26.8003 48.7579 27.5047C48.4989 28.1986 48.095 28.7891 47.546 29.2759C46.997 29.7627 46.2875 30.0061 45.4174 30.0061C44.8166 30.0061 44.3039 29.9077 43.8792 29.7109C43.4545 29.5245 43.1179 29.2811 42.8693 28.9807C42.6207 28.6699 42.4394 28.354 42.3255 28.0329C42.2219 27.7015 42.1701 27.3855 42.1701 27.0851H43.5374C43.5788 27.6445 43.7601 28.0847 44.0812 28.4058C44.4023 28.7166 44.8373 28.8719 45.3863 28.8719C46.1321 28.8719 46.7122 28.5456 47.1265 27.8931C47.5512 27.2405 47.8464 26.2047 48.0121 24.7856L47.981 24.7546C47.7842 25.1585 47.4476 25.4796 46.9711 25.7179C46.505 25.9458 46.0078 26.0597 45.4795 26.0597ZM45.6815 24.8323C45.899 24.8323 46.1217 24.8012 46.3496 24.739C46.5879 24.6665 46.8157 24.5422 47.0333 24.3661C47.2508 24.19 47.4269 23.9363 47.5615 23.6048C47.7065 23.2734 47.779 22.8538 47.779 22.3463C47.779 21.673 47.5926 21.1189 47.2197 20.6838C46.8572 20.2384 46.3082 20.0157 45.5728 20.0157C44.9409 20.0157 44.4282 20.2436 44.0346 20.6994C43.6513 21.1448 43.4597 21.7352 43.4597 22.4706C43.4597 22.9678 43.527 23.3769 43.6617 23.698C43.7963 24.0088 43.9724 24.247 44.1899 24.4127C44.4178 24.5785 44.6561 24.6924 44.9047 24.7546C45.1533 24.8064 45.4122 24.8323 45.6815 24.8323ZM52.6214 28.064V29.7109H51.0056V28.064H52.6214ZM52.6214 21.6937V23.3407H51.0056V21.6937H52.6214ZM61.7312 27.0541H60.1309V29.7109H58.7636V27.0541H53.9937V25.7179L58.9967 18.7883H60.1309V25.8732H61.7312V27.0541ZM58.7325 20.9169L55.2522 25.8732H58.7636V20.9169H58.7325ZM67.4437 18.7883V29.7109H65.9832V21.9579H63.4351V20.8703C63.9426 20.8392 64.3466 20.7926 64.647 20.7304C64.9474 20.6683 65.2063 20.5699 65.4239 20.4352C65.6414 20.3006 65.8278 20.1038 65.9832 19.8448C66.1386 19.5859 66.268 19.2337 66.3716 18.7883H67.4437Z" fill="black"/>
<path opacity="0.35" d="M341.709 17.8496H357.246C358.999 17.8498 360.419 19.2708 360.419 21.0234V25.5928C360.419 27.3454 358.999 28.7664 357.246 28.7666H341.709C339.956 28.7666 338.535 27.3455 338.535 25.5928V21.0234C338.535 19.2707 339.956 17.8496 341.709 17.8496Z" fill="black" stroke="black" stroke-width="0.9643"/>
<path opacity="0.4" d="M361.816 21.9375V25.7947C362.592 25.468 363.097 24.7081 363.097 23.8661C363.097 23.0241 362.592 22.2642 361.816 21.9375Z" fill="black"/>
<path d="M339.881 21.0232C339.881 20.0137 340.699 19.1953 341.709 19.1953H357.246C358.255 19.1953 359.074 20.0137 359.074 21.0232V25.593C359.074 26.6025 358.256 27.4209 357.246 27.4209H341.709C340.699 27.4209 339.881 26.6025 339.881 25.593V21.0232Z" fill="black"/>
<path d="M321.706 26.5846C323.004 25.4642 324.904 25.4642 326.202 26.5846C326.267 26.6448 326.305 26.7302 326.307 26.8199C326.308 26.9096 326.275 26.9963 326.212 27.0592L324.18 29.152C324.12 29.2134 324.039 29.2486 323.954 29.2486C323.869 29.2486 323.788 29.2135 323.729 29.152L321.696 27.0592C321.634 26.9963 321.599 26.9097 321.601 26.8199C321.602 26.7301 321.641 26.6448 321.706 26.5846ZM318.959 24.0035C321.755 21.3489 326.085 21.349 328.881 24.0035C328.944 24.0657 328.98 24.1513 328.98 24.2408C328.981 24.3303 328.947 24.4166 328.886 24.4801L327.711 25.692C327.59 25.8156 327.395 25.8181 327.271 25.6979C326.352 24.8492 325.158 24.3794 323.919 24.3795C322.681 24.38 321.488 24.8498 320.57 25.6979C320.446 25.8183 320.25 25.8157 320.129 25.692L318.955 24.4801C318.893 24.4166 318.859 24.3304 318.859 24.2408C318.86 24.1514 318.896 24.0657 318.959 24.0035ZM316.215 21.4273C320.503 17.2325 327.268 17.2326 331.557 21.4273C331.619 21.4897 331.654 21.5748 331.654 21.6637C331.655 21.7525 331.621 21.8379 331.56 21.901L330.384 23.1129C330.263 23.2372 330.065 23.2382 329.942 23.1158C328.309 21.5305 326.141 20.6463 323.887 20.6461C321.632 20.6461 319.463 21.5302 317.829 23.1158C317.706 23.2383 317.51 23.2371 317.389 23.1129L316.212 21.901C316.151 21.8379 316.117 21.7525 316.117 21.6637C316.118 21.5748 316.153 21.4896 316.215 21.4273Z" fill="black"/>
<path d="M301.495 21.0231C301.495 20.5183 301.904 20.1092 302.409 20.1092H303.323C303.828 20.1092 304.237 20.5183 304.237 21.0231V28.3347C304.237 28.8395 303.828 29.2487 303.323 29.2487H302.409C301.904 29.2487 301.495 28.8395 301.495 28.3347V21.0231Z" fill="black"/>
<path d="M306.065 19.1952C306.065 18.6904 306.474 18.2812 306.979 18.2812H307.893C308.397 18.2812 308.807 18.6904 308.807 19.1952V28.3347C308.807 28.8395 308.397 29.2487 307.893 29.2487H306.979C306.474 29.2487 306.065 28.8395 306.065 28.3347V19.1952Z" fill="black"/>
<path d="M296.925 24.2219C296.925 23.7172 297.334 23.308 297.839 23.308H298.753C299.258 23.308 299.667 23.7172 299.667 24.2219V28.3347C299.667 28.8395 299.258 29.2487 298.753 29.2487H297.839C297.334 29.2487 296.925 28.8395 296.925 28.3347V24.2219Z" fill="black"/>
<path d="M292.355 26.5068C292.355 26.0021 292.765 25.5929 293.269 25.5929H294.183C294.688 25.5929 295.097 26.0021 295.097 26.5068V28.3347C295.097 28.8395 294.688 29.2487 294.183 29.2487H293.269C292.765 29.2487 292.355 28.8395 292.355 28.3347V26.5068Z" fill="black"/>
<rect x="20" y="185" width="353" height="260" rx="14" fill="white"/>
<path d="M112 213C112 208.582 115.582 205 120 205H213.685C218.103 205 221.685 208.582 221.685 213V425H112V213Z" fill="white"/>
<g opacity="0.5">
<path d="M167.317 232.5V222.292L167.653 222.372C167.525 222.66 167.279 222.948 166.917 223.236C166.554 223.524 166.133 223.775 165.653 223.988C165.183 224.201 164.698 224.345 164.197 224.42V223.188C164.698 223.103 165.178 222.953 165.637 222.74C166.095 222.527 166.501 222.271 166.853 221.972C167.215 221.663 167.482 221.332 167.653 220.98H168.597V232.5H167.317Z" fill="url(#paint1_linear_231_12858)"/>
<path d="M163.122 276.5V275.38C164.274 274.431 165.234 273.599 166.002 272.884C166.781 272.169 167.4 271.535 167.858 270.98C168.328 270.425 168.658 269.919 168.85 269.46C169.053 268.991 169.154 268.532 169.154 268.084C169.154 267.423 168.957 266.905 168.562 266.532C168.168 266.159 167.624 265.972 166.93 265.972C166.216 265.972 165.64 266.175 165.202 266.58C164.765 266.985 164.498 267.567 164.402 268.324H163.026C163.133 267.279 163.533 266.436 164.226 265.796C164.93 265.145 165.864 264.82 167.026 264.82C168.104 264.82 168.962 265.108 169.602 265.684C170.242 266.26 170.562 267.049 170.562 268.052C170.562 268.596 170.456 269.14 170.242 269.684C170.04 270.228 169.698 270.799 169.218 271.396C168.749 271.993 168.125 272.655 167.346 273.38C166.578 274.095 165.624 274.905 164.482 275.812L164.178 275.348H170.754V276.5H163.122Z" fill="url(#paint2_linear_231_12858)"/>
</g>
<mask id="path-27-outside-1_231_12858" maskUnits="userSpaceOnUse" x="111.842" y="292" width="110" height="46" fill="black">
<rect fill="white" x="111.842" y="292" width="110" height="46"/>
<path d="M111.842 293H221.842V337H111.842V293Z"/>
</mask>
<path d="M111.842 337V337.5H112.824V337V336.5H111.842V337ZM114.788 337V337.5H116.753V337V336.5H114.788V337ZM118.717 337V337.5H120.681V337V336.5H118.717V337ZM122.645 337V337.5H124.61V337V336.5H122.645V337ZM126.574 337V337.5H128.538V337V336.5H126.574V337ZM130.503 337V337.5H132.467V337V336.5H130.503V337ZM134.431 337V337.5H136.395V337V336.5H134.431V337ZM138.36 337V337.5H140.324V337V336.5H138.36V337ZM142.288 337V337.5H144.253V337V336.5H142.288V337ZM146.217 337V337.5H148.181V337V336.5H146.217V337ZM150.145 337V337.5H152.11V337V336.5H150.145V337ZM154.074 337V337.5H156.038V337V336.5H154.074V337ZM158.003 337V337.5H159.967V337V336.5H158.003V337ZM161.931 337V337.5H163.895V337V336.5H161.931V337ZM165.86 337V337.5H167.824V337V336.5H165.86V337ZM169.788 337V337.5H171.753V337V336.5H169.788V337ZM173.717 337V337.5H175.681V337V336.5H173.717V337ZM177.645 337V337.5H179.61V337V336.5H177.645V337ZM181.574 337V337.5H183.538V337V336.5H181.574V337ZM185.503 337V337.5H187.467V337V336.5H185.503V337ZM189.431 337V337.5H191.395V337V336.5H189.431V337ZM193.36 337V337.5H195.324V337V336.5H193.36V337ZM197.288 337V337.5H199.253V337V336.5H197.288V337ZM201.217 337V337.5H203.181V337V336.5H201.217V337ZM205.145 337V337.5H207.11V337V336.5H205.145V337ZM209.074 337V337.5H211.038V337V336.5H209.074V337ZM213.003 337V337.5H214.967V337V336.5H213.003V337ZM216.931 337V337.5H218.895V337V336.5H216.931V337ZM220.86 337V337.5H221.842V337V336.5H220.86V337ZM221.842 293V292.5H220.86V293V293.5H221.842V293ZM218.895 293V292.5H216.931V293V293.5H218.895V293ZM214.967 293V292.5H213.003V293V293.5H214.967V293ZM211.038 293V292.5H209.074V293V293.5H211.038V293ZM207.11 293V292.5H205.145V293V293.5H207.11V293ZM203.181 293V292.5H201.217V293V293.5H203.181V293ZM199.253 293V292.5H197.288V293V293.5H199.253V293ZM195.324 293V292.5H193.36V293V293.5H195.324V293ZM191.395 293V292.5H189.431V293V293.5H191.395V293ZM187.467 293V292.5H185.503V293V293.5H187.467V293ZM183.538 293V292.5H181.574V293V293.5H183.538V293ZM179.61 293V292.5H177.645V293V293.5H179.61V293ZM175.681 293V292.5H173.717V293V293.5H175.681V293ZM171.753 293V292.5H169.788V293V293.5H171.753V293ZM167.824 293V292.5H165.86V293V293.5H167.824V293ZM163.895 293V292.5H161.931V293V293.5H163.895V293ZM159.967 293V292.5H158.002V293V293.5H159.967V293ZM156.038 293V292.5H154.074V293V293.5H156.038V293ZM152.11 293V292.5H150.145V293V293.5H152.11V293ZM148.181 293V292.5H146.217V293V293.5H148.181V293ZM144.252 293V292.5H142.288V293V293.5H144.252V293ZM140.324 293V292.5H138.36V293V293.5H140.324V293ZM136.395 293V292.5H134.431V293V293.5H136.395V293ZM132.467 293V292.5H130.502V293V293.5H132.467V293ZM128.538 293V292.5H126.574V293V293.5H128.538V293ZM124.61 293V292.5H122.645V293V293.5H124.61V293ZM120.681 293V292.5H118.717V293V293.5H120.681V293ZM116.752 293V292.5H114.788V293V293.5H116.752V293ZM112.824 293V292.5H111.842V293V293.5H112.824V293ZM111.842 337V338H112.824V337V336H111.842V337ZM114.788 337V338H116.753V337V336H114.788V337ZM118.717 337V338H120.681V337V336H118.717V337ZM122.645 337V338H124.61V337V336H122.645V337ZM126.574 337V338H128.538V337V336H126.574V337ZM130.503 337V338H132.467V337V336H130.503V337ZM134.431 337V338H136.395V337V336H134.431V337ZM138.36 337V338H140.324V337V336H138.36V337ZM142.288 337V338H144.253V337V336H142.288V337ZM146.217 337V338H148.181V337V336H146.217V337ZM150.145 337V338H152.11V337V336H150.145V337ZM154.074 337V338H156.038V337V336H154.074V337ZM158.003 337V338H159.967V337V336H158.003V337ZM161.931 337V338H163.895V337V336H161.931V337ZM165.86 337V338H167.824V337V336H165.86V337ZM169.788 337V338H171.753V337V336H169.788V337ZM173.717 337V338H175.681V337V336H173.717V337ZM177.645 337V338H179.61V337V336H177.645V337ZM181.574 337V338H183.538V337V336H181.574V337ZM185.503 337V338H187.467V337V336H185.503V337ZM189.431 337V338H191.395V337V336H189.431V337ZM193.36 337V338H195.324V337V336H193.36V337ZM197.288 337V338H199.253V337V336H197.288V337ZM201.217 337V338H203.181V337V336H201.217V337ZM205.145 337V338H207.11V337V336H205.145V337ZM209.074 337V338H211.038V337V336H209.074V337ZM213.003 337V338H214.967V337V336H213.003V337ZM216.931 337V338H218.895V337V336H216.931V337ZM220.86 337V338H221.842V337V336H220.86V337ZM221.842 293V292H220.86V293V294H221.842V293ZM218.895 293V292H216.931V293V294H218.895V293ZM214.967 293V292H213.003V293V294H214.967V293ZM211.038 293V292H209.074V293V294H211.038V293ZM207.11 293V292H205.145V293V294H207.11V293ZM203.181 293V292H201.217V293V294H203.181V293ZM199.253 293V292H197.288V293V294H199.253V293ZM195.324 293V292H193.36V293V294H195.324V293ZM191.395 293V292H189.431V293V294H191.395V293ZM187.467 293V292H185.503V293V294H187.467V293ZM183.538 293V292H181.574V293V294H183.538V293ZM179.61 293V292H177.645V293V294H179.61V293ZM175.681 293V292H173.717V293V294H175.681V293ZM171.753 293V292H169.788V293V294H171.753V293ZM167.824 293V292H165.86V293V294H167.824V293ZM163.895 293V292H161.931V293V294H163.895V293ZM159.967 293V292H158.002V293V294H159.967V293ZM156.038 293V292H154.074V293V294H156.038V293ZM152.11 293V292H150.145V293V294H152.11V293ZM148.181 293V292H146.217V293V294H148.181V293ZM144.252 293V292H142.288V293V294H144.252V293ZM140.324 293V292H138.36V293V294H140.324V293ZM136.395 293V292H134.431V293V294H136.395V293ZM132.467 293V292H130.502V293V294H132.467V293ZM128.538 293V292H126.574V293V294H128.538V293ZM124.61 293V292H122.645V293V294H124.61V293ZM120.681 293V292H118.717V293V294H120.681V293ZM116.752 293V292H114.788V293V294H116.752V293ZM112.824 293V292H111.842V293V294H112.824V293Z" fill="#E0E0E0" mask="url(#path-27-outside-1_231_12858)"/>
<path d="M167.061 324.76C165.778 324.76 164.643 324.526 163.655 324.058C162.684 323.59 161.896 322.914 161.289 322.03C160.7 321.129 160.336 320.037 160.197 318.754H163.031C163.204 319.985 163.629 320.921 164.305 321.562C164.981 322.186 165.882 322.498 167.009 322.498C168.049 322.498 168.881 322.212 169.505 321.64C170.129 321.068 170.441 320.279 170.441 319.274C170.441 318.251 170.138 317.419 169.531 316.778C168.924 316.137 168.058 315.816 166.931 315.816H164.825V313.606H166.853C167.858 313.606 168.638 313.337 169.193 312.8C169.748 312.263 170.025 311.552 170.025 310.668C170.025 309.767 169.756 309.065 169.219 308.562C168.682 308.042 167.91 307.782 166.905 307.782C165.969 307.782 165.163 308.059 164.487 308.614C163.828 309.169 163.43 309.975 163.291 311.032H160.457C160.578 309.905 160.916 308.935 161.471 308.12C162.043 307.288 162.797 306.647 163.733 306.196C164.686 305.745 165.77 305.52 166.983 305.52C168.179 305.52 169.219 305.719 170.103 306.118C171.004 306.517 171.698 307.089 172.183 307.834C172.686 308.579 172.937 309.455 172.937 310.46C172.937 311.327 172.738 312.098 172.339 312.774C171.94 313.45 171.412 313.979 170.753 314.36C170.112 314.724 169.392 314.906 168.595 314.906L168.491 314.36C169.496 314.36 170.363 314.585 171.091 315.036C171.836 315.469 172.408 316.067 172.807 316.83C173.206 317.575 173.405 318.433 173.405 319.404C173.405 320.479 173.128 321.423 172.573 322.238C172.036 323.035 171.29 323.659 170.337 324.11C169.384 324.543 168.292 324.76 167.061 324.76Z" fill="#FF657D"/>
<g opacity="0.5">
<path d="M168.317 364.5V361.46L168.349 361.14V354.564H168.781L163.917 361.22L163.485 360.692H171.165V361.844H162.589V360.852L168.381 352.98H169.693V364.5H168.317Z" fill="url(#paint3_linear_231_12858)"/>
<path d="M166.92 408.66C165.779 408.66 164.867 408.356 164.184 407.748C163.501 407.129 163.085 406.329 162.936 405.348H164.344C164.483 406.041 164.776 406.575 165.224 406.948C165.683 407.321 166.237 407.508 166.888 407.508C167.571 407.508 168.147 407.295 168.616 406.868C169.096 406.441 169.336 405.764 169.336 404.836C169.336 403.908 169.096 403.215 168.616 402.756C168.147 402.287 167.549 402.052 166.824 402.052C166.301 402.052 165.848 402.159 165.464 402.372C165.08 402.585 164.824 402.836 164.696 403.124H163.512L164.04 396.98H170.12V398.132H164.824L165.272 397.652L164.904 402.292L164.6 402.18C164.792 401.86 165.101 401.583 165.528 401.348C165.955 401.113 166.477 400.996 167.096 400.996C167.811 400.996 168.44 401.151 168.984 401.46C169.539 401.769 169.971 402.212 170.28 402.788C170.6 403.353 170.76 404.036 170.76 404.836C170.76 405.636 170.6 406.324 170.28 406.9C169.971 407.465 169.528 407.903 168.952 408.212C168.387 408.511 167.709 408.66 166.92 408.66Z" fill="url(#paint4_linear_231_12858)"/>
</g>
<mask id="path-32-outside-2_231_12858" maskUnits="userSpaceOnUse" x="216.248" y="292" width="66" height="46" fill="black">
<rect fill="white" x="216.248" y="292" width="66" height="46"/>
<path d="M216.248 293H282.001V337H216.248V293Z"/>
</mask>
<path d="M216.248 337V337.5H217.275V337V336.5H216.248V337ZM219.33 337V337.5H221.385V337V336.5H219.33V337ZM223.44 337V337.5H225.494V337V336.5H223.44V337ZM227.549 337V337.5H229.604V337V336.5H227.549V337ZM231.659 337V337.5H233.714V337V336.5H231.659V337ZM235.768 337V337.5H237.823V337V336.5H235.768V337ZM239.878 337V337.5H241.933V337V336.5H239.878V337ZM243.987 337V337.5H246.042V337V336.5H243.987V337ZM248.097 337V337.5H250.152V337V336.5H248.097V337ZM252.206 337V337.5H254.261V337V336.5H252.206V337ZM256.316 337V337.5H258.371V337V336.5H256.316V337ZM260.425 337V337.5H262.48V337V336.5H260.425V337ZM264.535 337V337.5H266.59V337V336.5H264.535V337ZM268.645 337V337.5H270.699V337V336.5H268.645V337ZM272.754 337V337.5H274.809V337V336.5H272.754V337ZM276.864 337V337.5H278.918V337V336.5H276.864V337ZM280.973 337V337.5H282.001V337V336.5H280.973V337ZM282.001 293V292.5H280.973V293V293.5H282.001V293ZM278.918 293V292.5H276.864V293V293.5H278.918V293ZM274.809 293V292.5H272.754V293V293.5H274.809V293ZM270.699 293V292.5H268.645V293V293.5H270.699V293ZM266.59 293V292.5H264.535V293V293.5H266.59V293ZM262.48 293V292.5H260.426V293V293.5H262.48V293ZM258.371 293V292.5H256.316V293V293.5H258.371V293ZM254.261 293V292.5H252.206V293V293.5H254.261V293ZM250.152 293V292.5H248.097V293V293.5H250.152V293ZM246.042 293V292.5H243.987V293V293.5H246.042V293ZM241.933 293V292.5H239.878V293V293.5H241.933V293ZM237.823 293V292.5H235.768V293V293.5H237.823V293ZM233.714 293V292.5H231.659V293V293.5H233.714V293ZM229.604 293V292.5H227.549V293V293.5H229.604V293ZM225.495 293V292.5H223.44V293V293.5H225.495V293ZM221.385 293V292.5H219.33V293V293.5H221.385V293ZM217.275 293V292.5H216.248V293V293.5H217.275V293ZM216.248 337V338H217.275V337V336H216.248V337ZM219.33 337V338H221.385V337V336H219.33V337ZM223.44 337V338H225.494V337V336H223.44V337ZM227.549 337V338H229.604V337V336H227.549V337ZM231.659 337V338H233.714V337V336H231.659V337ZM235.768 337V338H237.823V337V336H235.768V337ZM239.878 337V338H241.933V337V336H239.878V337ZM243.987 337V338H246.042V337V336H243.987V337ZM248.097 337V338H250.152V337V336H248.097V337ZM252.206 337V338H254.261V337V336H252.206V337ZM256.316 337V338H258.371V337V336H256.316V337ZM260.425 337V338H262.48V337V336H260.425V337ZM264.535 337V338H266.59V337V336H264.535V337ZM268.645 337V338H270.699V337V336H268.645V337ZM272.754 337V338H274.809V337V336H272.754V337ZM276.864 337V338H278.918V337V336H276.864V337ZM280.973 337V338H282.001V337V336H280.973V337ZM282.001 293V292H280.973V293V294H282.001V293ZM278.918 293V292H276.864V293V294H278.918V293ZM274.809 293V292H272.754V293V294H274.809V293ZM270.699 293V292H268.645V293V294H270.699V293ZM266.59 293V292H264.535V293V294H266.59V293ZM262.48 293V292H260.426V293V294H262.48V293ZM258.371 293V292H256.316V293V294H258.371V293ZM254.261 293V292H252.206V293V294H254.261V293ZM250.152 293V292H248.097V293V294H250.152V293ZM246.042 293V292H243.987V293V294H246.042V293ZM241.933 293V292H239.878V293V294H241.933V293ZM237.823 293V292H235.768V293V294H237.823V293ZM233.714 293V292H231.659V293V294H233.714V293ZM229.604 293V292H227.549V293V294H229.604V293ZM225.495 293V292H223.44V293V294H225.495V293ZM221.385 293V292H219.33V293V294H221.385V293ZM217.275 293V292H216.248V293V294H217.275V293Z" fill="#E0E0E0" mask="url(#path-32-outside-2_231_12858)"/>
<path d="M233.339 320.5V319.348H236.427C237.387 319.348 238.214 319.156 238.907 318.772C239.6 318.377 240.134 317.828 240.507 317.124C240.88 316.42 241.067 315.604 241.067 314.676C241.067 313.759 240.88 312.959 240.507 312.276C240.134 311.593 239.6 311.065 238.907 310.692C238.224 310.319 237.398 310.132 236.427 310.132H233.339V308.98H236.427C237.632 308.98 238.683 309.22 239.579 309.7C240.475 310.169 241.168 310.836 241.659 311.7C242.16 312.553 242.411 313.556 242.411 314.708C242.411 315.86 242.16 316.873 241.659 317.748C241.158 318.612 240.459 319.289 239.563 319.78C238.678 320.26 237.638 320.5 236.443 320.5H233.339ZM232.555 320.5V308.98H233.867V320.5H232.555ZM249.436 320.5C249.393 320.319 249.361 320.111 249.34 319.876C249.329 319.641 249.324 319.343 249.324 318.98H249.244V315.076C249.244 314.457 249.1 314.004 248.812 313.716C248.534 313.417 248.081 313.268 247.452 313.268C246.833 313.268 246.337 313.396 245.964 313.652C245.601 313.897 245.398 314.249 245.356 314.708H244.124C244.177 313.919 244.508 313.3 245.116 312.852C245.724 312.404 246.518 312.18 247.5 312.18C248.513 312.18 249.265 312.42 249.756 312.9C250.246 313.38 250.492 314.1 250.492 315.06V318.98C250.492 319.215 250.508 319.46 250.54 319.716C250.572 319.961 250.614 320.223 250.668 320.5H249.436ZM246.636 320.66C245.793 320.66 245.121 320.457 244.62 320.052C244.129 319.636 243.884 319.071 243.884 318.356C243.884 317.641 244.129 317.087 244.62 316.692C245.11 316.297 245.825 316.02 246.764 315.86L249.612 315.38V316.436L246.956 316.852C246.358 316.948 245.905 317.108 245.596 317.332C245.286 317.556 245.132 317.881 245.132 318.308C245.132 318.724 245.27 319.039 245.548 319.252C245.836 319.465 246.257 319.572 246.812 319.572C247.526 319.572 248.108 319.412 248.556 319.092C249.014 318.761 249.244 318.335 249.244 317.812L249.452 318.948C249.281 319.492 248.945 319.913 248.444 320.212C247.953 320.511 247.35 320.66 246.636 320.66ZM253.304 323.78L255.128 319.54L255.416 319.092L258.088 312.34H259.4L254.664 323.78H253.304ZM255.272 320.58L251.608 312.34H253.016L256.168 319.716L255.272 320.58ZM263.555 320.66C262.552 320.66 261.752 320.431 261.155 319.972C260.558 319.503 260.216 318.841 260.131 317.988H261.363C261.438 318.511 261.667 318.911 262.051 319.188C262.435 319.465 262.947 319.604 263.587 319.604C264.152 319.604 264.595 319.497 264.915 319.284C265.235 319.071 265.395 318.767 265.395 318.372C265.395 318.095 265.304 317.855 265.123 317.652C264.942 317.439 264.579 317.263 264.035 317.124L262.723 316.788C261.976 316.596 261.416 316.303 261.043 315.908C260.67 315.503 260.483 315.023 260.483 314.468C260.483 313.764 260.744 313.209 261.267 312.804C261.79 312.388 262.499 312.18 263.395 312.18C264.28 312.18 265 312.393 265.555 312.82C266.11 313.247 266.424 313.839 266.499 314.596H265.267C265.192 314.159 264.99 313.823 264.659 313.588C264.328 313.353 263.891 313.236 263.347 313.236C262.824 313.236 262.419 313.337 262.131 313.54C261.843 313.732 261.699 314.009 261.699 314.372C261.699 314.649 261.8 314.889 262.003 315.092C262.216 315.295 262.568 315.465 263.059 315.604L264.339 315.956C265.096 316.159 265.667 316.468 266.051 316.884C266.435 317.3 266.627 317.801 266.627 318.388C266.627 319.103 266.355 319.663 265.811 320.068C265.267 320.463 264.515 320.66 263.555 320.66Z" fill="#FF657D"/>
</g>
<defs>
<linearGradient id="paint0_linear_231_12858" x1="196.5" y1="0" x2="196.5" y2="852" gradientUnits="userSpaceOnUse">
<stop stop-color="white"/>
<stop offset="1" stop-color="#FFF0F2"/>
</linearGradient>
<linearGradient id="paint1_linear_231_12858" x1="166.842" y1="236.5" x2="166.842" y2="217.5" gradientUnits="userSpaceOnUse">
<stop stop-color="#8C8C8C"/>
<stop offset="1" stop-color="white"/>
</linearGradient>
<linearGradient id="paint2_linear_231_12858" x1="166.842" y1="261.5" x2="166.842" y2="280.5" gradientUnits="userSpaceOnUse">
<stop stop-color="#A3A3A3"/>
<stop offset="1"/>
</linearGradient>
<linearGradient id="paint3_linear_231_12858" x1="166.842" y1="349.5" x2="166.842" y2="368.5" gradientUnits="userSpaceOnUse">
<stop/>
<stop offset="1" stop-color="#A3A3A3"/>
</linearGradient>
<linearGradient id="paint4_linear_231_12858" x1="166.842" y1="412.5" x2="166.842" y2="393.5" gradientUnits="userSpaceOnUse">
<stop stop-color="white"/>
<stop offset="1" stop-color="#8C8C8C"/>
</linearGradient>
<clipPath id="clip0_231_12858">
<rect width="393" height="852" rx="40" fill="white"/>
</clipPath>
</defs>
</svg>