<svg xmlns="http://www.w3.org/2000/svg" width="393" height="852" viewBox="0 0 393 852" fill="none">
<g clip-path="url(#clip0_231_12888)">
<rect width="393" height="852" rx="40" fill="url(#paint0_linear_231_12888)"/>
<rect x="130" y="839" width="134" height="5" rx="2.5" fill="black"/>
<rect x="20" y="65" width="44" height="44" rx="15" fill="#F9F9F9"/>
<path d="M45 94L38 87L45 80" stroke="black" stroke-width="1.5" stroke-linecap="round" stroke-linejoin="round"/>
<rect x="88" y="83" width="30" height="8" rx="4" fill="#FFF3F4"/>
<rect x="121" y="83" width="30" height="8" rx="4" fill="#FFF3F4"/>
<rect x="154" y="83" width="30" height="8" rx="4" fill="#FFF3F4"/>
<rect x="187" y="83" width="30" height="8" rx="4" fill="#FFF3F4"/>
<rect x="220" y="83" width="30" height="8" rx="4" fill="#FFF3F4"/>
<rect x="253" y="83" width="30" height="8" rx="4" fill="#FF657D"/>
<rect x="286" y="83" width="30" height="8" rx="4" fill="#FFF3F4"/>
<path d="M345.613 92.66C344.152 92.66 343.021 92.1693 342.221 91.188C341.432 90.196 341.037 88.788 341.037 86.964C341.037 85.684 341.224 84.5853 341.597 83.668C341.981 82.7507 342.525 82.0467 343.229 81.556C343.944 81.0653 344.781 80.82 345.741 80.82C346.819 80.82 347.699 81.1133 348.381 81.7C349.064 82.276 349.485 83.0813 349.645 84.116H347.533C347.469 83.5827 347.272 83.1773 346.941 82.9C346.621 82.612 346.216 82.468 345.725 82.468C344.893 82.468 344.264 82.8253 343.837 83.54C343.421 84.2547 343.213 85.3533 343.213 86.836V87.876L342.765 87.732C342.872 87.22 343.08 86.7773 343.389 86.404C343.699 86.0307 344.088 85.7427 344.557 85.54C345.027 85.3373 345.544 85.236 346.109 85.236C346.845 85.236 347.491 85.3907 348.045 85.7C348.6 86.0093 349.032 86.4413 349.341 86.996C349.661 87.54 349.821 88.1853 349.821 88.932C349.821 89.6787 349.645 90.3347 349.293 90.9C348.941 91.4547 348.451 91.8867 347.821 92.196C347.192 92.5053 346.456 92.66 345.613 92.66ZM345.501 91.012C346.109 91.012 346.611 90.8307 347.005 90.468C347.4 90.1053 347.597 89.5933 347.597 88.932C347.597 88.26 347.4 87.748 347.005 87.396C346.611 87.0333 346.099 86.852 345.469 86.852C344.851 86.852 344.328 87.028 343.901 87.38C343.485 87.7213 343.277 88.2173 343.277 88.868C343.277 89.3053 343.379 89.6893 343.581 90.02C343.784 90.34 344.051 90.5853 344.381 90.756C344.723 90.9267 345.096 91.012 345.501 91.012ZM353.975 93.668L358.151 80.292H359.911L355.735 93.668H353.975ZM366.05 92.5C366.21 90.676 366.653 88.9053 367.378 87.188C368.103 85.4707 369.079 83.828 370.306 82.26L370.338 82.628H363.97V80.98H372.226V82.468C371.458 83.5773 370.797 84.676 370.242 85.764C369.698 86.8413 369.261 87.9347 368.93 89.044C368.61 90.1533 368.407 91.3053 368.322 92.5H366.05Z" fill="black"/>
<path d="M25.8223 158V136.4H30.4423V158H25.8223ZM27.9823 158V154.46H41.9023V158H27.9823ZM27.9823 148.7V145.22H40.8523V148.7H27.9823ZM27.9823 139.94V136.4H41.5423V139.94H27.9823ZM44.9016 158V142.7H49.3116V146.3H49.4016V158H44.9016ZM55.5516 158V148.52C55.5516 147.68 55.3316 147.05 54.8916 146.63C54.4716 146.21 53.8516 146 53.0316 146C52.3316 146 51.7016 146.16 51.1416 146.48C50.6016 146.8 50.1716 147.24 49.8516 147.8C49.5516 148.36 49.4016 149.02 49.4016 149.78L49.0116 146.09C49.5116 144.97 50.2416 144.08 51.2016 143.42C52.1816 142.74 53.3816 142.4 54.8016 142.4C56.5016 142.4 57.8016 142.88 58.7016 143.84C59.6016 144.78 60.0516 146.05 60.0516 147.65V158H55.5516ZM70.0913 158.33C68.1313 158.33 66.6713 157.86 65.7113 156.92C64.7713 155.96 64.3013 154.51 64.3013 152.57V139.28L68.8013 137.6V152.72C68.8013 153.4 68.9913 153.91 69.3713 154.25C69.7513 154.59 70.3413 154.76 71.1413 154.76C71.4413 154.76 71.7213 154.73 71.9813 154.67C72.2413 154.61 72.5013 154.54 72.7613 154.46V157.88C72.5013 158.02 72.1313 158.13 71.6513 158.21C71.1913 158.29 70.6713 158.33 70.0913 158.33ZM61.4513 146.12V142.7H72.7613V146.12H61.4513ZM82.1309 158.3C80.4309 158.3 78.9509 157.97 77.6909 157.31C76.4309 156.63 75.4509 155.69 74.7509 154.49C74.0709 153.29 73.7309 151.91 73.7309 150.35C73.7309 148.77 74.0709 147.39 74.7509 146.21C75.4509 145.01 76.4209 144.08 77.6609 143.42C78.9009 142.74 80.3409 142.4 81.9809 142.4C83.5609 142.4 84.9309 142.72 86.0909 143.36C87.2509 144 88.1509 144.89 88.7909 146.03C89.4309 147.17 89.7509 148.51 89.7509 150.05C89.7509 150.37 89.7409 150.67 89.7209 150.95C89.7009 151.21 89.6709 151.46 89.6309 151.7H76.3709V148.73H86.0009L85.2209 149.27C85.2209 148.03 84.9209 147.12 84.3209 146.54C83.7409 145.94 82.9409 145.64 81.9209 145.64C80.7409 145.64 79.8209 146.04 79.1609 146.84C78.5209 147.64 78.2009 148.84 78.2009 150.44C78.2009 152 78.5209 153.16 79.1609 153.92C79.8209 154.68 80.8009 155.06 82.1009 155.06C82.8209 155.06 83.4409 154.94 83.9609 154.7C84.4809 154.46 84.8709 154.07 85.1309 153.53H89.3609C88.8609 155.01 88.0009 156.18 86.7809 157.04C85.5809 157.88 84.0309 158.3 82.1309 158.3ZM92.1574 158V142.7H96.5674V146.3H96.6574V158H92.1574ZM96.6574 150.02L96.2674 146.39C96.6274 145.09 97.2174 144.1 98.0374 143.42C98.8574 142.74 99.8774 142.4 101.097 142.4C101.477 142.4 101.757 142.44 101.937 142.52V146.72C101.837 146.68 101.697 146.66 101.517 146.66C101.337 146.64 101.117 146.63 100.857 146.63C99.4174 146.63 98.3574 146.89 97.6774 147.41C96.9974 147.91 96.6574 148.78 96.6574 150.02ZM116.393 158V149.27L108.353 136.4H113.903L120.263 147.83H117.653L123.983 136.4H129.053L121.013 149.27V158H116.393ZM135.072 158.3C133.392 158.3 131.912 157.97 130.632 157.31C129.372 156.63 128.382 155.69 127.662 154.49C126.962 153.27 126.612 151.87 126.612 150.29C126.612 148.71 126.962 147.33 127.662 146.15C128.382 144.97 129.372 144.05 130.632 143.39C131.912 142.73 133.392 142.4 135.072 142.4C136.772 142.4 138.252 142.73 139.512 143.39C140.792 144.05 141.782 144.97 142.482 146.15C143.182 147.33 143.532 148.71 143.532 150.29C143.532 151.87 143.172 153.27 142.452 154.49C141.752 155.69 140.762 156.63 139.482 157.31C138.222 157.97 136.752 158.3 135.072 158.3ZM135.072 154.76C135.772 154.76 136.402 154.58 136.962 154.22C137.542 153.86 138.002 153.35 138.342 152.69C138.682 152.01 138.852 151.2 138.852 150.26C138.852 148.88 138.482 147.82 137.742 147.08C137.022 146.32 136.132 145.94 135.072 145.94C134.012 145.94 133.112 146.32 132.372 147.08C131.652 147.84 131.292 148.9 131.292 150.26C131.292 151.2 131.462 152.01 131.802 152.69C132.142 153.35 132.592 153.86 133.152 154.22C133.732 154.58 134.372 154.76 135.072 154.76ZM150.867 158.3C149.787 158.3 148.857 158.07 148.077 157.61C147.317 157.13 146.737 156.5 146.337 155.72C145.937 154.92 145.737 154.03 145.737 153.05V142.7H150.237V152.18C150.237 153.02 150.447 153.65 150.867 154.07C151.287 154.49 151.877 154.7 152.637 154.7C153.317 154.7 153.917 154.54 154.437 154.22C154.957 153.9 155.367 153.46 155.667 152.9C155.987 152.32 156.147 151.66 156.147 150.92L156.537 154.61C156.037 155.71 155.307 156.6 154.347 157.28C153.387 157.96 152.227 158.3 150.867 158.3ZM156.237 158V154.4H156.147V142.7H160.647V158H156.237ZM164.257 158V142.7H168.667V146.3H168.757V158H164.257ZM168.757 150.02L168.367 146.39C168.727 145.09 169.317 144.1 170.137 143.42C170.957 142.74 171.977 142.4 173.197 142.4C173.577 142.4 173.857 142.44 174.037 142.52V146.72C173.937 146.68 173.797 146.66 173.617 146.66C173.437 146.64 173.217 146.63 172.957 146.63C171.517 146.63 170.457 146.89 169.777 147.41C169.097 147.91 168.757 148.78 168.757 150.02ZM191.853 158.3C190.293 158.3 188.853 158.03 187.533 157.49C186.213 156.93 185.063 156.15 184.083 155.15C183.123 154.15 182.373 152.97 181.833 151.61C181.293 150.23 181.023 148.73 181.023 147.11C181.023 145.49 181.283 144.01 181.803 142.67C182.343 141.33 183.093 140.17 184.053 139.19C185.033 138.19 186.183 137.43 187.503 136.91C188.823 136.37 190.273 136.1 191.853 136.1C193.633 136.1 195.233 136.45 196.653 137.15C198.093 137.83 199.263 138.8 200.163 140.06C201.083 141.3 201.643 142.76 201.843 144.44H197.343C197.083 142.9 196.453 141.74 195.453 140.96C194.453 140.16 193.263 139.76 191.883 139.76C190.663 139.76 189.583 140.05 188.643 140.63C187.723 141.21 187.003 142.05 186.483 143.15C185.963 144.23 185.703 145.54 185.703 147.08C185.703 148.64 185.963 149.99 186.483 151.13C187.023 152.25 187.763 153.12 188.703 153.74C189.643 154.34 190.723 154.64 191.943 154.64C193.243 154.64 194.393 154.25 195.393 153.47C196.393 152.69 197.043 151.53 197.343 149.99H201.903C201.643 151.67 201.053 153.14 200.133 154.4C199.213 155.64 198.043 156.6 196.623 157.28C195.203 157.96 193.613 158.3 191.853 158.3ZM205.203 164.15L209.433 154.79L210.213 153.5L214.173 142.7H218.973L209.703 164.15H205.203ZM208.443 157.7L202.563 142.7H207.423L212.253 156.38L208.443 157.7ZM227.173 158.3C225.573 158.3 224.163 157.96 222.943 157.28C221.723 156.6 220.763 155.66 220.063 154.46C219.383 153.26 219.043 151.89 219.043 150.35C219.043 148.81 219.383 147.44 220.063 146.24C220.763 145.04 221.723 144.1 222.943 143.42C224.163 142.74 225.573 142.4 227.173 142.4C228.513 142.4 229.713 142.65 230.773 143.15C231.853 143.63 232.733 144.3 233.413 145.16C234.113 146.02 234.563 147.03 234.763 148.19H230.413C230.193 147.45 229.793 146.89 229.213 146.51C228.653 146.13 227.993 145.94 227.233 145.94C226.513 145.94 225.883 146.12 225.343 146.48C224.823 146.84 224.423 147.35 224.143 148.01C223.863 148.67 223.723 149.45 223.723 150.35C223.723 151.25 223.863 152.03 224.143 152.69C224.423 153.35 224.823 153.86 225.343 154.22C225.883 154.58 226.513 154.76 227.233 154.76C227.993 154.76 228.653 154.57 229.213 154.19C229.793 153.81 230.193 153.25 230.413 152.51H234.763C234.563 153.67 234.113 154.68 233.413 155.54C232.733 156.4 231.853 157.08 230.773 157.58C229.713 158.06 228.513 158.3 227.173 158.3ZM237.089 158V136.4H241.589V158H237.089ZM252.375 158.3C250.675 158.3 249.195 157.97 247.935 157.31C246.675 156.63 245.695 155.69 244.995 154.49C244.315 153.29 243.975 151.91 243.975 150.35C243.975 148.77 244.315 147.39 244.995 146.21C245.695 145.01 246.665 144.08 247.905 143.42C249.145 142.74 250.585 142.4 252.225 142.4C253.805 142.4 255.175 142.72 256.335 143.36C257.495 144 258.395 144.89 259.035 146.03C259.675 147.17 259.995 148.51 259.995 150.05C259.995 150.37 259.985 150.67 259.965 150.95C259.945 151.21 259.915 151.46 259.875 151.7H246.615V148.73H256.245L255.465 149.27C255.465 148.03 255.165 147.12 254.565 146.54C253.985 145.94 253.185 145.64 252.165 145.64C250.985 145.64 250.065 146.04 249.405 146.84C248.765 147.64 248.445 148.84 248.445 150.44C248.445 152 248.765 153.16 249.405 153.92C250.065 154.68 251.045 155.06 252.345 155.06C253.065 155.06 253.685 154.94 254.205 154.7C254.725 154.46 255.115 154.07 255.375 153.53H259.605C259.105 155.01 258.245 156.18 257.025 157.04C255.825 157.88 254.275 158.3 252.375 158.3ZM267.814 158V136.4H272.434V158H267.814ZM269.974 158V154.46H282.814V158H269.974ZM291.896 158.3C290.196 158.3 288.716 157.97 287.456 157.31C286.196 156.63 285.216 155.69 284.516 154.49C283.836 153.29 283.496 151.91 283.496 150.35C283.496 148.77 283.836 147.39 284.516 146.21C285.216 145.01 286.186 144.08 287.426 143.42C288.666 142.74 290.106 142.4 291.746 142.4C293.326 142.4 294.696 142.72 295.856 143.36C297.016 144 297.916 144.89 298.556 146.03C299.196 147.17 299.516 148.51 299.516 150.05C299.516 150.37 299.506 150.67 299.486 150.95C299.466 151.21 299.436 151.46 299.396 151.7H286.136V148.73H295.766L294.986 149.27C294.986 148.03 294.686 147.12 294.086 146.54C293.506 145.94 292.706 145.64 291.686 145.64C290.506 145.64 289.586 146.04 288.926 146.84C288.286 147.64 287.966 148.84 287.966 150.44C287.966 152 288.286 153.16 288.926 153.92C289.586 154.68 290.566 155.06 291.866 155.06C292.586 155.06 293.206 154.94 293.726 154.7C294.246 154.46 294.636 154.07 294.896 153.53H299.126C298.626 155.01 297.766 156.18 296.546 157.04C295.346 157.88 293.796 158.3 291.896 158.3ZM301.923 158V142.7H306.333V146.3H306.423V158H301.923ZM312.573 158V148.52C312.573 147.68 312.353 147.05 311.913 146.63C311.493 146.21 310.873 146 310.053 146C309.353 146 308.723 146.16 308.163 146.48C307.623 146.8 307.193 147.24 306.873 147.8C306.573 148.36 306.423 149.02 306.423 149.78L306.033 146.09C306.533 144.97 307.263 144.08 308.223 143.42C309.203 142.74 310.403 142.4 311.823 142.4C313.523 142.4 314.823 142.88 315.723 143.84C316.623 144.78 317.073 146.05 317.073 147.65V158H312.573ZM327.489 164.45C325.369 164.45 323.639 164 322.299 163.1C320.979 162.2 320.199 160.98 319.959 159.44H324.219C324.379 159.82 324.719 160.11 325.239 160.31C325.779 160.51 326.459 160.61 327.279 160.61C328.639 160.61 329.629 160.35 330.249 159.83C330.869 159.31 331.179 158.5 331.179 157.4V154.07L331.419 154.13C331.219 155.25 330.639 156.14 329.679 156.8C328.719 157.44 327.529 157.76 326.109 157.76C324.749 157.76 323.559 157.45 322.539 156.83C321.539 156.19 320.759 155.3 320.199 154.16C319.639 153.02 319.359 151.68 319.359 150.14C319.359 148.58 319.649 147.22 320.229 146.06C320.809 144.9 321.619 144 322.659 143.36C323.719 142.72 324.949 142.4 326.349 142.4C327.789 142.4 328.959 142.74 329.859 143.42C330.779 144.1 331.319 145.03 331.479 146.21L331.269 146.24V142.7H335.679V157.34C335.679 159.54 334.949 161.27 333.489 162.53C332.029 163.81 330.029 164.45 327.489 164.45ZM327.669 154.31C328.729 154.31 329.589 153.95 330.249 153.23C330.909 152.49 331.239 151.44 331.239 150.08C331.239 148.72 330.899 147.68 330.219 146.96C329.559 146.22 328.689 145.85 327.609 145.85C326.569 145.85 325.709 146.22 325.029 146.96C324.369 147.7 324.039 148.75 324.039 150.11C324.039 151.47 324.369 152.51 325.029 153.23C325.709 153.95 326.589 154.31 327.669 154.31ZM346.537 158.33C344.577 158.33 343.117 157.86 342.157 156.92C341.217 155.96 340.747 154.51 340.747 152.57V139.28L345.247 137.6V152.72C345.247 153.4 345.437 153.91 345.817 154.25C346.197 154.59 346.787 154.76 347.587 154.76C347.887 154.76 348.167 154.73 348.427 154.67C348.687 154.61 348.947 154.54 349.207 154.46V157.88C348.947 158.02 348.577 158.13 348.097 158.21C347.637 158.29 347.117 158.33 346.537 158.33ZM337.897 146.12V142.7H349.207V146.12H337.897ZM351.904 158V136.4H356.404V158H351.904ZM362.554 158V148.52C362.554 147.68 362.334 147.05 361.894 146.63C361.474 146.21 360.854 146 360.034 146C359.334 146 358.704 146.16 358.144 146.48C357.604 146.8 357.174 147.24 356.854 147.8C356.554 148.36 356.404 149.02 356.404 149.78L356.014 146.09C356.514 144.97 357.244 144.08 358.204 143.42C359.184 142.74 360.384 142.4 361.804 142.4C363.504 142.4 364.804 142.88 365.704 143.84C366.604 144.78 367.054 146.05 367.054 147.65V158H362.554Z" fill="black"/>
<rect x="20" y="766" width="353" height="52" rx="26" fill="#FF657D"/>
<path d="M167.787 797.66C166.966 797.66 166.209 797.516 165.515 797.228C164.833 796.929 164.235 796.513 163.723 795.98C163.211 795.447 162.817 794.817 162.539 794.092C162.262 793.367 162.123 792.572 162.123 791.708C162.123 790.844 162.262 790.055 162.539 789.34C162.817 788.625 163.206 788.007 163.707 787.484C164.219 786.951 164.817 786.54 165.499 786.252C166.193 785.964 166.955 785.82 167.787 785.82C168.705 785.82 169.531 786.001 170.267 786.364C171.003 786.727 171.606 787.239 172.075 787.9C172.555 788.551 172.849 789.319 172.955 790.204H170.907C170.779 789.34 170.433 788.679 169.867 788.22C169.302 787.751 168.614 787.516 167.803 787.516C167.089 787.516 166.465 787.687 165.931 788.028C165.398 788.369 164.982 788.855 164.683 789.484C164.385 790.103 164.235 790.839 164.235 791.692C164.235 792.567 164.385 793.324 164.683 793.964C164.982 794.593 165.403 795.084 165.947 795.436C166.491 795.788 167.115 795.964 167.819 795.964C168.609 795.964 169.286 795.735 169.851 795.276C170.417 794.807 170.774 794.145 170.923 793.292H172.987C172.859 794.167 172.555 794.935 172.075 795.596C171.606 796.257 171.003 796.769 170.267 797.132C169.531 797.484 168.705 797.66 167.787 797.66ZM178.237 797.66C177.373 797.66 176.61 797.479 175.949 797.116C175.298 796.753 174.792 796.252 174.429 795.612C174.066 794.961 173.885 794.22 173.885 793.388C173.885 792.556 174.066 791.825 174.429 791.196C174.792 790.567 175.298 790.076 175.949 789.724C176.61 789.361 177.373 789.18 178.237 789.18C179.112 789.18 179.874 789.361 180.525 789.724C181.176 790.076 181.682 790.567 182.045 791.196C182.408 791.825 182.589 792.556 182.589 793.388C182.589 794.22 182.402 794.961 182.029 795.612C181.666 796.252 181.16 796.753 180.509 797.116C179.858 797.479 179.101 797.66 178.237 797.66ZM178.237 796.044C178.664 796.044 179.048 795.937 179.389 795.724C179.73 795.5 179.997 795.191 180.189 794.796C180.381 794.391 180.477 793.916 180.477 793.372C180.477 792.572 180.264 791.943 179.837 791.484C179.421 791.025 178.888 790.796 178.237 790.796C177.586 790.796 177.048 791.025 176.621 791.484C176.194 791.943 175.981 792.572 175.981 793.372C175.981 793.916 176.077 794.391 176.269 794.796C176.472 795.191 176.738 795.5 177.069 795.724C177.41 795.937 177.8 796.044 178.237 796.044ZM184.072 797.5V789.34H186.04V791.26H186.088V797.5H184.072ZM189.8 797.5V792.348C189.8 791.847 189.672 791.468 189.416 791.212C189.16 790.956 188.787 790.828 188.296 790.828C187.869 790.828 187.485 790.924 187.144 791.116C186.813 791.308 186.552 791.575 186.36 791.916C186.179 792.257 186.088 792.652 186.088 793.1L185.88 791.148C186.157 790.551 186.563 790.076 187.096 789.724C187.629 789.361 188.269 789.18 189.016 789.18C189.901 789.18 190.589 789.431 191.08 789.932C191.581 790.433 191.832 791.1 191.832 791.932V797.5H189.8ZM197.236 797.66C196.233 797.66 195.492 797.425 195.012 796.956C194.543 796.476 194.308 795.761 194.308 794.812V787.484L196.34 786.732V794.86C196.34 795.255 196.447 795.548 196.66 795.74C196.873 795.932 197.209 796.028 197.668 796.028C197.849 796.028 198.009 796.017 198.148 795.996C198.297 795.964 198.436 795.927 198.564 795.884V797.452C198.436 797.516 198.255 797.564 198.02 797.596C197.785 797.639 197.524 797.66 197.236 797.66ZM192.74 790.924V789.34H198.564V790.924H192.74ZM200.025 797.5V789.34H202.041V797.5H200.025ZM199.929 787.996V785.772H202.121V787.996H199.929ZM204.181 797.5V789.34H206.149V791.26H206.197V797.5H204.181ZM209.909 797.5V792.348C209.909 791.847 209.781 791.468 209.525 791.212C209.269 790.956 208.896 790.828 208.405 790.828C207.979 790.828 207.595 790.924 207.253 791.116C206.923 791.308 206.661 791.575 206.469 791.916C206.288 792.257 206.197 792.652 206.197 793.1L205.989 791.148C206.267 790.551 206.672 790.076 207.205 789.724C207.739 789.361 208.379 789.18 209.125 789.18C210.011 789.18 210.699 789.431 211.189 789.932C211.691 790.433 211.941 791.1 211.941 791.932V797.5H209.909ZM216.431 797.66C215.865 797.66 215.375 797.543 214.959 797.308C214.553 797.063 214.239 796.732 214.015 796.316C213.801 795.9 213.695 795.431 213.695 794.908V789.34H215.711V794.492C215.711 794.993 215.833 795.372 216.079 795.628C216.335 795.884 216.692 796.012 217.151 796.012C217.567 796.012 217.929 795.916 218.239 795.724C218.559 795.532 218.809 795.265 218.991 794.924C219.183 794.572 219.279 794.177 219.279 793.74L219.487 795.692C219.22 796.289 218.82 796.769 218.287 797.132C217.764 797.484 217.145 797.66 216.431 797.66ZM219.343 797.5V795.58H219.279V789.34H221.311V797.5H219.343ZM227.064 797.66C226.2 797.66 225.443 797.479 224.792 797.116C224.152 796.753 223.651 796.252 223.288 795.612C222.936 794.972 222.76 794.236 222.76 793.404C222.76 792.572 222.936 791.841 223.288 791.212C223.651 790.572 224.152 790.076 224.792 789.724C225.432 789.361 226.179 789.18 227.032 789.18C227.843 789.18 228.547 789.351 229.144 789.692C229.741 790.023 230.205 790.492 230.536 791.1C230.867 791.708 231.032 792.417 231.032 793.228C231.032 793.377 231.027 793.516 231.016 793.644C231.005 793.772 230.989 793.9 230.968 794.028H224.008V792.62H229.416L229 793.004C229 792.236 228.824 791.66 228.472 791.276C228.12 790.892 227.629 790.7 227 790.7C226.317 790.7 225.773 790.935 225.368 791.404C224.973 791.873 224.776 792.551 224.776 793.436C224.776 794.311 224.973 794.983 225.368 795.452C225.773 795.911 226.344 796.14 227.08 796.14C227.507 796.14 227.88 796.06 228.2 795.9C228.52 795.74 228.755 795.495 228.904 795.164H230.808C230.541 795.932 230.088 796.54 229.448 796.988C228.819 797.436 228.024 797.66 227.064 797.66Z" fill="white"/>
<path d="M45.4795 26.0597C44.4644 26.0597 43.6358 25.7438 42.9936 25.1119C42.3617 24.4697 42.0458 23.61 42.0458 22.5327C42.0458 22.0356 42.1183 21.5591 42.2633 21.1033C42.4187 20.6476 42.6466 20.2488 42.947 19.907C43.2474 19.5548 43.6151 19.2803 44.0501 19.0835C44.4955 18.8867 44.9979 18.7883 45.5572 18.7883C46.3755 18.7883 47.0436 18.9592 47.5615 19.301C48.0898 19.6325 48.4834 20.0572 48.7424 20.5751C49.0013 21.093 49.1722 21.6264 49.2551 22.1754C49.3379 22.7244 49.3794 23.2837 49.3794 23.8534C49.3794 24.3299 49.3379 24.884 49.2551 25.5159C49.1826 26.1374 49.0168 26.8003 48.7579 27.5047C48.4989 28.1986 48.095 28.7891 47.546 29.2759C46.997 29.7627 46.2875 30.0061 45.4174 30.0061C44.8166 30.0061 44.3039 29.9077 43.8792 29.7109C43.4545 29.5245 43.1179 29.2811 42.8693 28.9807C42.6207 28.6699 42.4394 28.354 42.3255 28.0329C42.2219 27.7015 42.1701 27.3855 42.1701 27.0851H43.5374C43.5788 27.6445 43.7601 28.0847 44.0812 28.4058C44.4023 28.7166 44.8373 28.8719 45.3863 28.8719C46.1321 28.8719 46.7122 28.5456 47.1265 27.8931C47.5512 27.2405 47.8464 26.2047 48.0121 24.7856L47.981 24.7546C47.7842 25.1585 47.4476 25.4796 46.9711 25.7179C46.505 25.9458 46.0078 26.0597 45.4795 26.0597ZM45.6815 24.8323C45.899 24.8323 46.1217 24.8012 46.3496 24.739C46.5879 24.6665 46.8157 24.5422 47.0333 24.3661C47.2508 24.19 47.4269 23.9363 47.5615 23.6048C47.7065 23.2734 47.779 22.8538 47.779 22.3463C47.779 21.673 47.5926 21.1189 47.2197 20.6838C46.8572 20.2384 46.3082 20.0157 45.5728 20.0157C44.9409 20.0157 44.4282 20.2436 44.0346 20.6994C43.6513 21.1448 43.4597 21.7352 43.4597 22.4706C43.4597 22.9678 43.527 23.3769 43.6617 23.698C43.7963 24.0088 43.9724 24.247 44.1899 24.4127C44.4178 24.5785 44.6561 24.6924 44.9047 24.7546C45.1533 24.8064 45.4122 24.8323 45.6815 24.8323ZM52.6214 28.064V29.7109H51.0056V28.064H52.6214ZM52.6214 21.6937V23.3407H51.0056V21.6937H52.6214ZM61.7312 27.0541H60.1309V29.7109H58.7636V27.0541H53.9937V25.7179L58.9967 18.7883H60.1309V25.8732H61.7312V27.0541ZM58.7325 20.9169L55.2522 25.8732H58.7636V20.9169H58.7325ZM67.4437 18.7883V29.7109H65.9832V21.9579H63.4351V20.8703C63.9426 20.8392 64.3466 20.7926 64.647 20.7304C64.9474 20.6683 65.2063 20.5699 65.4239 20.4352C65.6414 20.3006 65.8278 20.1038 65.9832 19.8448C66.1386 19.5859 66.268 19.2337 66.3716 18.7883H67.4437Z" fill="black"/>
<path opacity="0.35" d="M341.709 17.8496H357.246C358.999 17.8498 360.419 19.2708 360.419 21.0234V25.5928C360.419 27.3454 358.999 28.7664 357.246 28.7666H341.709C339.956 28.7666 338.535 27.3455 338.535 25.5928V21.0234C338.535 19.2707 339.956 17.8496 341.709 17.8496Z" fill="black" stroke="black" stroke-width="0.9643"/>
<path opacity="0.4" d="M361.816 21.9375V25.7947C362.592 25.468 363.097 24.7081 363.097 23.8661C363.097 23.0241 362.592 22.2642 361.816 21.9375Z" fill="black"/>
<path d="M339.881 21.0232C339.881 20.0137 340.699 19.1953 341.709 19.1953H357.246C358.255 19.1953 359.074 20.0137 359.074 21.0232V25.593C359.074 26.6025 358.256 27.4209 357.246 27.4209H341.709C340.699 27.4209 339.881 26.6025 339.881 25.593V21.0232Z" fill="black"/>
<path d="M321.706 26.5846C323.004 25.4642 324.904 25.4642 326.202 26.5846C326.267 26.6448 326.305 26.7302 326.307 26.8199C326.308 26.9096 326.275 26.9963 326.212 27.0592L324.18 29.152C324.12 29.2134 324.039 29.2486 323.954 29.2486C323.869 29.2486 323.788 29.2135 323.729 29.152L321.696 27.0592C321.634 26.9963 321.599 26.9097 321.601 26.8199C321.602 26.7301 321.641 26.6448 321.706 26.5846ZM318.959 24.0035C321.755 21.3489 326.085 21.349 328.881 24.0035C328.944 24.0657 328.98 24.1513 328.98 24.2408C328.981 24.3303 328.947 24.4166 328.886 24.4801L327.711 25.692C327.59 25.8156 327.395 25.8181 327.271 25.6979C326.352 24.8492 325.158 24.3794 323.919 24.3795C322.681 24.38 321.488 24.8498 320.57 25.6979C320.446 25.8183 320.25 25.8157 320.129 25.692L318.955 24.4801C318.893 24.4166 318.859 24.3304 318.859 24.2408C318.86 24.1514 318.896 24.0657 318.959 24.0035ZM316.215 21.4273C320.503 17.2325 327.268 17.2326 331.557 21.4273C331.619 21.4897 331.654 21.5748 331.654 21.6637C331.655 21.7525 331.621 21.8379 331.56 21.901L330.384 23.1129C330.263 23.2372 330.065 23.2382 329.942 23.1158C328.309 21.5305 326.141 20.6463 323.887 20.6461C321.632 20.6461 319.463 21.5302 317.829 23.1158C317.706 23.2383 317.51 23.2371 317.389 23.1129L316.212 21.901C316.151 21.8379 316.117 21.7525 316.117 21.6637C316.118 21.5748 316.153 21.4896 316.215 21.4273Z" fill="black"/>
<path d="M301.495 21.0231C301.495 20.5183 301.904 20.1092 302.409 20.1092H303.323C303.828 20.1092 304.237 20.5183 304.237 21.0231V28.3347C304.237 28.8395 303.828 29.2487 303.323 29.2487H302.409C301.904 29.2487 301.495 28.8395 301.495 28.3347V21.0231Z" fill="black"/>
<path d="M306.065 19.1952C306.065 18.6904 306.474 18.2812 306.979 18.2812H307.893C308.397 18.2812 308.807 18.6904 308.807 19.1952V28.3347C308.807 28.8395 308.397 29.2487 307.893 29.2487H306.979C306.474 29.2487 306.065 28.8395 306.065 28.3347V19.1952Z" fill="black"/>
<path d="M296.925 24.2219C296.925 23.7172 297.334 23.308 297.839 23.308H298.753C299.258 23.308 299.667 23.7172 299.667 24.2219V28.3347C299.667 28.8395 299.258 29.2487 298.753 29.2487H297.839C297.334 29.2487 296.925 28.8395 296.925 28.3347V24.2219Z" fill="black"/>
<path d="M292.355 26.5068C292.355 26.0021 292.765 25.5929 293.269 25.5929H294.183C294.688 25.5929 295.097 26.0021 295.097 26.5068V28.3347C295.097 28.8395 294.688 29.2487 294.183 29.2487H293.269C292.765 29.2487 292.355 28.8395 292.355 28.3347V26.5068Z" fill="black"/>
<rect width="353" height="303" transform="translate(20 185)" fill="white"/>
<rect x="31.5" y="185.5" width="160" height="39" rx="19.5" fill="#FF657D"/>
<path d="M83.668 210.5V198.98H88.212C89.044 198.98 89.7533 199.119 90.34 199.396C90.9267 199.663 91.38 200.041 91.7 200.532C92.02 201.012 92.18 201.583 92.18 202.244C92.18 202.905 92.02 203.481 91.7 203.972C91.38 204.463 90.9267 204.847 90.34 205.124C89.7533 205.401 89.044 205.54 88.212 205.54H84.948V204.164H88.164C88.932 204.164 89.5133 203.999 89.908 203.668C90.3133 203.327 90.516 202.857 90.516 202.26C90.516 201.663 90.3187 201.199 89.924 200.868C89.5293 200.537 88.9427 200.372 88.164 200.372H85.364V210.5H83.668ZM90.324 210.5L84.708 204.692H86.772L92.756 210.5H90.324ZM97.2661 210.66C96.4448 210.66 95.7195 210.479 95.0901 210.116C94.4715 209.753 93.9861 209.252 93.6341 208.612C93.2821 207.972 93.1061 207.236 93.1061 206.404C93.1061 205.561 93.2768 204.825 93.6181 204.196C93.9701 203.556 94.4608 203.06 95.0901 202.708C95.7195 202.356 96.4395 202.18 97.2501 202.18C98.0395 202.18 98.7221 202.351 99.2981 202.692C99.8848 203.023 100.333 203.487 100.642 204.084C100.962 204.681 101.122 205.391 101.122 206.212C101.122 206.34 101.117 206.463 101.106 206.58C101.106 206.687 101.095 206.799 101.074 206.916H94.2261V205.668H99.9061L99.4901 206.164C99.4901 205.289 99.2928 204.623 98.8981 204.164C98.5035 203.705 97.9541 203.476 97.2501 203.476C96.4928 203.476 95.8901 203.737 95.4421 204.26C95.0048 204.772 94.7861 205.487 94.7861 206.404C94.7861 207.332 95.0048 208.057 95.4421 208.58C95.8901 209.103 96.5088 209.364 97.2981 209.364C97.7781 209.364 98.1941 209.268 98.5461 209.076C98.8981 208.873 99.1595 208.58 99.3301 208.196H100.898C100.631 208.964 100.178 209.567 99.5381 210.004C98.9088 210.441 98.1515 210.66 97.2661 210.66ZM106.28 213.94C105.256 213.94 104.408 213.705 103.736 213.236C103.074 212.777 102.674 212.164 102.536 211.396H104.104C104.21 211.748 104.445 212.025 104.808 212.228C105.181 212.431 105.677 212.532 106.296 212.532C107.096 212.532 107.693 212.335 108.088 211.94C108.482 211.545 108.68 210.959 108.68 210.18V208.42L108.824 208.452C108.664 209.071 108.317 209.561 107.784 209.924C107.25 210.276 106.61 210.452 105.864 210.452C105.149 210.452 104.52 210.281 103.976 209.94C103.432 209.599 103.01 209.124 102.712 208.516C102.413 207.897 102.264 207.177 102.264 206.356C102.264 205.524 102.418 204.793 102.728 204.164C103.037 203.535 103.469 203.049 104.024 202.708C104.589 202.367 105.245 202.196 105.992 202.196C106.76 202.196 107.394 202.383 107.896 202.756C108.408 203.119 108.733 203.636 108.872 204.308L108.744 204.324V202.34H110.328V210.164C110.328 211.337 109.965 212.26 109.24 212.932C108.525 213.604 107.538 213.94 106.28 213.94ZM106.36 209.108C107.074 209.108 107.645 208.857 108.072 208.356C108.509 207.855 108.728 207.167 108.728 206.292C108.728 205.439 108.509 204.767 108.072 204.276C107.645 203.785 107.069 203.54 106.344 203.54C105.618 203.54 105.042 203.791 104.616 204.292C104.189 204.783 103.976 205.465 103.976 206.34C103.976 207.193 104.189 207.871 104.616 208.372C105.053 208.863 105.634 209.108 106.36 209.108ZM115.324 210.66C114.78 210.66 114.3 210.548 113.884 210.324C113.468 210.089 113.143 209.769 112.908 209.364C112.684 208.959 112.572 208.495 112.572 207.972V202.34H114.236V207.588C114.236 208.153 114.375 208.575 114.652 208.852C114.929 209.129 115.324 209.268 115.836 209.268C116.295 209.268 116.7 209.161 117.052 208.948C117.415 208.735 117.697 208.441 117.9 208.068C118.113 207.684 118.22 207.241 118.22 206.74L118.428 208.692C118.161 209.289 117.751 209.769 117.196 210.132C116.652 210.484 116.028 210.66 115.324 210.66ZM118.284 210.5V208.58H118.22V202.34H119.868V210.5H118.284ZM122.199 210.5V198.98H123.863V210.5H122.199ZM131.255 210.5C131.202 210.297 131.165 210.073 131.143 209.828C131.133 209.583 131.127 209.284 131.127 208.932H131.047V205.044C131.047 204.521 130.914 204.132 130.647 203.876C130.391 203.609 129.981 203.476 129.415 203.476C128.871 203.476 128.434 203.583 128.103 203.796C127.783 204.009 127.597 204.313 127.543 204.708H125.959C126.034 203.94 126.381 203.327 126.999 202.868C127.618 202.409 128.445 202.18 129.479 202.18C130.546 202.18 131.346 202.431 131.879 202.932C132.413 203.423 132.679 204.148 132.679 205.108V208.932C132.679 209.177 132.695 209.428 132.727 209.684C132.759 209.94 132.807 210.212 132.871 210.5H131.255ZM128.439 210.66C127.607 210.66 126.946 210.457 126.455 210.052C125.965 209.636 125.719 209.076 125.719 208.372C125.719 207.647 125.975 207.076 126.487 206.66C127.01 206.233 127.757 205.945 128.727 205.796L131.415 205.364V206.532L128.983 206.916C128.439 207.001 128.029 207.145 127.751 207.348C127.485 207.551 127.351 207.844 127.351 208.228C127.351 208.601 127.474 208.884 127.719 209.076C127.975 209.257 128.343 209.348 128.823 209.348C129.463 209.348 129.991 209.193 130.407 208.884C130.834 208.575 131.047 208.185 131.047 207.716L131.255 208.9C131.063 209.465 130.722 209.903 130.231 210.212C129.741 210.511 129.143 210.66 128.439 210.66ZM134.934 210.5V202.34H136.518V204.372H136.598V210.5H134.934ZM136.598 206.244L136.39 204.308C136.582 203.615 136.912 203.087 137.382 202.724C137.851 202.361 138.411 202.18 139.062 202.18C139.307 202.18 139.478 202.201 139.574 202.244V203.812C139.52 203.791 139.446 203.78 139.35 203.78C139.254 203.769 139.136 203.764 138.998 203.764C138.198 203.764 137.595 203.972 137.19 204.388C136.795 204.804 136.598 205.423 136.598 206.244Z" fill="white"/>
<rect x="201.5" y="185.5" width="160" height="39" rx="19.5" fill="#F9F9F9"/>
<path d="M250.684 210.5V198.98H252.38V210.5H250.684ZM254.731 210.5V202.34H256.315V204.372H256.395V210.5H254.731ZM256.395 206.244L256.187 204.308C256.379 203.615 256.709 203.087 257.179 202.724C257.648 202.361 258.208 202.18 258.859 202.18C259.104 202.18 259.275 202.201 259.371 202.244V203.812C259.317 203.791 259.243 203.78 259.147 203.78C259.051 203.769 258.933 203.764 258.795 203.764C257.995 203.764 257.392 203.972 256.987 204.388C256.592 204.804 256.395 205.423 256.395 206.244ZM260.856 210.5V202.34H262.44V204.372H262.52V210.5H260.856ZM262.52 206.244L262.312 204.308C262.504 203.615 262.834 203.087 263.304 202.724C263.773 202.361 264.333 202.18 264.984 202.18C265.229 202.18 265.4 202.201 265.496 202.244V203.812C265.442 203.791 265.368 203.78 265.272 203.78C265.176 203.769 265.058 203.764 264.92 203.764C264.12 203.764 263.517 203.972 263.112 204.388C262.717 204.804 262.52 205.423 262.52 206.244ZM270.266 210.66C269.445 210.66 268.719 210.479 268.09 210.116C267.471 209.753 266.986 209.252 266.634 208.612C266.282 207.972 266.106 207.236 266.106 206.404C266.106 205.561 266.277 204.825 266.618 204.196C266.97 203.556 267.461 203.06 268.09 202.708C268.719 202.356 269.439 202.18 270.25 202.18C271.039 202.18 271.722 202.351 272.298 202.692C272.885 203.023 273.333 203.487 273.642 204.084C273.962 204.681 274.122 205.391 274.122 206.212C274.122 206.34 274.117 206.463 274.106 206.58C274.106 206.687 274.095 206.799 274.074 206.916H267.226V205.668H272.906L272.49 206.164C272.49 205.289 272.293 204.623 271.898 204.164C271.503 203.705 270.954 203.476 270.25 203.476C269.493 203.476 268.89 203.737 268.442 204.26C268.005 204.772 267.786 205.487 267.786 206.404C267.786 207.332 268.005 208.057 268.442 208.58C268.89 209.103 269.509 209.364 270.298 209.364C270.778 209.364 271.194 209.268 271.546 209.076C271.898 208.873 272.159 208.58 272.33 208.196H273.898C273.631 208.964 273.178 209.567 272.538 210.004C271.909 210.441 271.151 210.66 270.266 210.66ZM279.28 213.94C278.256 213.94 277.408 213.705 276.736 213.236C276.074 212.777 275.674 212.164 275.536 211.396H277.104C277.21 211.748 277.445 212.025 277.808 212.228C278.181 212.431 278.677 212.532 279.296 212.532C280.096 212.532 280.693 212.335 281.088 211.94C281.482 211.545 281.68 210.959 281.68 210.18V208.42L281.824 208.452C281.664 209.071 281.317 209.561 280.784 209.924C280.25 210.276 279.61 210.452 278.864 210.452C278.149 210.452 277.52 210.281 276.976 209.94C276.432 209.599 276.01 209.124 275.712 208.516C275.413 207.897 275.264 207.177 275.264 206.356C275.264 205.524 275.418 204.793 275.728 204.164C276.037 203.535 276.469 203.049 277.024 202.708C277.589 202.367 278.245 202.196 278.992 202.196C279.76 202.196 280.394 202.383 280.896 202.756C281.408 203.119 281.733 203.636 281.872 204.308L281.744 204.324V202.34H283.328V210.164C283.328 211.337 282.965 212.26 282.24 212.932C281.525 213.604 280.538 213.94 279.28 213.94ZM279.36 209.108C280.074 209.108 280.645 208.857 281.072 208.356C281.509 207.855 281.728 207.167 281.728 206.292C281.728 205.439 281.509 204.767 281.072 204.276C280.645 203.785 280.069 203.54 279.344 203.54C278.618 203.54 278.042 203.791 277.616 204.292C277.189 204.783 276.976 205.465 276.976 206.34C276.976 207.193 277.189 207.871 277.616 208.372C278.053 208.863 278.634 209.108 279.36 209.108ZM288.324 210.66C287.78 210.66 287.3 210.548 286.884 210.324C286.468 210.089 286.143 209.769 285.908 209.364C285.684 208.959 285.572 208.495 285.572 207.972V202.34H287.236V207.588C287.236 208.153 287.375 208.575 287.652 208.852C287.929 209.129 288.324 209.268 288.836 209.268C289.295 209.268 289.7 209.161 290.052 208.948C290.415 208.735 290.697 208.441 290.9 208.068C291.113 207.684 291.22 207.241 291.22 206.74L291.428 208.692C291.161 209.289 290.751 209.769 290.196 210.132C289.652 210.484 289.028 210.66 288.324 210.66ZM291.284 210.5V208.58H291.22V202.34H292.868V210.5H291.284ZM295.199 210.5V198.98H296.863V210.5H295.199ZM304.255 210.5C304.202 210.297 304.165 210.073 304.143 209.828C304.133 209.583 304.127 209.284 304.127 208.932H304.047V205.044C304.047 204.521 303.914 204.132 303.647 203.876C303.391 203.609 302.981 203.476 302.415 203.476C301.871 203.476 301.434 203.583 301.103 203.796C300.783 204.009 300.597 204.313 300.543 204.708H298.959C299.034 203.94 299.381 203.327 299.999 202.868C300.618 202.409 301.445 202.18 302.479 202.18C303.546 202.18 304.346 202.431 304.879 202.932C305.413 203.423 305.679 204.148 305.679 205.108V208.932C305.679 209.177 305.695 209.428 305.727 209.684C305.759 209.94 305.807 210.212 305.871 210.5H304.255ZM301.439 210.66C300.607 210.66 299.946 210.457 299.455 210.052C298.965 209.636 298.719 209.076 298.719 208.372C298.719 207.647 298.975 207.076 299.487 206.66C300.01 206.233 300.757 205.945 301.727 205.796L304.415 205.364V206.532L301.983 206.916C301.439 207.001 301.029 207.145 300.751 207.348C300.485 207.551 300.351 207.844 300.351 208.228C300.351 208.601 300.474 208.884 300.719 209.076C300.975 209.257 301.343 209.348 301.823 209.348C302.463 209.348 302.991 209.193 303.407 208.884C303.834 208.575 304.047 208.185 304.047 207.716L304.255 208.9C304.063 209.465 303.722 209.903 303.231 210.212C302.741 210.511 302.143 210.66 301.439 210.66ZM307.934 210.5V202.34H309.518V204.372H309.598V210.5H307.934ZM309.598 206.244L309.39 204.308C309.582 203.615 309.912 203.087 310.382 202.724C310.851 202.361 311.411 202.18 312.062 202.18C312.307 202.18 312.478 202.201 312.574 202.244V203.812C312.52 203.791 312.446 203.78 312.35 203.78C312.254 203.769 312.136 203.764 311.998 203.764C311.198 203.764 310.595 203.972 310.19 204.388C309.795 204.804 309.598 205.423 309.598 206.244Z" fill="black"/>
<rect x="20" y="245" width="353" height="243" rx="14" fill="white"/>
<path d="M35.5 272.379C35.5 268.304 38.8038 265 42.8793 265H149.442C153.517 265 156.821 268.304 156.821 272.379V467.001H35.5V272.379Z" fill="white"/>
<g opacity="0.5">
<path d="M89.2847 286.637V285.517C90.4367 284.567 91.3967 283.735 92.1647 283.021C92.9433 282.306 93.562 281.671 94.0207 281.117C94.49 280.562 94.8207 280.055 95.0127 279.597C95.2153 279.127 95.3167 278.669 95.3167 278.221C95.3167 277.559 95.1193 277.042 94.7247 276.669C94.33 276.295 93.786 276.109 93.0927 276.109C92.378 276.109 91.802 276.311 91.3647 276.717C90.9273 277.122 90.6607 277.703 90.5647 278.461H89.1887C89.2953 277.415 89.6953 276.573 90.3887 275.933C91.0927 275.282 92.026 274.957 93.1887 274.957C94.266 274.957 95.1247 275.245 95.7647 275.821C96.4047 276.397 96.7247 277.186 96.7247 278.189C96.7247 278.733 96.618 279.277 96.4047 279.821C96.202 280.365 95.8607 280.935 95.3807 281.533C94.9113 282.13 94.2873 282.791 93.5087 283.517C92.7407 284.231 91.786 285.042 90.6447 285.949L90.3407 285.485H96.9167V286.637H89.2847ZM101.026 286.637V276.429L101.362 276.509C101.234 276.797 100.989 277.085 100.626 277.373C100.263 277.661 99.8419 277.911 99.3619 278.125C98.8926 278.338 98.4073 278.482 97.9059 278.557V277.325C98.4073 277.239 98.8873 277.09 99.3459 276.877C99.8046 276.663 100.21 276.407 100.562 276.109C100.925 275.799 101.191 275.469 101.362 275.117H102.306V286.637H101.026Z" fill="url(#paint1_linear_231_12888)"/>
<path d="M87.9878 329.066V327.946C89.1398 326.997 90.0998 326.165 90.8678 325.45C91.6465 324.736 92.2651 324.101 92.7238 323.546C93.1931 322.992 93.5238 322.485 93.7158 322.026C93.9185 321.557 94.0198 321.098 94.0198 320.65C94.0198 319.989 93.8225 319.472 93.4278 319.098C93.0331 318.725 92.4891 318.538 91.7958 318.538C91.0811 318.538 90.5051 318.741 90.0678 319.146C89.6305 319.552 89.3638 320.133 89.2678 320.89H87.8918C87.9985 319.845 88.3985 319.002 89.0918 318.362C89.7958 317.712 90.7291 317.386 91.8918 317.386C92.9691 317.386 93.8278 317.674 94.4678 318.25C95.1078 318.826 95.4278 319.616 95.4278 320.618C95.4278 321.162 95.3211 321.706 95.1078 322.25C94.9051 322.794 94.5638 323.365 94.0838 323.962C93.6145 324.56 92.9905 325.221 92.2118 325.946C91.4438 326.661 90.4891 327.472 89.3478 328.378L89.0438 327.914H95.6198V329.066H87.9878ZM96.894 329.066V327.946C98.046 326.997 99.006 326.165 99.774 325.45C100.553 324.736 101.171 324.101 101.63 323.546C102.099 322.992 102.43 322.485 102.622 322.026C102.825 321.557 102.926 321.098 102.926 320.65C102.926 319.989 102.729 319.472 102.334 319.098C101.939 318.725 101.395 318.538 100.702 318.538C99.9874 318.538 99.4114 318.741 98.974 319.146C98.5367 319.552 98.27 320.133 98.174 320.89H96.798C96.9047 319.845 97.3047 319.002 97.998 318.362C98.702 317.712 99.6354 317.386 100.798 317.386C101.875 317.386 102.734 317.674 103.374 318.25C104.014 318.826 104.334 319.616 104.334 320.618C104.334 321.162 104.227 321.706 104.014 322.25C103.811 322.794 103.47 323.365 102.99 323.962C102.521 324.56 101.897 325.221 101.118 325.946C100.35 326.661 99.3954 327.472 98.254 328.378L97.95 327.914H104.526V329.066H96.894Z" fill="url(#paint2_linear_231_12888)"/>
</g>
<mask id="path-31-outside-1_231_12888" maskUnits="userSpaceOnUse" x="35.7422" y="344.707" width="121" height="43" fill="black">
<rect fill="white" x="35.7422" y="344.707" width="121" height="43"/>
<path d="M35.7422 345.707H156.578V386.293H35.7422V345.707Z"/>
</mask>
<path d="M35.7422 386.293V386.754H36.6576V386.293V385.832H35.7422V386.293ZM38.4885 386.293V386.754H40.3193V386.293V385.832H38.4885V386.293ZM42.1502 386.293V386.754H43.981V386.293V385.832H42.1502V386.293ZM45.8119 386.293V386.754H47.6427V386.293V385.832H45.8119V386.293ZM49.4736 386.293V386.754H51.3044V386.293V385.832H49.4736V386.293ZM53.1353 386.293V386.754H54.9661V386.293V385.832H53.1353V386.293ZM56.797 386.293V386.754H58.6278V386.293V385.832H56.797V386.293ZM60.4587 386.293V386.754H62.2895V386.293V385.832H60.4587V386.293ZM64.1204 386.293V386.754H65.9512V386.293V385.832H64.1204V386.293ZM67.7821 386.293V386.754H69.6129V386.293V385.832H67.7821V386.293ZM71.4438 386.293V386.754H73.2747V386.293V385.832H71.4438V386.293ZM75.1055 386.293V386.754H76.9364V386.293V385.832H75.1055V386.293ZM78.7672 386.293V386.754H80.5981V386.293V385.832H78.7672V386.293ZM82.4289 386.293V386.754H84.2598V386.293V385.832H82.4289V386.293ZM86.0906 386.293V386.754H87.9215V386.293V385.832H86.0906V386.293ZM89.7523 386.293V386.754H91.5832V386.293V385.832H89.7523V386.293ZM93.414 386.293V386.754H95.2449V386.293V385.832H93.414V386.293ZM97.0757 386.293V386.754H98.9066V386.293V385.832H97.0757V386.293ZM100.737 386.293V386.754H102.568V386.293V385.832H100.737V386.293ZM104.399 386.293V386.754H106.23V386.293V385.832H104.399V386.293ZM108.061 386.293V386.754H109.892V386.293V385.832H108.061V386.293ZM111.723 386.293V386.754H113.553V386.293V385.832H111.723V386.293ZM115.384 386.293V386.754H117.215V386.293V385.832H115.384V386.293ZM119.046 386.293V386.754H120.877V386.293V385.832H119.046V386.293ZM122.708 386.293V386.754H124.538V386.293V385.832H122.708V386.293ZM126.369 386.293V386.754H128.2V386.293V385.832H126.369V386.293ZM130.031 386.293V386.754H131.862V386.293V385.832H130.031V386.293ZM133.693 386.293V386.754H135.524V386.293V385.832H133.693V386.293ZM137.354 386.293V386.754H139.185V386.293V385.832H137.354V386.293ZM141.016 386.293V386.754H142.847V386.293V385.832H141.016V386.293ZM144.678 386.293V386.754H146.509V386.293V385.832H144.678V386.293ZM148.34 386.293V386.754H150.17V386.293V385.832H148.34V386.293ZM152.001 386.293V386.754H153.832V386.293V385.832H152.001V386.293ZM155.663 386.293V386.754H156.578V386.293V385.832H155.663V386.293ZM156.578 345.707V345.246H155.663V345.707V346.168H156.578V345.707ZM153.832 345.707V345.246H152.001V345.707V346.168H153.832V345.707ZM150.17 345.707V345.246H148.34V345.707V346.168H150.17V345.707ZM146.509 345.707V345.246H144.678V345.707V346.168H146.509V345.707ZM142.847 345.707V345.246H141.016V345.707V346.168H142.847V345.707ZM139.185 345.707V345.246H137.354V345.707V346.168H139.185V345.707ZM135.524 345.707V345.246H133.693V345.707V346.168H135.524V345.707ZM131.862 345.707V345.246H130.031V345.707V346.168H131.862V345.707ZM128.2 345.707V345.246H126.369V345.707V346.168H128.2V345.707ZM124.538 345.707V345.246H122.708V345.707V346.168H124.538V345.707ZM120.877 345.707V345.246H119.046V345.707V346.168H120.877V345.707ZM117.215 345.707V345.246H115.384V345.707V346.168H117.215V345.707ZM113.553 345.707V345.246H111.723V345.707V346.168H113.553V345.707ZM109.892 345.707V345.246H108.061V345.707V346.168H109.892V345.707ZM106.23 345.707V345.246H104.399V345.707V346.168H106.23V345.707ZM102.568 345.707V345.246H100.737V345.707V346.168H102.568V345.707ZM98.9066 345.707V345.246H97.0757V345.707V346.168H98.9066V345.707ZM95.2449 345.707V345.246H93.414V345.707V346.168H95.2449V345.707ZM91.5831 345.707V345.246H89.7523V345.707V346.168H91.5831V345.707ZM87.9215 345.707V345.246H86.0906V345.707V346.168H87.9215V345.707ZM84.2598 345.707V345.246H82.4289V345.707V346.168H84.2598V345.707ZM80.5981 345.707V345.246H78.7672V345.707V346.168H80.5981V345.707ZM76.9364 345.707V345.246H75.1055V345.707V346.168H76.9364V345.707ZM73.2747 345.707V345.246H71.4438V345.707V346.168H73.2747V345.707ZM69.613 345.707V345.246H67.7821V345.707V346.168H69.613V345.707ZM65.9513 345.707V345.246H64.1204V345.707V346.168H65.9513V345.707ZM62.2896 345.707V345.246H60.4587V345.707V346.168H62.2896V345.707ZM58.6279 345.707V345.246H56.797V345.707V346.168H58.6279V345.707ZM54.9662 345.707V345.246H53.1353V345.707V346.168H54.9662V345.707ZM51.3045 345.707V345.246H49.4736V345.707V346.168H51.3045V345.707ZM47.6428 345.707V345.246H45.8119V345.707V346.168H47.6428V345.707ZM43.9811 345.707V345.246H42.1502V345.707V346.168H43.9811V345.707ZM40.3194 345.707V345.246H38.4885V345.707V346.168H40.3194V345.707ZM36.6577 345.707V345.246H35.7422V345.707V346.168H36.6577V345.707ZM35.7422 386.293V387.216H36.6576V386.293V385.371H35.7422V386.293ZM38.4885 386.293V387.216H40.3193V386.293V385.371H38.4885V386.293ZM42.1502 386.293V387.216H43.981V386.293V385.371H42.1502V386.293ZM45.8119 386.293V387.216H47.6427V386.293V385.371H45.8119V386.293ZM49.4736 386.293V387.216H51.3044V386.293V385.371H49.4736V386.293ZM53.1353 386.293V387.216H54.9661V386.293V385.371H53.1353V386.293ZM56.797 386.293V387.216H58.6278V386.293V385.371H56.797V386.293ZM60.4587 386.293V387.216H62.2895V386.293V385.371H60.4587V386.293ZM64.1204 386.293V387.216H65.9512V386.293V385.371H64.1204V386.293ZM67.7821 386.293V387.216H69.6129V386.293V385.371H67.7821V386.293ZM71.4438 386.293V387.216H73.2747V386.293V385.371H71.4438V386.293ZM75.1055 386.293V387.216H76.9364V386.293V385.371H75.1055V386.293ZM78.7672 386.293V387.216H80.5981V386.293V385.371H78.7672V386.293ZM82.4289 386.293V387.216H84.2598V386.293V385.371H82.4289V386.293ZM86.0906 386.293V387.216H87.9215V386.293V385.371H86.0906V386.293ZM89.7523 386.293V387.216H91.5832V386.293V385.371H89.7523V386.293ZM93.414 386.293V387.216H95.2449V386.293V385.371H93.414V386.293ZM97.0757 386.293V387.216H98.9066V386.293V385.371H97.0757V386.293ZM100.737 386.293V387.216H102.568V386.293V385.371H100.737V386.293ZM104.399 386.293V387.216H106.23V386.293V385.371H104.399V386.293ZM108.061 386.293V387.216H109.892V386.293V385.371H108.061V386.293ZM111.723 386.293V387.216H113.553V386.293V385.371H111.723V386.293ZM115.384 386.293V387.216H117.215V386.293V385.371H115.384V386.293ZM119.046 386.293V387.216H120.877V386.293V385.371H119.046V386.293ZM122.708 386.293V387.216H124.538V386.293V385.371H122.708V386.293ZM126.369 386.293V387.216H128.2V386.293V385.371H126.369V386.293ZM130.031 386.293V387.216H131.862V386.293V385.371H130.031V386.293ZM133.693 386.293V387.216H135.524V386.293V385.371H133.693V386.293ZM137.354 386.293V387.216H139.185V386.293V385.371H137.354V386.293ZM141.016 386.293V387.216H142.847V386.293V385.371H141.016V386.293ZM144.678 386.293V387.216H146.509V386.293V385.371H144.678V386.293ZM148.34 386.293V387.216H150.17V386.293V385.371H148.34V386.293ZM152.001 386.293V387.216H153.832V386.293V385.371H152.001V386.293ZM155.663 386.293V387.216H156.578V386.293V385.371H155.663V386.293ZM156.578 345.707V344.785H155.663V345.707V346.629H156.578V345.707ZM153.832 345.707V344.785H152.001V345.707V346.629H153.832V345.707ZM150.17 345.707V344.785H148.34V345.707V346.629H150.17V345.707ZM146.509 345.707V344.785H144.678V345.707V346.629H146.509V345.707ZM142.847 345.707V344.785H141.016V345.707V346.629H142.847V345.707ZM139.185 345.707V344.785H137.354V345.707V346.629H139.185V345.707ZM135.524 345.707V344.785H133.693V345.707V346.629H135.524V345.707ZM131.862 345.707V344.785H130.031V345.707V346.629H131.862V345.707ZM128.2 345.707V344.785H126.369V345.707V346.629H128.2V345.707ZM124.538 345.707V344.785H122.708V345.707V346.629H124.538V345.707ZM120.877 345.707V344.785H119.046V345.707V346.629H120.877V345.707ZM117.215 345.707V344.785H115.384V345.707V346.629H117.215V345.707ZM113.553 345.707V344.785H111.723V345.707V346.629H113.553V345.707ZM109.892 345.707V344.785H108.061V345.707V346.629H109.892V345.707ZM106.23 345.707V344.785H104.399V345.707V346.629H106.23V345.707ZM102.568 345.707V344.785H100.737V345.707V346.629H102.568V345.707ZM98.9066 345.707V344.785H97.0757V345.707V346.629H98.9066V345.707ZM95.2449 345.707V344.785H93.414V345.707V346.629H95.2449V345.707ZM91.5831 345.707V344.785H89.7523V345.707V346.629H91.5831V345.707ZM87.9215 345.707V344.785H86.0906V345.707V346.629H87.9215V345.707ZM84.2598 345.707V344.785H82.4289V345.707V346.629H84.2598V345.707ZM80.5981 345.707V344.785H78.7672V345.707V346.629H80.5981V345.707ZM76.9364 345.707V344.785H75.1055V345.707V346.629H76.9364V345.707ZM73.2747 345.707V344.785H71.4438V345.707V346.629H73.2747V345.707ZM69.613 345.707V344.785H67.7821V345.707V346.629H69.613V345.707ZM65.9513 345.707V344.785H64.1204V345.707V346.629H65.9513V345.707ZM62.2896 345.707V344.785H60.4587V345.707V346.629H62.2896V345.707ZM58.6279 345.707V344.785H56.797V345.707V346.629H58.6279V345.707ZM54.9662 345.707V344.785H53.1353V345.707V346.629H54.9662V345.707ZM51.3045 345.707V344.785H49.4736V345.707V346.629H51.3045V345.707ZM47.6428 345.707V344.785H45.8119V345.707V346.629H47.6428V345.707ZM43.9811 345.707V344.785H42.1502V345.707V346.629H43.9811V345.707ZM40.3194 345.707V344.785H38.4885V345.707V346.629H40.3194V345.707ZM36.6577 345.707V344.785H35.7422V345.707V346.629H36.6577V345.707Z" fill="#E0E0E0" mask="url(#path-31-outside-1_231_12888)"/>
<path d="M82.4199 375.5V373.238C84.2399 371.747 85.7566 370.447 86.9699 369.338C88.2006 368.229 89.1799 367.241 89.9079 366.374C90.6359 365.507 91.1559 364.719 91.4679 364.008C91.7799 363.297 91.9359 362.587 91.9359 361.876C91.9359 360.905 91.6499 360.151 91.0779 359.614C90.5232 359.059 89.7519 358.782 88.7639 358.782C87.7412 358.782 86.9092 359.085 86.2679 359.692C85.6266 360.281 85.2279 361.122 85.0719 362.214H82.2639C82.4372 360.498 83.1046 359.12 84.2659 358.08C85.4446 357.04 86.9959 356.52 88.9199 356.52C90.7572 356.52 92.2046 357.005 93.2619 357.976C94.3366 358.947 94.8739 360.281 94.8739 361.98C94.8739 362.847 94.7092 363.713 94.3799 364.58C94.0679 365.429 93.5479 366.322 92.8199 367.258C92.0919 368.177 91.1126 369.199 89.8819 370.326C88.6686 371.435 87.1606 372.701 85.3579 374.122L84.7079 373.238H95.2119V375.5H82.4199ZM103.527 375.76C102.244 375.76 101.109 375.526 100.121 375.058C99.1502 374.59 98.3615 373.914 97.7548 373.03C97.1655 372.129 96.8015 371.037 96.6628 369.754H99.4968C99.6702 370.985 100.095 371.921 100.771 372.562C101.447 373.186 102.348 373.498 103.475 373.498C104.515 373.498 105.347 373.212 105.971 372.64C106.595 372.068 106.907 371.279 106.907 370.274C106.907 369.251 106.603 368.419 105.997 367.778C105.39 367.137 104.523 366.816 103.397 366.816H101.291V364.606H103.319C104.324 364.606 105.104 364.337 105.659 363.8C106.213 363.263 106.491 362.552 106.491 361.668C106.491 360.767 106.222 360.065 105.685 359.562C105.147 359.042 104.376 358.782 103.371 358.782C102.435 358.782 101.629 359.059 100.953 359.614C100.294 360.169 99.8955 360.975 99.7568 362.032H96.9228C97.0442 360.905 97.3822 359.935 97.9368 359.12C98.5088 358.288 99.2628 357.647 100.199 357.196C101.152 356.745 102.235 356.52 103.449 356.52C104.645 356.52 105.685 356.719 106.569 357.118C107.47 357.517 108.163 358.089 108.649 358.834C109.151 359.579 109.403 360.455 109.403 361.46C109.403 362.327 109.203 363.098 108.805 363.774C108.406 364.45 107.877 364.979 107.219 365.36C106.577 365.724 105.858 365.906 105.061 365.906L104.957 365.36C105.962 365.36 106.829 365.585 107.557 366.036C108.302 366.469 108.874 367.067 109.273 367.83C109.671 368.575 109.871 369.433 109.871 370.404C109.871 371.479 109.593 372.423 109.039 373.238C108.501 374.035 107.756 374.659 106.803 375.11C105.849 375.543 104.757 375.76 103.527 375.76Z" fill="#FF657D"/>
<g opacity="0.5">
<path d="M87.9253 413.93V412.81C89.0773 411.86 90.0373 411.028 90.8053 410.314C91.584 409.599 92.2026 408.964 92.6613 408.41C93.1306 407.855 93.4613 407.348 93.6533 406.89C93.856 406.42 93.9573 405.962 93.9573 405.514C93.9573 404.852 93.76 404.335 93.3653 403.962C92.9706 403.588 92.4266 403.402 91.7333 403.402C91.0186 403.402 90.4426 403.604 90.0053 404.01C89.568 404.415 89.3013 404.996 89.2053 405.754H87.8293C87.936 404.708 88.336 403.866 89.0293 403.226C89.7333 402.575 90.6666 402.25 91.8293 402.25C92.9066 402.25 93.7653 402.538 94.4053 403.114C95.0453 403.69 95.3653 404.479 95.3653 405.482C95.3653 406.026 95.2586 406.57 95.0453 407.114C94.8426 407.658 94.5013 408.228 94.0213 408.826C93.552 409.423 92.928 410.084 92.1493 410.81C91.3813 411.524 90.4266 412.335 89.2853 413.242L88.9813 412.778H95.5573V413.93H87.9253ZM101.714 413.93V410.89L101.746 410.57V403.994H102.178L97.3135 410.65L96.8815 410.122H104.562V411.274H95.9855V410.282L101.778 402.41H103.09V413.93H101.714Z" fill="url(#paint3_linear_231_12888)"/>
<path d="M87.8472 456.359V455.239C88.9992 454.29 89.9592 453.458 90.7272 452.743C91.5058 452.029 92.1245 451.394 92.5832 450.839C93.0525 450.285 93.3832 449.778 93.5752 449.319C93.7778 448.85 93.8792 448.391 93.8792 447.943C93.8792 447.282 93.6818 446.765 93.2872 446.391C92.8925 446.018 92.3485 445.831 91.6552 445.831C90.9405 445.831 90.3645 446.034 89.9272 446.439C89.4898 446.845 89.2232 447.426 89.1272 448.183H87.7512C87.8578 447.138 88.2578 446.295 88.9512 445.655C89.6552 445.005 90.5885 444.679 91.7512 444.679C92.8285 444.679 93.6872 444.967 94.3272 445.543C94.9672 446.119 95.2872 446.909 95.2872 447.911C95.2872 448.455 95.1805 448.999 94.9672 449.543C94.7645 450.087 94.4232 450.658 93.9432 451.255C93.4738 451.853 92.8498 452.514 92.0712 453.239C91.3032 453.954 90.3485 454.765 89.2072 455.671L88.9032 455.207H95.4792V456.359H87.8472ZM100.598 456.519C99.4566 456.519 98.5446 456.215 97.8619 455.607C97.1793 454.989 96.7633 454.189 96.6139 453.207H98.0219C98.1606 453.901 98.4539 454.434 98.9019 454.807C99.3606 455.181 99.9153 455.367 100.566 455.367C101.249 455.367 101.825 455.154 102.294 454.727C102.774 454.301 103.014 453.623 103.014 452.695C103.014 451.767 102.774 451.074 102.294 450.615C101.825 450.146 101.227 449.911 100.502 449.911C99.9793 449.911 99.5259 450.018 99.1419 450.231C98.7579 450.445 98.5019 450.695 98.3739 450.983H97.1899L97.7179 444.839H103.798V445.991H98.5019L98.9499 445.511L98.5819 450.151L98.2779 450.039C98.4699 449.719 98.7793 449.442 99.2059 449.207C99.6326 448.973 100.155 448.855 100.774 448.855C101.489 448.855 102.118 449.01 102.662 449.319C103.217 449.629 103.649 450.071 103.958 450.647C104.278 451.213 104.438 451.895 104.438 452.695C104.438 453.495 104.278 454.183 103.958 454.759C103.649 455.325 103.206 455.762 102.63 456.071C102.065 456.37 101.387 456.519 100.598 456.519Z" fill="url(#paint4_linear_231_12888)"/>
</g>
<path d="M156.93 272.379C156.93 268.304 160.234 265 164.309 265H250.741C254.817 265 258.12 268.304 258.12 272.379V467.001H156.93V272.379Z" fill="white"/>
<mask id="path-37-outside-2_231_12888" maskUnits="userSpaceOnUse" x="156.793" y="344.707" width="102" height="43" fill="black">
<rect fill="white" x="156.793" y="344.707" width="102" height="43"/>
<path d="M156.793 345.707H258.259V386.293H156.793V345.707Z"/>
</mask>
<path d="M156.793 386.293V386.754H157.699V386.293V385.832H156.793V386.293ZM159.511 386.293V386.754H161.323V386.293V385.832H159.511V386.293ZM163.135 386.293V386.754H164.946V386.293V385.832H163.135V386.293ZM166.758 386.293V386.754H168.57V386.293V385.832H166.758V386.293ZM170.382 386.293V386.754H172.194V386.293V385.832H170.382V386.293ZM174.006 386.293V386.754H175.818V386.293V385.832H174.006V386.293ZM177.63 386.293V386.754H179.442V386.293V385.832H177.63V386.293ZM181.253 386.293V386.754H183.065V386.293V385.832H181.253V386.293ZM184.877 386.293V386.754H186.689V386.293V385.832H184.877V386.293ZM188.501 386.293V386.754H190.313V386.293V385.832H188.501V386.293ZM192.125 386.293V386.754H193.937V386.293V385.832H192.125V386.293ZM195.748 386.293V386.754H197.56V386.293V385.832H195.748V386.293ZM199.372 386.293V386.754H201.184V386.293V385.832H199.372V386.293ZM202.996 386.293V386.754H204.808V386.293V385.832H202.996V386.293ZM206.62 386.293V386.754H208.432V386.293V385.832H206.62V386.293ZM210.244 386.293V386.754H212.055V386.293V385.832H210.244V386.293ZM213.867 386.293V386.754H215.679V386.293V385.832H213.867V386.293ZM217.491 386.293V386.754H219.303V386.293V385.832H217.491V386.293ZM221.115 386.293V386.754H222.927V386.293V385.832H221.115V386.293ZM224.739 386.293V386.754H226.551V386.293V385.832H224.739V386.293ZM228.362 386.293V386.754H230.174V386.293V385.832H228.362V386.293ZM231.986 386.293V386.754H233.798V386.293V385.832H231.986V386.293ZM235.61 386.293V386.754H237.422V386.293V385.832H235.61V386.293ZM239.234 386.293V386.754H241.046V386.293V385.832H239.234V386.293ZM242.857 386.293V386.754H244.669V386.293V385.832H242.857V386.293ZM246.481 386.293V386.754H248.293V386.293V385.832H246.481V386.293ZM250.105 386.293V386.754H251.917V386.293V385.832H250.105V386.293ZM253.729 386.293V386.754H255.541V386.293V385.832H253.729V386.293ZM257.353 386.293V386.754H258.259V386.293V385.832H257.353V386.293ZM258.259 345.707V345.246H257.353V345.707V346.168H258.259V345.707ZM255.541 345.707V345.246H253.729V345.707V346.168H255.541V345.707ZM251.917 345.707V345.246H250.105V345.707V346.168H251.917V345.707ZM248.293 345.707V345.246H246.481V345.707V346.168H248.293V345.707ZM244.669 345.707V345.246H242.857V345.707V346.168H244.669V345.707ZM241.046 345.707V345.246H239.234V345.707V346.168H241.046V345.707ZM237.422 345.707V345.246H235.61V345.707V346.168H237.422V345.707ZM233.798 345.707V345.246H231.986V345.707V346.168H233.798V345.707ZM230.174 345.707V345.246H228.362V345.707V346.168H230.174V345.707ZM226.551 345.707V345.246H224.739V345.707V346.168H226.551V345.707ZM222.927 345.707V345.246H221.115V345.707V346.168H222.927V345.707ZM219.303 345.707V345.246H217.491V345.707V346.168H219.303V345.707ZM215.679 345.707V345.246H213.867V345.707V346.168H215.679V345.707ZM212.055 345.707V345.246H210.244V345.707V346.168H212.055V345.707ZM208.432 345.707V345.246H206.62V345.707V346.168H208.432V345.707ZM204.808 345.707V345.246H202.996V345.707V346.168H204.808V345.707ZM201.184 345.707V345.246H199.372V345.707V346.168H201.184V345.707ZM197.56 345.707V345.246H195.748V345.707V346.168H197.56V345.707ZM193.937 345.707V345.246H192.125V345.707V346.168H193.937V345.707ZM190.313 345.707V345.246H188.501V345.707V346.168H190.313V345.707ZM186.689 345.707V345.246H184.877V345.707V346.168H186.689V345.707ZM183.065 345.707V345.246H181.253V345.707V346.168H183.065V345.707ZM179.442 345.707V345.246H177.63V345.707V346.168H179.442V345.707ZM175.818 345.707V345.246H174.006V345.707V346.168H175.818V345.707ZM172.194 345.707V345.246H170.382V345.707V346.168H172.194V345.707ZM168.57 345.707V345.246H166.758V345.707V346.168H168.57V345.707ZM164.946 345.707V345.246H163.135V345.707V346.168H164.946V345.707ZM161.323 345.707V345.246H159.511V345.707V346.168H161.323V345.707ZM157.699 345.707V345.246H156.793V345.707V346.168H157.699V345.707ZM156.793 386.293V387.216H157.699V386.293V385.371H156.793V386.293ZM159.511 386.293V387.216H161.323V386.293V385.371H159.511V386.293ZM163.135 386.293V387.216H164.946V386.293V385.371H163.135V386.293ZM166.758 386.293V387.216H168.57V386.293V385.371H166.758V386.293ZM170.382 386.293V387.216H172.194V386.293V385.371H170.382V386.293ZM174.006 386.293V387.216H175.818V386.293V385.371H174.006V386.293ZM177.63 386.293V387.216H179.442V386.293V385.371H177.63V386.293ZM181.253 386.293V387.216H183.065V386.293V385.371H181.253V386.293ZM184.877 386.293V387.216H186.689V386.293V385.371H184.877V386.293ZM188.501 386.293V387.216H190.313V386.293V385.371H188.501V386.293ZM192.125 386.293V387.216H193.937V386.293V385.371H192.125V386.293ZM195.748 386.293V387.216H197.56V386.293V385.371H195.748V386.293ZM199.372 386.293V387.216H201.184V386.293V385.371H199.372V386.293ZM202.996 386.293V387.216H204.808V386.293V385.371H202.996V386.293ZM206.62 386.293V387.216H208.432V386.293V385.371H206.62V386.293ZM210.244 386.293V387.216H212.055V386.293V385.371H210.244V386.293ZM213.867 386.293V387.216H215.679V386.293V385.371H213.867V386.293ZM217.491 386.293V387.216H219.303V386.293V385.371H217.491V386.293ZM221.115 386.293V387.216H222.927V386.293V385.371H221.115V386.293ZM224.739 386.293V387.216H226.551V386.293V385.371H224.739V386.293ZM228.362 386.293V387.216H230.174V386.293V385.371H228.362V386.293ZM231.986 386.293V387.216H233.798V386.293V385.371H231.986V386.293ZM235.61 386.293V387.216H237.422V386.293V385.371H235.61V386.293ZM239.234 386.293V387.216H241.046V386.293V385.371H239.234V386.293ZM242.857 386.293V387.216H244.669V386.293V385.371H242.857V386.293ZM246.481 386.293V387.216H248.293V386.293V385.371H246.481V386.293ZM250.105 386.293V387.216H251.917V386.293V385.371H250.105V386.293ZM253.729 386.293V387.216H255.541V386.293V385.371H253.729V386.293ZM257.353 386.293V387.216H258.259V386.293V385.371H257.353V386.293ZM258.259 345.707V344.785H257.353V345.707V346.629H258.259V345.707ZM255.541 345.707V344.785H253.729V345.707V346.629H255.541V345.707ZM251.917 345.707V344.785H250.105V345.707V346.629H251.917V345.707ZM248.293 345.707V344.785H246.481V345.707V346.629H248.293V345.707ZM244.669 345.707V344.785H242.857V345.707V346.629H244.669V345.707ZM241.046 345.707V344.785H239.234V345.707V346.629H241.046V345.707ZM237.422 345.707V344.785H235.61V345.707V346.629H237.422V345.707ZM233.798 345.707V344.785H231.986V345.707V346.629H233.798V345.707ZM230.174 345.707V344.785H228.362V345.707V346.629H230.174V345.707ZM226.551 345.707V344.785H224.739V345.707V346.629H226.551V345.707ZM222.927 345.707V344.785H221.115V345.707V346.629H222.927V345.707ZM219.303 345.707V344.785H217.491V345.707V346.629H219.303V345.707ZM215.679 345.707V344.785H213.867V345.707V346.629H215.679V345.707ZM212.055 345.707V344.785H210.244V345.707V346.629H212.055V345.707ZM208.432 345.707V344.785H206.62V345.707V346.629H208.432V345.707ZM204.808 345.707V344.785H202.996V345.707V346.629H204.808V345.707ZM201.184 345.707V344.785H199.372V345.707V346.629H201.184V345.707ZM197.56 345.707V344.785H195.748V345.707V346.629H197.56V345.707ZM193.937 345.707V344.785H192.125V345.707V346.629H193.937V345.707ZM190.313 345.707V344.785H188.501V345.707V346.629H190.313V345.707ZM186.689 345.707V344.785H184.877V345.707V346.629H186.689V345.707ZM183.065 345.707V344.785H181.253V345.707V346.629H183.065V345.707ZM179.442 345.707V344.785H177.63V345.707V346.629H179.442V345.707ZM175.818 345.707V344.785H174.006V345.707V346.629H175.818V345.707ZM172.194 345.707V344.785H170.382V345.707V346.629H172.194V345.707ZM168.57 345.707V344.785H166.758V345.707V346.629H168.57V345.707ZM164.946 345.707V344.785H163.135V345.707V346.629H164.946V345.707ZM161.323 345.707V344.785H159.511V345.707V346.629H161.323V345.707ZM157.699 345.707V344.785H156.793V345.707V346.629H157.699V345.707Z" fill="#E0E0E0" mask="url(#path-37-outside-2_231_12888)"/>
<path d="M202.936 369.598V367.258H212.114V369.598H202.936Z" fill="#FF657D"/>
<path d="M255.809 272.416C255.809 268.32 259.129 265 263.224 265H350.084C354.179 265 357.499 268.32 357.499 272.416V468H255.809V272.416Z" fill="white"/>
<g opacity="0.5">
<path d="M298.34 290.426V289.306C299.492 288.356 300.452 287.524 301.22 286.81C301.999 286.095 302.618 285.46 303.076 284.906C303.546 284.351 303.876 283.844 304.068 283.386C304.271 282.916 304.372 282.458 304.372 282.01C304.372 281.348 304.175 280.831 303.78 280.458C303.386 280.084 302.842 279.898 302.148 279.898C301.434 279.898 300.858 280.1 300.42 280.506C299.983 280.911 299.716 281.492 299.62 282.25H298.244C298.351 281.204 298.751 280.362 299.444 279.722C300.148 279.071 301.082 278.746 302.244 278.746C303.322 278.746 304.18 279.034 304.82 279.61C305.46 280.186 305.78 280.975 305.78 281.978C305.78 282.522 305.674 283.066 305.46 283.61C305.258 284.154 304.916 284.724 304.436 285.322C303.967 285.919 303.343 286.58 302.564 287.306C301.796 288.02 300.842 288.831 299.7 289.738L299.396 289.274H305.972V290.426H298.34ZM311.091 290.586C309.95 290.586 309.038 290.282 308.355 289.674C307.672 289.055 307.256 288.255 307.107 287.274H308.515C308.654 287.967 308.947 288.5 309.395 288.874C309.854 289.247 310.408 289.434 311.059 289.434C311.742 289.434 312.318 289.22 312.787 288.794C313.267 288.367 313.507 287.69 313.507 286.762C313.507 285.834 313.267 285.14 312.787 284.682C312.318 284.212 311.72 283.978 310.995 283.978C310.472 283.978 310.019 284.084 309.635 284.298C309.251 284.511 308.995 284.762 308.867 285.05H307.683L308.211 278.906H314.291V280.058H308.995L309.443 279.578L309.075 284.218L308.771 284.106C308.963 283.786 309.272 283.508 309.699 283.274C310.126 283.039 310.648 282.922 311.267 282.922C311.982 282.922 312.611 283.076 313.155 283.386C313.71 283.695 314.142 284.138 314.451 284.714C314.771 285.279 314.931 285.962 314.931 286.762C314.931 287.562 314.771 288.25 314.451 288.826C314.142 289.391 313.699 289.828 313.123 290.138C312.558 290.436 311.88 290.586 311.091 290.586Z" fill="url(#paint5_linear_231_12888)"/>
<path d="M298.692 331.211V330.091C299.844 329.142 300.804 328.31 301.572 327.595C302.351 326.88 302.969 326.246 303.428 325.691C303.897 325.136 304.228 324.63 304.42 324.171C304.623 323.702 304.724 323.243 304.724 322.795C304.724 322.134 304.527 321.616 304.132 321.243C303.737 320.87 303.193 320.683 302.5 320.683C301.785 320.683 301.209 320.886 300.772 321.291C300.335 321.696 300.068 322.278 299.972 323.035H298.596C298.703 321.99 299.103 321.147 299.796 320.507C300.5 319.856 301.433 319.531 302.596 319.531C303.673 319.531 304.532 319.819 305.172 320.395C305.812 320.971 306.132 321.76 306.132 322.763C306.132 323.307 306.025 323.851 305.812 324.395C305.609 324.939 305.268 325.51 304.788 326.107C304.319 326.704 303.695 327.366 302.916 328.091C302.148 328.806 301.193 329.616 300.052 330.523L299.748 330.059H306.324V331.211H298.692ZM309.363 331.211C309.513 329.398 309.934 327.606 310.627 325.835C311.331 324.054 312.382 322.235 313.779 320.379L313.859 320.843H307.123V319.691H314.899V320.651C314.046 321.899 313.337 323.104 312.771 324.267C312.217 325.43 311.785 326.582 311.475 327.723C311.166 328.854 310.969 330.016 310.883 331.211H309.363Z" fill="url(#paint6_linear_231_12888)"/>
</g>
<mask id="path-43-outside-3_231_12888" maskUnits="userSpaceOnUse" x="255.67" y="345.105" width="102" height="43" fill="black">
<rect fill="white" x="255.67" y="345.105" width="102" height="43"/>
<path d="M255.67 346.105H357.637V386.892H255.67V346.105Z"/>
</mask>
<path d="M255.67 386.892V387.356H256.58V386.892V386.429H255.67V386.892ZM258.401 386.892V387.356H260.222V386.892V386.429H258.401V386.892ZM262.043 386.892V387.356H263.864V386.892V386.429H262.043V386.892ZM265.685 386.892V387.356H267.505V386.892V386.429H265.685V386.892ZM269.326 386.892V387.356H271.147V386.892V386.429H269.326V386.892ZM272.968 386.892V387.356H274.789V386.892V386.429H272.968V386.892ZM276.61 386.892V387.356H278.43V386.892V386.429H276.61V386.892ZM280.251 386.892V387.356H282.072V386.892V386.429H280.251V386.892ZM283.893 386.892V387.356H285.714V386.892V386.429H283.893V386.892ZM287.535 386.892V387.356H289.356V386.892V386.429H287.535V386.892ZM291.176 386.892V387.356H292.997V386.892V386.429H291.176V386.892ZM294.818 386.892V387.356H296.639V386.892V386.429H294.818V386.892ZM298.46 386.892V387.356H300.281V386.892V386.429H298.46V386.892ZM302.101 386.892V387.356H303.922V386.892V386.429H302.101V386.892ZM305.743 386.892V387.356H307.564V386.892V386.429H305.743V386.892ZM309.385 386.892V387.356H311.206V386.892V386.429H309.385V386.892ZM313.026 386.892V387.356H314.847V386.892V386.429H313.026V386.892ZM316.668 386.892V387.356H318.489V386.892V386.429H316.668V386.892ZM320.31 386.892V387.356H322.131V386.892V386.429H320.31V386.892ZM323.952 386.892V387.356H325.772V386.892V386.429H323.952V386.892ZM327.593 386.892V387.356H329.414V386.892V386.429H327.593V386.892ZM331.235 386.892V387.356H333.056V386.892V386.429H331.235V386.892ZM334.877 386.892V387.356H336.697V386.892V386.429H334.877V386.892ZM338.518 386.892V387.356H340.339V386.892V386.429H338.518V386.892ZM342.16 386.892V387.356H343.981V386.892V386.429H342.16V386.892ZM345.802 386.892V387.356H347.622V386.892V386.429H345.802V386.892ZM349.443 386.892V387.356H351.264V386.892V386.429H349.443V386.892ZM353.085 386.892V387.356H354.906V386.892V386.429H353.085V386.892ZM356.727 386.892V387.356H357.637V386.892V386.429H356.727V386.892ZM357.637 346.105V345.642H356.727V346.105V346.569H357.637V346.105ZM354.906 346.105V345.642H353.085V346.105V346.569H354.906V346.105ZM351.264 346.105V345.642H349.443V346.105V346.569H351.264V346.105ZM347.622 346.105V345.642H345.802V346.105V346.569H347.622V346.105ZM343.981 346.105V345.642H342.16V346.105V346.569H343.981V346.105ZM340.339 346.105V345.642H338.518V346.105V346.569H340.339V346.105ZM336.697 346.105V345.642H334.877V346.105V346.569H336.697V346.105ZM333.056 346.105V345.642H331.235V346.105V346.569H333.056V346.105ZM329.414 346.105V345.642H327.593V346.105V346.569H329.414V346.105ZM325.772 346.105V345.642H323.952V346.105V346.569H325.772V346.105ZM322.131 346.105V345.642H320.31V346.105V346.569H322.131V346.105ZM318.489 346.105V345.642H316.668V346.105V346.569H318.489V346.105ZM314.847 346.105V345.642H313.026V346.105V346.569H314.847V346.105ZM311.206 346.105V345.642H309.385V346.105V346.569H311.206V346.105ZM307.564 346.105V345.642H305.743V346.105V346.569H307.564V346.105ZM303.922 346.105V345.642H302.101V346.105V346.569H303.922V346.105ZM300.281 346.105V345.642H298.46V346.105V346.569H300.281V346.105ZM296.639 346.105V345.642H294.818V346.105V346.569H296.639V346.105ZM292.997 346.105V345.642H291.176V346.105V346.569H292.997V346.105ZM289.356 346.105V345.642H287.535V346.105V346.569H289.356V346.105ZM285.714 346.105V345.642H283.893V346.105V346.569H285.714V346.105ZM282.072 346.105V345.642H280.251V346.105V346.569H282.072V346.105ZM278.43 346.105V345.642H276.61V346.105V346.569H278.43V346.105ZM274.789 346.105V345.642H272.968V346.105V346.569H274.789V346.105ZM271.147 346.105V345.642H269.326V346.105V346.569H271.147V346.105ZM267.505 346.105V345.642H265.685V346.105V346.569H267.505V346.105ZM263.864 346.105V345.642H262.043V346.105V346.569H263.864V346.105ZM260.222 346.105V345.642H258.401V346.105V346.569H260.222V346.105ZM256.58 346.105V345.642H255.67V346.105V346.569H256.58V346.105ZM255.67 386.892V387.819H256.58V386.892V385.965H255.67V386.892ZM258.401 386.892V387.819H260.222V386.892V385.965H258.401V386.892ZM262.043 386.892V387.819H263.864V386.892V385.965H262.043V386.892ZM265.685 386.892V387.819H267.505V386.892V385.965H265.685V386.892ZM269.326 386.892V387.819H271.147V386.892V385.965H269.326V386.892ZM272.968 386.892V387.819H274.789V386.892V385.965H272.968V386.892ZM276.61 386.892V387.819H278.43V386.892V385.965H276.61V386.892ZM280.251 386.892V387.819H282.072V386.892V385.965H280.251V386.892ZM283.893 386.892V387.819H285.714V386.892V385.965H283.893V386.892ZM287.535 386.892V387.819H289.356V386.892V385.965H287.535V386.892ZM291.176 386.892V387.819H292.997V386.892V385.965H291.176V386.892ZM294.818 386.892V387.819H296.639V386.892V385.965H294.818V386.892ZM298.46 386.892V387.819H300.281V386.892V385.965H298.46V386.892ZM302.101 386.892V387.819H303.922V386.892V385.965H302.101V386.892ZM305.743 386.892V387.819H307.564V386.892V385.965H305.743V386.892ZM309.385 386.892V387.819H311.206V386.892V385.965H309.385V386.892ZM313.026 386.892V387.819H314.847V386.892V385.965H313.026V386.892ZM316.668 386.892V387.819H318.489V386.892V385.965H316.668V386.892ZM320.31 386.892V387.819H322.131V386.892V385.965H320.31V386.892ZM323.952 386.892V387.819H325.772V386.892V385.965H323.952V386.892ZM327.593 386.892V387.819H329.414V386.892V385.965H327.593V386.892ZM331.235 386.892V387.819H333.056V386.892V385.965H331.235V386.892ZM334.877 386.892V387.819H336.697V386.892V385.965H334.877V386.892ZM338.518 386.892V387.819H340.339V386.892V385.965H338.518V386.892ZM342.16 386.892V387.819H343.981V386.892V385.965H342.16V386.892ZM345.802 386.892V387.819H347.622V386.892V385.965H345.802V386.892ZM349.443 386.892V387.819H351.264V386.892V385.965H349.443V386.892ZM353.085 386.892V387.819H354.906V386.892V385.965H353.085V386.892ZM356.727 386.892V387.819H357.637V386.892V385.965H356.727V386.892ZM357.637 346.105V345.178H356.727V346.105V347.032H357.637V346.105ZM354.906 346.105V345.178H353.085V346.105V347.032H354.906V346.105ZM351.264 346.105V345.178H349.443V346.105V347.032H351.264V346.105ZM347.622 346.105V345.178H345.802V346.105V347.032H347.622V346.105ZM343.981 346.105V345.178H342.16V346.105V347.032H343.981V346.105ZM340.339 346.105V345.178H338.518V346.105V347.032H340.339V346.105ZM336.697 346.105V345.178H334.877V346.105V347.032H336.697V346.105ZM333.056 346.105V345.178H331.235V346.105V347.032H333.056V346.105ZM329.414 346.105V345.178H327.593V346.105V347.032H329.414V346.105ZM325.772 346.105V345.178H323.952V346.105V347.032H325.772V346.105ZM322.131 346.105V345.178H320.31V346.105V347.032H322.131V346.105ZM318.489 346.105V345.178H316.668V346.105V347.032H318.489V346.105ZM314.847 346.105V345.178H313.026V346.105V347.032H314.847V346.105ZM311.206 346.105V345.178H309.385V346.105V347.032H311.206V346.105ZM307.564 346.105V345.178H305.743V346.105V347.032H307.564V346.105ZM303.922 346.105V345.178H302.101V346.105V347.032H303.922V346.105ZM300.281 346.105V345.178H298.46V346.105V347.032H300.281V346.105ZM296.639 346.105V345.178H294.818V346.105V347.032H296.639V346.105ZM292.997 346.105V345.178H291.176V346.105V347.032H292.997V346.105ZM289.356 346.105V345.178H287.535V346.105V347.032H289.356V346.105ZM285.714 346.105V345.178H283.893V346.105V347.032H285.714V346.105ZM282.072 346.105V345.178H280.251V346.105V347.032H282.072V346.105ZM278.43 346.105V345.178H276.61V346.105V347.032H278.43V346.105ZM274.789 346.105V345.178H272.968V346.105V347.032H274.789V346.105ZM271.147 346.105V345.178H269.326V346.105V347.032H271.147V346.105ZM267.505 346.105V345.178H265.685V346.105V347.032H267.505V346.105ZM263.864 346.105V345.178H262.043V346.105V347.032H263.864V346.105ZM260.222 346.105V345.178H258.401V346.105V347.032H260.222V346.105ZM256.58 346.105V345.178H255.67V346.105V347.032H256.58V346.105Z" fill="#E0E0E0" mask="url(#path-43-outside-3_231_12888)"/>
<path d="M293.895 376V373.738C295.715 372.247 297.232 370.947 298.445 369.838C299.676 368.729 300.655 367.741 301.383 366.874C302.111 366.007 302.631 365.219 302.943 364.508C303.255 363.797 303.411 363.087 303.411 362.376C303.411 361.405 303.125 360.651 302.553 360.114C301.999 359.559 301.227 359.282 300.239 359.282C299.217 359.282 298.385 359.585 297.743 360.192C297.102 360.781 296.703 361.622 296.547 362.714H293.739C293.913 360.998 294.58 359.62 295.741 358.58C296.92 357.54 298.471 357.02 300.395 357.02C302.233 357.02 303.68 357.505 304.737 358.476C305.812 359.447 306.349 360.781 306.349 362.48C306.349 363.347 306.185 364.213 305.855 365.08C305.543 365.929 305.023 366.822 304.295 367.758C303.567 368.677 302.588 369.699 301.357 370.826C300.144 371.935 298.636 373.201 296.833 374.622L296.183 373.738H306.687V376H293.895ZM311.338 376C311.581 373.053 312.283 370.159 313.444 367.316C314.605 364.473 316.252 361.665 318.384 358.892L318.462 359.542H307.828V357.28H320.854V359.282C319.537 361.189 318.427 363.061 317.526 364.898C316.625 366.718 315.914 368.538 315.394 370.358C314.891 372.178 314.562 374.059 314.406 376H311.338ZM323.557 376V374.848H326.645C327.605 374.848 328.432 374.656 329.125 374.272C329.819 373.877 330.352 373.328 330.725 372.624C331.099 371.92 331.285 371.104 331.285 370.176C331.285 369.259 331.099 368.459 330.725 367.776C330.352 367.093 329.819 366.565 329.125 366.192C328.443 365.819 327.616 365.632 326.645 365.632H323.557V364.48H326.645C327.851 364.48 328.901 364.72 329.797 365.2C330.693 365.669 331.387 366.336 331.877 367.2C332.379 368.053 332.629 369.056 332.629 370.208C332.629 371.36 332.379 372.373 331.877 373.248C331.376 374.112 330.677 374.789 329.781 375.28C328.896 375.76 327.856 376 326.661 376H323.557ZM322.773 376V364.48H324.085V376H322.773ZM339.654 376C339.612 375.819 339.58 375.611 339.558 375.376C339.548 375.141 339.542 374.843 339.542 374.48H339.462V370.576C339.462 369.957 339.318 369.504 339.03 369.216C338.753 368.917 338.3 368.768 337.67 368.768C337.052 368.768 336.556 368.896 336.182 369.152C335.82 369.397 335.617 369.749 335.574 370.208H334.342C334.396 369.419 334.726 368.8 335.334 368.352C335.942 367.904 336.737 367.68 337.718 367.68C338.732 367.68 339.484 367.92 339.974 368.4C340.465 368.88 340.71 369.6 340.71 370.56V374.48C340.71 374.715 340.726 374.96 340.758 375.216C340.79 375.461 340.833 375.723 340.886 376H339.654ZM336.854 376.16C336.012 376.16 335.34 375.957 334.838 375.552C334.348 375.136 334.102 374.571 334.102 373.856C334.102 373.141 334.348 372.587 334.838 372.192C335.329 371.797 336.044 371.52 336.982 371.36L339.83 370.88V371.936L337.174 372.352C336.577 372.448 336.124 372.608 335.814 372.832C335.505 373.056 335.35 373.381 335.35 373.808C335.35 374.224 335.489 374.539 335.766 374.752C336.054 374.965 336.476 375.072 337.03 375.072C337.745 375.072 338.326 374.912 338.774 374.592C339.233 374.261 339.462 373.835 339.462 373.312L339.67 374.448C339.5 374.992 339.164 375.413 338.662 375.712C338.172 376.011 337.569 376.16 336.854 376.16ZM343.522 379.28L345.346 375.04L345.634 374.592L348.306 367.84H349.618L344.882 379.28H343.522ZM345.49 376.08L341.826 367.84H343.234L346.386 375.216L345.49 376.08ZM353.774 376.16C352.771 376.16 351.971 375.931 351.374 375.472C350.776 375.003 350.435 374.341 350.35 373.488H351.582C351.656 374.011 351.886 374.411 352.27 374.688C352.654 374.965 353.166 375.104 353.806 375.104C354.371 375.104 354.814 374.997 355.134 374.784C355.454 374.571 355.614 374.267 355.614 373.872C355.614 373.595 355.523 373.355 355.342 373.152C355.16 372.939 354.798 372.763 354.254 372.624L352.942 372.288C352.195 372.096 351.635 371.803 351.262 371.408C350.888 371.003 350.702 370.523 350.702 369.968C350.702 369.264 350.963 368.709 351.486 368.304C352.008 367.888 352.718 367.68 353.614 367.68C354.499 367.68 355.219 367.893 355.774 368.32C356.328 368.747 356.643 369.339 356.718 370.096H355.486C355.411 369.659 355.208 369.323 354.878 369.088C354.547 368.853 354.11 368.736 353.566 368.736C353.043 368.736 352.638 368.837 352.35 369.04C352.062 369.232 351.918 369.509 351.918 369.872C351.918 370.149 352.019 370.389 352.222 370.592C352.435 370.795 352.787 370.965 353.278 371.104L354.558 371.456C355.315 371.659 355.886 371.968 356.27 372.384C356.654 372.8 356.846 373.301 356.846 373.888C356.846 374.603 356.574 375.163 356.03 375.568C355.486 375.963 354.734 376.16 353.774 376.16Z" fill="#FF657D"/>
<g opacity="0.5">
<path d="M298.176 412.789V411.669C299.328 410.72 300.288 409.888 301.056 409.173C301.835 408.458 302.454 407.824 302.912 407.269C303.382 406.714 303.712 406.208 303.904 405.749C304.107 405.28 304.208 404.821 304.208 404.373C304.208 403.712 304.011 403.194 303.616 402.821C303.222 402.448 302.678 402.261 301.984 402.261C301.27 402.261 300.694 402.464 300.256 402.869C299.819 403.274 299.552 403.856 299.456 404.613H298.08C298.187 403.568 298.587 402.725 299.28 402.085C299.984 401.434 300.918 401.109 302.08 401.109C303.158 401.109 304.016 401.397 304.656 401.973C305.296 402.549 305.616 403.338 305.616 404.341C305.616 404.885 305.51 405.429 305.296 405.973C305.094 406.517 304.752 407.088 304.272 407.685C303.803 408.282 303.179 408.944 302.4 409.669C301.632 410.384 300.678 411.194 299.536 412.101L299.232 411.637H305.808V412.789H298.176ZM311.114 412.949C310.304 412.949 309.6 412.805 309.002 412.517C308.416 412.229 307.962 411.834 307.642 411.333C307.322 410.832 307.162 410.272 307.162 409.653C307.162 409.077 307.29 408.554 307.546 408.085C307.802 407.616 308.144 407.242 308.57 406.965C309.008 406.688 309.488 406.549 310.01 406.549L310.042 406.885C309.552 406.885 309.109 406.768 308.714 406.533C308.32 406.288 308.01 405.957 307.786 405.541C307.562 405.125 307.45 404.666 307.45 404.165C307.45 403.568 307.605 403.04 307.914 402.581C308.224 402.122 308.656 401.765 309.21 401.509C309.765 401.242 310.405 401.109 311.13 401.109C311.856 401.109 312.49 401.242 313.034 401.509C313.578 401.765 314.005 402.122 314.314 402.581C314.624 403.04 314.778 403.562 314.778 404.149C314.778 404.661 314.666 405.125 314.442 405.541C314.218 405.946 313.909 406.272 313.514 406.517C313.12 406.762 312.672 406.885 312.17 406.885L312.218 406.549C312.752 406.549 313.232 406.688 313.658 406.965C314.085 407.242 314.426 407.616 314.682 408.085C314.938 408.554 315.066 409.077 315.066 409.653C315.066 410.272 314.906 410.832 314.586 411.333C314.266 411.834 313.808 412.229 313.21 412.517C312.624 412.805 311.925 412.949 311.114 412.949ZM311.114 411.797C311.893 411.797 312.506 411.589 312.954 411.173C313.413 410.757 313.642 410.208 313.642 409.525C313.642 408.842 313.418 408.304 312.97 407.909C312.522 407.514 311.904 407.317 311.114 407.317C310.325 407.317 309.706 407.514 309.258 407.909C308.81 408.304 308.586 408.842 308.586 409.525C308.586 410.208 308.81 410.757 309.258 411.173C309.717 411.589 310.336 411.797 311.114 411.797ZM311.114 406.197C311.818 406.197 312.368 406.021 312.762 405.669C313.168 405.317 313.37 404.848 313.37 404.261C313.37 403.653 313.162 403.168 312.746 402.805C312.33 402.442 311.786 402.261 311.114 402.261C310.432 402.261 309.882 402.442 309.466 402.805C309.061 403.168 308.858 403.653 308.858 404.261C308.858 404.848 309.061 405.317 309.466 405.669C309.872 406.021 310.421 406.197 311.114 406.197Z" fill="url(#paint7_linear_231_12888)"/>
<path d="M297.848 453.574V452.454C299 451.505 299.96 450.673 300.728 449.958C301.507 449.244 302.126 448.609 302.584 448.054C303.054 447.5 303.384 446.993 303.576 446.534C303.779 446.065 303.88 445.606 303.88 445.158C303.88 444.497 303.683 443.98 303.288 443.606C302.894 443.233 302.35 443.046 301.656 443.046C300.942 443.046 300.366 443.249 299.928 443.654C299.491 444.06 299.224 444.641 299.128 445.398H297.752C297.859 444.353 298.259 443.51 298.952 442.87C299.656 442.22 300.59 441.894 301.752 441.894C302.83 441.894 303.688 442.182 304.328 442.758C304.968 443.334 305.288 444.124 305.288 445.126C305.288 445.67 305.182 446.214 304.968 446.758C304.766 447.302 304.424 447.873 303.944 448.47C303.475 449.068 302.851 449.729 302.072 450.454C301.304 451.169 300.35 451.98 299.208 452.886L298.904 452.422H305.48V453.574H297.848ZM310.941 453.734C310.269 453.734 309.667 453.606 309.133 453.35C308.6 453.084 308.168 452.694 307.837 452.182C307.507 451.66 307.293 451.009 307.197 450.23H308.605C308.712 451.062 308.973 451.665 309.389 452.038C309.805 452.401 310.333 452.582 310.973 452.582C311.443 452.582 311.848 452.486 312.189 452.294C312.531 452.102 312.813 451.809 313.037 451.414C313.261 451.02 313.427 450.518 313.533 449.91C313.64 449.292 313.693 448.561 313.693 447.718V446.678L314.061 446.726C313.965 447.217 313.752 447.654 313.421 448.038C313.091 448.412 312.68 448.705 312.189 448.918C311.699 449.121 311.171 449.222 310.605 449.222C309.901 449.222 309.283 449.068 308.749 448.758C308.216 448.438 307.795 448.001 307.485 447.446C307.187 446.892 307.037 446.262 307.037 445.558C307.037 444.812 307.203 444.166 307.533 443.622C307.864 443.078 308.323 442.657 308.909 442.358C309.507 442.049 310.189 441.894 310.957 441.894C312.323 441.894 313.357 442.39 314.061 443.382C314.776 444.374 315.133 445.83 315.133 447.75C315.133 449.03 314.968 450.118 314.637 451.014C314.317 451.9 313.843 452.577 313.213 453.046C312.595 453.505 311.837 453.734 310.941 453.734ZM310.941 448.102C311.677 448.102 312.285 447.894 312.765 447.478C313.256 447.062 313.501 446.465 313.501 445.686C313.501 445.164 313.384 444.705 313.149 444.31C312.925 443.916 312.616 443.606 312.221 443.382C311.827 443.158 311.379 443.046 310.877 443.046C310.163 443.046 309.581 443.276 309.133 443.734C308.696 444.182 308.477 444.801 308.477 445.59C308.477 446.348 308.691 446.956 309.117 447.414C309.555 447.873 310.163 448.102 310.941 448.102Z" fill="url(#paint8_linear_231_12888)"/>
</g>
</g>
<defs>
<linearGradient id="paint0_linear_231_12888" x1="196.5" y1="0" x2="196.5" y2="852" gradientUnits="userSpaceOnUse">
<stop stop-color="white"/>
<stop offset="1" stop-color="#FFF0F2"/>
</linearGradient>
<linearGradient id="paint1_linear_231_12888" x1="96.1603" y1="290.637" x2="96.1603" y2="271.637" gradientUnits="userSpaceOnUse">
<stop stop-color="#8C8C8C"/>
<stop offset="1" stop-color="white"/>
</linearGradient>
<linearGradient id="paint2_linear_231_12888" x1="96.1603" y1="314.066" x2="96.1603" y2="333.066" gradientUnits="userSpaceOnUse">
<stop stop-color="#A3A3A3"/>
<stop offset="1"/>
</linearGradient>
<linearGradient id="paint3_linear_231_12888" x1="96.1603" y1="398.93" x2="96.1603" y2="417.93" gradientUnits="userSpaceOnUse">
<stop/>
<stop offset="1" stop-color="#A3A3A3"/>
</linearGradient>
<linearGradient id="paint4_linear_231_12888" x1="96.1603" y1="460.359" x2="96.1603" y2="441.359" gradientUnits="userSpaceOnUse">
<stop stop-color="white"/>
<stop offset="1" stop-color="#8C8C8C"/>
</linearGradient>
<linearGradient id="paint5_linear_231_12888" x1="306.654" y1="294.426" x2="306.654" y2="275.426" gradientUnits="userSpaceOnUse">
<stop stop-color="#8C8C8C"/>
<stop offset="1" stop-color="white"/>
</linearGradient>
<linearGradient id="paint6_linear_231_12888" x1="306.654" y1="316.211" x2="306.654" y2="335.211" gradientUnits="userSpaceOnUse">
<stop stop-color="#A3A3A3"/>
<stop offset="1"/>
</linearGradient>
<linearGradient id="paint7_linear_231_12888" x1="306.654" y1="397.789" x2="306.654" y2="416.789" gradientUnits="userSpaceOnUse">
<stop/>
<stop offset="1" stop-color="#A3A3A3"/>
</linearGradient>
<linearGradient id="paint8_linear_231_12888" x1="306.654" y1="457.574" x2="306.654" y2="438.574" gradientUnits="userSpaceOnUse">
<stop stop-color="white"/>
<stop offset="1" stop-color="#8C8C8C"/>
</linearGradient>
<clipPath id="clip0_231_12888">
<rect width="393" height="852" rx="40" fill="white"/>
</clipPath>
</defs>
</svg>