<svg xmlns="http://www.w3.org/2000/svg" width="393" height="852" viewBox="0 0 393 852" fill="none">
<g clip-path="url(#clip0_231_12940)">
<rect width="393" height="852" rx="40" fill="url(#paint0_linear_231_12940)"/>
<rect x="130" y="839" width="134" height="5" rx="2.5" fill="black"/>
<rect x="20" y="65" width="44" height="44" rx="15" fill="#F9F9F9"/>
<path d="M45 94L38 87L45 80" stroke="black" stroke-width="1.5" stroke-linecap="round" stroke-linejoin="round"/>
<rect x="88" y="83" width="30" height="8" rx="4" fill="#FFF3F4"/>
<rect x="121" y="83" width="30" height="8" rx="4" fill="#FFF3F4"/>
<rect x="154" y="83" width="30" height="8" rx="4" fill="#FFF3F4"/>
<rect x="187" y="83" width="30" height="8" rx="4" fill="#FFF3F4"/>
<rect x="220" y="83" width="30" height="8" rx="4" fill="#FFF3F4"/>
<rect x="253" y="83" width="30" height="8" rx="4" fill="#FF657D"/>
<rect x="286" y="83" width="30" height="8" rx="4" fill="#FFF3F4"/>
<path d="M345.613 92.66C344.152 92.66 343.021 92.1693 342.221 91.188C341.432 90.196 341.037 88.788 341.037 86.964C341.037 85.684 341.224 84.5853 341.597 83.668C341.981 82.7507 342.525 82.0467 343.229 81.556C343.944 81.0653 344.781 80.82 345.741 80.82C346.819 80.82 347.699 81.1133 348.381 81.7C349.064 82.276 349.485 83.0813 349.645 84.116H347.533C347.469 83.5827 347.272 83.1773 346.941 82.9C346.621 82.612 346.216 82.468 345.725 82.468C344.893 82.468 344.264 82.8253 343.837 83.54C343.421 84.2547 343.213 85.3533 343.213 86.836V87.876L342.765 87.732C342.872 87.22 343.08 86.7773 343.389 86.404C343.699 86.0307 344.088 85.7427 344.557 85.54C345.027 85.3373 345.544 85.236 346.109 85.236C346.845 85.236 347.491 85.3907 348.045 85.7C348.6 86.0093 349.032 86.4413 349.341 86.996C349.661 87.54 349.821 88.1853 349.821 88.932C349.821 89.6787 349.645 90.3347 349.293 90.9C348.941 91.4547 348.451 91.8867 347.821 92.196C347.192 92.5053 346.456 92.66 345.613 92.66ZM345.501 91.012C346.109 91.012 346.611 90.8307 347.005 90.468C347.4 90.1053 347.597 89.5933 347.597 88.932C347.597 88.26 347.4 87.748 347.005 87.396C346.611 87.0333 346.099 86.852 345.469 86.852C344.851 86.852 344.328 87.028 343.901 87.38C343.485 87.7213 343.277 88.2173 343.277 88.868C343.277 89.3053 343.379 89.6893 343.581 90.02C343.784 90.34 344.051 90.5853 344.381 90.756C344.723 90.9267 345.096 91.012 345.501 91.012ZM353.975 93.668L358.151 80.292H359.911L355.735 93.668H353.975ZM366.05 92.5C366.21 90.676 366.653 88.9053 367.378 87.188C368.103 85.4707 369.079 83.828 370.306 82.26L370.338 82.628H363.97V80.98H372.226V82.468C371.458 83.5773 370.797 84.676 370.242 85.764C369.698 86.8413 369.261 87.9347 368.93 89.044C368.61 90.1533 368.407 91.3053 368.322 92.5H366.05Z" fill="black"/>
<path d="M25.8223 158V136.4H30.4423V158H25.8223ZM27.9823 158V154.46H41.9023V158H27.9823ZM27.9823 148.7V145.22H40.8523V148.7H27.9823ZM27.9823 139.94V136.4H41.5423V139.94H27.9823ZM44.9016 158V142.7H49.3116V146.3H49.4016V158H44.9016ZM55.5516 158V148.52C55.5516 147.68 55.3316 147.05 54.8916 146.63C54.4716 146.21 53.8516 146 53.0316 146C52.3316 146 51.7016 146.16 51.1416 146.48C50.6016 146.8 50.1716 147.24 49.8516 147.8C49.5516 148.36 49.4016 149.02 49.4016 149.78L49.0116 146.09C49.5116 144.97 50.2416 144.08 51.2016 143.42C52.1816 142.74 53.3816 142.4 54.8016 142.4C56.5016 142.4 57.8016 142.88 58.7016 143.84C59.6016 144.78 60.0516 146.05 60.0516 147.65V158H55.5516ZM70.0913 158.33C68.1313 158.33 66.6713 157.86 65.7113 156.92C64.7713 155.96 64.3013 154.51 64.3013 152.57V139.28L68.8013 137.6V152.72C68.8013 153.4 68.9913 153.91 69.3713 154.25C69.7513 154.59 70.3413 154.76 71.1413 154.76C71.4413 154.76 71.7213 154.73 71.9813 154.67C72.2413 154.61 72.5013 154.54 72.7613 154.46V157.88C72.5013 158.02 72.1313 158.13 71.6513 158.21C71.1913 158.29 70.6713 158.33 70.0913 158.33ZM61.4513 146.12V142.7H72.7613V146.12H61.4513ZM82.1309 158.3C80.4309 158.3 78.9509 157.97 77.6909 157.31C76.4309 156.63 75.4509 155.69 74.7509 154.49C74.0709 153.29 73.7309 151.91 73.7309 150.35C73.7309 148.77 74.0709 147.39 74.7509 146.21C75.4509 145.01 76.4209 144.08 77.6609 143.42C78.9009 142.74 80.3409 142.4 81.9809 142.4C83.5609 142.4 84.9309 142.72 86.0909 143.36C87.2509 144 88.1509 144.89 88.7909 146.03C89.4309 147.17 89.7509 148.51 89.7509 150.05C89.7509 150.37 89.7409 150.67 89.7209 150.95C89.7009 151.21 89.6709 151.46 89.6309 151.7H76.3709V148.73H86.0009L85.2209 149.27C85.2209 148.03 84.9209 147.12 84.3209 146.54C83.7409 145.94 82.9409 145.64 81.9209 145.64C80.7409 145.64 79.8209 146.04 79.1609 146.84C78.5209 147.64 78.2009 148.84 78.2009 150.44C78.2009 152 78.5209 153.16 79.1609 153.92C79.8209 154.68 80.8009 155.06 82.1009 155.06C82.8209 155.06 83.4409 154.94 83.9609 154.7C84.4809 154.46 84.8709 154.07 85.1309 153.53H89.3609C88.8609 155.01 88.0009 156.18 86.7809 157.04C85.5809 157.88 84.0309 158.3 82.1309 158.3ZM92.1574 158V142.7H96.5674V146.3H96.6574V158H92.1574ZM96.6574 150.02L96.2674 146.39C96.6274 145.09 97.2174 144.1 98.0374 143.42C98.8574 142.74 99.8774 142.4 101.097 142.4C101.477 142.4 101.757 142.44 101.937 142.52V146.72C101.837 146.68 101.697 146.66 101.517 146.66C101.337 146.64 101.117 146.63 100.857 146.63C99.4174 146.63 98.3574 146.89 97.6774 147.41C96.9974 147.91 96.6574 148.78 96.6574 150.02ZM116.393 158V149.27L108.353 136.4H113.903L120.263 147.83H117.653L123.983 136.4H129.053L121.013 149.27V158H116.393ZM135.072 158.3C133.392 158.3 131.912 157.97 130.632 157.31C129.372 156.63 128.382 155.69 127.662 154.49C126.962 153.27 126.612 151.87 126.612 150.29C126.612 148.71 126.962 147.33 127.662 146.15C128.382 144.97 129.372 144.05 130.632 143.39C131.912 142.73 133.392 142.4 135.072 142.4C136.772 142.4 138.252 142.73 139.512 143.39C140.792 144.05 141.782 144.97 142.482 146.15C143.182 147.33 143.532 148.71 143.532 150.29C143.532 151.87 143.172 153.27 142.452 154.49C141.752 155.69 140.762 156.63 139.482 157.31C138.222 157.97 136.752 158.3 135.072 158.3ZM135.072 154.76C135.772 154.76 136.402 154.58 136.962 154.22C137.542 153.86 138.002 153.35 138.342 152.69C138.682 152.01 138.852 151.2 138.852 150.26C138.852 148.88 138.482 147.82 137.742 147.08C137.022 146.32 136.132 145.94 135.072 145.94C134.012 145.94 133.112 146.32 132.372 147.08C131.652 147.84 131.292 148.9 131.292 150.26C131.292 151.2 131.462 152.01 131.802 152.69C132.142 153.35 132.592 153.86 133.152 154.22C133.732 154.58 134.372 154.76 135.072 154.76ZM150.867 158.3C149.787 158.3 148.857 158.07 148.077 157.61C147.317 157.13 146.737 156.5 146.337 155.72C145.937 154.92 145.737 154.03 145.737 153.05V142.7H150.237V152.18C150.237 153.02 150.447 153.65 150.867 154.07C151.287 154.49 151.877 154.7 152.637 154.7C153.317 154.7 153.917 154.54 154.437 154.22C154.957 153.9 155.367 153.46 155.667 152.9C155.987 152.32 156.147 151.66 156.147 150.92L156.537 154.61C156.037 155.71 155.307 156.6 154.347 157.28C153.387 157.96 152.227 158.3 150.867 158.3ZM156.237 158V154.4H156.147V142.7H160.647V158H156.237ZM164.257 158V142.7H168.667V146.3H168.757V158H164.257ZM168.757 150.02L168.367 146.39C168.727 145.09 169.317 144.1 170.137 143.42C170.957 142.74 171.977 142.4 173.197 142.4C173.577 142.4 173.857 142.44 174.037 142.52V146.72C173.937 146.68 173.797 146.66 173.617 146.66C173.437 146.64 173.217 146.63 172.957 146.63C171.517 146.63 170.457 146.89 169.777 147.41C169.097 147.91 168.757 148.78 168.757 150.02ZM191.853 158.3C190.293 158.3 188.853 158.03 187.533 157.49C186.213 156.93 185.063 156.15 184.083 155.15C183.123 154.15 182.373 152.97 181.833 151.61C181.293 150.23 181.023 148.73 181.023 147.11C181.023 145.49 181.283 144.01 181.803 142.67C182.343 141.33 183.093 140.17 184.053 139.19C185.033 138.19 186.183 137.43 187.503 136.91C188.823 136.37 190.273 136.1 191.853 136.1C193.633 136.1 195.233 136.45 196.653 137.15C198.093 137.83 199.263 138.8 200.163 140.06C201.083 141.3 201.643 142.76 201.843 144.44H197.343C197.083 142.9 196.453 141.74 195.453 140.96C194.453 140.16 193.263 139.76 191.883 139.76C190.663 139.76 189.583 140.05 188.643 140.63C187.723 141.21 187.003 142.05 186.483 143.15C185.963 144.23 185.703 145.54 185.703 147.08C185.703 148.64 185.963 149.99 186.483 151.13C187.023 152.25 187.763 153.12 188.703 153.74C189.643 154.34 190.723 154.64 191.943 154.64C193.243 154.64 194.393 154.25 195.393 153.47C196.393 152.69 197.043 151.53 197.343 149.99H201.903C201.643 151.67 201.053 153.14 200.133 154.4C199.213 155.64 198.043 156.6 196.623 157.28C195.203 157.96 193.613 158.3 191.853 158.3ZM205.203 164.15L209.433 154.79L210.213 153.5L214.173 142.7H218.973L209.703 164.15H205.203ZM208.443 157.7L202.563 142.7H207.423L212.253 156.38L208.443 157.7ZM227.173 158.3C225.573 158.3 224.163 157.96 222.943 157.28C221.723 156.6 220.763 155.66 220.063 154.46C219.383 153.26 219.043 151.89 219.043 150.35C219.043 148.81 219.383 147.44 220.063 146.24C220.763 145.04 221.723 144.1 222.943 143.42C224.163 142.74 225.573 142.4 227.173 142.4C228.513 142.4 229.713 142.65 230.773 143.15C231.853 143.63 232.733 144.3 233.413 145.16C234.113 146.02 234.563 147.03 234.763 148.19H230.413C230.193 147.45 229.793 146.89 229.213 146.51C228.653 146.13 227.993 145.94 227.233 145.94C226.513 145.94 225.883 146.12 225.343 146.48C224.823 146.84 224.423 147.35 224.143 148.01C223.863 148.67 223.723 149.45 223.723 150.35C223.723 151.25 223.863 152.03 224.143 152.69C224.423 153.35 224.823 153.86 225.343 154.22C225.883 154.58 226.513 154.76 227.233 154.76C227.993 154.76 228.653 154.57 229.213 154.19C229.793 153.81 230.193 153.25 230.413 152.51H234.763C234.563 153.67 234.113 154.68 233.413 155.54C232.733 156.4 231.853 157.08 230.773 157.58C229.713 158.06 228.513 158.3 227.173 158.3ZM237.089 158V136.4H241.589V158H237.089ZM252.375 158.3C250.675 158.3 249.195 157.97 247.935 157.31C246.675 156.63 245.695 155.69 244.995 154.49C244.315 153.29 243.975 151.91 243.975 150.35C243.975 148.77 244.315 147.39 244.995 146.21C245.695 145.01 246.665 144.08 247.905 143.42C249.145 142.74 250.585 142.4 252.225 142.4C253.805 142.4 255.175 142.72 256.335 143.36C257.495 144 258.395 144.89 259.035 146.03C259.675 147.17 259.995 148.51 259.995 150.05C259.995 150.37 259.985 150.67 259.965 150.95C259.945 151.21 259.915 151.46 259.875 151.7H246.615V148.73H256.245L255.465 149.27C255.465 148.03 255.165 147.12 254.565 146.54C253.985 145.94 253.185 145.64 252.165 145.64C250.985 145.64 250.065 146.04 249.405 146.84C248.765 147.64 248.445 148.84 248.445 150.44C248.445 152 248.765 153.16 249.405 153.92C250.065 154.68 251.045 155.06 252.345 155.06C253.065 155.06 253.685 154.94 254.205 154.7C254.725 154.46 255.115 154.07 255.375 153.53H259.605C259.105 155.01 258.245 156.18 257.025 157.04C255.825 157.88 254.275 158.3 252.375 158.3ZM267.814 158V136.4H272.434V158H267.814ZM269.974 158V154.46H282.814V158H269.974ZM291.896 158.3C290.196 158.3 288.716 157.97 287.456 157.31C286.196 156.63 285.216 155.69 284.516 154.49C283.836 153.29 283.496 151.91 283.496 150.35C283.496 148.77 283.836 147.39 284.516 146.21C285.216 145.01 286.186 144.08 287.426 143.42C288.666 142.74 290.106 142.4 291.746 142.4C293.326 142.4 294.696 142.72 295.856 143.36C297.016 144 297.916 144.89 298.556 146.03C299.196 147.17 299.516 148.51 299.516 150.05C299.516 150.37 299.506 150.67 299.486 150.95C299.466 151.21 299.436 151.46 299.396 151.7H286.136V148.73H295.766L294.986 149.27C294.986 148.03 294.686 147.12 294.086 146.54C293.506 145.94 292.706 145.64 291.686 145.64C290.506 145.64 289.586 146.04 288.926 146.84C288.286 147.64 287.966 148.84 287.966 150.44C287.966 152 288.286 153.16 288.926 153.92C289.586 154.68 290.566 155.06 291.866 155.06C292.586 155.06 293.206 154.94 293.726 154.7C294.246 154.46 294.636 154.07 294.896 153.53H299.126C298.626 155.01 297.766 156.18 296.546 157.04C295.346 157.88 293.796 158.3 291.896 158.3ZM301.923 158V142.7H306.333V146.3H306.423V158H301.923ZM312.573 158V148.52C312.573 147.68 312.353 147.05 311.913 146.63C311.493 146.21 310.873 146 310.053 146C309.353 146 308.723 146.16 308.163 146.48C307.623 146.8 307.193 147.24 306.873 147.8C306.573 148.36 306.423 149.02 306.423 149.78L306.033 146.09C306.533 144.97 307.263 144.08 308.223 143.42C309.203 142.74 310.403 142.4 311.823 142.4C313.523 142.4 314.823 142.88 315.723 143.84C316.623 144.78 317.073 146.05 317.073 147.65V158H312.573ZM327.489 164.45C325.369 164.45 323.639 164 322.299 163.1C320.979 162.2 320.199 160.98 319.959 159.44H324.219C324.379 159.82 324.719 160.11 325.239 160.31C325.779 160.51 326.459 160.61 327.279 160.61C328.639 160.61 329.629 160.35 330.249 159.83C330.869 159.31 331.179 158.5 331.179 157.4V154.07L331.419 154.13C331.219 155.25 330.639 156.14 329.679 156.8C328.719 157.44 327.529 157.76 326.109 157.76C324.749 157.76 323.559 157.45 322.539 156.83C321.539 156.19 320.759 155.3 320.199 154.16C319.639 153.02 319.359 151.68 319.359 150.14C319.359 148.58 319.649 147.22 320.229 146.06C320.809 144.9 321.619 144 322.659 143.36C323.719 142.72 324.949 142.4 326.349 142.4C327.789 142.4 328.959 142.74 329.859 143.42C330.779 144.1 331.319 145.03 331.479 146.21L331.269 146.24V142.7H335.679V157.34C335.679 159.54 334.949 161.27 333.489 162.53C332.029 163.81 330.029 164.45 327.489 164.45ZM327.669 154.31C328.729 154.31 329.589 153.95 330.249 153.23C330.909 152.49 331.239 151.44 331.239 150.08C331.239 148.72 330.899 147.68 330.219 146.96C329.559 146.22 328.689 145.85 327.609 145.85C326.569 145.85 325.709 146.22 325.029 146.96C324.369 147.7 324.039 148.75 324.039 150.11C324.039 151.47 324.369 152.51 325.029 153.23C325.709 153.95 326.589 154.31 327.669 154.31ZM346.537 158.33C344.577 158.33 343.117 157.86 342.157 156.92C341.217 155.96 340.747 154.51 340.747 152.57V139.28L345.247 137.6V152.72C345.247 153.4 345.437 153.91 345.817 154.25C346.197 154.59 346.787 154.76 347.587 154.76C347.887 154.76 348.167 154.73 348.427 154.67C348.687 154.61 348.947 154.54 349.207 154.46V157.88C348.947 158.02 348.577 158.13 348.097 158.21C347.637 158.29 347.117 158.33 346.537 158.33ZM337.897 146.12V142.7H349.207V146.12H337.897ZM351.904 158V136.4H356.404V158H351.904ZM362.554 158V148.52C362.554 147.68 362.334 147.05 361.894 146.63C361.474 146.21 360.854 146 360.034 146C359.334 146 358.704 146.16 358.144 146.48C357.604 146.8 357.174 147.24 356.854 147.8C356.554 148.36 356.404 149.02 356.404 149.78L356.014 146.09C356.514 144.97 357.244 144.08 358.204 143.42C359.184 142.74 360.384 142.4 361.804 142.4C363.504 142.4 364.804 142.88 365.704 143.84C366.604 144.78 367.054 146.05 367.054 147.65V158H362.554Z" fill="black"/>
<rect x="20" y="766" width="353" height="52" rx="26" fill="#FF657D"/>
<path d="M167.787 797.66C166.966 797.66 166.209 797.516 165.515 797.228C164.833 796.929 164.235 796.513 163.723 795.98C163.211 795.447 162.817 794.817 162.539 794.092C162.262 793.367 162.123 792.572 162.123 791.708C162.123 790.844 162.262 790.055 162.539 789.34C162.817 788.625 163.206 788.007 163.707 787.484C164.219 786.951 164.817 786.54 165.499 786.252C166.193 785.964 166.955 785.82 167.787 785.82C168.705 785.82 169.531 786.001 170.267 786.364C171.003 786.727 171.606 787.239 172.075 787.9C172.555 788.551 172.849 789.319 172.955 790.204H170.907C170.779 789.34 170.433 788.679 169.867 788.22C169.302 787.751 168.614 787.516 167.803 787.516C167.089 787.516 166.465 787.687 165.931 788.028C165.398 788.369 164.982 788.855 164.683 789.484C164.385 790.103 164.235 790.839 164.235 791.692C164.235 792.567 164.385 793.324 164.683 793.964C164.982 794.593 165.403 795.084 165.947 795.436C166.491 795.788 167.115 795.964 167.819 795.964C168.609 795.964 169.286 795.735 169.851 795.276C170.417 794.807 170.774 794.145 170.923 793.292H172.987C172.859 794.167 172.555 794.935 172.075 795.596C171.606 796.257 171.003 796.769 170.267 797.132C169.531 797.484 168.705 797.66 167.787 797.66ZM178.237 797.66C177.373 797.66 176.61 797.479 175.949 797.116C175.298 796.753 174.792 796.252 174.429 795.612C174.066 794.961 173.885 794.22 173.885 793.388C173.885 792.556 174.066 791.825 174.429 791.196C174.792 790.567 175.298 790.076 175.949 789.724C176.61 789.361 177.373 789.18 178.237 789.18C179.112 789.18 179.874 789.361 180.525 789.724C181.176 790.076 181.682 790.567 182.045 791.196C182.408 791.825 182.589 792.556 182.589 793.388C182.589 794.22 182.402 794.961 182.029 795.612C181.666 796.252 181.16 796.753 180.509 797.116C179.858 797.479 179.101 797.66 178.237 797.66ZM178.237 796.044C178.664 796.044 179.048 795.937 179.389 795.724C179.73 795.5 179.997 795.191 180.189 794.796C180.381 794.391 180.477 793.916 180.477 793.372C180.477 792.572 180.264 791.943 179.837 791.484C179.421 791.025 178.888 790.796 178.237 790.796C177.586 790.796 177.048 791.025 176.621 791.484C176.194 791.943 175.981 792.572 175.981 793.372C175.981 793.916 176.077 794.391 176.269 794.796C176.472 795.191 176.738 795.5 177.069 795.724C177.41 795.937 177.8 796.044 178.237 796.044ZM184.072 797.5V789.34H186.04V791.26H186.088V797.5H184.072ZM189.8 797.5V792.348C189.8 791.847 189.672 791.468 189.416 791.212C189.16 790.956 188.787 790.828 188.296 790.828C187.869 790.828 187.485 790.924 187.144 791.116C186.813 791.308 186.552 791.575 186.36 791.916C186.179 792.257 186.088 792.652 186.088 793.1L185.88 791.148C186.157 790.551 186.563 790.076 187.096 789.724C187.629 789.361 188.269 789.18 189.016 789.18C189.901 789.18 190.589 789.431 191.08 789.932C191.581 790.433 191.832 791.1 191.832 791.932V797.5H189.8ZM197.236 797.66C196.233 797.66 195.492 797.425 195.012 796.956C194.543 796.476 194.308 795.761 194.308 794.812V787.484L196.34 786.732V794.86C196.34 795.255 196.447 795.548 196.66 795.74C196.873 795.932 197.209 796.028 197.668 796.028C197.849 796.028 198.009 796.017 198.148 795.996C198.297 795.964 198.436 795.927 198.564 795.884V797.452C198.436 797.516 198.255 797.564 198.02 797.596C197.785 797.639 197.524 797.66 197.236 797.66ZM192.74 790.924V789.34H198.564V790.924H192.74ZM200.025 797.5V789.34H202.041V797.5H200.025ZM199.929 787.996V785.772H202.121V787.996H199.929ZM204.181 797.5V789.34H206.149V791.26H206.197V797.5H204.181ZM209.909 797.5V792.348C209.909 791.847 209.781 791.468 209.525 791.212C209.269 790.956 208.896 790.828 208.405 790.828C207.979 790.828 207.595 790.924 207.253 791.116C206.923 791.308 206.661 791.575 206.469 791.916C206.288 792.257 206.197 792.652 206.197 793.1L205.989 791.148C206.267 790.551 206.672 790.076 207.205 789.724C207.739 789.361 208.379 789.18 209.125 789.18C210.011 789.18 210.699 789.431 211.189 789.932C211.691 790.433 211.941 791.1 211.941 791.932V797.5H209.909ZM216.431 797.66C215.865 797.66 215.375 797.543 214.959 797.308C214.553 797.063 214.239 796.732 214.015 796.316C213.801 795.9 213.695 795.431 213.695 794.908V789.34H215.711V794.492C215.711 794.993 215.833 795.372 216.079 795.628C216.335 795.884 216.692 796.012 217.151 796.012C217.567 796.012 217.929 795.916 218.239 795.724C218.559 795.532 218.809 795.265 218.991 794.924C219.183 794.572 219.279 794.177 219.279 793.74L219.487 795.692C219.22 796.289 218.82 796.769 218.287 797.132C217.764 797.484 217.145 797.66 216.431 797.66ZM219.343 797.5V795.58H219.279V789.34H221.311V797.5H219.343ZM227.064 797.66C226.2 797.66 225.443 797.479 224.792 797.116C224.152 796.753 223.651 796.252 223.288 795.612C222.936 794.972 222.76 794.236 222.76 793.404C222.76 792.572 222.936 791.841 223.288 791.212C223.651 790.572 224.152 790.076 224.792 789.724C225.432 789.361 226.179 789.18 227.032 789.18C227.843 789.18 228.547 789.351 229.144 789.692C229.741 790.023 230.205 790.492 230.536 791.1C230.867 791.708 231.032 792.417 231.032 793.228C231.032 793.377 231.027 793.516 231.016 793.644C231.005 793.772 230.989 793.9 230.968 794.028H224.008V792.62H229.416L229 793.004C229 792.236 228.824 791.66 228.472 791.276C228.12 790.892 227.629 790.7 227 790.7C226.317 790.7 225.773 790.935 225.368 791.404C224.973 791.873 224.776 792.551 224.776 793.436C224.776 794.311 224.973 794.983 225.368 795.452C225.773 795.911 226.344 796.14 227.08 796.14C227.507 796.14 227.88 796.06 228.2 795.9C228.52 795.74 228.755 795.495 228.904 795.164H230.808C230.541 795.932 230.088 796.54 229.448 796.988C228.819 797.436 228.024 797.66 227.064 797.66Z" fill="white"/>
<path d="M45.4795 26.0597C44.4644 26.0597 43.6358 25.7438 42.9936 25.1119C42.3617 24.4697 42.0458 23.61 42.0458 22.5327C42.0458 22.0356 42.1183 21.5591 42.2633 21.1033C42.4187 20.6476 42.6466 20.2488 42.947 19.907C43.2474 19.5548 43.6151 19.2803 44.0501 19.0835C44.4955 18.8867 44.9979 18.7883 45.5572 18.7883C46.3755 18.7883 47.0436 18.9592 47.5615 19.301C48.0898 19.6325 48.4834 20.0572 48.7424 20.5751C49.0013 21.093 49.1722 21.6264 49.2551 22.1754C49.3379 22.7244 49.3794 23.2837 49.3794 23.8534C49.3794 24.3299 49.3379 24.884 49.2551 25.5159C49.1826 26.1374 49.0168 26.8003 48.7579 27.5047C48.4989 28.1986 48.095 28.7891 47.546 29.2759C46.997 29.7627 46.2875 30.0061 45.4174 30.0061C44.8166 30.0061 44.3039 29.9077 43.8792 29.7109C43.4545 29.5245 43.1179 29.2811 42.8693 28.9807C42.6207 28.6699 42.4394 28.354 42.3255 28.0329C42.2219 27.7015 42.1701 27.3855 42.1701 27.0851H43.5374C43.5788 27.6445 43.7601 28.0847 44.0812 28.4058C44.4023 28.7166 44.8373 28.8719 45.3863 28.8719C46.1321 28.8719 46.7122 28.5456 47.1265 27.8931C47.5512 27.2405 47.8464 26.2047 48.0121 24.7856L47.981 24.7546C47.7842 25.1585 47.4476 25.4796 46.9711 25.7179C46.505 25.9458 46.0078 26.0597 45.4795 26.0597ZM45.6815 24.8323C45.899 24.8323 46.1217 24.8012 46.3496 24.739C46.5879 24.6665 46.8157 24.5422 47.0333 24.3661C47.2508 24.19 47.4269 23.9363 47.5615 23.6048C47.7065 23.2734 47.779 22.8538 47.779 22.3463C47.779 21.673 47.5926 21.1189 47.2197 20.6838C46.8572 20.2384 46.3082 20.0157 45.5728 20.0157C44.9409 20.0157 44.4282 20.2436 44.0346 20.6994C43.6513 21.1448 43.4597 21.7352 43.4597 22.4706C43.4597 22.9678 43.527 23.3769 43.6617 23.698C43.7963 24.0088 43.9724 24.247 44.1899 24.4127C44.4178 24.5785 44.6561 24.6924 44.9047 24.7546C45.1533 24.8064 45.4122 24.8323 45.6815 24.8323ZM52.6214 28.064V29.7109H51.0056V28.064H52.6214ZM52.6214 21.6937V23.3407H51.0056V21.6937H52.6214ZM61.7312 27.0541H60.1309V29.7109H58.7636V27.0541H53.9937V25.7179L58.9967 18.7883H60.1309V25.8732H61.7312V27.0541ZM58.7325 20.9169L55.2522 25.8732H58.7636V20.9169H58.7325ZM67.4437 18.7883V29.7109H65.9832V21.9579H63.4351V20.8703C63.9426 20.8392 64.3466 20.7926 64.647 20.7304C64.9474 20.6683 65.2063 20.5699 65.4239 20.4352C65.6414 20.3006 65.8278 20.1038 65.9832 19.8448C66.1386 19.5859 66.268 19.2337 66.3716 18.7883H67.4437Z" fill="black"/>
<path opacity="0.35" d="M341.709 17.8496H357.246C358.999 17.8498 360.419 19.2708 360.419 21.0234V25.5928C360.419 27.3454 358.999 28.7664 357.246 28.7666H341.709C339.956 28.7666 338.535 27.3455 338.535 25.5928V21.0234C338.535 19.2707 339.956 17.8496 341.709 17.8496Z" fill="black" stroke="black" stroke-width="0.9643"/>
<path opacity="0.4" d="M361.816 21.9375V25.7947C362.592 25.468 363.097 24.7081 363.097 23.8661C363.097 23.0241 362.592 22.2642 361.816 21.9375Z" fill="black"/>
<path d="M339.881 21.0232C339.881 20.0137 340.699 19.1953 341.709 19.1953H357.246C358.255 19.1953 359.074 20.0137 359.074 21.0232V25.593C359.074 26.6025 358.256 27.4209 357.246 27.4209H341.709C340.699 27.4209 339.881 26.6025 339.881 25.593V21.0232Z" fill="black"/>
<path d="M321.706 26.5846C323.004 25.4642 324.904 25.4642 326.202 26.5846C326.267 26.6448 326.305 26.7302 326.307 26.8199C326.308 26.9096 326.275 26.9963 326.212 27.0592L324.18 29.152C324.12 29.2134 324.039 29.2486 323.954 29.2486C323.869 29.2486 323.788 29.2135 323.729 29.152L321.696 27.0592C321.634 26.9963 321.599 26.9097 321.601 26.8199C321.602 26.7301 321.641 26.6448 321.706 26.5846ZM318.959 24.0035C321.755 21.3489 326.085 21.349 328.881 24.0035C328.944 24.0657 328.98 24.1513 328.98 24.2408C328.981 24.3303 328.947 24.4166 328.886 24.4801L327.711 25.692C327.59 25.8156 327.395 25.8181 327.271 25.6979C326.352 24.8492 325.158 24.3794 323.919 24.3795C322.681 24.38 321.488 24.8498 320.57 25.6979C320.446 25.8183 320.25 25.8157 320.129 25.692L318.955 24.4801C318.893 24.4166 318.859 24.3304 318.859 24.2408C318.86 24.1514 318.896 24.0657 318.959 24.0035ZM316.215 21.4273C320.503 17.2325 327.268 17.2326 331.557 21.4273C331.619 21.4897 331.654 21.5748 331.654 21.6637C331.655 21.7525 331.621 21.8379 331.56 21.901L330.384 23.1129C330.263 23.2372 330.065 23.2382 329.942 23.1158C328.309 21.5305 326.141 20.6463 323.887 20.6461C321.632 20.6461 319.463 21.5302 317.829 23.1158C317.706 23.2383 317.51 23.2371 317.389 23.1129L316.212 21.901C316.151 21.8379 316.117 21.7525 316.117 21.6637C316.118 21.5748 316.153 21.4896 316.215 21.4273Z" fill="black"/>
<path d="M301.495 21.0231C301.495 20.5183 301.904 20.1092 302.409 20.1092H303.323C303.828 20.1092 304.237 20.5183 304.237 21.0231V28.3347C304.237 28.8395 303.828 29.2487 303.323 29.2487H302.409C301.904 29.2487 301.495 28.8395 301.495 28.3347V21.0231Z" fill="black"/>
<path d="M306.065 19.1952C306.065 18.6904 306.474 18.2812 306.979 18.2812H307.893C308.397 18.2812 308.807 18.6904 308.807 19.1952V28.3347C308.807 28.8395 308.397 29.2487 307.893 29.2487H306.979C306.474 29.2487 306.065 28.8395 306.065 28.3347V19.1952Z" fill="black"/>
<path d="M296.925 24.2219C296.925 23.7172 297.334 23.308 297.839 23.308H298.753C299.258 23.308 299.667 23.7172 299.667 24.2219V28.3347C299.667 28.8395 299.258 29.2487 298.753 29.2487H297.839C297.334 29.2487 296.925 28.8395 296.925 28.3347V24.2219Z" fill="black"/>
<path d="M292.355 26.5068C292.355 26.0021 292.765 25.5929 293.269 25.5929H294.183C294.688 25.5929 295.097 26.0021 295.097 26.5068V28.3347C295.097 28.8395 294.688 29.2487 294.183 29.2487H293.269C292.765 29.2487 292.355 28.8395 292.355 28.3347V26.5068Z" fill="black"/>
<rect width="353" height="320" transform="translate(20 185)" fill="white"/>
<rect x="31.5" y="185.5" width="160" height="39" rx="19.5" fill="#FF657D"/>
<path d="M83.668 210.5V198.98H88.212C89.044 198.98 89.7533 199.119 90.34 199.396C90.9267 199.663 91.38 200.041 91.7 200.532C92.02 201.012 92.18 201.583 92.18 202.244C92.18 202.905 92.02 203.481 91.7 203.972C91.38 204.463 90.9267 204.847 90.34 205.124C89.7533 205.401 89.044 205.54 88.212 205.54H84.948V204.164H88.164C88.932 204.164 89.5133 203.999 89.908 203.668C90.3133 203.327 90.516 202.857 90.516 202.26C90.516 201.663 90.3187 201.199 89.924 200.868C89.5293 200.537 88.9427 200.372 88.164 200.372H85.364V210.5H83.668ZM90.324 210.5L84.708 204.692H86.772L92.756 210.5H90.324ZM97.2661 210.66C96.4448 210.66 95.7195 210.479 95.0901 210.116C94.4715 209.753 93.9861 209.252 93.6341 208.612C93.2821 207.972 93.1061 207.236 93.1061 206.404C93.1061 205.561 93.2768 204.825 93.6181 204.196C93.9701 203.556 94.4608 203.06 95.0901 202.708C95.7195 202.356 96.4395 202.18 97.2501 202.18C98.0395 202.18 98.7221 202.351 99.2981 202.692C99.8848 203.023 100.333 203.487 100.642 204.084C100.962 204.681 101.122 205.391 101.122 206.212C101.122 206.34 101.117 206.463 101.106 206.58C101.106 206.687 101.095 206.799 101.074 206.916H94.2261V205.668H99.9061L99.4901 206.164C99.4901 205.289 99.2928 204.623 98.8981 204.164C98.5035 203.705 97.9541 203.476 97.2501 203.476C96.4928 203.476 95.8901 203.737 95.4421 204.26C95.0048 204.772 94.7861 205.487 94.7861 206.404C94.7861 207.332 95.0048 208.057 95.4421 208.58C95.8901 209.103 96.5088 209.364 97.2981 209.364C97.7781 209.364 98.1941 209.268 98.5461 209.076C98.8981 208.873 99.1595 208.58 99.3301 208.196H100.898C100.631 208.964 100.178 209.567 99.5381 210.004C98.9088 210.441 98.1515 210.66 97.2661 210.66ZM106.28 213.94C105.256 213.94 104.408 213.705 103.736 213.236C103.074 212.777 102.674 212.164 102.536 211.396H104.104C104.21 211.748 104.445 212.025 104.808 212.228C105.181 212.431 105.677 212.532 106.296 212.532C107.096 212.532 107.693 212.335 108.088 211.94C108.482 211.545 108.68 210.959 108.68 210.18V208.42L108.824 208.452C108.664 209.071 108.317 209.561 107.784 209.924C107.25 210.276 106.61 210.452 105.864 210.452C105.149 210.452 104.52 210.281 103.976 209.94C103.432 209.599 103.01 209.124 102.712 208.516C102.413 207.897 102.264 207.177 102.264 206.356C102.264 205.524 102.418 204.793 102.728 204.164C103.037 203.535 103.469 203.049 104.024 202.708C104.589 202.367 105.245 202.196 105.992 202.196C106.76 202.196 107.394 202.383 107.896 202.756C108.408 203.119 108.733 203.636 108.872 204.308L108.744 204.324V202.34H110.328V210.164C110.328 211.337 109.965 212.26 109.24 212.932C108.525 213.604 107.538 213.94 106.28 213.94ZM106.36 209.108C107.074 209.108 107.645 208.857 108.072 208.356C108.509 207.855 108.728 207.167 108.728 206.292C108.728 205.439 108.509 204.767 108.072 204.276C107.645 203.785 107.069 203.54 106.344 203.54C105.618 203.54 105.042 203.791 104.616 204.292C104.189 204.783 103.976 205.465 103.976 206.34C103.976 207.193 104.189 207.871 104.616 208.372C105.053 208.863 105.634 209.108 106.36 209.108ZM115.324 210.66C114.78 210.66 114.3 210.548 113.884 210.324C113.468 210.089 113.143 209.769 112.908 209.364C112.684 208.959 112.572 208.495 112.572 207.972V202.34H114.236V207.588C114.236 208.153 114.375 208.575 114.652 208.852C114.929 209.129 115.324 209.268 115.836 209.268C116.295 209.268 116.7 209.161 117.052 208.948C117.415 208.735 117.697 208.441 117.9 208.068C118.113 207.684 118.22 207.241 118.22 206.74L118.428 208.692C118.161 209.289 117.751 209.769 117.196 210.132C116.652 210.484 116.028 210.66 115.324 210.66ZM118.284 210.5V208.58H118.22V202.34H119.868V210.5H118.284ZM122.199 210.5V198.98H123.863V210.5H122.199ZM131.255 210.5C131.202 210.297 131.165 210.073 131.143 209.828C131.133 209.583 131.127 209.284 131.127 208.932H131.047V205.044C131.047 204.521 130.914 204.132 130.647 203.876C130.391 203.609 129.981 203.476 129.415 203.476C128.871 203.476 128.434 203.583 128.103 203.796C127.783 204.009 127.597 204.313 127.543 204.708H125.959C126.034 203.94 126.381 203.327 126.999 202.868C127.618 202.409 128.445 202.18 129.479 202.18C130.546 202.18 131.346 202.431 131.879 202.932C132.413 203.423 132.679 204.148 132.679 205.108V208.932C132.679 209.177 132.695 209.428 132.727 209.684C132.759 209.94 132.807 210.212 132.871 210.5H131.255ZM128.439 210.66C127.607 210.66 126.946 210.457 126.455 210.052C125.965 209.636 125.719 209.076 125.719 208.372C125.719 207.647 125.975 207.076 126.487 206.66C127.01 206.233 127.757 205.945 128.727 205.796L131.415 205.364V206.532L128.983 206.916C128.439 207.001 128.029 207.145 127.751 207.348C127.485 207.551 127.351 207.844 127.351 208.228C127.351 208.601 127.474 208.884 127.719 209.076C127.975 209.257 128.343 209.348 128.823 209.348C129.463 209.348 129.991 209.193 130.407 208.884C130.834 208.575 131.047 208.185 131.047 207.716L131.255 208.9C131.063 209.465 130.722 209.903 130.231 210.212C129.741 210.511 129.143 210.66 128.439 210.66ZM134.934 210.5V202.34H136.518V204.372H136.598V210.5H134.934ZM136.598 206.244L136.39 204.308C136.582 203.615 136.912 203.087 137.382 202.724C137.851 202.361 138.411 202.18 139.062 202.18C139.307 202.18 139.478 202.201 139.574 202.244V203.812C139.52 203.791 139.446 203.78 139.35 203.78C139.254 203.769 139.136 203.764 138.998 203.764C138.198 203.764 137.595 203.972 137.19 204.388C136.795 204.804 136.598 205.423 136.598 206.244Z" fill="white"/>
<rect x="201.5" y="185.5" width="160" height="39" rx="19.5" fill="#F9F9F9"/>
<path d="M250.684 210.5V198.98H252.38V210.5H250.684ZM254.731 210.5V202.34H256.315V204.372H256.395V210.5H254.731ZM256.395 206.244L256.187 204.308C256.379 203.615 256.709 203.087 257.179 202.724C257.648 202.361 258.208 202.18 258.859 202.18C259.104 202.18 259.275 202.201 259.371 202.244V203.812C259.317 203.791 259.243 203.78 259.147 203.78C259.051 203.769 258.933 203.764 258.795 203.764C257.995 203.764 257.392 203.972 256.987 204.388C256.592 204.804 256.395 205.423 256.395 206.244ZM260.856 210.5V202.34H262.44V204.372H262.52V210.5H260.856ZM262.52 206.244L262.312 204.308C262.504 203.615 262.834 203.087 263.304 202.724C263.773 202.361 264.333 202.18 264.984 202.18C265.229 202.18 265.4 202.201 265.496 202.244V203.812C265.442 203.791 265.368 203.78 265.272 203.78C265.176 203.769 265.058 203.764 264.92 203.764C264.12 203.764 263.517 203.972 263.112 204.388C262.717 204.804 262.52 205.423 262.52 206.244ZM270.266 210.66C269.445 210.66 268.719 210.479 268.09 210.116C267.471 209.753 266.986 209.252 266.634 208.612C266.282 207.972 266.106 207.236 266.106 206.404C266.106 205.561 266.277 204.825 266.618 204.196C266.97 203.556 267.461 203.06 268.09 202.708C268.719 202.356 269.439 202.18 270.25 202.18C271.039 202.18 271.722 202.351 272.298 202.692C272.885 203.023 273.333 203.487 273.642 204.084C273.962 204.681 274.122 205.391 274.122 206.212C274.122 206.34 274.117 206.463 274.106 206.58C274.106 206.687 274.095 206.799 274.074 206.916H267.226V205.668H272.906L272.49 206.164C272.49 205.289 272.293 204.623 271.898 204.164C271.503 203.705 270.954 203.476 270.25 203.476C269.493 203.476 268.89 203.737 268.442 204.26C268.005 204.772 267.786 205.487 267.786 206.404C267.786 207.332 268.005 208.057 268.442 208.58C268.89 209.103 269.509 209.364 270.298 209.364C270.778 209.364 271.194 209.268 271.546 209.076C271.898 208.873 272.159 208.58 272.33 208.196H273.898C273.631 208.964 273.178 209.567 272.538 210.004C271.909 210.441 271.151 210.66 270.266 210.66ZM279.28 213.94C278.256 213.94 277.408 213.705 276.736 213.236C276.074 212.777 275.674 212.164 275.536 211.396H277.104C277.21 211.748 277.445 212.025 277.808 212.228C278.181 212.431 278.677 212.532 279.296 212.532C280.096 212.532 280.693 212.335 281.088 211.94C281.482 211.545 281.68 210.959 281.68 210.18V208.42L281.824 208.452C281.664 209.071 281.317 209.561 280.784 209.924C280.25 210.276 279.61 210.452 278.864 210.452C278.149 210.452 277.52 210.281 276.976 209.94C276.432 209.599 276.01 209.124 275.712 208.516C275.413 207.897 275.264 207.177 275.264 206.356C275.264 205.524 275.418 204.793 275.728 204.164C276.037 203.535 276.469 203.049 277.024 202.708C277.589 202.367 278.245 202.196 278.992 202.196C279.76 202.196 280.394 202.383 280.896 202.756C281.408 203.119 281.733 203.636 281.872 204.308L281.744 204.324V202.34H283.328V210.164C283.328 211.337 282.965 212.26 282.24 212.932C281.525 213.604 280.538 213.94 279.28 213.94ZM279.36 209.108C280.074 209.108 280.645 208.857 281.072 208.356C281.509 207.855 281.728 207.167 281.728 206.292C281.728 205.439 281.509 204.767 281.072 204.276C280.645 203.785 280.069 203.54 279.344 203.54C278.618 203.54 278.042 203.791 277.616 204.292C277.189 204.783 276.976 205.465 276.976 206.34C276.976 207.193 277.189 207.871 277.616 208.372C278.053 208.863 278.634 209.108 279.36 209.108ZM288.324 210.66C287.78 210.66 287.3 210.548 286.884 210.324C286.468 210.089 286.143 209.769 285.908 209.364C285.684 208.959 285.572 208.495 285.572 207.972V202.34H287.236V207.588C287.236 208.153 287.375 208.575 287.652 208.852C287.929 209.129 288.324 209.268 288.836 209.268C289.295 209.268 289.7 209.161 290.052 208.948C290.415 208.735 290.697 208.441 290.9 208.068C291.113 207.684 291.22 207.241 291.22 206.74L291.428 208.692C291.161 209.289 290.751 209.769 290.196 210.132C289.652 210.484 289.028 210.66 288.324 210.66ZM291.284 210.5V208.58H291.22V202.34H292.868V210.5H291.284ZM295.199 210.5V198.98H296.863V210.5H295.199ZM304.255 210.5C304.202 210.297 304.165 210.073 304.143 209.828C304.133 209.583 304.127 209.284 304.127 208.932H304.047V205.044C304.047 204.521 303.914 204.132 303.647 203.876C303.391 203.609 302.981 203.476 302.415 203.476C301.871 203.476 301.434 203.583 301.103 203.796C300.783 204.009 300.597 204.313 300.543 204.708H298.959C299.034 203.94 299.381 203.327 299.999 202.868C300.618 202.409 301.445 202.18 302.479 202.18C303.546 202.18 304.346 202.431 304.879 202.932C305.413 203.423 305.679 204.148 305.679 205.108V208.932C305.679 209.177 305.695 209.428 305.727 209.684C305.759 209.94 305.807 210.212 305.871 210.5H304.255ZM301.439 210.66C300.607 210.66 299.946 210.457 299.455 210.052C298.965 209.636 298.719 209.076 298.719 208.372C298.719 207.647 298.975 207.076 299.487 206.66C300.01 206.233 300.757 205.945 301.727 205.796L304.415 205.364V206.532L301.983 206.916C301.439 207.001 301.029 207.145 300.751 207.348C300.485 207.551 300.351 207.844 300.351 208.228C300.351 208.601 300.474 208.884 300.719 209.076C300.975 209.257 301.343 209.348 301.823 209.348C302.463 209.348 302.991 209.193 303.407 208.884C303.834 208.575 304.047 208.185 304.047 207.716L304.255 208.9C304.063 209.465 303.722 209.903 303.231 210.212C302.741 210.511 302.143 210.66 301.439 210.66ZM307.934 210.5V202.34H309.518V204.372H309.598V210.5H307.934ZM309.598 206.244L309.39 204.308C309.582 203.615 309.912 203.087 310.382 202.724C310.851 202.361 311.411 202.18 312.062 202.18C312.307 202.18 312.478 202.201 312.574 202.244V203.812C312.52 203.791 312.446 203.78 312.35 203.78C312.254 203.769 312.136 203.764 311.998 203.764C311.198 203.764 310.595 203.972 310.19 204.388C309.795 204.804 309.598 205.423 309.598 206.244Z" fill="black"/>
<rect x="20" y="245" width="353" height="260" rx="14" fill="white"/>
<path d="M112 273C112 268.582 115.582 265 120 265H213.685C218.103 265 221.685 268.582 221.685 273V485H112V273Z" fill="white"/>
<g opacity="0.5">
<path d="M158.529 292.5V291.38C159.681 290.431 160.641 289.599 161.409 288.884C162.187 288.169 162.806 287.535 163.265 286.98C163.734 286.425 164.065 285.919 164.257 285.46C164.459 284.991 164.561 284.532 164.561 284.084C164.561 283.423 164.363 282.905 163.969 282.532C163.574 282.159 163.03 281.972 162.337 281.972C161.622 281.972 161.046 282.175 160.609 282.58C160.171 282.985 159.905 283.567 159.809 284.324H158.433C158.539 283.279 158.939 282.436 159.633 281.796C160.337 281.145 161.27 280.82 162.433 280.82C163.51 280.82 164.369 281.108 165.009 281.684C165.649 282.26 165.969 283.049 165.969 284.052C165.969 284.596 165.862 285.14 165.649 285.684C165.446 286.228 165.105 286.799 164.625 287.396C164.155 287.993 163.531 288.655 162.753 289.38C161.985 290.095 161.03 290.905 159.889 291.812L159.585 291.348H166.161V292.5H158.529ZM171.279 292.66C170.138 292.66 169.226 292.356 168.543 291.748C167.861 291.129 167.445 290.329 167.295 289.348H168.703C168.842 290.041 169.135 290.575 169.583 290.948C170.042 291.321 170.597 291.508 171.247 291.508C171.93 291.508 172.506 291.295 172.975 290.868C173.455 290.441 173.695 289.764 173.695 288.836C173.695 287.908 173.455 287.215 172.975 286.756C172.506 286.287 171.909 286.052 171.183 286.052C170.661 286.052 170.207 286.159 169.823 286.372C169.439 286.585 169.183 286.836 169.055 287.124H167.871L168.399 280.98H174.479V282.132H169.183L169.631 281.652L169.263 286.292L168.959 286.18C169.151 285.86 169.461 285.583 169.887 285.348C170.314 285.113 170.837 284.996 171.455 284.996C172.17 284.996 172.799 285.151 173.343 285.46C173.898 285.769 174.33 286.212 174.639 286.788C174.959 287.353 175.119 288.036 175.119 288.836C175.119 289.636 174.959 290.324 174.639 290.9C174.33 291.465 173.887 291.903 173.311 292.212C172.746 292.511 172.069 292.66 171.279 292.66Z" fill="url(#paint1_linear_231_12940)"/>
<path d="M158.224 336.5V335.38C159.376 334.431 160.336 333.599 161.104 332.884C161.883 332.169 162.501 331.535 162.96 330.98C163.429 330.425 163.76 329.919 163.952 329.46C164.155 328.991 164.256 328.532 164.256 328.084C164.256 327.423 164.059 326.905 163.664 326.532C163.269 326.159 162.725 325.972 162.032 325.972C161.317 325.972 160.741 326.175 160.304 326.58C159.867 326.985 159.6 327.567 159.504 328.324H158.128C158.235 327.279 158.635 326.436 159.328 325.796C160.032 325.145 160.965 324.82 162.128 324.82C163.205 324.82 164.064 325.108 164.704 325.684C165.344 326.26 165.664 327.049 165.664 328.052C165.664 328.596 165.557 329.14 165.344 329.684C165.141 330.228 164.8 330.799 164.32 331.396C163.851 331.993 163.227 332.655 162.448 333.38C161.68 334.095 160.725 334.905 159.584 335.812L159.28 335.348H165.856V336.5H158.224ZM171.545 336.66C170.191 336.66 169.145 336.169 168.409 335.188C167.684 334.196 167.321 332.767 167.321 330.9C167.321 329.609 167.492 328.511 167.833 327.604C168.185 326.697 168.687 326.009 169.337 325.54C169.988 325.06 170.761 324.82 171.657 324.82C172.639 324.82 173.449 325.103 174.089 325.668C174.729 326.233 175.119 327.012 175.257 328.004H173.849C173.753 327.343 173.508 326.841 173.113 326.5C172.729 326.148 172.239 325.972 171.641 325.972C170.692 325.972 169.972 326.377 169.481 327.188C169.001 327.999 168.761 329.215 168.761 330.836V331.876L168.393 331.732C168.489 331.231 168.703 330.793 169.033 330.42C169.364 330.047 169.775 329.759 170.265 329.556C170.756 329.343 171.284 329.236 171.849 329.236C172.575 329.236 173.204 329.396 173.737 329.716C174.281 330.025 174.703 330.463 175.001 331.028C175.311 331.583 175.465 332.233 175.465 332.98C175.465 333.716 175.3 334.361 174.969 334.916C174.639 335.471 174.18 335.903 173.593 336.212C173.007 336.511 172.324 336.66 171.545 336.66ZM171.593 335.508C172.319 335.508 172.905 335.279 173.353 334.82C173.801 334.361 174.025 333.743 174.025 332.964C174.025 332.153 173.807 331.519 173.369 331.06C172.943 330.591 172.34 330.356 171.561 330.356C170.815 330.356 170.191 330.575 169.689 331.012C169.199 331.449 168.953 332.052 168.953 332.82C168.953 333.353 169.065 333.823 169.289 334.228C169.524 334.633 169.839 334.948 170.233 335.172C170.639 335.396 171.092 335.508 171.593 335.508Z" fill="url(#paint2_linear_231_12940)"/>
</g>
<mask id="path-31-outside-1_231_12940" maskUnits="userSpaceOnUse" x="111.842" y="352" width="110" height="46" fill="black">
<rect fill="white" x="111.842" y="352" width="110" height="46"/>
<path d="M111.842 353H221.842V397H111.842V353Z"/>
</mask>
<path d="M111.842 397V397.5H112.824V397V396.5H111.842V397ZM114.788 397V397.5H116.753V397V396.5H114.788V397ZM118.717 397V397.5H120.681V397V396.5H118.717V397ZM122.645 397V397.5H124.61V397V396.5H122.645V397ZM126.574 397V397.5H128.538V397V396.5H126.574V397ZM130.503 397V397.5H132.467V397V396.5H130.503V397ZM134.431 397V397.5H136.395V397V396.5H134.431V397ZM138.36 397V397.5H140.324V397V396.5H138.36V397ZM142.288 397V397.5H144.253V397V396.5H142.288V397ZM146.217 397V397.5H148.181V397V396.5H146.217V397ZM150.145 397V397.5H152.11V397V396.5H150.145V397ZM154.074 397V397.5H156.038V397V396.5H154.074V397ZM158.003 397V397.5H159.967V397V396.5H158.003V397ZM161.931 397V397.5H163.895V397V396.5H161.931V397ZM165.86 397V397.5H167.824V397V396.5H165.86V397ZM169.788 397V397.5H171.753V397V396.5H169.788V397ZM173.717 397V397.5H175.681V397V396.5H173.717V397ZM177.645 397V397.5H179.61V397V396.5H177.645V397ZM181.574 397V397.5H183.538V397V396.5H181.574V397ZM185.503 397V397.5H187.467V397V396.5H185.503V397ZM189.431 397V397.5H191.395V397V396.5H189.431V397ZM193.36 397V397.5H195.324V397V396.5H193.36V397ZM197.288 397V397.5H199.253V397V396.5H197.288V397ZM201.217 397V397.5H203.181V397V396.5H201.217V397ZM205.145 397V397.5H207.11V397V396.5H205.145V397ZM209.074 397V397.5H211.038V397V396.5H209.074V397ZM213.003 397V397.5H214.967V397V396.5H213.003V397ZM216.931 397V397.5H218.895V397V396.5H216.931V397ZM220.86 397V397.5H221.842V397V396.5H220.86V397ZM221.842 353V352.5H220.86V353V353.5H221.842V353ZM218.895 353V352.5H216.931V353V353.5H218.895V353ZM214.967 353V352.5H213.003V353V353.5H214.967V353ZM211.038 353V352.5H209.074V353V353.5H211.038V353ZM207.11 353V352.5H205.145V353V353.5H207.11V353ZM203.181 353V352.5H201.217V353V353.5H203.181V353ZM199.253 353V352.5H197.288V353V353.5H199.253V353ZM195.324 353V352.5H193.36V353V353.5H195.324V353ZM191.395 353V352.5H189.431V353V353.5H191.395V353ZM187.467 353V352.5H185.503V353V353.5H187.467V353ZM183.538 353V352.5H181.574V353V353.5H183.538V353ZM179.61 353V352.5H177.645V353V353.5H179.61V353ZM175.681 353V352.5H173.717V353V353.5H175.681V353ZM171.753 353V352.5H169.788V353V353.5H171.753V353ZM167.824 353V352.5H165.86V353V353.5H167.824V353ZM163.895 353V352.5H161.931V353V353.5H163.895V353ZM159.967 353V352.5H158.002V353V353.5H159.967V353ZM156.038 353V352.5H154.074V353V353.5H156.038V353ZM152.11 353V352.5H150.145V353V353.5H152.11V353ZM148.181 353V352.5H146.217V353V353.5H148.181V353ZM144.252 353V352.5H142.288V353V353.5H144.252V353ZM140.324 353V352.5H138.36V353V353.5H140.324V353ZM136.395 353V352.5H134.431V353V353.5H136.395V353ZM132.467 353V352.5H130.502V353V353.5H132.467V353ZM128.538 353V352.5H126.574V353V353.5H128.538V353ZM124.61 353V352.5H122.645V353V353.5H124.61V353ZM120.681 353V352.5H118.717V353V353.5H120.681V353ZM116.752 353V352.5H114.788V353V353.5H116.752V353ZM112.824 353V352.5H111.842V353V353.5H112.824V353ZM111.842 397V398H112.824V397V396H111.842V397ZM114.788 397V398H116.753V397V396H114.788V397ZM118.717 397V398H120.681V397V396H118.717V397ZM122.645 397V398H124.61V397V396H122.645V397ZM126.574 397V398H128.538V397V396H126.574V397ZM130.503 397V398H132.467V397V396H130.503V397ZM134.431 397V398H136.395V397V396H134.431V397ZM138.36 397V398H140.324V397V396H138.36V397ZM142.288 397V398H144.253V397V396H142.288V397ZM146.217 397V398H148.181V397V396H146.217V397ZM150.145 397V398H152.11V397V396H150.145V397ZM154.074 397V398H156.038V397V396H154.074V397ZM158.003 397V398H159.967V397V396H158.003V397ZM161.931 397V398H163.895V397V396H161.931V397ZM165.86 397V398H167.824V397V396H165.86V397ZM169.788 397V398H171.753V397V396H169.788V397ZM173.717 397V398H175.681V397V396H173.717V397ZM177.645 397V398H179.61V397V396H177.645V397ZM181.574 397V398H183.538V397V396H181.574V397ZM185.503 397V398H187.467V397V396H185.503V397ZM189.431 397V398H191.395V397V396H189.431V397ZM193.36 397V398H195.324V397V396H193.36V397ZM197.288 397V398H199.253V397V396H197.288V397ZM201.217 397V398H203.181V397V396H201.217V397ZM205.145 397V398H207.11V397V396H205.145V397ZM209.074 397V398H211.038V397V396H209.074V397ZM213.003 397V398H214.967V397V396H213.003V397ZM216.931 397V398H218.895V397V396H216.931V397ZM220.86 397V398H221.842V397V396H220.86V397ZM221.842 353V352H220.86V353V354H221.842V353ZM218.895 353V352H216.931V353V354H218.895V353ZM214.967 353V352H213.003V353V354H214.967V353ZM211.038 353V352H209.074V353V354H211.038V353ZM207.11 353V352H205.145V353V354H207.11V353ZM203.181 353V352H201.217V353V354H203.181V353ZM199.253 353V352H197.288V353V354H199.253V353ZM195.324 353V352H193.36V353V354H195.324V353ZM191.395 353V352H189.431V353V354H191.395V353ZM187.467 353V352H185.503V353V354H187.467V353ZM183.538 353V352H181.574V353V354H183.538V353ZM179.61 353V352H177.645V353V354H179.61V353ZM175.681 353V352H173.717V353V354H175.681V353ZM171.753 353V352H169.788V353V354H171.753V353ZM167.824 353V352H165.86V353V354H167.824V353ZM163.895 353V352H161.931V353V354H163.895V353ZM159.967 353V352H158.002V353V354H159.967V353ZM156.038 353V352H154.074V353V354H156.038V353ZM152.11 353V352H150.145V353V354H152.11V353ZM148.181 353V352H146.217V353V354H148.181V353ZM144.252 353V352H142.288V353V354H144.252V353ZM140.324 353V352H138.36V353V354H140.324V353ZM136.395 353V352H134.431V353V354H136.395V353ZM132.467 353V352H130.502V353V354H132.467V353ZM128.538 353V352H126.574V353V354H128.538V353ZM124.61 353V352H122.645V353V354H124.61V353ZM120.681 353V352H118.717V353V354H120.681V353ZM116.752 353V352H114.788V353V354H116.752V353ZM112.824 353V352H111.842V353V354H112.824V353Z" fill="#E0E0E0" mask="url(#path-31-outside-1_231_12940)"/>
<path d="M153.546 384.5V382.238C155.366 380.747 156.882 379.447 158.096 378.338C159.326 377.229 160.306 376.241 161.034 375.374C161.762 374.507 162.282 373.719 162.594 373.008C162.906 372.297 163.062 371.587 163.062 370.876C163.062 369.905 162.776 369.151 162.204 368.614C161.649 368.059 160.878 367.782 159.89 367.782C158.867 367.782 158.035 368.085 157.394 368.692C156.752 369.281 156.354 370.122 156.198 371.214H153.39C153.563 369.498 154.23 368.12 155.392 367.08C156.57 366.04 158.122 365.52 160.046 365.52C161.883 365.52 163.33 366.005 164.388 366.976C165.462 367.947 166 369.281 166 370.98C166 371.847 165.835 372.713 165.506 373.58C165.194 374.429 164.674 375.322 163.946 376.258C163.218 377.177 162.238 378.199 161.008 379.326C159.794 380.435 158.286 381.701 156.484 383.122L155.834 382.238H166.338V384.5H153.546ZM170.988 384.5C171.231 381.553 171.933 378.659 173.094 375.816C174.256 372.973 175.902 370.165 178.034 367.392L178.112 368.042H167.478V365.78H180.504V367.782C179.187 369.689 178.078 371.561 177.176 373.398C176.275 375.218 175.564 377.038 175.044 378.858C174.542 380.678 174.212 382.559 174.056 384.5H170.988Z" fill="#FF657D"/>
<g opacity="0.5">
<path d="M158.365 424.5V423.38C159.517 422.431 160.477 421.599 161.245 420.884C162.023 420.169 162.642 419.535 163.101 418.98C163.57 418.425 163.901 417.919 164.093 417.46C164.295 416.991 164.397 416.532 164.397 416.084C164.397 415.423 164.199 414.905 163.805 414.532C163.41 414.159 162.866 413.972 162.173 413.972C161.458 413.972 160.882 414.175 160.445 414.58C160.007 414.985 159.741 415.567 159.645 416.324H158.269C158.375 415.279 158.775 414.436 159.469 413.796C160.173 413.145 161.106 412.82 162.269 412.82C163.346 412.82 164.205 413.108 164.845 413.684C165.485 414.26 165.805 415.049 165.805 416.052C165.805 416.596 165.698 417.14 165.485 417.684C165.282 418.228 164.941 418.799 164.461 419.396C163.991 419.993 163.367 420.655 162.589 421.38C161.821 422.095 160.866 422.905 159.725 423.812L159.421 423.348H165.997V424.5H158.365ZM171.302 424.66C170.492 424.66 169.788 424.516 169.19 424.228C168.604 423.94 168.15 423.545 167.83 423.044C167.51 422.543 167.35 421.983 167.35 421.364C167.35 420.788 167.478 420.265 167.734 419.796C167.99 419.327 168.332 418.953 168.758 418.676C169.196 418.399 169.676 418.26 170.198 418.26L170.23 418.596C169.74 418.596 169.297 418.479 168.902 418.244C168.508 417.999 168.198 417.668 167.974 417.252C167.75 416.836 167.638 416.377 167.638 415.876C167.638 415.279 167.793 414.751 168.102 414.292C168.412 413.833 168.844 413.476 169.398 413.22C169.953 412.953 170.593 412.82 171.318 412.82C172.044 412.82 172.678 412.953 173.222 413.22C173.766 413.476 174.193 413.833 174.502 414.292C174.812 414.751 174.966 415.273 174.966 415.86C174.966 416.372 174.854 416.836 174.63 417.252C174.406 417.657 174.097 417.983 173.702 418.228C173.308 418.473 172.86 418.596 172.358 418.596L172.406 418.26C172.94 418.26 173.42 418.399 173.846 418.676C174.273 418.953 174.614 419.327 174.87 419.796C175.126 420.265 175.254 420.788 175.254 421.364C175.254 421.983 175.094 422.543 174.774 423.044C174.454 423.545 173.996 423.94 173.398 424.228C172.812 424.516 172.113 424.66 171.302 424.66ZM171.302 423.508C172.081 423.508 172.694 423.3 173.142 422.884C173.601 422.468 173.83 421.919 173.83 421.236C173.83 420.553 173.606 420.015 173.158 419.62C172.71 419.225 172.092 419.028 171.302 419.028C170.513 419.028 169.894 419.225 169.446 419.62C168.998 420.015 168.774 420.553 168.774 421.236C168.774 421.919 168.998 422.468 169.446 422.884C169.905 423.3 170.524 423.508 171.302 423.508ZM171.302 417.908C172.006 417.908 172.556 417.732 172.95 417.38C173.356 417.028 173.558 416.559 173.558 415.972C173.558 415.364 173.35 414.879 172.934 414.516C172.518 414.153 171.974 413.972 171.302 413.972C170.62 413.972 170.07 414.153 169.654 414.516C169.249 414.879 169.046 415.364 169.046 415.972C169.046 416.559 169.249 417.028 169.654 417.38C170.06 417.732 170.609 417.908 171.302 417.908Z" fill="url(#paint3_linear_231_12940)"/>
<path d="M158.036 468.5V467.38C159.188 466.431 160.148 465.599 160.916 464.884C161.695 464.169 162.314 463.535 162.772 462.98C163.242 462.425 163.572 461.919 163.764 461.46C163.967 460.991 164.068 460.532 164.068 460.084C164.068 459.423 163.871 458.905 163.476 458.532C163.082 458.159 162.538 457.972 161.844 457.972C161.13 457.972 160.554 458.175 160.116 458.58C159.679 458.985 159.412 459.567 159.316 460.324H157.94C158.047 459.279 158.447 458.436 159.14 457.796C159.844 457.145 160.778 456.82 161.94 456.82C163.018 456.82 163.876 457.108 164.516 457.684C165.156 458.26 165.476 459.049 165.476 460.052C165.476 460.596 165.37 461.14 165.156 461.684C164.954 462.228 164.612 462.799 164.132 463.396C163.663 463.993 163.039 464.655 162.26 465.38C161.492 466.095 160.538 466.905 159.396 467.812L159.092 467.348H165.668V468.5H158.036ZM171.129 468.66C170.457 468.66 169.855 468.532 169.321 468.276C168.788 468.009 168.356 467.62 168.025 467.108C167.695 466.585 167.481 465.935 167.385 465.156H168.793C168.9 465.988 169.161 466.591 169.577 466.964C169.993 467.327 170.521 467.508 171.161 467.508C171.631 467.508 172.036 467.412 172.377 467.22C172.719 467.028 173.001 466.735 173.225 466.34C173.449 465.945 173.615 465.444 173.721 464.836C173.828 464.217 173.881 463.487 173.881 462.644V461.604L174.249 461.652C174.153 462.143 173.94 462.58 173.609 462.964C173.279 463.337 172.868 463.631 172.377 463.844C171.887 464.047 171.359 464.148 170.793 464.148C170.089 464.148 169.471 463.993 168.937 463.684C168.404 463.364 167.983 462.927 167.673 462.372C167.375 461.817 167.225 461.188 167.225 460.484C167.225 459.737 167.391 459.092 167.721 458.548C168.052 458.004 168.511 457.583 169.097 457.284C169.695 456.975 170.377 456.82 171.145 456.82C172.511 456.82 173.545 457.316 174.249 458.308C174.964 459.3 175.321 460.756 175.321 462.676C175.321 463.956 175.156 465.044 174.825 465.94C174.505 466.825 174.031 467.503 173.401 467.972C172.783 468.431 172.025 468.66 171.129 468.66ZM171.129 463.028C171.865 463.028 172.473 462.82 172.953 462.404C173.444 461.988 173.689 461.391 173.689 460.612C173.689 460.089 173.572 459.631 173.337 459.236C173.113 458.841 172.804 458.532 172.409 458.308C172.015 458.084 171.567 457.972 171.065 457.972C170.351 457.972 169.769 458.201 169.321 458.66C168.884 459.108 168.665 459.727 168.665 460.516C168.665 461.273 168.879 461.881 169.305 462.34C169.743 462.799 170.351 463.028 171.129 463.028Z" fill="url(#paint4_linear_231_12940)"/>
</g>
<mask id="path-36-outside-2_231_12940" maskUnits="userSpaceOnUse" x="216.248" y="352" width="66" height="46" fill="black">
<rect fill="white" x="216.248" y="352" width="66" height="46"/>
<path d="M216.248 353H282.001V397H216.248V353Z"/>
</mask>
<path d="M216.248 397V397.5H217.275V397V396.5H216.248V397ZM219.33 397V397.5H221.385V397V396.5H219.33V397ZM223.44 397V397.5H225.494V397V396.5H223.44V397ZM227.549 397V397.5H229.604V397V396.5H227.549V397ZM231.659 397V397.5H233.714V397V396.5H231.659V397ZM235.768 397V397.5H237.823V397V396.5H235.768V397ZM239.878 397V397.5H241.933V397V396.5H239.878V397ZM243.987 397V397.5H246.042V397V396.5H243.987V397ZM248.097 397V397.5H250.152V397V396.5H248.097V397ZM252.206 397V397.5H254.261V397V396.5H252.206V397ZM256.316 397V397.5H258.371V397V396.5H256.316V397ZM260.425 397V397.5H262.48V397V396.5H260.425V397ZM264.535 397V397.5H266.59V397V396.5H264.535V397ZM268.645 397V397.5H270.699V397V396.5H268.645V397ZM272.754 397V397.5H274.809V397V396.5H272.754V397ZM276.864 397V397.5H278.918V397V396.5H276.864V397ZM280.973 397V397.5H282.001V397V396.5H280.973V397ZM282.001 353V352.5H280.973V353V353.5H282.001V353ZM278.918 353V352.5H276.864V353V353.5H278.918V353ZM274.809 353V352.5H272.754V353V353.5H274.809V353ZM270.699 353V352.5H268.645V353V353.5H270.699V353ZM266.59 353V352.5H264.535V353V353.5H266.59V353ZM262.48 353V352.5H260.426V353V353.5H262.48V353ZM258.371 353V352.5H256.316V353V353.5H258.371V353ZM254.261 353V352.5H252.206V353V353.5H254.261V353ZM250.152 353V352.5H248.097V353V353.5H250.152V353ZM246.042 353V352.5H243.987V353V353.5H246.042V353ZM241.933 353V352.5H239.878V353V353.5H241.933V353ZM237.823 353V352.5H235.768V353V353.5H237.823V353ZM233.714 353V352.5H231.659V353V353.5H233.714V353ZM229.604 353V352.5H227.549V353V353.5H229.604V353ZM225.495 353V352.5H223.44V353V353.5H225.495V353ZM221.385 353V352.5H219.33V353V353.5H221.385V353ZM217.275 353V352.5H216.248V353V353.5H217.275V353ZM216.248 397V398H217.275V397V396H216.248V397ZM219.33 397V398H221.385V397V396H219.33V397ZM223.44 397V398H225.494V397V396H223.44V397ZM227.549 397V398H229.604V397V396H227.549V397ZM231.659 397V398H233.714V397V396H231.659V397ZM235.768 397V398H237.823V397V396H235.768V397ZM239.878 397V398H241.933V397V396H239.878V397ZM243.987 397V398H246.042V397V396H243.987V397ZM248.097 397V398H250.152V397V396H248.097V397ZM252.206 397V398H254.261V397V396H252.206V397ZM256.316 397V398H258.371V397V396H256.316V397ZM260.425 397V398H262.48V397V396H260.425V397ZM264.535 397V398H266.59V397V396H264.535V397ZM268.645 397V398H270.699V397V396H268.645V397ZM272.754 397V398H274.809V397V396H272.754V397ZM276.864 397V398H278.918V397V396H276.864V397ZM280.973 397V398H282.001V397V396H280.973V397ZM282.001 353V352H280.973V353V354H282.001V353ZM278.918 353V352H276.864V353V354H278.918V353ZM274.809 353V352H272.754V353V354H274.809V353ZM270.699 353V352H268.645V353V354H270.699V353ZM266.59 353V352H264.535V353V354H266.59V353ZM262.48 353V352H260.426V353V354H262.48V353ZM258.371 353V352H256.316V353V354H258.371V353ZM254.261 353V352H252.206V353V354H254.261V353ZM250.152 353V352H248.097V353V354H250.152V353ZM246.042 353V352H243.987V353V354H246.042V353ZM241.933 353V352H239.878V353V354H241.933V353ZM237.823 353V352H235.768V353V354H237.823V353ZM233.714 353V352H231.659V353V354H233.714V353ZM229.604 353V352H227.549V353V354H229.604V353ZM225.495 353V352H223.44V353V354H225.495V353ZM221.385 353V352H219.33V353V354H221.385V353ZM217.275 353V352H216.248V353V354H217.275V353Z" fill="#E0E0E0" mask="url(#path-36-outside-2_231_12940)"/>
<path d="M233.339 380.5V379.348H236.427C237.387 379.348 238.214 379.156 238.907 378.772C239.6 378.377 240.134 377.828 240.507 377.124C240.88 376.42 241.067 375.604 241.067 374.676C241.067 373.759 240.88 372.959 240.507 372.276C240.134 371.593 239.6 371.065 238.907 370.692C238.224 370.319 237.398 370.132 236.427 370.132H233.339V368.98H236.427C237.632 368.98 238.683 369.22 239.579 369.7C240.475 370.169 241.168 370.836 241.659 371.7C242.16 372.553 242.411 373.556 242.411 374.708C242.411 375.86 242.16 376.873 241.659 377.748C241.158 378.612 240.459 379.289 239.563 379.78C238.678 380.26 237.638 380.5 236.443 380.5H233.339ZM232.555 380.5V368.98H233.867V380.5H232.555ZM249.436 380.5C249.393 380.319 249.361 380.111 249.34 379.876C249.329 379.641 249.324 379.343 249.324 378.98H249.244V375.076C249.244 374.457 249.1 374.004 248.812 373.716C248.534 373.417 248.081 373.268 247.452 373.268C246.833 373.268 246.337 373.396 245.964 373.652C245.601 373.897 245.398 374.249 245.356 374.708H244.124C244.177 373.919 244.508 373.3 245.116 372.852C245.724 372.404 246.518 372.18 247.5 372.18C248.513 372.18 249.265 372.42 249.756 372.9C250.246 373.38 250.492 374.1 250.492 375.06V378.98C250.492 379.215 250.508 379.46 250.54 379.716C250.572 379.961 250.614 380.223 250.668 380.5H249.436ZM246.636 380.66C245.793 380.66 245.121 380.457 244.62 380.052C244.129 379.636 243.884 379.071 243.884 378.356C243.884 377.641 244.129 377.087 244.62 376.692C245.11 376.297 245.825 376.02 246.764 375.86L249.612 375.38V376.436L246.956 376.852C246.358 376.948 245.905 377.108 245.596 377.332C245.286 377.556 245.132 377.881 245.132 378.308C245.132 378.724 245.27 379.039 245.548 379.252C245.836 379.465 246.257 379.572 246.812 379.572C247.526 379.572 248.108 379.412 248.556 379.092C249.014 378.761 249.244 378.335 249.244 377.812L249.452 378.948C249.281 379.492 248.945 379.913 248.444 380.212C247.953 380.511 247.35 380.66 246.636 380.66ZM253.304 383.78L255.128 379.54L255.416 379.092L258.088 372.34H259.4L254.664 383.78H253.304ZM255.272 380.58L251.608 372.34H253.016L256.168 379.716L255.272 380.58ZM263.555 380.66C262.552 380.66 261.752 380.431 261.155 379.972C260.558 379.503 260.216 378.841 260.131 377.988H261.363C261.438 378.511 261.667 378.911 262.051 379.188C262.435 379.465 262.947 379.604 263.587 379.604C264.152 379.604 264.595 379.497 264.915 379.284C265.235 379.071 265.395 378.767 265.395 378.372C265.395 378.095 265.304 377.855 265.123 377.652C264.942 377.439 264.579 377.263 264.035 377.124L262.723 376.788C261.976 376.596 261.416 376.303 261.043 375.908C260.67 375.503 260.483 375.023 260.483 374.468C260.483 373.764 260.744 373.209 261.267 372.804C261.79 372.388 262.499 372.18 263.395 372.18C264.28 372.18 265 372.393 265.555 372.82C266.11 373.247 266.424 373.839 266.499 374.596H265.267C265.192 374.159 264.99 373.823 264.659 373.588C264.328 373.353 263.891 373.236 263.347 373.236C262.824 373.236 262.419 373.337 262.131 373.54C261.843 373.732 261.699 374.009 261.699 374.372C261.699 374.649 261.8 374.889 262.003 375.092C262.216 375.295 262.568 375.465 263.059 375.604L264.339 375.956C265.096 376.159 265.667 376.468 266.051 376.884C266.435 377.3 266.627 377.801 266.627 378.388C266.627 379.103 266.355 379.663 265.811 380.068C265.267 380.463 264.515 380.66 263.555 380.66Z" fill="#FF657D"/>
</g>
<defs>
<linearGradient id="paint0_linear_231_12940" x1="196.5" y1="0" x2="196.5" y2="852" gradientUnits="userSpaceOnUse">
<stop stop-color="white"/>
<stop offset="1" stop-color="#FFF0F2"/>
</linearGradient>
<linearGradient id="paint1_linear_231_12940" x1="166.842" y1="296.5" x2="166.842" y2="277.5" gradientUnits="userSpaceOnUse">
<stop stop-color="#8C8C8C"/>
<stop offset="1" stop-color="white"/>
</linearGradient>
<linearGradient id="paint2_linear_231_12940" x1="166.842" y1="321.5" x2="166.842" y2="340.5" gradientUnits="userSpaceOnUse">
<stop stop-color="#A3A3A3"/>
<stop offset="1"/>
</linearGradient>
<linearGradient id="paint3_linear_231_12940" x1="166.842" y1="409.5" x2="166.842" y2="428.5" gradientUnits="userSpaceOnUse">
<stop/>
<stop offset="1" stop-color="#A3A3A3"/>
</linearGradient>
<linearGradient id="paint4_linear_231_12940" x1="166.842" y1="472.5" x2="166.842" y2="453.5" gradientUnits="userSpaceOnUse">
<stop stop-color="white"/>
<stop offset="1" stop-color="#8C8C8C"/>
</linearGradient>
<clipPath id="clip0_231_12940">
<rect width="393" height="852" rx="40" fill="white"/>
</clipPath>
</defs>
</svg>