<svg xmlns="http://www.w3.org/2000/svg" width="393" height="852" viewBox="0 0 393 852" fill="none">
<g clip-path="url(#clip0_231_12976)">
<rect width="393" height="852" rx="40" fill="url(#paint0_linear_231_12976)"/>
<rect x="130" y="839" width="134" height="5" rx="2.5" fill="black"/>
<path d="M91.9453 158V136.4H102.205C103.805 136.4 105.175 136.68 106.315 137.24C107.475 137.8 108.365 138.58 108.985 139.58C109.625 140.58 109.945 141.75 109.945 143.09C109.945 144.43 109.625 145.61 108.985 146.63C108.345 147.65 107.445 148.45 106.285 149.03C105.145 149.59 103.785 149.87 102.205 149.87H95.6053V146.33H101.965C103.025 146.33 103.845 146.04 104.425 145.46C105.025 144.86 105.325 144.08 105.325 143.12C105.325 142.16 105.025 141.39 104.425 140.81C103.845 140.23 103.025 139.94 101.965 139.94H96.5653V158H91.9453ZM112.402 158V142.7H116.812V146.3H116.902V158H112.402ZM116.902 150.02L116.512 146.39C116.872 145.09 117.462 144.1 118.282 143.42C119.102 142.74 120.122 142.4 121.342 142.4C121.722 142.4 122.002 142.44 122.182 142.52V146.72C122.082 146.68 121.942 146.66 121.762 146.66C121.582 146.64 121.362 146.63 121.102 146.63C119.662 146.63 118.602 146.89 117.922 147.41C117.242 147.91 116.902 148.78 116.902 150.02ZM131.32 158.3C129.62 158.3 128.14 157.97 126.88 157.31C125.62 156.63 124.64 155.69 123.94 154.49C123.26 153.29 122.92 151.91 122.92 150.35C122.92 148.77 123.26 147.39 123.94 146.21C124.64 145.01 125.61 144.08 126.85 143.42C128.09 142.74 129.53 142.4 131.17 142.4C132.75 142.4 134.12 142.72 135.28 143.36C136.44 144 137.34 144.89 137.98 146.03C138.62 147.17 138.94 148.51 138.94 150.05C138.94 150.37 138.93 150.67 138.91 150.95C138.89 151.21 138.86 151.46 138.82 151.7H125.56V148.73H135.19L134.41 149.27C134.41 148.03 134.11 147.12 133.51 146.54C132.93 145.94 132.13 145.64 131.11 145.64C129.93 145.64 129.01 146.04 128.35 146.84C127.71 147.64 127.39 148.84 127.39 150.44C127.39 152 127.71 153.16 128.35 153.92C129.01 154.68 129.99 155.06 131.29 155.06C132.01 155.06 132.63 154.94 133.15 154.7C133.67 154.46 134.06 154.07 134.32 153.53H138.55C138.05 155.01 137.19 156.18 135.97 157.04C134.77 157.88 133.22 158.3 131.32 158.3ZM150.677 158.3C149.217 158.3 148.047 157.96 147.167 157.28C146.287 156.6 145.767 155.67 145.607 154.49L145.847 154.46V164.15H141.347V142.7H145.757V146.09L145.487 146.03C145.707 144.91 146.307 144.03 147.287 143.39C148.267 142.73 149.477 142.4 150.917 142.4C152.297 142.4 153.487 142.73 154.487 143.39C155.507 144.03 156.287 144.94 156.827 146.12C157.387 147.3 157.667 148.69 157.667 150.29C157.667 151.91 157.377 153.32 156.797 154.52C156.217 155.72 155.407 156.65 154.367 157.31C153.327 157.97 152.097 158.3 150.677 158.3ZM149.417 154.7C150.477 154.7 151.337 154.32 151.997 153.56C152.657 152.8 152.987 151.72 152.987 150.32C152.987 148.92 152.647 147.85 151.967 147.11C151.307 146.37 150.437 146 149.357 146C148.317 146 147.457 146.38 146.777 147.14C146.117 147.88 145.787 148.95 145.787 150.35C145.787 151.75 146.117 152.83 146.777 153.59C147.457 154.33 148.337 154.7 149.417 154.7ZM169.756 158C169.636 157.56 169.546 157.09 169.486 156.59C169.446 156.09 169.426 155.51 169.426 154.85H169.306V147.62C169.306 147 169.096 146.52 168.676 146.18C168.276 145.82 167.676 145.64 166.876 145.64C166.116 145.64 165.506 145.77 165.046 146.03C164.606 146.29 164.316 146.67 164.176 147.17H159.886C160.086 145.79 160.796 144.65 162.016 143.75C163.236 142.85 164.906 142.4 167.026 142.4C169.226 142.4 170.906 142.89 172.066 143.87C173.226 144.85 173.806 146.26 173.806 148.1V154.85C173.806 155.35 173.836 155.86 173.896 156.38C173.976 156.88 174.096 157.42 174.256 158H169.756ZM164.416 158.3C162.896 158.3 161.686 157.92 160.786 157.16C159.886 156.38 159.436 155.35 159.436 154.07C159.436 152.65 159.966 151.51 161.026 150.65C162.106 149.77 163.606 149.2 165.526 148.94L169.996 148.31V150.92L166.276 151.49C165.476 151.61 164.886 151.83 164.506 152.15C164.126 152.47 163.936 152.91 163.936 153.47C163.936 153.97 164.116 154.35 164.476 154.61C164.836 154.87 165.316 155 165.916 155C166.856 155 167.656 154.75 168.316 154.25C168.976 153.73 169.306 153.13 169.306 152.45L169.726 154.85C169.286 155.99 168.616 156.85 167.716 157.43C166.816 158.01 165.716 158.3 164.416 158.3ZM177.265 158V142.7H181.675V146.3H181.765V158H177.265ZM181.765 150.02L181.375 146.39C181.735 145.09 182.325 144.1 183.145 143.42C183.965 142.74 184.985 142.4 186.205 142.4C186.585 142.4 186.865 142.44 187.045 142.52V146.72C186.945 146.68 186.805 146.66 186.625 146.66C186.445 146.64 186.225 146.63 185.965 146.63C184.525 146.63 183.465 146.89 182.785 147.41C182.105 147.91 181.765 148.78 181.765 150.02ZM188.984 158V142.7H193.484V158H188.984ZM188.834 140.66V135.8H193.634V140.66H188.834ZM197.07 158V142.7H201.48V146.3H201.57V158H197.07ZM207.72 158V148.52C207.72 147.68 207.5 147.05 207.06 146.63C206.64 146.21 206.02 146 205.2 146C204.5 146 203.87 146.16 203.31 146.48C202.77 146.8 202.34 147.24 202.02 147.8C201.72 148.36 201.57 149.02 201.57 149.78L201.18 146.09C201.68 144.97 202.41 144.08 203.37 143.42C204.35 142.74 205.55 142.4 206.97 142.4C208.67 142.4 209.97 142.88 210.87 143.84C211.77 144.78 212.22 146.05 212.22 147.65V158H207.72ZM222.635 164.45C220.515 164.45 218.785 164 217.445 163.1C216.125 162.2 215.345 160.98 215.105 159.44H219.365C219.525 159.82 219.865 160.11 220.385 160.31C220.925 160.51 221.605 160.61 222.425 160.61C223.785 160.61 224.775 160.35 225.395 159.83C226.015 159.31 226.325 158.5 226.325 157.4V154.07L226.565 154.13C226.365 155.25 225.785 156.14 224.825 156.8C223.865 157.44 222.675 157.76 221.255 157.76C219.895 157.76 218.705 157.45 217.685 156.83C216.685 156.19 215.905 155.3 215.345 154.16C214.785 153.02 214.505 151.68 214.505 150.14C214.505 148.58 214.795 147.22 215.375 146.06C215.955 144.9 216.765 144 217.805 143.36C218.865 142.72 220.095 142.4 221.495 142.4C222.935 142.4 224.105 142.74 225.005 143.42C225.925 144.1 226.465 145.03 226.625 146.21L226.415 146.24V142.7H230.825V157.34C230.825 159.54 230.095 161.27 228.635 162.53C227.175 163.81 225.175 164.45 222.635 164.45ZM222.815 154.31C223.875 154.31 224.735 153.95 225.395 153.23C226.055 152.49 226.385 151.44 226.385 150.08C226.385 148.72 226.045 147.68 225.365 146.96C224.705 146.22 223.835 145.85 222.755 145.85C221.715 145.85 220.855 146.22 220.175 146.96C219.515 147.7 219.185 148.75 219.185 150.11C219.185 151.47 219.515 152.51 220.175 153.23C220.855 153.95 221.735 154.31 222.815 154.31ZM240.916 164.15L245.146 154.79L245.926 153.5L249.886 142.7H254.686L245.416 164.15H240.916ZM244.156 157.7L238.276 142.7H243.136L247.966 156.38L244.156 157.7ZM263.216 158.3C261.536 158.3 260.056 157.97 258.776 157.31C257.516 156.63 256.526 155.69 255.806 154.49C255.106 153.27 254.756 151.87 254.756 150.29C254.756 148.71 255.106 147.33 255.806 146.15C256.526 144.97 257.516 144.05 258.776 143.39C260.056 142.73 261.536 142.4 263.216 142.4C264.916 142.4 266.396 142.73 267.656 143.39C268.936 144.05 269.926 144.97 270.626 146.15C271.326 147.33 271.676 148.71 271.676 150.29C271.676 151.87 271.316 153.27 270.596 154.49C269.896 155.69 268.906 156.63 267.626 157.31C266.366 157.97 264.896 158.3 263.216 158.3ZM263.216 154.76C263.916 154.76 264.546 154.58 265.106 154.22C265.686 153.86 266.146 153.35 266.486 152.69C266.826 152.01 266.996 151.2 266.996 150.26C266.996 148.88 266.626 147.82 265.886 147.08C265.166 146.32 264.276 145.94 263.216 145.94C262.156 145.94 261.256 146.32 260.516 147.08C259.796 147.84 259.436 148.9 259.436 150.26C259.436 151.2 259.606 152.01 259.946 152.69C260.286 153.35 260.736 153.86 261.296 154.22C261.876 154.58 262.516 154.76 263.216 154.76ZM279.012 158.3C277.932 158.3 277.002 158.07 276.222 157.61C275.462 157.13 274.882 156.5 274.482 155.72C274.082 154.92 273.882 154.03 273.882 153.05V142.7H278.382V152.18C278.382 153.02 278.592 153.65 279.012 154.07C279.432 154.49 280.022 154.7 280.782 154.7C281.462 154.7 282.062 154.54 282.582 154.22C283.102 153.9 283.512 153.46 283.812 152.9C284.132 152.32 284.292 151.66 284.292 150.92L284.682 154.61C284.182 155.71 283.452 156.6 282.492 157.28C281.532 157.96 280.372 158.3 279.012 158.3ZM284.382 158V154.4H284.292V142.7H288.792V158H284.382ZM292.402 158V142.7H296.812V146.3H296.902V158H292.402ZM296.902 150.02L296.512 146.39C296.872 145.09 297.462 144.1 298.282 143.42C299.102 142.74 300.122 142.4 301.342 142.4C301.722 142.4 302.002 142.44 302.182 142.52V146.72C302.082 146.68 301.942 146.66 301.762 146.66C301.582 146.64 301.362 146.63 301.102 146.63C299.662 146.63 298.602 146.89 297.922 147.41C297.242 147.91 296.902 148.78 296.902 150.02ZM69.2169 194.3C67.7569 194.3 66.5869 193.96 65.7069 193.28C64.8269 192.6 64.3069 191.67 64.1469 190.49L64.3869 190.46V200.15H59.8869V178.7H64.2969V182.09L64.0269 182.03C64.2469 180.91 64.8469 180.03 65.8269 179.39C66.8069 178.73 68.0169 178.4 69.4569 178.4C70.8369 178.4 72.0269 178.73 73.0269 179.39C74.0469 180.03 74.8269 180.94 75.3669 182.12C75.9269 183.3 76.2069 184.69 76.2069 186.29C76.2069 187.91 75.9169 189.32 75.3369 190.52C74.7569 191.72 73.9469 192.65 72.9069 193.31C71.8669 193.97 70.6369 194.3 69.2169 194.3ZM67.9569 190.7C69.0169 190.7 69.8769 190.32 70.5369 189.56C71.1969 188.8 71.5269 187.72 71.5269 186.32C71.5269 184.92 71.1869 183.85 70.5069 183.11C69.8469 182.37 68.9769 182 67.8969 182C66.8569 182 65.9969 182.38 65.3169 183.14C64.6569 183.88 64.3269 184.95 64.3269 186.35C64.3269 187.75 64.6569 188.83 65.3169 189.59C65.9969 190.33 66.8769 190.7 67.9569 190.7ZM86.2178 194.3C84.5178 194.3 83.0378 193.97 81.7778 193.31C80.5178 192.63 79.5378 191.69 78.8378 190.49C78.1578 189.29 77.8178 187.91 77.8178 186.35C77.8178 184.77 78.1578 183.39 78.8378 182.21C79.5378 181.01 80.5078 180.08 81.7478 179.42C82.9878 178.74 84.4278 178.4 86.0678 178.4C87.6478 178.4 89.0178 178.72 90.1778 179.36C91.3378 180 92.2378 180.89 92.8778 182.03C93.5178 183.17 93.8378 184.51 93.8378 186.05C93.8378 186.37 93.8278 186.67 93.8078 186.95C93.7878 187.21 93.7578 187.46 93.7178 187.7H80.4578V184.73H90.0878L89.3078 185.27C89.3078 184.03 89.0078 183.12 88.4078 182.54C87.8278 181.94 87.0278 181.64 86.0078 181.64C84.8278 181.64 83.9078 182.04 83.2478 182.84C82.6078 183.64 82.2878 184.84 82.2878 186.44C82.2878 188 82.6078 189.16 83.2478 189.92C83.9078 190.68 84.8878 191.06 86.1878 191.06C86.9078 191.06 87.5278 190.94 88.0478 190.7C88.5678 190.46 88.9578 190.07 89.2178 189.53H93.4478C92.9478 191.01 92.0878 192.18 90.8678 193.04C89.6678 193.88 88.1178 194.3 86.2178 194.3ZM96.2443 194V178.7H100.654V182.3H100.744V194H96.2443ZM100.744 186.02L100.354 182.39C100.714 181.09 101.304 180.1 102.124 179.42C102.944 178.74 103.964 178.4 105.184 178.4C105.564 178.4 105.844 178.44 106.024 178.52V182.72C105.924 182.68 105.784 182.66 105.604 182.66C105.424 182.64 105.204 182.63 104.944 182.63C103.504 182.63 102.444 182.89 101.764 183.41C101.084 183.91 100.744 184.78 100.744 186.02ZM114.202 194.3C111.962 194.3 110.182 193.85 108.862 192.95C107.542 192.05 106.822 190.81 106.702 189.23H110.722C110.822 189.91 111.162 190.43 111.742 190.79C112.342 191.13 113.162 191.3 114.202 191.3C115.142 191.3 115.822 191.17 116.242 190.91C116.682 190.63 116.902 190.24 116.902 189.74C116.902 189.36 116.772 189.07 116.512 188.87C116.272 188.65 115.822 188.47 115.162 188.33L112.702 187.82C110.882 187.44 109.542 186.87 108.682 186.11C107.822 185.33 107.392 184.33 107.392 183.11C107.392 181.63 107.962 180.48 109.102 179.66C110.242 178.82 111.832 178.4 113.872 178.4C115.892 178.4 117.502 178.81 118.702 179.63C119.902 180.43 120.562 181.55 120.682 182.99H116.662C116.582 182.47 116.302 182.08 115.822 181.82C115.342 181.54 114.662 181.4 113.782 181.4C112.982 181.4 112.382 181.52 111.982 181.76C111.602 181.98 111.412 182.3 111.412 182.72C111.412 183.08 111.572 183.37 111.892 183.59C112.212 183.79 112.742 183.97 113.482 184.13L116.242 184.7C117.782 185.02 118.942 185.62 119.722 186.5C120.522 187.36 120.922 188.38 120.922 189.56C120.922 191.06 120.332 192.23 119.152 193.07C117.992 193.89 116.342 194.3 114.202 194.3ZM130.897 194.3C129.217 194.3 127.737 193.97 126.457 193.31C125.197 192.63 124.207 191.69 123.487 190.49C122.787 189.27 122.437 187.87 122.437 186.29C122.437 184.71 122.787 183.33 123.487 182.15C124.207 180.97 125.197 180.05 126.457 179.39C127.737 178.73 129.217 178.4 130.897 178.4C132.597 178.4 134.077 178.73 135.337 179.39C136.617 180.05 137.607 180.97 138.307 182.15C139.007 183.33 139.357 184.71 139.357 186.29C139.357 187.87 138.997 189.27 138.277 190.49C137.577 191.69 136.587 192.63 135.307 193.31C134.047 193.97 132.577 194.3 130.897 194.3ZM130.897 190.76C131.597 190.76 132.227 190.58 132.787 190.22C133.367 189.86 133.827 189.35 134.167 188.69C134.507 188.01 134.677 187.2 134.677 186.26C134.677 184.88 134.307 183.82 133.567 183.08C132.847 182.32 131.957 181.94 130.897 181.94C129.837 181.94 128.937 182.32 128.197 183.08C127.477 183.84 127.117 184.9 127.117 186.26C127.117 187.2 127.287 188.01 127.627 188.69C127.967 189.35 128.417 189.86 128.977 190.22C129.557 190.58 130.197 190.76 130.897 190.76ZM141.742 194V178.7H146.152V182.3H146.242V194H141.742ZM152.392 194V184.52C152.392 183.68 152.172 183.05 151.732 182.63C151.312 182.21 150.692 182 149.872 182C149.172 182 148.542 182.16 147.982 182.48C147.442 182.8 147.012 183.24 146.692 183.8C146.392 184.36 146.242 185.02 146.242 185.78L145.852 182.09C146.352 180.97 147.082 180.08 148.042 179.42C149.022 178.74 150.222 178.4 151.642 178.4C153.342 178.4 154.642 178.88 155.542 179.84C156.442 180.78 156.892 182.05 156.892 183.65V194H152.392ZM169.566 194C169.446 193.56 169.356 193.09 169.296 192.59C169.256 192.09 169.236 191.51 169.236 190.85H169.116V183.62C169.116 183 168.906 182.52 168.486 182.18C168.086 181.82 167.486 181.64 166.686 181.64C165.926 181.64 165.316 181.77 164.856 182.03C164.416 182.29 164.126 182.67 163.986 183.17H159.696C159.896 181.79 160.606 180.65 161.826 179.75C163.046 178.85 164.716 178.4 166.836 178.4C169.036 178.4 170.716 178.89 171.876 179.87C173.036 180.85 173.616 182.26 173.616 184.1V190.85C173.616 191.35 173.646 191.86 173.706 192.38C173.786 192.88 173.906 193.42 174.066 194H169.566ZM164.226 194.3C162.706 194.3 161.496 193.92 160.596 193.16C159.696 192.38 159.246 191.35 159.246 190.07C159.246 188.65 159.776 187.51 160.836 186.65C161.916 185.77 163.416 185.2 165.336 184.94L169.806 184.31V186.92L166.086 187.49C165.286 187.61 164.696 187.83 164.316 188.15C163.936 188.47 163.746 188.91 163.746 189.47C163.746 189.97 163.926 190.35 164.286 190.61C164.646 190.87 165.126 191 165.726 191C166.666 191 167.466 190.75 168.126 190.25C168.786 189.73 169.116 189.13 169.116 188.45L169.536 190.85C169.096 191.99 168.426 192.85 167.526 193.43C166.626 194.01 165.526 194.3 164.226 194.3ZM177.074 194V172.4H181.574V194H177.074ZM197.803 194.3C196.203 194.3 194.793 193.96 193.573 193.28C192.353 192.6 191.393 191.66 190.693 190.46C190.013 189.26 189.673 187.89 189.673 186.35C189.673 184.81 190.013 183.44 190.693 182.24C191.393 181.04 192.353 180.1 193.573 179.42C194.793 178.74 196.203 178.4 197.803 178.4C199.143 178.4 200.343 178.65 201.403 179.15C202.483 179.63 203.363 180.3 204.043 181.16C204.743 182.02 205.193 183.03 205.393 184.19H201.043C200.823 183.45 200.423 182.89 199.843 182.51C199.283 182.13 198.623 181.94 197.863 181.94C197.143 181.94 196.513 182.12 195.973 182.48C195.453 182.84 195.053 183.35 194.773 184.01C194.493 184.67 194.353 185.45 194.353 186.35C194.353 187.25 194.493 188.03 194.773 188.69C195.053 189.35 195.453 189.86 195.973 190.22C196.513 190.58 197.143 190.76 197.863 190.76C198.623 190.76 199.283 190.57 199.843 190.19C200.423 189.81 200.823 189.25 201.043 188.51H205.393C205.193 189.67 204.743 190.68 204.043 191.54C203.363 192.4 202.483 193.08 201.403 193.58C200.343 194.06 199.143 194.3 197.803 194.3ZM217.056 194C216.936 193.56 216.846 193.09 216.786 192.59C216.746 192.09 216.726 191.51 216.726 190.85H216.606V183.62C216.606 183 216.396 182.52 215.976 182.18C215.576 181.82 214.976 181.64 214.176 181.64C213.416 181.64 212.806 181.77 212.346 182.03C211.906 182.29 211.616 182.67 211.476 183.17H207.186C207.386 181.79 208.096 180.65 209.316 179.75C210.536 178.85 212.206 178.4 214.326 178.4C216.526 178.4 218.206 178.89 219.366 179.87C220.526 180.85 221.106 182.26 221.106 184.1V190.85C221.106 191.35 221.136 191.86 221.196 192.38C221.276 192.88 221.396 193.42 221.556 194H217.056ZM211.716 194.3C210.196 194.3 208.986 193.92 208.086 193.16C207.186 192.38 206.736 191.35 206.736 190.07C206.736 188.65 207.266 187.51 208.326 186.65C209.406 185.77 210.906 185.2 212.826 184.94L217.296 184.31V186.92L213.576 187.49C212.776 187.61 212.186 187.83 211.806 188.15C211.426 188.47 211.236 188.91 211.236 189.47C211.236 189.97 211.416 190.35 211.776 190.61C212.136 190.87 212.616 191 213.216 191C214.156 191 214.956 190.75 215.616 190.25C216.276 189.73 216.606 189.13 216.606 188.45L217.026 190.85C216.586 191.99 215.916 192.85 215.016 193.43C214.116 194.01 213.016 194.3 211.716 194.3ZM224.565 194V172.4H229.065V194H224.565ZM239.851 194.3C238.151 194.3 236.671 193.97 235.411 193.31C234.151 192.63 233.171 191.69 232.471 190.49C231.791 189.29 231.451 187.91 231.451 186.35C231.451 184.77 231.791 183.39 232.471 182.21C233.171 181.01 234.141 180.08 235.381 179.42C236.621 178.74 238.061 178.4 239.701 178.4C241.281 178.4 242.651 178.72 243.811 179.36C244.971 180 245.871 180.89 246.511 182.03C247.151 183.17 247.471 184.51 247.471 186.05C247.471 186.37 247.461 186.67 247.441 186.95C247.421 187.21 247.391 187.46 247.351 187.7H234.091V184.73H243.721L242.941 185.27C242.941 184.03 242.641 183.12 242.041 182.54C241.461 181.94 240.661 181.64 239.641 181.64C238.461 181.64 237.541 182.04 236.881 182.84C236.241 183.64 235.921 184.84 235.921 186.44C235.921 188 236.241 189.16 236.881 189.92C237.541 190.68 238.521 191.06 239.821 191.06C240.541 191.06 241.161 190.94 241.681 190.7C242.201 190.46 242.591 190.07 242.851 189.53H247.081C246.581 191.01 245.721 192.18 244.501 193.04C243.301 193.88 241.751 194.3 239.851 194.3ZM249.877 194V178.7H254.287V182.3H254.377V194H249.877ZM260.527 194V184.52C260.527 183.68 260.307 183.05 259.867 182.63C259.447 182.21 258.827 182 258.007 182C257.307 182 256.677 182.16 256.117 182.48C255.577 182.8 255.147 183.24 254.827 183.8C254.527 184.36 254.377 185.02 254.377 185.78L253.987 182.09C254.487 180.97 255.217 180.08 256.177 179.42C257.157 178.74 258.357 178.4 259.777 178.4C261.477 178.4 262.777 178.88 263.677 179.84C264.577 180.78 265.027 182.05 265.027 183.65V194H260.527ZM279.281 194V190.61L279.581 190.67C279.381 191.77 278.781 192.65 277.781 193.31C276.801 193.97 275.621 194.3 274.241 194.3C272.841 194.3 271.621 193.98 270.581 193.34C269.561 192.68 268.771 191.76 268.211 190.58C267.651 189.4 267.371 188.01 267.371 186.41C267.371 184.79 267.661 183.38 268.241 182.18C268.821 180.98 269.631 180.05 270.671 179.39C271.731 178.73 272.961 178.4 274.361 178.4C275.821 178.4 277.001 178.74 277.901 179.42C278.821 180.1 279.361 181.03 279.521 182.21L279.191 182.24V172.4H283.691V194H279.281ZM275.681 190.7C276.741 190.7 277.601 190.33 278.261 189.59C278.921 188.83 279.251 187.75 279.251 186.35C279.251 184.95 278.911 183.88 278.231 183.14C277.571 182.38 276.701 182 275.621 182C274.581 182 273.721 182.38 273.041 183.14C272.381 183.9 272.051 184.98 272.051 186.38C272.051 187.78 272.381 188.85 273.041 189.59C273.721 190.33 274.601 190.7 275.681 190.7ZM296.919 194C296.799 193.56 296.709 193.09 296.649 192.59C296.609 192.09 296.589 191.51 296.589 190.85H296.469V183.62C296.469 183 296.259 182.52 295.839 182.18C295.439 181.82 294.839 181.64 294.039 181.64C293.279 181.64 292.669 181.77 292.209 182.03C291.769 182.29 291.479 182.67 291.339 183.17H287.049C287.249 181.79 287.959 180.65 289.179 179.75C290.399 178.85 292.069 178.4 294.189 178.4C296.389 178.4 298.069 178.89 299.229 179.87C300.389 180.85 300.969 182.26 300.969 184.1V190.85C300.969 191.35 300.999 191.86 301.059 192.38C301.139 192.88 301.259 193.42 301.419 194H296.919ZM291.579 194.3C290.059 194.3 288.849 193.92 287.949 193.16C287.049 192.38 286.599 191.35 286.599 190.07C286.599 188.65 287.129 187.51 288.189 186.65C289.269 185.77 290.769 185.2 292.689 184.94L297.159 184.31V186.92L293.439 187.49C292.639 187.61 292.049 187.83 291.669 188.15C291.289 188.47 291.099 188.91 291.099 189.47C291.099 189.97 291.279 190.35 291.639 190.61C291.999 190.87 292.479 191 293.079 191C294.019 191 294.819 190.75 295.479 190.25C296.139 189.73 296.469 189.13 296.469 188.45L296.889 190.85C296.449 191.99 295.779 192.85 294.879 193.43C293.979 194.01 292.879 194.3 291.579 194.3ZM304.428 194V178.7H308.838V182.3H308.928V194H304.428ZM308.928 186.02L308.538 182.39C308.898 181.09 309.488 180.1 310.308 179.42C311.128 178.74 312.148 178.4 313.368 178.4C313.748 178.4 314.028 178.44 314.208 178.52V182.72C314.108 182.68 313.968 182.66 313.788 182.66C313.608 182.64 313.388 182.63 313.128 182.63C311.688 182.63 310.628 182.89 309.948 183.41C309.268 183.91 308.928 184.78 308.928 186.02ZM313.217 194V189.05H318.167V194H313.217ZM320.688 194V189.05H325.638V194H320.688ZM328.158 194V189.05H333.108V194H328.158Z" fill="black"/>
<path d="M45.4795 26.0597C44.4644 26.0597 43.6358 25.7438 42.9936 25.1119C42.3617 24.4697 42.0458 23.61 42.0458 22.5327C42.0458 22.0356 42.1183 21.5591 42.2633 21.1033C42.4187 20.6476 42.6466 20.2488 42.947 19.907C43.2474 19.5548 43.6151 19.2803 44.0501 19.0835C44.4955 18.8867 44.9979 18.7883 45.5572 18.7883C46.3755 18.7883 47.0436 18.9592 47.5615 19.301C48.0898 19.6325 48.4834 20.0572 48.7424 20.5751C49.0013 21.093 49.1722 21.6264 49.2551 22.1754C49.3379 22.7244 49.3794 23.2837 49.3794 23.8534C49.3794 24.3299 49.3379 24.884 49.2551 25.5159C49.1826 26.1374 49.0168 26.8003 48.7579 27.5047C48.4989 28.1986 48.095 28.7891 47.546 29.2759C46.997 29.7627 46.2875 30.0061 45.4174 30.0061C44.8166 30.0061 44.3039 29.9077 43.8792 29.7109C43.4545 29.5245 43.1179 29.2811 42.8693 28.9807C42.6207 28.6699 42.4394 28.354 42.3255 28.0329C42.2219 27.7015 42.1701 27.3855 42.1701 27.0851H43.5374C43.5788 27.6445 43.7601 28.0847 44.0812 28.4058C44.4023 28.7166 44.8373 28.8719 45.3863 28.8719C46.1321 28.8719 46.7122 28.5456 47.1265 27.8931C47.5512 27.2405 47.8464 26.2047 48.0121 24.7856L47.981 24.7546C47.7842 25.1585 47.4476 25.4796 46.9711 25.7179C46.505 25.9458 46.0078 26.0597 45.4795 26.0597ZM45.6815 24.8323C45.899 24.8323 46.1217 24.8012 46.3496 24.739C46.5879 24.6665 46.8157 24.5422 47.0333 24.3661C47.2508 24.19 47.4269 23.9363 47.5615 23.6048C47.7065 23.2734 47.779 22.8538 47.779 22.3463C47.779 21.673 47.5926 21.1189 47.2197 20.6838C46.8572 20.2384 46.3082 20.0157 45.5728 20.0157C44.9409 20.0157 44.4282 20.2436 44.0346 20.6994C43.6513 21.1448 43.4597 21.7352 43.4597 22.4706C43.4597 22.9678 43.527 23.3769 43.6617 23.698C43.7963 24.0088 43.9724 24.247 44.1899 24.4127C44.4178 24.5785 44.6561 24.6924 44.9047 24.7546C45.1533 24.8064 45.4122 24.8323 45.6815 24.8323ZM52.6214 28.064V29.7109H51.0056V28.064H52.6214ZM52.6214 21.6937V23.3407H51.0056V21.6937H52.6214ZM61.7312 27.0541H60.1309V29.7109H58.7636V27.0541H53.9937V25.7179L58.9967 18.7883H60.1309V25.8732H61.7312V27.0541ZM58.7325 20.9169L55.2522 25.8732H58.7636V20.9169H58.7325ZM67.4437 18.7883V29.7109H65.9832V21.9579H63.4351V20.8703C63.9426 20.8392 64.3466 20.7926 64.647 20.7304C64.9474 20.6683 65.2063 20.5699 65.4239 20.4352C65.6414 20.3006 65.8278 20.1038 65.9832 19.8448C66.1386 19.5859 66.268 19.2337 66.3716 18.7883H67.4437Z" fill="black"/>
<path opacity="0.35" d="M341.709 17.8496H357.246C358.999 17.8498 360.419 19.2708 360.419 21.0234V25.5928C360.419 27.3454 358.999 28.7664 357.246 28.7666H341.709C339.956 28.7666 338.535 27.3455 338.535 25.5928V21.0234C338.535 19.2707 339.956 17.8496 341.709 17.8496Z" fill="black" stroke="black" stroke-width="0.9643"/>
<path opacity="0.4" d="M361.816 21.9375V25.7947C362.592 25.468 363.097 24.7081 363.097 23.8661C363.097 23.0241 362.592 22.2642 361.816 21.9375Z" fill="black"/>
<path d="M339.881 21.0232C339.881 20.0137 340.699 19.1953 341.709 19.1953H357.246C358.255 19.1953 359.074 20.0137 359.074 21.0232V25.593C359.074 26.6025 358.256 27.4209 357.246 27.4209H341.709C340.699 27.4209 339.881 26.6025 339.881 25.593V21.0232Z" fill="black"/>
<path d="M321.706 26.5846C323.004 25.4642 324.904 25.4642 326.202 26.5846C326.267 26.6448 326.305 26.7302 326.307 26.8199C326.308 26.9096 326.275 26.9963 326.212 27.0592L324.18 29.152C324.12 29.2134 324.039 29.2486 323.954 29.2486C323.869 29.2486 323.788 29.2135 323.729 29.152L321.696 27.0592C321.634 26.9963 321.599 26.9097 321.601 26.8199C321.602 26.7301 321.641 26.6448 321.706 26.5846ZM318.959 24.0035C321.755 21.3489 326.085 21.349 328.881 24.0035C328.944 24.0657 328.98 24.1513 328.98 24.2408C328.981 24.3303 328.947 24.4166 328.886 24.4801L327.711 25.692C327.59 25.8156 327.395 25.8181 327.271 25.6979C326.352 24.8492 325.158 24.3794 323.919 24.3795C322.681 24.38 321.488 24.8498 320.57 25.6979C320.446 25.8183 320.25 25.8157 320.129 25.692L318.955 24.4801C318.893 24.4166 318.859 24.3304 318.859 24.2408C318.86 24.1514 318.896 24.0657 318.959 24.0035ZM316.215 21.4273C320.503 17.2325 327.268 17.2326 331.557 21.4273C331.619 21.4897 331.654 21.5748 331.654 21.6637C331.655 21.7525 331.621 21.8379 331.56 21.901L330.384 23.1129C330.263 23.2372 330.065 23.2382 329.942 23.1158C328.309 21.5305 326.141 20.6463 323.887 20.6461C321.632 20.6461 319.463 21.5302 317.829 23.1158C317.706 23.2383 317.51 23.2371 317.389 23.1129L316.212 21.901C316.151 21.8379 316.117 21.7525 316.117 21.6637C316.118 21.5748 316.153 21.4896 316.215 21.4273Z" fill="black"/>
<path d="M301.495 21.0231C301.495 20.5183 301.904 20.1092 302.409 20.1092H303.323C303.828 20.1092 304.237 20.5183 304.237 21.0231V28.3347C304.237 28.8395 303.828 29.2487 303.323 29.2487H302.409C301.904 29.2487 301.495 28.8395 301.495 28.3347V21.0231Z" fill="black"/>
<path d="M306.065 19.1952C306.065 18.6904 306.474 18.2812 306.979 18.2812H307.893C308.397 18.2812 308.807 18.6904 308.807 19.1952V28.3347C308.807 28.8395 308.397 29.2487 307.893 29.2487H306.979C306.474 29.2487 306.065 28.8395 306.065 28.3347V19.1952Z" fill="black"/>
<path d="M296.925 24.2219C296.925 23.7172 297.334 23.308 297.839 23.308H298.753C299.258 23.308 299.667 23.7172 299.667 24.2219V28.3347C299.667 28.8395 299.258 29.2487 298.753 29.2487H297.839C297.334 29.2487 296.925 28.8395 296.925 28.3347V24.2219Z" fill="black"/>
<path d="M292.355 26.5068C292.355 26.0021 292.765 25.5929 293.269 25.5929H294.183C294.688 25.5929 295.097 26.0021 295.097 26.5068V28.3347C295.097 28.8395 294.688 29.2487 294.183 29.2487H293.269C292.765 29.2487 292.355 28.8395 292.355 28.3347V26.5068Z" fill="black"/>
<path d="M136.021 805V795.928H132.563V794.92H140.627V795.928H137.169V805H136.021ZM142.257 805V794.92H143.377V805H142.257ZM147.367 805V800.324C147.367 799.783 147.231 799.377 146.961 799.106C146.69 798.835 146.289 798.7 145.757 798.7C145.29 798.7 144.875 798.803 144.511 799.008C144.156 799.213 143.876 799.498 143.671 799.862C143.475 800.226 143.377 800.651 143.377 801.136L143.195 799.442C143.437 798.91 143.806 798.49 144.301 798.182C144.805 797.874 145.374 797.72 146.009 797.72C146.755 797.72 147.353 797.935 147.801 798.364C148.258 798.784 148.487 799.339 148.487 800.03V805H147.367ZM150.638 805V797.86H151.758V805H150.638ZM150.554 796.236V794.92H151.842V796.236H150.554ZM156.423 805.14C155.546 805.14 154.846 804.939 154.323 804.538C153.8 804.127 153.502 803.549 153.427 802.802H154.505C154.57 803.259 154.771 803.609 155.107 803.852C155.443 804.095 155.891 804.216 156.451 804.216C156.946 804.216 157.333 804.123 157.613 803.936C157.893 803.749 158.033 803.483 158.033 803.138C158.033 802.895 157.954 802.685 157.795 802.508C157.636 802.321 157.319 802.167 156.843 802.046L155.695 801.752C155.042 801.584 154.552 801.327 154.225 800.982C153.898 800.627 153.735 800.207 153.735 799.722C153.735 799.106 153.964 798.621 154.421 798.266C154.878 797.902 155.499 797.72 156.283 797.72C157.058 797.72 157.688 797.907 158.173 798.28C158.658 798.653 158.934 799.171 158.999 799.834H157.921C157.856 799.451 157.678 799.157 157.389 798.952C157.1 798.747 156.717 798.644 156.241 798.644C155.784 798.644 155.429 798.733 155.177 798.91C154.925 799.078 154.799 799.321 154.799 799.638C154.799 799.881 154.888 800.091 155.065 800.268C155.252 800.445 155.56 800.595 155.989 800.716L157.109 801.024C157.772 801.201 158.271 801.472 158.607 801.836C158.943 802.2 159.111 802.639 159.111 803.152C159.111 803.777 158.873 804.267 158.397 804.622C157.921 804.967 157.263 805.14 156.423 805.14ZM164.877 805L162.693 797.86H163.827L165.507 803.978H165.227L167.243 797.86H168.153L170.183 803.978H169.903L171.569 797.86H172.647L170.463 805H169.553L167.537 799.022H167.831L165.787 805H164.877ZM176.984 805.14C176.284 805.14 175.668 804.977 175.136 804.65C174.604 804.323 174.189 803.88 173.89 803.32C173.601 802.751 173.456 802.111 173.456 801.402C173.456 800.683 173.606 800.049 173.904 799.498C174.203 798.947 174.614 798.513 175.136 798.196C175.668 797.879 176.284 797.72 176.984 797.72C177.694 797.72 178.31 797.879 178.832 798.196C179.364 798.513 179.775 798.947 180.064 799.498C180.363 800.049 180.512 800.683 180.512 801.402C180.512 802.111 180.363 802.751 180.064 803.32C179.775 803.88 179.364 804.323 178.832 804.65C178.31 804.977 177.694 805.14 176.984 805.14ZM176.984 804.188C177.47 804.188 177.89 804.071 178.244 803.838C178.599 803.595 178.874 803.264 179.07 802.844C179.266 802.424 179.364 801.939 179.364 801.388C179.364 800.567 179.145 799.909 178.706 799.414C178.277 798.919 177.703 798.672 176.984 798.672C176.275 798.672 175.701 798.919 175.262 799.414C174.824 799.909 174.604 800.567 174.604 801.388C174.604 801.939 174.702 802.424 174.898 802.844C175.094 803.264 175.37 803.595 175.724 803.838C176.088 804.071 176.508 804.188 176.984 804.188ZM182.192 805V797.86H183.242V799.54H183.312V805H182.192ZM187.302 805V800.324C187.302 799.783 187.167 799.377 186.896 799.106C186.626 798.835 186.224 798.7 185.692 798.7C185.226 798.7 184.81 798.803 184.446 799.008C184.092 799.213 183.812 799.498 183.606 799.862C183.41 800.226 183.312 800.651 183.312 801.136L183.13 799.442C183.373 798.91 183.742 798.49 184.236 798.182C184.74 797.874 185.31 797.72 185.944 797.72C186.691 797.72 187.288 797.935 187.736 798.364C188.194 798.784 188.422 799.339 188.422 800.03V805H187.302ZM189.408 797.846V797.272C189.725 797.235 189.949 797.113 190.08 796.908C190.211 796.703 190.276 796.376 190.276 795.928L190.696 795.984H189.422V794.584H190.92V795.676C190.92 796.273 190.799 796.763 190.556 797.146C190.323 797.529 189.94 797.762 189.408 797.846ZM195.343 805.126C194.55 805.126 193.971 804.949 193.607 804.594C193.253 804.23 193.075 803.707 193.075 803.026V796.194L194.195 795.774V803.012C194.195 803.413 194.298 803.707 194.503 803.894C194.709 804.081 195.045 804.174 195.511 804.174C195.698 804.174 195.857 804.165 195.987 804.146C196.127 804.118 196.239 804.085 196.323 804.048V805C196.23 805.037 196.095 805.065 195.917 805.084C195.749 805.112 195.558 805.126 195.343 805.126ZM191.605 798.812V797.86H196.323V798.812H191.605ZM203.423 805.126C202.63 805.126 202.051 804.949 201.687 804.594C201.333 804.23 201.155 803.707 201.155 803.026V796.194L202.275 795.774V803.012C202.275 803.413 202.378 803.707 202.583 803.894C202.789 804.081 203.125 804.174 203.591 804.174C203.778 804.174 203.937 804.165 204.067 804.146C204.207 804.118 204.319 804.085 204.403 804.048V805C204.31 805.037 204.175 805.065 203.997 805.084C203.829 805.112 203.638 805.126 203.423 805.126ZM199.685 798.812V797.86H204.403V798.812H199.685ZM210.227 805C210.189 804.841 210.161 804.659 210.143 804.454C210.133 804.249 210.129 803.987 210.129 803.67H210.059V800.254C210.059 799.713 209.933 799.316 209.681 799.064C209.438 798.803 209.041 798.672 208.491 798.672C207.949 798.672 207.515 798.784 207.189 799.008C206.871 799.223 206.694 799.531 206.657 799.932H205.579C205.625 799.241 205.915 798.7 206.447 798.308C206.979 797.916 207.674 797.72 208.533 797.72C209.419 797.72 210.077 797.93 210.507 798.35C210.936 798.77 211.151 799.4 211.151 800.24V803.67C211.151 803.875 211.165 804.09 211.193 804.314C211.221 804.529 211.258 804.757 211.305 805H210.227ZM207.777 805.14C207.039 805.14 206.451 804.963 206.013 804.608C205.583 804.244 205.369 803.749 205.369 803.124C205.369 802.499 205.583 802.013 206.013 801.668C206.442 801.323 207.067 801.08 207.889 800.94L210.381 800.52V801.444L208.057 801.808C207.534 801.892 207.137 802.032 206.867 802.228C206.596 802.424 206.461 802.709 206.461 803.082C206.461 803.446 206.582 803.721 206.825 803.908C207.077 804.095 207.445 804.188 207.931 804.188C208.556 804.188 209.065 804.048 209.457 803.768C209.858 803.479 210.059 803.105 210.059 802.648L210.241 803.642C210.091 804.118 209.797 804.487 209.359 804.748C208.929 805.009 208.402 805.14 207.777 805.14ZM213.309 805V794.64H214.429V805H213.309ZM217.971 805L214.177 801.29L217.831 797.86H219.371L215.269 801.612L215.339 800.954L219.511 805H217.971ZM223.304 805.14C222.622 805.14 222.02 804.981 221.498 804.664C220.975 804.337 220.564 803.894 220.266 803.334C219.967 802.774 219.818 802.13 219.818 801.402C219.818 800.674 219.962 800.035 220.252 799.484C220.55 798.924 220.966 798.49 221.498 798.182C222.03 797.874 222.641 797.72 223.332 797.72C223.994 797.72 224.568 797.865 225.054 798.154C225.548 798.443 225.926 798.849 226.188 799.372C226.458 799.895 226.594 800.511 226.594 801.22C226.594 801.313 226.589 801.402 226.58 801.486C226.58 801.57 226.57 801.663 226.552 801.766H220.658V800.828H225.866L225.502 801.346C225.502 800.487 225.31 799.829 224.928 799.372C224.554 798.905 224.022 798.672 223.332 798.672C222.622 798.672 222.048 798.919 221.61 799.414C221.18 799.899 220.966 800.557 220.966 801.388C220.966 802.237 221.18 802.919 221.61 803.432C222.048 803.936 222.632 804.188 223.36 804.188C223.817 804.188 224.218 804.09 224.564 803.894C224.909 803.689 225.161 803.399 225.32 803.026H226.384C226.15 803.679 225.758 804.197 225.208 804.58C224.666 804.953 224.032 805.14 223.304 805.14ZM231.083 805V794.92H232.203V805H231.083ZM237.414 805.14C236.714 805.14 236.098 804.977 235.566 804.65C235.034 804.323 234.619 803.88 234.32 803.32C234.031 802.751 233.886 802.111 233.886 801.402C233.886 800.683 234.036 800.049 234.334 799.498C234.633 798.947 235.044 798.513 235.566 798.196C236.098 797.879 236.714 797.72 237.414 797.72C238.124 797.72 238.74 797.879 239.262 798.196C239.794 798.513 240.205 798.947 240.494 799.498C240.793 800.049 240.942 800.683 240.942 801.402C240.942 802.111 240.793 802.751 240.494 803.32C240.205 803.88 239.794 804.323 239.262 804.65C238.74 804.977 238.124 805.14 237.414 805.14ZM237.414 804.188C237.9 804.188 238.32 804.071 238.674 803.838C239.029 803.595 239.304 803.264 239.5 802.844C239.696 802.424 239.794 801.939 239.794 801.388C239.794 800.567 239.575 799.909 239.136 799.414C238.707 798.919 238.133 798.672 237.414 798.672C236.705 798.672 236.131 798.919 235.692 799.414C235.254 799.909 235.034 800.567 235.034 801.388C235.034 801.939 235.132 802.424 235.328 802.844C235.524 803.264 235.8 803.595 236.154 803.838C236.518 804.071 236.938 804.188 237.414 804.188ZM242.622 805V797.86H243.672V799.54H243.742V805H242.622ZM247.732 805V800.324C247.732 799.783 247.597 799.377 247.326 799.106C247.055 798.835 246.654 798.7 246.122 798.7C245.655 798.7 245.24 798.803 244.876 799.008C244.521 799.213 244.241 799.498 244.036 799.862C243.84 800.226 243.742 800.651 243.742 801.136L243.56 799.442C243.803 798.91 244.171 798.49 244.666 798.182C245.17 797.874 245.739 797.72 246.374 797.72C247.121 797.72 247.718 797.935 248.166 798.364C248.623 798.784 248.852 799.339 248.852 800.03V805H247.732ZM253.845 808.01C252.995 808.01 252.286 807.809 251.717 807.408C251.157 807.016 250.816 806.493 250.695 805.84H251.759C251.861 806.213 252.09 806.507 252.445 806.722C252.809 806.946 253.299 807.058 253.915 807.058C254.643 807.058 255.193 806.857 255.567 806.456C255.94 806.064 256.127 805.485 256.127 804.72V803.194L256.267 803.222C256.108 803.763 255.791 804.197 255.315 804.524C254.839 804.841 254.274 805 253.621 805C252.995 805 252.445 804.851 251.969 804.552C251.493 804.244 251.124 803.819 250.863 803.278C250.601 802.737 250.471 802.107 250.471 801.388C250.471 800.66 250.606 800.021 250.877 799.47C251.147 798.919 251.525 798.495 252.011 798.196C252.505 797.888 253.079 797.734 253.733 797.734C254.405 797.734 254.965 797.897 255.413 798.224C255.87 798.551 256.173 799.017 256.323 799.624L256.197 799.638V797.86H257.247V804.72C257.247 805.737 256.943 806.54 256.337 807.128C255.73 807.716 254.899 808.01 253.845 808.01ZM253.901 804.034C254.601 804.034 255.156 803.791 255.567 803.306C255.977 802.821 256.183 802.163 256.183 801.332C256.183 800.52 255.977 799.881 255.567 799.414C255.156 798.938 254.601 798.7 253.901 798.7C253.191 798.7 252.631 798.938 252.221 799.414C251.819 799.89 251.619 800.543 251.619 801.374C251.619 802.186 251.824 802.835 252.235 803.32C252.645 803.796 253.201 804.034 253.901 804.034ZM259.437 805V803.558H260.879V805H259.437Z" fill="#808080"/>
<path d="M200.052 326.729C200.224 321.946 204.248 318.173 209.001 318.729C229.021 321.073 248.044 329.009 263.846 341.71C281.906 356.225 294.792 376.188 300.586 398.622C306.379 421.057 304.769 444.763 295.994 466.208C287.22 487.652 271.752 505.689 251.895 517.628C232.038 529.568 208.854 534.773 185.799 532.466C162.743 530.16 141.05 520.466 123.952 504.829C106.853 489.192 95.2649 468.449 90.9131 445.69C87.1054 425.778 89.0161 405.255 96.3341 386.474C98.0715 382.015 103.292 380.23 107.596 382.321C111.901 384.411 113.653 389.585 111.985 394.071C106.259 409.467 104.829 426.193 107.935 442.436C111.585 461.525 121.306 478.924 135.648 492.04C149.989 505.156 168.185 513.287 187.524 515.222C206.863 517.156 226.309 512.791 242.965 502.776C259.621 492.761 272.595 477.633 279.955 459.645C287.314 441.657 288.665 421.773 283.806 402.955C278.946 384.137 268.137 367.393 252.989 355.218C240.099 344.858 224.656 338.278 208.372 336.115C203.628 335.485 199.88 331.512 200.052 326.729Z" fill="#FF657D"/>
<rect x="94.5527" y="360.84" width="31.7343" height="31.7343" rx="15.8672" fill="#FF657D"/>
<rect x="102.486" y="368.773" width="15.8672" height="15.8672" rx="7.93358" fill="#F9F9F9"/>
<path d="M173.874 435C174.134 432.036 174.862 429.185 176.058 426.446C177.271 423.69 178.805 421.159 180.66 418.854V419.348H170.624V416.28H184.43V419.14C183.251 420.821 182.22 422.511 181.336 424.21C180.452 425.909 179.741 427.651 179.204 429.436C178.667 431.204 178.32 433.059 178.164 435H173.874ZM193.161 435.26C191.601 435.26 190.206 434.853 188.975 434.038C187.762 433.206 186.808 432.062 186.115 430.606C185.422 429.133 185.075 427.451 185.075 425.562C185.075 423.673 185.422 422.017 186.115 420.596C186.808 419.157 187.762 418.039 188.975 417.242C190.206 416.427 191.601 416.02 193.161 416.02C194.738 416.02 196.134 416.427 197.347 417.242C198.56 418.039 199.514 419.157 200.207 420.596C200.9 422.017 201.247 423.673 201.247 425.562C201.247 427.469 200.9 429.15 200.207 430.606C199.514 432.062 198.552 433.206 197.321 434.038C196.108 434.853 194.721 435.26 193.161 435.26ZM193.161 431.932C194.045 431.932 194.773 431.637 195.345 431.048C195.917 430.459 196.342 429.679 196.619 428.708C196.896 427.737 197.035 426.68 197.035 425.536C197.035 424.392 196.896 423.352 196.619 422.416C196.342 421.48 195.917 420.735 195.345 420.18C194.773 419.625 194.045 419.348 193.161 419.348C192.277 419.348 191.549 419.634 190.977 420.206C190.405 420.761 189.98 421.506 189.703 422.442C189.426 423.378 189.287 424.409 189.287 425.536C189.287 426.697 189.426 427.763 189.703 428.734C189.98 429.705 190.405 430.485 190.977 431.074C191.566 431.646 192.294 431.932 193.161 431.932ZM203.511 435L217.187 416.28H220.177L206.527 435H203.511ZM216.823 435.26C216.095 435.26 215.41 435.087 214.769 434.74C214.127 434.393 213.607 433.865 213.209 433.154C212.81 432.443 212.611 431.542 212.611 430.45C212.611 429.358 212.801 428.465 213.183 427.772C213.581 427.061 214.101 426.533 214.743 426.186C215.384 425.839 216.077 425.666 216.823 425.666C217.603 425.666 218.313 425.839 218.955 426.186C219.613 426.533 220.133 427.061 220.515 427.772C220.896 428.465 221.087 429.358 221.087 430.45C221.087 431.542 220.887 432.443 220.489 433.154C220.09 433.865 219.561 434.393 218.903 434.74C218.261 435.087 217.568 435.26 216.823 435.26ZM216.823 433.024C217.36 433.024 217.811 432.807 218.175 432.374C218.539 431.923 218.721 431.273 218.721 430.424C218.721 429.609 218.539 428.985 218.175 428.552C217.828 428.119 217.377 427.902 216.823 427.902C216.268 427.902 215.817 428.119 215.471 428.552C215.141 428.985 214.977 429.609 214.977 430.424C214.977 431.273 215.141 431.923 215.471 432.374C215.817 432.807 216.268 433.024 216.823 433.024ZM206.683 425.614C205.937 425.614 205.244 425.441 204.603 425.094C203.961 424.747 203.441 424.219 203.043 423.508C202.661 422.797 202.471 421.896 202.471 420.804C202.471 419.712 202.661 418.819 203.043 418.126C203.441 417.415 203.961 416.887 204.603 416.54C205.244 416.193 205.937 416.02 206.683 416.02C207.463 416.02 208.173 416.193 208.815 416.54C209.456 416.887 209.967 417.415 210.349 418.126C210.73 418.819 210.921 419.712 210.921 420.804C210.921 421.896 210.721 422.797 210.323 423.508C209.924 424.219 209.404 424.747 208.763 425.094C208.121 425.441 207.428 425.614 206.683 425.614ZM206.683 423.378C207.22 423.378 207.671 423.161 208.035 422.728C208.399 422.277 208.581 421.627 208.581 420.778C208.581 419.963 208.399 419.339 208.035 418.906C207.688 418.473 207.237 418.256 206.683 418.256C206.128 418.256 205.677 418.473 205.331 418.906C205.001 419.322 204.837 419.946 204.837 420.778C204.837 421.627 205.001 422.277 205.331 422.728C205.677 423.161 206.128 423.378 206.683 423.378Z" fill="black"/>
<rect x="20" y="65" width="44" height="44" rx="15" fill="#F9F9F9"/>
<path d="M45 94L38 87L45 80" stroke="black" stroke-width="1.5" stroke-linecap="round" stroke-linejoin="round"/>
</g>
<defs>
<linearGradient id="paint0_linear_231_12976" x1="196.5" y1="0" x2="196.5" y2="852" gradientUnits="userSpaceOnUse">
<stop stop-color="white"/>
<stop offset="1" stop-color="#FFF0F2"/>
</linearGradient>
<clipPath id="clip0_231_12976">
<rect width="393" height="852" rx="40" fill="white"/>
</clipPath>
</defs>
</svg>