<svg xmlns="http://www.w3.org/2000/svg" width="393" height="852" viewBox="0 0 393 852" fill="none">
<g clip-path="url(#clip0_231_12665)">
<rect width="393" height="852" rx="40" fill="url(#paint0_linear_231_12665)"/>
<rect x="130" y="839" width="134" height="5" rx="2.5" fill="black"/>
<path d="M45.4795 26.0597C44.4644 26.0597 43.6358 25.7438 42.9936 25.1119C42.3617 24.4697 42.0458 23.61 42.0458 22.5327C42.0458 22.0356 42.1183 21.5591 42.2633 21.1033C42.4187 20.6476 42.6466 20.2488 42.947 19.907C43.2474 19.5548 43.6151 19.2803 44.0501 19.0835C44.4955 18.8867 44.9979 18.7883 45.5572 18.7883C46.3755 18.7883 47.0436 18.9592 47.5615 19.301C48.0898 19.6325 48.4834 20.0572 48.7424 20.5751C49.0013 21.093 49.1722 21.6264 49.2551 22.1754C49.3379 22.7244 49.3794 23.2837 49.3794 23.8534C49.3794 24.3299 49.3379 24.884 49.2551 25.5159C49.1826 26.1374 49.0168 26.8003 48.7579 27.5047C48.4989 28.1986 48.095 28.7891 47.546 29.2759C46.997 29.7627 46.2875 30.0061 45.4174 30.0061C44.8166 30.0061 44.3039 29.9077 43.8792 29.7109C43.4545 29.5245 43.1179 29.2811 42.8693 28.9807C42.6207 28.6699 42.4394 28.354 42.3255 28.0329C42.2219 27.7015 42.1701 27.3855 42.1701 27.0851H43.5374C43.5788 27.6445 43.7601 28.0847 44.0812 28.4058C44.4023 28.7166 44.8373 28.8719 45.3863 28.8719C46.1321 28.8719 46.7122 28.5456 47.1265 27.8931C47.5512 27.2405 47.8464 26.2047 48.0121 24.7856L47.981 24.7546C47.7842 25.1585 47.4476 25.4796 46.9711 25.7179C46.505 25.9458 46.0078 26.0597 45.4795 26.0597ZM45.6815 24.8323C45.899 24.8323 46.1217 24.8012 46.3496 24.739C46.5879 24.6665 46.8157 24.5422 47.0333 24.3661C47.2508 24.19 47.4269 23.9363 47.5615 23.6048C47.7065 23.2734 47.779 22.8538 47.779 22.3463C47.779 21.673 47.5926 21.1189 47.2197 20.6838C46.8572 20.2384 46.3082 20.0157 45.5728 20.0157C44.9409 20.0157 44.4282 20.2436 44.0346 20.6994C43.6513 21.1448 43.4597 21.7352 43.4597 22.4706C43.4597 22.9678 43.527 23.3769 43.6617 23.698C43.7963 24.0088 43.9724 24.247 44.1899 24.4127C44.4178 24.5785 44.6561 24.6924 44.9047 24.7546C45.1533 24.8064 45.4122 24.8323 45.6815 24.8323ZM52.6214 28.064V29.7109H51.0056V28.064H52.6214ZM52.6214 21.6937V23.3407H51.0056V21.6937H52.6214ZM61.7312 27.0541H60.1309V29.7109H58.7636V27.0541H53.9937V25.7179L58.9967 18.7883H60.1309V25.8732H61.7312V27.0541ZM58.7325 20.9169L55.2522 25.8732H58.7636V20.9169H58.7325ZM67.4437 18.7883V29.7109H65.9832V21.9579H63.4351V20.8703C63.9426 20.8392 64.3466 20.7926 64.647 20.7304C64.9474 20.6683 65.2063 20.5699 65.4239 20.4352C65.6414 20.3006 65.8278 20.1038 65.9832 19.8448C66.1386 19.5859 66.268 19.2337 66.3716 18.7883H67.4437Z" fill="black"/>
<path opacity="0.35" d="M341.709 17.8496H357.246C358.999 17.8498 360.419 19.2708 360.419 21.0234V25.5928C360.419 27.3454 358.999 28.7664 357.246 28.7666H341.709C339.956 28.7666 338.535 27.3455 338.535 25.5928V21.0234C338.535 19.2707 339.956 17.8496 341.709 17.8496Z" fill="black" stroke="black" stroke-width="0.9643"/>
<path opacity="0.4" d="M361.816 21.9375V25.7947C362.592 25.468 363.097 24.7081 363.097 23.8661C363.097 23.0241 362.592 22.2642 361.816 21.9375Z" fill="black"/>
<path d="M339.881 21.0232C339.881 20.0137 340.699 19.1953 341.709 19.1953H357.246C358.255 19.1953 359.074 20.0137 359.074 21.0232V25.593C359.074 26.6025 358.256 27.4209 357.246 27.4209H341.709C340.699 27.4209 339.881 26.6025 339.881 25.593V21.0232Z" fill="black"/>
<path d="M321.706 26.5846C323.004 25.4642 324.904 25.4642 326.202 26.5846C326.267 26.6448 326.305 26.7302 326.307 26.8199C326.308 26.9096 326.275 26.9963 326.212 27.0592L324.18 29.152C324.12 29.2134 324.039 29.2486 323.954 29.2486C323.869 29.2486 323.788 29.2135 323.729 29.152L321.696 27.0592C321.634 26.9963 321.599 26.9097 321.601 26.8199C321.602 26.7301 321.641 26.6448 321.706 26.5846ZM318.959 24.0035C321.755 21.3489 326.085 21.349 328.881 24.0035C328.944 24.0657 328.98 24.1513 328.98 24.2408C328.981 24.3303 328.947 24.4166 328.886 24.4801L327.711 25.692C327.59 25.8156 327.395 25.8181 327.271 25.6979C326.352 24.8492 325.158 24.3794 323.919 24.3795C322.681 24.38 321.488 24.8498 320.57 25.6979C320.446 25.8183 320.25 25.8157 320.129 25.692L318.955 24.4801C318.893 24.4166 318.859 24.3304 318.859 24.2408C318.86 24.1514 318.896 24.0657 318.959 24.0035ZM316.215 21.4273C320.503 17.2325 327.268 17.2326 331.557 21.4273C331.619 21.4897 331.654 21.5748 331.654 21.6637C331.655 21.7525 331.621 21.8379 331.56 21.901L330.384 23.1129C330.263 23.2372 330.065 23.2382 329.942 23.1158C328.309 21.5305 326.141 20.6463 323.887 20.6461C321.632 20.6461 319.463 21.5302 317.829 23.1158C317.706 23.2383 317.51 23.2371 317.389 23.1129L316.212 21.901C316.151 21.8379 316.117 21.7525 316.117 21.6637C316.118 21.5748 316.153 21.4896 316.215 21.4273Z" fill="black"/>
<path d="M301.495 21.0231C301.495 20.5183 301.904 20.1092 302.409 20.1092H303.323C303.828 20.1092 304.237 20.5183 304.237 21.0231V28.3347C304.237 28.8395 303.828 29.2487 303.323 29.2487H302.409C301.904 29.2487 301.495 28.8395 301.495 28.3347V21.0231Z" fill="black"/>
<path d="M306.065 19.1952C306.065 18.6904 306.474 18.2812 306.979 18.2812H307.893C308.397 18.2812 308.807 18.6904 308.807 19.1952V28.3347C308.807 28.8395 308.397 29.2487 307.893 29.2487H306.979C306.474 29.2487 306.065 28.8395 306.065 28.3347V19.1952Z" fill="black"/>
<path d="M296.925 24.2219C296.925 23.7172 297.334 23.308 297.839 23.308H298.753C299.258 23.308 299.667 23.7172 299.667 24.2219V28.3347C299.667 28.8395 299.258 29.2487 298.753 29.2487H297.839C297.334 29.2487 296.925 28.8395 296.925 28.3347V24.2219Z" fill="black"/>
<path d="M292.355 26.5068C292.355 26.0021 292.765 25.5929 293.269 25.5929H294.183C294.688 25.5929 295.097 26.0021 295.097 26.5068V28.3347C295.097 28.8395 294.688 29.2487 294.183 29.2487H293.269C292.765 29.2487 292.355 28.8395 292.355 28.3347V26.5068Z" fill="black"/>
<rect x="20" y="65" width="44" height="44" rx="15" fill="#F9F9F9"/>
<path d="M45 94L38 87L45 80" stroke="black" stroke-width="1.5" stroke-linecap="round" stroke-linejoin="round"/>
<rect x="90" y="83" width="30" height="8" rx="4" fill="#FF657D"/>
<rect x="123" y="83" width="30" height="8" rx="4" fill="#FFF3F4"/>
<rect x="156" y="83" width="30" height="8" rx="4" fill="#FFF3F4"/>
<rect x="189" y="83" width="30" height="8" rx="4" fill="#FFF3F4"/>
<rect x="222" y="83" width="30" height="8" rx="4" fill="#FFF3F4"/>
<rect x="255" y="83" width="30" height="8" rx="4" fill="#FFF3F4"/>
<rect x="288" y="83" width="30" height="8" rx="4" fill="#FFF3F4"/>
<path d="M347.441 92.5V82.82L347.745 83.012C347.596 83.332 347.361 83.636 347.041 83.924C346.721 84.2013 346.348 84.4413 345.921 84.644C345.495 84.8467 345.036 84.9907 344.545 85.076V83.076C344.972 83.012 345.404 82.8733 345.841 82.66C346.279 82.4467 346.673 82.196 347.025 81.908C347.377 81.6093 347.628 81.3 347.777 80.98H349.473V92.5H347.441ZM354.147 93.668L358.323 80.292H360.083L355.907 93.668H354.147ZM366.222 92.5C366.382 90.676 366.824 88.9053 367.55 87.188C368.275 85.4707 369.251 83.828 370.478 82.26L370.51 82.628H364.142V80.98H372.398V82.468C371.63 83.5773 370.968 84.676 370.414 85.764C369.87 86.8413 369.432 87.9347 369.102 89.044C368.782 90.1533 368.579 91.3053 368.494 92.5H366.222Z" fill="black"/>
<path d="M77.2388 158V139.94H70.1888V136.4H88.9088V139.94H81.8588V158H77.2388ZM95.1094 158.3C93.4094 158.3 91.9294 157.97 90.6694 157.31C89.4094 156.63 88.4294 155.69 87.7294 154.49C87.0494 153.29 86.7094 151.91 86.7094 150.35C86.7094 148.77 87.0494 147.39 87.7294 146.21C88.4294 145.01 89.3994 144.08 90.6394 143.42C91.8794 142.74 93.3194 142.4 94.9594 142.4C96.5394 142.4 97.9094 142.72 99.0694 143.36C100.229 144 101.129 144.89 101.769 146.03C102.409 147.17 102.729 148.51 102.729 150.05C102.729 150.37 102.719 150.67 102.699 150.95C102.679 151.21 102.649 151.46 102.609 151.7H89.3494V148.73H98.9794L98.1994 149.27C98.1994 148.03 97.8994 147.12 97.2994 146.54C96.7194 145.94 95.9194 145.64 94.8994 145.64C93.7194 145.64 92.7994 146.04 92.1394 146.84C91.4994 147.64 91.1794 148.84 91.1794 150.44C91.1794 152 91.4994 153.16 92.1394 153.92C92.7994 154.68 93.7794 155.06 95.0794 155.06C95.7994 155.06 96.4194 154.94 96.9394 154.7C97.4594 154.46 97.8494 154.07 98.1094 153.53H102.339C101.839 155.01 100.979 156.18 99.7594 157.04C98.5594 157.88 97.0094 158.3 95.1094 158.3ZM105.136 158V136.4H109.636V158H105.136ZM113.222 158V136.4H117.722V158H113.222ZM135.691 158.3C132.611 158.3 130.301 157.46 128.761 155.78C127.241 154.08 126.481 151.61 126.481 148.37V136.4H131.101V149.18C131.101 151.06 131.511 152.44 132.331 153.32C133.151 154.2 134.281 154.64 135.721 154.64C137.161 154.64 138.291 154.2 139.111 153.32C139.931 152.44 140.341 151.07 140.341 149.21V136.4H144.961V148.43C144.961 151.63 144.191 154.08 142.651 155.78C141.111 157.46 138.791 158.3 135.691 158.3ZM154.119 158.3C151.879 158.3 150.099 157.85 148.779 156.95C147.459 156.05 146.739 154.81 146.619 153.23H150.639C150.739 153.91 151.079 154.43 151.659 154.79C152.259 155.13 153.079 155.3 154.119 155.3C155.059 155.3 155.739 155.17 156.159 154.91C156.599 154.63 156.819 154.24 156.819 153.74C156.819 153.36 156.689 153.07 156.429 152.87C156.189 152.65 155.739 152.47 155.079 152.33L152.619 151.82C150.799 151.44 149.459 150.87 148.599 150.11C147.739 149.33 147.309 148.33 147.309 147.11C147.309 145.63 147.879 144.48 149.019 143.66C150.159 142.82 151.749 142.4 153.789 142.4C155.809 142.4 157.419 142.81 158.619 143.63C159.819 144.43 160.479 145.55 160.599 146.99H156.579C156.499 146.47 156.219 146.08 155.739 145.82C155.259 145.54 154.579 145.4 153.699 145.4C152.899 145.4 152.299 145.52 151.899 145.76C151.519 145.98 151.329 146.3 151.329 146.72C151.329 147.08 151.489 147.37 151.809 147.59C152.129 147.79 152.659 147.97 153.399 148.13L156.159 148.7C157.699 149.02 158.859 149.62 159.639 150.5C160.439 151.36 160.839 152.38 160.839 153.56C160.839 155.06 160.249 156.23 159.069 157.07C157.909 157.89 156.259 158.3 154.119 158.3ZM175.339 158V149.27L167.299 136.4H172.849L179.209 147.83H176.599L182.929 136.4H187.999L179.959 149.27V158H175.339ZM194.017 158.3C192.337 158.3 190.857 157.97 189.577 157.31C188.317 156.63 187.327 155.69 186.607 154.49C185.907 153.27 185.557 151.87 185.557 150.29C185.557 148.71 185.907 147.33 186.607 146.15C187.327 144.97 188.317 144.05 189.577 143.39C190.857 142.73 192.337 142.4 194.017 142.4C195.717 142.4 197.197 142.73 198.457 143.39C199.737 144.05 200.727 144.97 201.427 146.15C202.127 147.33 202.477 148.71 202.477 150.29C202.477 151.87 202.117 153.27 201.397 154.49C200.697 155.69 199.707 156.63 198.427 157.31C197.167 157.97 195.697 158.3 194.017 158.3ZM194.017 154.76C194.717 154.76 195.347 154.58 195.907 154.22C196.487 153.86 196.947 153.35 197.287 152.69C197.627 152.01 197.797 151.2 197.797 150.26C197.797 148.88 197.427 147.82 196.687 147.08C195.967 146.32 195.077 145.94 194.017 145.94C192.957 145.94 192.057 146.32 191.317 147.08C190.597 147.84 190.237 148.9 190.237 150.26C190.237 151.2 190.407 152.01 190.747 152.69C191.087 153.35 191.537 153.86 192.097 154.22C192.677 154.58 193.317 154.76 194.017 154.76ZM209.813 158.3C208.733 158.3 207.803 158.07 207.022 157.61C206.263 157.13 205.683 156.5 205.283 155.72C204.883 154.92 204.683 154.03 204.683 153.05V142.7H209.183V152.18C209.183 153.02 209.393 153.65 209.813 154.07C210.233 154.49 210.823 154.7 211.583 154.7C212.263 154.7 212.863 154.54 213.383 154.22C213.903 153.9 214.313 153.46 214.613 152.9C214.933 152.32 215.093 151.66 215.093 150.92L215.483 154.61C214.983 155.71 214.253 156.6 213.293 157.28C212.333 157.96 211.173 158.3 209.813 158.3ZM215.183 158V154.4H215.093V142.7H219.592V158H215.183ZM223.202 158V142.7H227.612V146.3H227.702V158H223.202ZM227.702 150.02L227.312 146.39C227.672 145.09 228.262 144.1 229.082 143.42C229.902 142.74 230.922 142.4 232.142 142.4C232.522 142.4 232.802 142.44 232.982 142.52V146.72C232.882 146.68 232.742 146.66 232.562 146.66C232.382 146.64 232.162 146.63 231.902 146.63C230.462 146.63 229.402 146.89 228.722 147.41C228.042 147.91 227.702 148.78 227.702 150.02ZM240.568 158V136.4H246.538L256.138 155.48L254.668 155.84V136.4H259.168V158H253.198L243.598 138.92L245.068 138.56V158H240.568ZM272.09 158C271.97 157.56 271.88 157.09 271.82 156.59C271.78 156.09 271.76 155.51 271.76 154.85H271.64V147.62C271.64 147 271.43 146.52 271.01 146.18C270.61 145.82 270.01 145.64 269.21 145.64C268.45 145.64 267.84 145.77 267.38 146.03C266.94 146.29 266.65 146.67 266.51 147.17H262.22C262.42 145.79 263.13 144.65 264.35 143.75C265.57 142.85 267.24 142.4 269.36 142.4C271.56 142.4 273.24 142.89 274.4 143.87C275.56 144.85 276.14 146.26 276.14 148.1V154.85C276.14 155.35 276.17 155.86 276.23 156.38C276.31 156.88 276.43 157.42 276.59 158H272.09ZM266.75 158.3C265.23 158.3 264.02 157.92 263.12 157.16C262.22 156.38 261.77 155.35 261.77 154.07C261.77 152.65 262.3 151.51 263.36 150.65C264.44 149.77 265.94 149.2 267.86 148.94L272.33 148.31V150.92L268.61 151.49C267.81 151.61 267.22 151.83 266.84 152.15C266.46 152.47 266.27 152.91 266.27 153.47C266.27 153.97 266.45 154.35 266.81 154.61C267.17 154.87 267.65 155 268.25 155C269.19 155 269.99 154.75 270.65 154.25C271.31 153.73 271.64 153.13 271.64 152.45L272.06 154.85C271.62 155.99 270.95 156.85 270.05 157.43C269.15 158.01 268.05 158.3 266.75 158.3ZM279.599 158V142.7H284.009V146.3H284.099V158H279.599ZM289.889 158V148.28C289.889 147.5 289.679 146.93 289.259 146.57C288.859 146.19 288.289 146 287.549 146C286.909 146 286.319 146.15 285.779 146.45C285.259 146.73 284.849 147.14 284.549 147.68C284.249 148.2 284.099 148.82 284.099 149.54L283.709 146.09C284.209 144.97 284.929 144.08 285.869 143.42C286.829 142.74 287.979 142.4 289.319 142.4C290.919 142.4 292.159 142.85 293.039 143.75C293.939 144.65 294.389 145.78 294.389 147.14V158H289.889ZM300.179 158V148.28C300.179 147.5 299.969 146.93 299.549 146.57C299.149 146.19 298.579 146 297.839 146C297.199 146 296.609 146.15 296.069 146.45C295.549 146.73 295.139 147.14 294.839 147.68C294.539 148.2 294.389 148.82 294.389 149.54L293.699 146.09C294.199 144.97 294.939 144.08 295.919 143.42C296.919 142.74 298.119 142.4 299.519 142.4C301.179 142.4 302.449 142.87 303.329 143.81C304.229 144.73 304.679 145.94 304.679 147.44V158H300.179ZM315.305 158.3C313.605 158.3 312.125 157.97 310.865 157.31C309.605 156.63 308.625 155.69 307.925 154.49C307.245 153.29 306.905 151.91 306.905 150.35C306.905 148.77 307.245 147.39 307.925 146.21C308.625 145.01 309.595 144.08 310.835 143.42C312.075 142.74 313.515 142.4 315.155 142.4C316.735 142.4 318.105 142.72 319.265 143.36C320.425 144 321.325 144.89 321.965 146.03C322.605 147.17 322.925 148.51 322.925 150.05C322.925 150.37 322.915 150.67 322.895 150.95C322.875 151.21 322.845 151.46 322.805 151.7H309.545V148.73H319.175L318.395 149.27C318.395 148.03 318.095 147.12 317.495 146.54C316.915 145.94 316.115 145.64 315.095 145.64C313.915 145.64 312.995 146.04 312.335 146.84C311.695 147.64 311.375 148.84 311.375 150.44C311.375 152 311.695 153.16 312.335 153.92C312.995 154.68 313.975 155.06 315.275 155.06C315.995 155.06 316.615 154.94 317.135 154.7C317.655 154.46 318.045 154.07 318.305 153.53H322.535C322.035 155.01 321.175 156.18 319.955 157.04C318.755 157.88 317.205 158.3 315.305 158.3Z" fill="black"/>
<rect x="20" y="766" width="353" height="52" rx="26" fill="#FF657D"/>
<path d="M167.787 797.66C166.966 797.66 166.209 797.516 165.515 797.228C164.833 796.929 164.235 796.513 163.723 795.98C163.211 795.447 162.817 794.817 162.539 794.092C162.262 793.367 162.123 792.572 162.123 791.708C162.123 790.844 162.262 790.055 162.539 789.34C162.817 788.625 163.206 788.007 163.707 787.484C164.219 786.951 164.817 786.54 165.499 786.252C166.193 785.964 166.955 785.82 167.787 785.82C168.705 785.82 169.531 786.001 170.267 786.364C171.003 786.727 171.606 787.239 172.075 787.9C172.555 788.551 172.849 789.319 172.955 790.204H170.907C170.779 789.34 170.433 788.679 169.867 788.22C169.302 787.751 168.614 787.516 167.803 787.516C167.089 787.516 166.465 787.687 165.931 788.028C165.398 788.369 164.982 788.855 164.683 789.484C164.385 790.103 164.235 790.839 164.235 791.692C164.235 792.567 164.385 793.324 164.683 793.964C164.982 794.593 165.403 795.084 165.947 795.436C166.491 795.788 167.115 795.964 167.819 795.964C168.609 795.964 169.286 795.735 169.851 795.276C170.417 794.807 170.774 794.145 170.923 793.292H172.987C172.859 794.167 172.555 794.935 172.075 795.596C171.606 796.257 171.003 796.769 170.267 797.132C169.531 797.484 168.705 797.66 167.787 797.66ZM178.237 797.66C177.373 797.66 176.61 797.479 175.949 797.116C175.298 796.753 174.792 796.252 174.429 795.612C174.066 794.961 173.885 794.22 173.885 793.388C173.885 792.556 174.066 791.825 174.429 791.196C174.792 790.567 175.298 790.076 175.949 789.724C176.61 789.361 177.373 789.18 178.237 789.18C179.112 789.18 179.874 789.361 180.525 789.724C181.176 790.076 181.682 790.567 182.045 791.196C182.408 791.825 182.589 792.556 182.589 793.388C182.589 794.22 182.402 794.961 182.029 795.612C181.666 796.252 181.16 796.753 180.509 797.116C179.858 797.479 179.101 797.66 178.237 797.66ZM178.237 796.044C178.664 796.044 179.048 795.937 179.389 795.724C179.73 795.5 179.997 795.191 180.189 794.796C180.381 794.391 180.477 793.916 180.477 793.372C180.477 792.572 180.264 791.943 179.837 791.484C179.421 791.025 178.888 790.796 178.237 790.796C177.586 790.796 177.048 791.025 176.621 791.484C176.194 791.943 175.981 792.572 175.981 793.372C175.981 793.916 176.077 794.391 176.269 794.796C176.472 795.191 176.738 795.5 177.069 795.724C177.41 795.937 177.8 796.044 178.237 796.044ZM184.072 797.5V789.34H186.04V791.26H186.088V797.5H184.072ZM189.8 797.5V792.348C189.8 791.847 189.672 791.468 189.416 791.212C189.16 790.956 188.787 790.828 188.296 790.828C187.869 790.828 187.485 790.924 187.144 791.116C186.813 791.308 186.552 791.575 186.36 791.916C186.179 792.257 186.088 792.652 186.088 793.1L185.88 791.148C186.157 790.551 186.563 790.076 187.096 789.724C187.629 789.361 188.269 789.18 189.016 789.18C189.901 789.18 190.589 789.431 191.08 789.932C191.581 790.433 191.832 791.1 191.832 791.932V797.5H189.8ZM197.236 797.66C196.233 797.66 195.492 797.425 195.012 796.956C194.543 796.476 194.308 795.761 194.308 794.812V787.484L196.34 786.732V794.86C196.34 795.255 196.447 795.548 196.66 795.74C196.873 795.932 197.209 796.028 197.668 796.028C197.849 796.028 198.009 796.017 198.148 795.996C198.297 795.964 198.436 795.927 198.564 795.884V797.452C198.436 797.516 198.255 797.564 198.02 797.596C197.785 797.639 197.524 797.66 197.236 797.66ZM192.74 790.924V789.34H198.564V790.924H192.74ZM200.025 797.5V789.34H202.041V797.5H200.025ZM199.929 787.996V785.772H202.121V787.996H199.929ZM204.181 797.5V789.34H206.149V791.26H206.197V797.5H204.181ZM209.909 797.5V792.348C209.909 791.847 209.781 791.468 209.525 791.212C209.269 790.956 208.896 790.828 208.405 790.828C207.979 790.828 207.595 790.924 207.253 791.116C206.923 791.308 206.661 791.575 206.469 791.916C206.288 792.257 206.197 792.652 206.197 793.1L205.989 791.148C206.267 790.551 206.672 790.076 207.205 789.724C207.739 789.361 208.379 789.18 209.125 789.18C210.011 789.18 210.699 789.431 211.189 789.932C211.691 790.433 211.941 791.1 211.941 791.932V797.5H209.909ZM216.431 797.66C215.865 797.66 215.375 797.543 214.959 797.308C214.553 797.063 214.239 796.732 214.015 796.316C213.801 795.9 213.695 795.431 213.695 794.908V789.34H215.711V794.492C215.711 794.993 215.833 795.372 216.079 795.628C216.335 795.884 216.692 796.012 217.151 796.012C217.567 796.012 217.929 795.916 218.239 795.724C218.559 795.532 218.809 795.265 218.991 794.924C219.183 794.572 219.279 794.177 219.279 793.74L219.487 795.692C219.22 796.289 218.82 796.769 218.287 797.132C217.764 797.484 217.145 797.66 216.431 797.66ZM219.343 797.5V795.58H219.279V789.34H221.311V797.5H219.343ZM227.064 797.66C226.2 797.66 225.443 797.479 224.792 797.116C224.152 796.753 223.651 796.252 223.288 795.612C222.936 794.972 222.76 794.236 222.76 793.404C222.76 792.572 222.936 791.841 223.288 791.212C223.651 790.572 224.152 790.076 224.792 789.724C225.432 789.361 226.179 789.18 227.032 789.18C227.843 789.18 228.547 789.351 229.144 789.692C229.741 790.023 230.205 790.492 230.536 791.1C230.867 791.708 231.032 792.417 231.032 793.228C231.032 793.377 231.027 793.516 231.016 793.644C231.005 793.772 230.989 793.9 230.968 794.028H224.008V792.62H229.416L229 793.004C229 792.236 228.824 791.66 228.472 791.276C228.12 790.892 227.629 790.7 227 790.7C226.317 790.7 225.773 790.935 225.368 791.404C224.973 791.873 224.776 792.551 224.776 793.436C224.776 794.311 224.973 794.983 225.368 795.452C225.773 795.911 226.344 796.14 227.08 796.14C227.507 796.14 227.88 796.06 228.2 795.9C228.52 795.74 228.755 795.495 228.904 795.164H230.808C230.541 795.932 230.088 796.54 229.448 796.988C228.819 797.436 228.024 797.66 227.064 797.66Z" fill="white"/>
<rect x="20" y="387" width="353" height="78" rx="15" fill="white"/>
<path d="M145.263 432V419.04H148.035V432H145.263ZM146.559 432V429.876H154.263V432H146.559ZM155.586 432V422.82H158.286V432H155.586ZM155.496 421.596V418.68H158.376V421.596H155.496ZM164.093 432.18C162.749 432.18 161.681 431.91 160.889 431.37C160.097 430.83 159.665 430.086 159.593 429.138H162.005C162.065 429.546 162.269 429.858 162.617 430.074C162.977 430.278 163.469 430.38 164.093 430.38C164.657 430.38 165.065 430.302 165.317 430.146C165.581 429.978 165.713 429.744 165.713 429.444C165.713 429.216 165.635 429.042 165.479 428.922C165.335 428.79 165.065 428.682 164.669 428.598L163.193 428.292C162.101 428.064 161.297 427.722 160.781 427.266C160.265 426.798 160.007 426.198 160.007 425.466C160.007 424.578 160.349 423.888 161.033 423.396C161.717 422.892 162.671 422.64 163.895 422.64C165.107 422.64 166.073 422.886 166.793 423.378C167.513 423.858 167.909 424.53 167.981 425.394H165.569C165.521 425.082 165.353 424.848 165.065 424.692C164.777 424.524 164.369 424.44 163.841 424.44C163.361 424.44 163.001 424.512 162.761 424.656C162.533 424.788 162.419 424.98 162.419 425.232C162.419 425.448 162.515 425.622 162.707 425.754C162.899 425.874 163.217 425.982 163.661 426.078L165.317 426.42C166.241 426.612 166.937 426.972 167.405 427.5C167.885 428.016 168.125 428.628 168.125 429.336C168.125 430.236 167.771 430.938 167.063 431.442C166.367 431.934 165.377 432.18 164.093 432.18ZM175.321 432C175.249 431.736 175.195 431.454 175.159 431.154C175.135 430.854 175.123 430.506 175.123 430.11H175.051V425.772C175.051 425.4 174.925 425.112 174.673 424.908C174.433 424.692 174.073 424.584 173.593 424.584C173.137 424.584 172.771 424.662 172.495 424.818C172.231 424.974 172.057 425.202 171.973 425.502H169.399C169.519 424.674 169.945 423.99 170.677 423.45C171.409 422.91 172.411 422.64 173.683 422.64C175.003 422.64 176.011 422.934 176.707 423.522C177.403 424.11 177.751 424.956 177.751 426.06V430.11C177.751 430.41 177.769 430.716 177.805 431.028C177.853 431.328 177.925 431.652 178.021 432H175.321ZM172.117 432.18C171.205 432.18 170.479 431.952 169.939 431.496C169.399 431.028 169.129 430.41 169.129 429.642C169.129 428.79 169.447 428.106 170.083 427.59C170.731 427.062 171.631 426.72 172.783 426.564L175.465 426.186V427.752L173.233 428.094C172.753 428.166 172.399 428.298 172.171 428.49C171.943 428.682 171.829 428.946 171.829 429.282C171.829 429.582 171.937 429.81 172.153 429.966C172.369 430.122 172.657 430.2 173.017 430.2C173.581 430.2 174.061 430.05 174.457 429.75C174.853 429.438 175.051 429.078 175.051 428.67L175.303 430.11C175.039 430.794 174.637 431.31 174.097 431.658C173.557 432.006 172.897 432.18 172.117 432.18ZM186.836 432V421.164H182.606V419.04H193.838V421.164H189.608V432H186.836ZM192.799 432V429.03H195.769V432H192.799ZM201.179 432V419.04H207.335C208.295 419.04 209.117 419.208 209.801 419.544C210.497 419.88 211.031 420.348 211.403 420.948C211.787 421.548 211.979 422.25 211.979 423.054C211.979 423.858 211.787 424.566 211.403 425.178C211.019 425.79 210.479 426.27 209.783 426.618C209.099 426.954 208.283 427.122 207.335 427.122H203.375V424.998H207.191C207.827 424.998 208.319 424.824 208.667 424.476C209.027 424.116 209.207 423.648 209.207 423.072C209.207 422.496 209.027 422.034 208.667 421.686C208.319 421.338 207.827 421.164 207.191 421.164H203.951V432H201.179ZM217.316 432.18C216.296 432.18 215.408 431.982 214.652 431.586C213.896 431.178 213.308 430.614 212.888 429.894C212.48 429.174 212.276 428.346 212.276 427.41C212.276 426.462 212.48 425.634 212.888 424.926C213.308 424.206 213.89 423.648 214.634 423.252C215.378 422.844 216.242 422.64 217.226 422.64C218.174 422.64 218.996 422.832 219.692 423.216C220.388 423.6 220.928 424.134 221.312 424.818C221.696 425.502 221.888 426.306 221.888 427.23C221.888 427.422 221.882 427.602 221.87 427.77C221.858 427.926 221.84 428.076 221.816 428.22H213.86V426.438H219.638L219.17 426.762C219.17 426.018 218.99 425.472 218.63 425.124C218.282 424.764 217.802 424.584 217.19 424.584C216.482 424.584 215.93 424.824 215.534 425.304C215.15 425.784 214.958 426.504 214.958 427.464C214.958 428.4 215.15 429.096 215.534 429.552C215.93 430.008 216.518 430.236 217.298 430.236C217.73 430.236 218.102 430.164 218.414 430.02C218.726 429.876 218.96 429.642 219.116 429.318H221.654C221.354 430.206 220.838 430.908 220.106 431.424C219.386 431.928 218.456 432.18 217.316 432.18ZM223.332 432V422.82H225.978V424.98H226.032V432H223.332ZM226.032 427.212L225.798 425.034C226.014 424.254 226.368 423.66 226.86 423.252C227.352 422.844 227.964 422.64 228.696 422.64C228.924 422.64 229.092 422.664 229.2 422.712V425.232C229.14 425.208 229.056 425.196 228.948 425.196C228.84 425.184 228.708 425.178 228.552 425.178C227.688 425.178 227.052 425.334 226.644 425.646C226.236 425.946 226.032 426.468 226.032 427.212ZM234.683 432.18C233.663 432.18 232.775 431.982 232.019 431.586C231.263 431.178 230.675 430.614 230.255 429.894C229.847 429.174 229.643 428.346 229.643 427.41C229.643 426.462 229.847 425.634 230.255 424.926C230.675 424.206 231.257 423.648 232.001 423.252C232.745 422.844 233.609 422.64 234.593 422.64C235.541 422.64 236.363 422.832 237.059 423.216C237.755 423.6 238.295 424.134 238.679 424.818C239.063 425.502 239.255 426.306 239.255 427.23C239.255 427.422 239.249 427.602 239.237 427.77C239.225 427.926 239.207 428.076 239.183 428.22H231.227V426.438H237.005L236.537 426.762C236.537 426.018 236.357 425.472 235.997 425.124C235.649 424.764 235.169 424.584 234.557 424.584C233.849 424.584 233.297 424.824 232.901 425.304C232.517 425.784 232.325 426.504 232.325 427.464C232.325 428.4 232.517 429.096 232.901 429.552C233.297 430.008 233.885 430.236 234.665 430.236C235.097 430.236 235.469 430.164 235.781 430.02C236.093 429.876 236.327 429.642 236.483 429.318H239.021C238.721 430.206 238.205 430.908 237.473 431.424C236.753 431.928 235.823 432.18 234.683 432.18ZM240.024 432V430.128L245.136 423.918L245.676 424.872H240.168V422.82H247.836V424.692L242.832 430.776L242.328 429.948H247.908V432H240.024Z" fill="black"/>
</g>
<defs>
<linearGradient id="paint0_linear_231_12665" x1="196.5" y1="0" x2="196.5" y2="852" gradientUnits="userSpaceOnUse">
<stop stop-color="white"/>
<stop offset="1" stop-color="#FFF0F2"/>
</linearGradient>
<clipPath id="clip0_231_12665">
<rect width="393" height="852" rx="40" fill="white"/>
</clipPath>
</defs>
</svg>