<svg xmlns="http://www.w3.org/2000/svg" width="393" height="852" viewBox="0 0 393 852" fill="none">
<g clip-path="url(#clip0_231_12676)">
<rect width="393" height="852" rx="40" fill="url(#paint0_linear_231_12676)"/>
<rect x="130" y="839" width="134" height="5" rx="2.5" fill="black"/>
<path d="M45.4795 26.0597C44.4644 26.0597 43.6358 25.7438 42.9936 25.1119C42.3617 24.4697 42.0458 23.61 42.0458 22.5327C42.0458 22.0356 42.1183 21.5591 42.2633 21.1033C42.4187 20.6476 42.6466 20.2488 42.947 19.907C43.2474 19.5548 43.6151 19.2803 44.0501 19.0835C44.4955 18.8867 44.9979 18.7883 45.5572 18.7883C46.3755 18.7883 47.0436 18.9592 47.5615 19.301C48.0898 19.6325 48.4834 20.0572 48.7424 20.5751C49.0013 21.093 49.1722 21.6264 49.2551 22.1754C49.3379 22.7244 49.3794 23.2837 49.3794 23.8534C49.3794 24.3299 49.3379 24.884 49.2551 25.5159C49.1826 26.1374 49.0168 26.8003 48.7579 27.5047C48.4989 28.1986 48.095 28.7891 47.546 29.2759C46.997 29.7627 46.2875 30.0061 45.4174 30.0061C44.8166 30.0061 44.3039 29.9077 43.8792 29.7109C43.4545 29.5245 43.1179 29.2811 42.8693 28.9807C42.6207 28.6699 42.4394 28.354 42.3255 28.0329C42.2219 27.7015 42.1701 27.3855 42.1701 27.0851H43.5374C43.5788 27.6445 43.7601 28.0847 44.0812 28.4058C44.4023 28.7166 44.8373 28.8719 45.3863 28.8719C46.1321 28.8719 46.7122 28.5456 47.1265 27.8931C47.5512 27.2405 47.8464 26.2047 48.0121 24.7856L47.981 24.7546C47.7842 25.1585 47.4476 25.4796 46.9711 25.7179C46.505 25.9458 46.0078 26.0597 45.4795 26.0597ZM45.6815 24.8323C45.899 24.8323 46.1217 24.8012 46.3496 24.739C46.5879 24.6665 46.8157 24.5422 47.0333 24.3661C47.2508 24.19 47.4269 23.9363 47.5615 23.6048C47.7065 23.2734 47.779 22.8538 47.779 22.3463C47.779 21.673 47.5926 21.1189 47.2197 20.6838C46.8572 20.2384 46.3082 20.0157 45.5728 20.0157C44.9409 20.0157 44.4282 20.2436 44.0346 20.6994C43.6513 21.1448 43.4597 21.7352 43.4597 22.4706C43.4597 22.9678 43.527 23.3769 43.6617 23.698C43.7963 24.0088 43.9724 24.247 44.1899 24.4127C44.4178 24.5785 44.6561 24.6924 44.9047 24.7546C45.1533 24.8064 45.4122 24.8323 45.6815 24.8323ZM52.6214 28.064V29.7109H51.0056V28.064H52.6214ZM52.6214 21.6937V23.3407H51.0056V21.6937H52.6214ZM61.7312 27.0541H60.1309V29.7109H58.7636V27.0541H53.9937V25.7179L58.9967 18.7883H60.1309V25.8732H61.7312V27.0541ZM58.7325 20.9169L55.2522 25.8732H58.7636V20.9169H58.7325ZM67.4437 18.7883V29.7109H65.9832V21.9579H63.4351V20.8703C63.9426 20.8392 64.3466 20.7926 64.647 20.7304C64.9474 20.6683 65.2063 20.5699 65.4239 20.4352C65.6414 20.3006 65.8278 20.1038 65.9832 19.8448C66.1386 19.5859 66.268 19.2337 66.3716 18.7883H67.4437Z" fill="black"/>
<path opacity="0.35" d="M341.709 17.8496H357.246C358.999 17.8498 360.419 19.2708 360.419 21.0234V25.5928C360.419 27.3454 358.999 28.7664 357.246 28.7666H341.709C339.956 28.7666 338.535 27.3455 338.535 25.5928V21.0234C338.535 19.2707 339.956 17.8496 341.709 17.8496Z" fill="black" stroke="black" stroke-width="0.9643"/>
<path opacity="0.4" d="M361.816 21.9375V25.7947C362.592 25.468 363.097 24.7081 363.097 23.8661C363.097 23.0241 362.592 22.2642 361.816 21.9375Z" fill="black"/>
<path d="M339.881 21.0232C339.881 20.0137 340.699 19.1953 341.709 19.1953H357.246C358.255 19.1953 359.074 20.0137 359.074 21.0232V25.593C359.074 26.6025 358.256 27.4209 357.246 27.4209H341.709C340.699 27.4209 339.881 26.6025 339.881 25.593V21.0232Z" fill="black"/>
<path d="M321.706 26.5846C323.004 25.4642 324.904 25.4642 326.202 26.5846C326.267 26.6448 326.305 26.7302 326.307 26.8199C326.308 26.9096 326.275 26.9963 326.212 27.0592L324.18 29.152C324.12 29.2134 324.039 29.2486 323.954 29.2486C323.869 29.2486 323.788 29.2135 323.729 29.152L321.696 27.0592C321.634 26.9963 321.599 26.9097 321.601 26.8199C321.602 26.7301 321.641 26.6448 321.706 26.5846ZM318.959 24.0035C321.755 21.3489 326.085 21.349 328.881 24.0035C328.944 24.0657 328.98 24.1513 328.98 24.2408C328.981 24.3303 328.947 24.4166 328.886 24.4801L327.711 25.692C327.59 25.8156 327.395 25.8181 327.271 25.6979C326.352 24.8492 325.158 24.3794 323.919 24.3795C322.681 24.38 321.488 24.8498 320.57 25.6979C320.446 25.8183 320.25 25.8157 320.129 25.692L318.955 24.4801C318.893 24.4166 318.859 24.3304 318.859 24.2408C318.86 24.1514 318.896 24.0657 318.959 24.0035ZM316.215 21.4273C320.503 17.2325 327.268 17.2326 331.557 21.4273C331.619 21.4897 331.654 21.5748 331.654 21.6637C331.655 21.7525 331.621 21.8379 331.56 21.901L330.384 23.1129C330.263 23.2372 330.065 23.2382 329.942 23.1158C328.309 21.5305 326.141 20.6463 323.887 20.6461C321.632 20.6461 319.463 21.5302 317.829 23.1158C317.706 23.2383 317.51 23.2371 317.389 23.1129L316.212 21.901C316.151 21.8379 316.117 21.7525 316.117 21.6637C316.118 21.5748 316.153 21.4896 316.215 21.4273Z" fill="black"/>
<path d="M301.495 21.0231C301.495 20.5183 301.904 20.1092 302.409 20.1092H303.323C303.828 20.1092 304.237 20.5183 304.237 21.0231V28.3347C304.237 28.8395 303.828 29.2487 303.323 29.2487H302.409C301.904 29.2487 301.495 28.8395 301.495 28.3347V21.0231Z" fill="black"/>
<path d="M306.065 19.1952C306.065 18.6904 306.474 18.2812 306.979 18.2812H307.893C308.397 18.2812 308.807 18.6904 308.807 19.1952V28.3347C308.807 28.8395 308.397 29.2487 307.893 29.2487H306.979C306.474 29.2487 306.065 28.8395 306.065 28.3347V19.1952Z" fill="black"/>
<path d="M296.925 24.2219C296.925 23.7172 297.334 23.308 297.839 23.308H298.753C299.258 23.308 299.667 23.7172 299.667 24.2219V28.3347C299.667 28.8395 299.258 29.2487 298.753 29.2487H297.839C297.334 29.2487 296.925 28.8395 296.925 28.3347V24.2219Z" fill="black"/>
<path d="M292.355 26.5068C292.355 26.0021 292.765 25.5929 293.269 25.5929H294.183C294.688 25.5929 295.097 26.0021 295.097 26.5068V28.3347C295.097 28.8395 294.688 29.2487 294.183 29.2487H293.269C292.765 29.2487 292.355 28.8395 292.355 28.3347V26.5068Z" fill="black"/>
<rect x="20" y="65" width="44" height="44" rx="15" fill="#F9F9F9"/>
<path d="M45 94L38 87L45 80" stroke="black" stroke-width="1.5" stroke-linecap="round" stroke-linejoin="round"/>
<rect x="89" y="83" width="30" height="8" rx="4" fill="#FFF3F4"/>
<rect x="122" y="83" width="30" height="8" rx="4" fill="#FF657D"/>
<rect x="155" y="83" width="30" height="8" rx="4" fill="#FFF3F4"/>
<rect x="188" y="83" width="30" height="8" rx="4" fill="#FFF3F4"/>
<rect x="221" y="83" width="30" height="8" rx="4" fill="#FFF3F4"/>
<rect x="254" y="83" width="30" height="8" rx="4" fill="#FFF3F4"/>
<rect x="287" y="83" width="30" height="8" rx="4" fill="#FFF3F4"/>
<path d="M342.894 92.5V90.852C343.982 89.956 344.889 89.1827 345.614 88.532C346.35 87.8707 346.937 87.2893 347.374 86.788C347.811 86.2867 348.121 85.828 348.302 85.412C348.494 84.9853 348.59 84.5693 348.59 84.164C348.59 83.6307 348.441 83.2147 348.142 82.916C347.843 82.6173 347.427 82.468 346.894 82.468C346.339 82.468 345.886 82.6333 345.534 82.964C345.182 83.284 344.969 83.7373 344.894 84.324H342.782C342.899 83.2467 343.331 82.3933 344.078 81.764C344.825 81.1347 345.795 80.82 346.99 80.82C348.174 80.82 349.102 81.1293 349.774 81.748C350.457 82.356 350.798 83.204 350.798 84.292C350.798 84.836 350.702 85.364 350.51 85.876C350.329 86.3773 350.019 86.9053 349.582 87.46C349.155 88.004 348.579 88.6067 347.854 89.268C347.139 89.9187 346.243 90.66 345.166 91.492L344.67 90.852H351.006V92.5H342.894ZM355.006 93.668L359.182 80.292H360.942L356.766 93.668H355.006ZM367.081 92.5C367.241 90.676 367.684 88.9053 368.409 87.188C369.135 85.4707 370.111 83.828 371.337 82.26L371.369 82.628H365.001V80.98H373.257V82.468C372.489 83.5773 371.828 84.676 371.273 85.764C370.729 86.8413 370.292 87.9347 369.961 89.044C369.641 90.1533 369.439 91.3053 369.353 92.5H367.081Z" fill="black"/>
<path d="M58.9009 158V139.94H51.8509V136.4H70.5709V139.94H63.5209V158H58.9009ZM76.7715 158.3C75.0715 158.3 73.5915 157.97 72.3315 157.31C71.0715 156.63 70.0915 155.69 69.3915 154.49C68.7115 153.29 68.3715 151.91 68.3715 150.35C68.3715 148.77 68.7115 147.39 69.3915 146.21C70.0915 145.01 71.0615 144.08 72.3015 143.42C73.5415 142.74 74.9815 142.4 76.6215 142.4C78.2015 142.4 79.5715 142.72 80.7315 143.36C81.8915 144 82.7915 144.89 83.4315 146.03C84.0715 147.17 84.3915 148.51 84.3915 150.05C84.3915 150.37 84.3815 150.67 84.3615 150.95C84.3415 151.21 84.3115 151.46 84.2715 151.7H71.0115V148.73H80.6415L79.8615 149.27C79.8615 148.03 79.5615 147.12 78.9615 146.54C78.3815 145.94 77.5815 145.64 76.5615 145.64C75.3815 145.64 74.4615 146.04 73.8015 146.84C73.1615 147.64 72.8415 148.84 72.8415 150.44C72.8415 152 73.1615 153.16 73.8015 153.92C74.4615 154.68 75.4415 155.06 76.7415 155.06C77.4615 155.06 78.0815 154.94 78.6015 154.7C79.1215 154.46 79.5115 154.07 79.7715 153.53H84.0015C83.5015 155.01 82.6415 156.18 81.4215 157.04C80.2215 157.88 78.6715 158.3 76.7715 158.3ZM86.798 158V136.4H91.298V158H86.798ZM94.884 158V136.4H99.384V158H94.884ZM117.353 158.3C114.273 158.3 111.963 157.46 110.423 155.78C108.903 154.08 108.143 151.61 108.143 148.37V136.4H112.763V149.18C112.763 151.06 113.173 152.44 113.993 153.32C114.813 154.2 115.943 154.64 117.383 154.64C118.823 154.64 119.953 154.2 120.773 153.32C121.593 152.44 122.003 151.07 122.003 149.21V136.4H126.623V148.43C126.623 151.63 125.853 154.08 124.313 155.78C122.773 157.46 120.453 158.3 117.353 158.3ZM135.781 158.3C133.541 158.3 131.761 157.85 130.441 156.95C129.121 156.05 128.401 154.81 128.281 153.23H132.301C132.401 153.91 132.741 154.43 133.321 154.79C133.921 155.13 134.741 155.3 135.781 155.3C136.721 155.3 137.401 155.17 137.821 154.91C138.261 154.63 138.481 154.24 138.481 153.74C138.481 153.36 138.351 153.07 138.091 152.87C137.851 152.65 137.401 152.47 136.741 152.33L134.281 151.82C132.461 151.44 131.121 150.87 130.261 150.11C129.401 149.33 128.971 148.33 128.971 147.11C128.971 145.63 129.541 144.48 130.681 143.66C131.821 142.82 133.411 142.4 135.451 142.4C137.471 142.4 139.081 142.81 140.281 143.63C141.481 144.43 142.141 145.55 142.261 146.99H138.241C138.161 146.47 137.881 146.08 137.401 145.82C136.921 145.54 136.241 145.4 135.361 145.4C134.561 145.4 133.961 145.52 133.561 145.76C133.181 145.98 132.991 146.3 132.991 146.72C132.991 147.08 133.151 147.37 133.471 147.59C133.791 147.79 134.321 147.97 135.061 148.13L137.821 148.7C139.361 149.02 140.521 149.62 141.301 150.5C142.101 151.36 142.501 152.38 142.501 153.56C142.501 155.06 141.911 156.23 140.731 157.07C139.571 157.89 137.921 158.3 135.781 158.3ZM157.001 158V149.27L148.961 136.4H154.511L160.871 147.83H158.261L164.591 136.4H169.661L161.621 149.27V158H157.001ZM175.679 158.3C173.999 158.3 172.519 157.97 171.239 157.31C169.979 156.63 168.989 155.69 168.269 154.49C167.569 153.27 167.219 151.87 167.219 150.29C167.219 148.71 167.569 147.33 168.269 146.15C168.989 144.97 169.979 144.05 171.239 143.39C172.519 142.73 173.999 142.4 175.679 142.4C177.379 142.4 178.859 142.73 180.119 143.39C181.399 144.05 182.389 144.97 183.089 146.15C183.789 147.33 184.139 148.71 184.139 150.29C184.139 151.87 183.779 153.27 183.059 154.49C182.359 155.69 181.369 156.63 180.089 157.31C178.829 157.97 177.359 158.3 175.679 158.3ZM175.679 154.76C176.379 154.76 177.009 154.58 177.569 154.22C178.149 153.86 178.609 153.35 178.949 152.69C179.289 152.01 179.459 151.2 179.459 150.26C179.459 148.88 179.089 147.82 178.349 147.08C177.629 146.32 176.739 145.94 175.679 145.94C174.619 145.94 173.719 146.32 172.979 147.08C172.259 147.84 171.899 148.9 171.899 150.26C171.899 151.2 172.069 152.01 172.409 152.69C172.749 153.35 173.199 153.86 173.759 154.22C174.339 154.58 174.979 154.76 175.679 154.76ZM191.475 158.3C190.395 158.3 189.465 158.07 188.685 157.61C187.925 157.13 187.345 156.5 186.945 155.72C186.545 154.92 186.345 154.03 186.345 153.05V142.7H190.845V152.18C190.845 153.02 191.055 153.65 191.475 154.07C191.895 154.49 192.485 154.7 193.245 154.7C193.925 154.7 194.525 154.54 195.045 154.22C195.565 153.9 195.975 153.46 196.275 152.9C196.595 152.32 196.755 151.66 196.755 150.92L197.145 154.61C196.645 155.71 195.915 156.6 194.955 157.28C193.995 157.96 192.835 158.3 191.475 158.3ZM196.845 158V154.4H196.755V142.7H201.255V158H196.845ZM204.864 158V142.7H209.274V146.3H209.364V158H204.864ZM209.364 150.02L208.974 146.39C209.334 145.09 209.924 144.1 210.744 143.42C211.564 142.74 212.584 142.4 213.804 142.4C214.184 142.4 214.464 142.44 214.644 142.52V146.72C214.544 146.68 214.404 146.66 214.224 146.66C214.044 146.64 213.824 146.63 213.564 146.63C212.124 146.63 211.064 146.89 210.384 147.41C209.704 147.91 209.364 148.78 209.364 150.02ZM226.01 158V154.7H231.59C232.59 154.7 233.34 154.43 233.84 153.89C234.36 153.33 234.62 152.56 234.62 151.58C234.62 150.58 234.34 149.79 233.78 149.21C233.24 148.63 232.46 148.34 231.44 148.34H226.01V145.04H231.2C232.14 145.04 232.85 144.82 233.33 144.38C233.83 143.92 234.08 143.25 234.08 142.37C234.08 141.49 233.84 140.83 233.36 140.39C232.9 139.93 232.21 139.7 231.29 139.7H226.01V136.4H232.28C234.2 136.4 235.75 136.89 236.93 137.87C238.11 138.85 238.7 140.18 238.7 141.86C238.7 142.92 238.45 143.83 237.95 144.59C237.45 145.35 236.78 145.93 235.94 146.33C235.1 146.73 234.16 146.93 233.12 146.93L233.27 146.3C234.39 146.3 235.4 146.54 236.3 147.02C237.22 147.5 237.95 148.18 238.49 149.06C239.03 149.92 239.3 150.94 239.3 152.12C239.3 153.3 239.02 154.34 238.46 155.24C237.92 156.12 237.15 156.8 236.15 157.28C235.17 157.76 234.01 158 232.67 158H226.01ZM222.23 158V136.4H226.85V158H222.23ZM241.779 158V142.7H246.279V158H241.779ZM241.629 140.66V135.8H246.429V140.66H241.629ZM249.864 158V142.7H254.274V146.3H254.364V158H249.864ZM254.364 150.02L253.974 146.39C254.334 145.09 254.924 144.1 255.744 143.42C256.564 142.74 257.584 142.4 258.804 142.4C259.184 142.4 259.464 142.44 259.644 142.52V146.72C259.544 146.68 259.404 146.66 259.224 146.66C259.044 146.64 258.824 146.63 258.564 146.63C257.124 146.63 256.064 146.89 255.384 147.41C254.704 147.91 254.364 148.78 254.364 150.02ZM269.458 158.33C267.498 158.33 266.038 157.86 265.078 156.92C264.138 155.96 263.668 154.51 263.668 152.57V139.28L268.168 137.6V152.72C268.168 153.4 268.358 153.91 268.738 154.25C269.118 154.59 269.708 154.76 270.508 154.76C270.808 154.76 271.088 154.73 271.348 154.67C271.608 154.61 271.868 154.54 272.128 154.46V157.88C271.868 158.02 271.498 158.13 271.018 158.21C270.558 158.29 270.038 158.33 269.458 158.33ZM260.818 146.12V142.7H272.128V146.12H260.818ZM274.825 158V136.4H279.325V158H274.825ZM285.475 158V148.52C285.475 147.68 285.255 147.05 284.815 146.63C284.395 146.21 283.775 146 282.955 146C282.255 146 281.625 146.16 281.065 146.48C280.525 146.8 280.095 147.24 279.775 147.8C279.475 148.36 279.325 149.02 279.325 149.78L278.935 146.09C279.435 144.97 280.165 144.08 281.125 143.42C282.105 142.74 283.305 142.4 284.725 142.4C286.425 142.4 287.725 142.88 288.625 143.84C289.525 144.78 289.975 146.05 289.975 147.65V158H285.475ZM304.23 158V154.61L304.53 154.67C304.33 155.77 303.73 156.65 302.73 157.31C301.75 157.97 300.57 158.3 299.19 158.3C297.79 158.3 296.57 157.98 295.53 157.34C294.51 156.68 293.72 155.76 293.16 154.58C292.6 153.4 292.32 152.01 292.32 150.41C292.32 148.79 292.61 147.38 293.19 146.18C293.77 144.98 294.58 144.05 295.62 143.39C296.68 142.73 297.91 142.4 299.31 142.4C300.77 142.4 301.95 142.74 302.85 143.42C303.77 144.1 304.31 145.03 304.47 146.21L304.14 146.24V136.4H308.64V158H304.23ZM300.63 154.7C301.69 154.7 302.55 154.33 303.21 153.59C303.87 152.83 304.2 151.75 304.2 150.35C304.2 148.95 303.86 147.88 303.18 147.14C302.52 146.38 301.65 146 300.57 146C299.53 146 298.67 146.38 297.99 147.14C297.33 147.9 297 148.98 297 150.38C297 151.78 297.33 152.85 297.99 153.59C298.67 154.33 299.55 154.7 300.63 154.7ZM321.868 158C321.748 157.56 321.658 157.09 321.598 156.59C321.558 156.09 321.538 155.51 321.538 154.85H321.418V147.62C321.418 147 321.208 146.52 320.788 146.18C320.388 145.82 319.788 145.64 318.988 145.64C318.228 145.64 317.618 145.77 317.158 146.03C316.718 146.29 316.428 146.67 316.288 147.17H311.998C312.198 145.79 312.908 144.65 314.128 143.75C315.348 142.85 317.018 142.4 319.138 142.4C321.338 142.4 323.018 142.89 324.178 143.87C325.338 144.85 325.918 146.26 325.918 148.1V154.85C325.918 155.35 325.948 155.86 326.008 156.38C326.088 156.88 326.208 157.42 326.368 158H321.868ZM316.528 158.3C315.008 158.3 313.798 157.92 312.898 157.16C311.998 156.38 311.548 155.35 311.548 154.07C311.548 152.65 312.078 151.51 313.138 150.65C314.218 149.77 315.718 149.2 317.638 148.94L322.108 148.31V150.92L318.388 151.49C317.588 151.61 316.998 151.83 316.618 152.15C316.238 152.47 316.048 152.91 316.048 153.47C316.048 153.97 316.228 154.35 316.588 154.61C316.948 154.87 317.428 155 318.028 155C318.968 155 319.768 154.75 320.428 154.25C321.088 153.73 321.418 153.13 321.418 152.45L321.838 154.85C321.398 155.99 320.728 156.85 319.828 157.43C318.928 158.01 317.828 158.3 316.528 158.3ZM329.16 164.15L333.39 154.79L334.17 153.5L338.13 142.7H342.93L333.66 164.15H329.16ZM332.4 157.7L326.52 142.7H331.38L336.21 156.38L332.4 157.7Z" fill="black"/>
<rect x="20" y="766" width="353" height="52" rx="26" fill="#FF657D"/>
<path d="M167.787 797.66C166.966 797.66 166.209 797.516 165.515 797.228C164.833 796.929 164.235 796.513 163.723 795.98C163.211 795.447 162.817 794.817 162.539 794.092C162.262 793.367 162.123 792.572 162.123 791.708C162.123 790.844 162.262 790.055 162.539 789.34C162.817 788.625 163.206 788.007 163.707 787.484C164.219 786.951 164.817 786.54 165.499 786.252C166.193 785.964 166.955 785.82 167.787 785.82C168.705 785.82 169.531 786.001 170.267 786.364C171.003 786.727 171.606 787.239 172.075 787.9C172.555 788.551 172.849 789.319 172.955 790.204H170.907C170.779 789.34 170.433 788.679 169.867 788.22C169.302 787.751 168.614 787.516 167.803 787.516C167.089 787.516 166.465 787.687 165.931 788.028C165.398 788.369 164.982 788.855 164.683 789.484C164.385 790.103 164.235 790.839 164.235 791.692C164.235 792.567 164.385 793.324 164.683 793.964C164.982 794.593 165.403 795.084 165.947 795.436C166.491 795.788 167.115 795.964 167.819 795.964C168.609 795.964 169.286 795.735 169.851 795.276C170.417 794.807 170.774 794.145 170.923 793.292H172.987C172.859 794.167 172.555 794.935 172.075 795.596C171.606 796.257 171.003 796.769 170.267 797.132C169.531 797.484 168.705 797.66 167.787 797.66ZM178.237 797.66C177.373 797.66 176.61 797.479 175.949 797.116C175.298 796.753 174.792 796.252 174.429 795.612C174.066 794.961 173.885 794.22 173.885 793.388C173.885 792.556 174.066 791.825 174.429 791.196C174.792 790.567 175.298 790.076 175.949 789.724C176.61 789.361 177.373 789.18 178.237 789.18C179.112 789.18 179.874 789.361 180.525 789.724C181.176 790.076 181.682 790.567 182.045 791.196C182.408 791.825 182.589 792.556 182.589 793.388C182.589 794.22 182.402 794.961 182.029 795.612C181.666 796.252 181.16 796.753 180.509 797.116C179.858 797.479 179.101 797.66 178.237 797.66ZM178.237 796.044C178.664 796.044 179.048 795.937 179.389 795.724C179.73 795.5 179.997 795.191 180.189 794.796C180.381 794.391 180.477 793.916 180.477 793.372C180.477 792.572 180.264 791.943 179.837 791.484C179.421 791.025 178.888 790.796 178.237 790.796C177.586 790.796 177.048 791.025 176.621 791.484C176.194 791.943 175.981 792.572 175.981 793.372C175.981 793.916 176.077 794.391 176.269 794.796C176.472 795.191 176.738 795.5 177.069 795.724C177.41 795.937 177.8 796.044 178.237 796.044ZM184.072 797.5V789.34H186.04V791.26H186.088V797.5H184.072ZM189.8 797.5V792.348C189.8 791.847 189.672 791.468 189.416 791.212C189.16 790.956 188.787 790.828 188.296 790.828C187.869 790.828 187.485 790.924 187.144 791.116C186.813 791.308 186.552 791.575 186.36 791.916C186.179 792.257 186.088 792.652 186.088 793.1L185.88 791.148C186.157 790.551 186.563 790.076 187.096 789.724C187.629 789.361 188.269 789.18 189.016 789.18C189.901 789.18 190.589 789.431 191.08 789.932C191.581 790.433 191.832 791.1 191.832 791.932V797.5H189.8ZM197.236 797.66C196.233 797.66 195.492 797.425 195.012 796.956C194.543 796.476 194.308 795.761 194.308 794.812V787.484L196.34 786.732V794.86C196.34 795.255 196.447 795.548 196.66 795.74C196.873 795.932 197.209 796.028 197.668 796.028C197.849 796.028 198.009 796.017 198.148 795.996C198.297 795.964 198.436 795.927 198.564 795.884V797.452C198.436 797.516 198.255 797.564 198.02 797.596C197.785 797.639 197.524 797.66 197.236 797.66ZM192.74 790.924V789.34H198.564V790.924H192.74ZM200.025 797.5V789.34H202.041V797.5H200.025ZM199.929 787.996V785.772H202.121V787.996H199.929ZM204.181 797.5V789.34H206.149V791.26H206.197V797.5H204.181ZM209.909 797.5V792.348C209.909 791.847 209.781 791.468 209.525 791.212C209.269 790.956 208.896 790.828 208.405 790.828C207.979 790.828 207.595 790.924 207.253 791.116C206.923 791.308 206.661 791.575 206.469 791.916C206.288 792.257 206.197 792.652 206.197 793.1L205.989 791.148C206.267 790.551 206.672 790.076 207.205 789.724C207.739 789.361 208.379 789.18 209.125 789.18C210.011 789.18 210.699 789.431 211.189 789.932C211.691 790.433 211.941 791.1 211.941 791.932V797.5H209.909ZM216.431 797.66C215.865 797.66 215.375 797.543 214.959 797.308C214.553 797.063 214.239 796.732 214.015 796.316C213.801 795.9 213.695 795.431 213.695 794.908V789.34H215.711V794.492C215.711 794.993 215.833 795.372 216.079 795.628C216.335 795.884 216.692 796.012 217.151 796.012C217.567 796.012 217.929 795.916 218.239 795.724C218.559 795.532 218.809 795.265 218.991 794.924C219.183 794.572 219.279 794.177 219.279 793.74L219.487 795.692C219.22 796.289 218.82 796.769 218.287 797.132C217.764 797.484 217.145 797.66 216.431 797.66ZM219.343 797.5V795.58H219.279V789.34H221.311V797.5H219.343ZM227.064 797.66C226.2 797.66 225.443 797.479 224.792 797.116C224.152 796.753 223.651 796.252 223.288 795.612C222.936 794.972 222.76 794.236 222.76 793.404C222.76 792.572 222.936 791.841 223.288 791.212C223.651 790.572 224.152 790.076 224.792 789.724C225.432 789.361 226.179 789.18 227.032 789.18C227.843 789.18 228.547 789.351 229.144 789.692C229.741 790.023 230.205 790.492 230.536 791.1C230.867 791.708 231.032 792.417 231.032 793.228C231.032 793.377 231.027 793.516 231.016 793.644C231.005 793.772 230.989 793.9 230.968 794.028H224.008V792.62H229.416L229 793.004C229 792.236 228.824 791.66 228.472 791.276C228.12 790.892 227.629 790.7 227 790.7C226.317 790.7 225.773 790.935 225.368 791.404C224.973 791.873 224.776 792.551 224.776 793.436C224.776 794.311 224.973 794.983 225.368 795.452C225.773 795.911 226.344 796.14 227.08 796.14C227.507 796.14 227.88 796.06 228.2 795.9C228.52 795.74 228.755 795.495 228.904 795.164H230.808C230.541 795.932 230.088 796.54 229.448 796.988C228.819 797.436 228.024 797.66 227.064 797.66Z" fill="white"/>
<rect x="20" y="185" width="353" height="243" rx="14" fill="white"/>
<path d="M35.5 212.379C35.5 208.304 38.8038 205 42.8793 205H149.442C153.517 205 156.821 208.304 156.821 212.379V407.001H35.5V212.379Z" fill="white"/>
<g opacity="0.5">
<path d="M83.63 226.637V215.117H84.942V226.637H83.63ZM84.302 221.693V220.541H90.51V221.693H84.302ZM84.302 216.269V215.117H90.958V216.269H84.302ZM95.9562 226.797C95.1775 226.797 94.4895 226.615 93.8922 226.253C93.2948 225.879 92.8255 225.373 92.4842 224.733C92.1428 224.093 91.9722 223.357 91.9722 222.525C91.9722 221.693 92.1375 220.962 92.4682 220.333C92.8095 219.693 93.2842 219.197 93.8922 218.845C94.5002 218.493 95.1988 218.317 95.9882 218.317C96.7455 218.317 97.4015 218.482 97.9562 218.813C98.5215 219.143 98.9535 219.607 99.2522 220.205C99.5615 220.802 99.7162 221.506 99.7162 222.317C99.7162 222.423 99.7108 222.525 99.7002 222.621C99.7002 222.717 99.6895 222.823 99.6682 222.941H92.9322V221.869H98.8842L98.4682 222.461C98.4682 221.479 98.2495 220.727 97.8122 220.205C97.3855 219.671 96.7775 219.405 95.9882 219.405C95.1775 219.405 94.5215 219.687 94.0202 220.253C93.5295 220.807 93.2842 221.559 93.2842 222.509C93.2842 223.479 93.5295 224.258 94.0202 224.845C94.5215 225.421 95.1882 225.709 96.0202 225.709C96.5428 225.709 97.0015 225.597 97.3962 225.373C97.7908 225.138 98.0788 224.807 98.2602 224.381H99.4762C99.2095 225.127 98.7615 225.719 98.1322 226.157C97.5135 226.583 96.7882 226.797 95.9562 226.797ZM105.675 226.781C104.907 226.781 104.262 226.594 103.739 226.221C103.217 225.847 102.859 225.319 102.667 224.637L102.843 224.605V226.637H101.643V215.117H102.923V220.381L102.747 220.333C102.95 219.703 103.318 219.213 103.851 218.861C104.395 218.498 105.041 218.317 105.787 218.317C106.513 218.317 107.142 218.493 107.675 218.845C108.219 219.197 108.641 219.687 108.939 220.317C109.238 220.946 109.387 221.682 109.387 222.525C109.387 223.378 109.233 224.125 108.923 224.765C108.614 225.405 108.182 225.901 107.627 226.253C107.073 226.605 106.422 226.781 105.675 226.781ZM105.483 225.661C106.294 225.661 106.929 225.383 107.387 224.829C107.846 224.263 108.075 223.495 108.075 222.525C108.075 221.565 107.846 220.813 107.387 220.269C106.929 219.714 106.294 219.437 105.483 219.437C104.673 219.437 104.033 219.719 103.563 220.285C103.094 220.839 102.859 221.602 102.859 222.573C102.859 223.522 103.094 224.274 103.563 224.829C104.033 225.383 104.673 225.661 105.483 225.661Z" fill="url(#paint1_linear_231_12676)"/>
<path d="M74.1066 269.066V257.546H76.1226L80.2826 268.65H79.6746L83.8026 257.546H85.8506V269.066H84.5546V258.234H84.7306L80.7146 269.066H79.1466L75.1306 258.33H75.3066V269.066H74.1066ZM93.5186 269.066C93.4759 268.885 93.4439 268.677 93.4226 268.442C93.4119 268.208 93.4066 267.909 93.4066 267.546H93.3266V263.642C93.3266 263.024 93.1826 262.57 92.8946 262.282C92.6173 261.984 92.1639 261.834 91.5346 261.834C90.9159 261.834 90.4199 261.962 90.0466 262.218C89.6839 262.464 89.4813 262.816 89.4386 263.274H88.2066C88.2599 262.485 88.5906 261.866 89.1986 261.418C89.8066 260.97 90.6013 260.746 91.5826 260.746C92.5959 260.746 93.3479 260.986 93.8386 261.466C94.3293 261.946 94.5746 262.666 94.5746 263.626V267.546C94.5746 267.781 94.5906 268.026 94.6226 268.282C94.6546 268.528 94.6973 268.789 94.7506 269.066H93.5186ZM90.7186 269.226C89.8759 269.226 89.2039 269.024 88.7026 268.618C88.2119 268.202 87.9666 267.637 87.9666 266.922C87.9666 266.208 88.2119 265.653 88.7026 265.258C89.1933 264.864 89.9079 264.586 90.8466 264.426L93.6946 263.946V265.002L91.0386 265.418C90.4413 265.514 89.9879 265.674 89.6786 265.898C89.3693 266.122 89.2146 266.448 89.2146 266.874C89.2146 267.29 89.3533 267.605 89.6306 267.818C89.9186 268.032 90.3399 268.138 90.8946 268.138C91.6093 268.138 92.1906 267.978 92.6386 267.658C93.0973 267.328 93.3266 266.901 93.3266 266.378L93.5346 267.514C93.3639 268.058 93.0279 268.48 92.5266 268.778C92.0359 269.077 91.4333 269.226 90.7186 269.226ZM97.0419 269.066V260.906H98.2419V262.986H98.3219V269.066H97.0419ZM98.3219 264.81L98.1139 262.874C98.3059 262.181 98.6472 261.653 99.1379 261.29C99.6285 260.928 100.194 260.746 100.834 260.746C101.101 260.746 101.282 260.768 101.378 260.81V262.042C101.325 262.021 101.25 262.01 101.154 262.01C101.058 262 100.941 261.994 100.802 261.994C99.9912 261.994 99.3725 262.24 98.9459 262.73C98.5299 263.21 98.3219 263.904 98.3219 264.81ZM105.993 269.226C105.246 269.226 104.579 269.045 103.993 268.682C103.417 268.309 102.958 267.802 102.617 267.162C102.286 266.512 102.121 265.776 102.121 264.954C102.121 264.133 102.286 263.408 102.617 262.778C102.958 262.149 103.417 261.653 103.993 261.29C104.579 260.928 105.241 260.746 105.977 260.746C106.585 260.746 107.129 260.864 107.609 261.098C108.099 261.333 108.499 261.669 108.809 262.106C109.129 262.533 109.331 263.034 109.417 263.61H108.233C108.126 263.088 107.881 262.661 107.497 262.33C107.113 262 106.617 261.834 106.009 261.834C105.486 261.834 105.033 261.962 104.649 262.218C104.265 262.474 103.966 262.837 103.753 263.306C103.539 263.776 103.433 264.325 103.433 264.954C103.433 265.584 103.539 266.138 103.753 266.618C103.966 267.098 104.265 267.472 104.649 267.738C105.043 268.005 105.502 268.138 106.025 268.138C106.611 268.138 107.102 267.978 107.497 267.658C107.891 267.328 108.142 266.901 108.249 266.378H109.433C109.337 266.944 109.123 267.445 108.793 267.882C108.473 268.309 108.073 268.64 107.593 268.874C107.113 269.109 106.579 269.226 105.993 269.226ZM111.292 269.066V257.546H112.572V269.066H111.292ZM117.132 269.066V263.722C117.132 263.104 116.977 262.64 116.668 262.33C116.359 262.021 115.9 261.866 115.292 261.866C114.759 261.866 114.284 261.984 113.868 262.218C113.463 262.453 113.143 262.778 112.908 263.194C112.684 263.61 112.572 264.096 112.572 264.65L112.364 262.714C112.641 262.106 113.063 261.626 113.628 261.274C114.204 260.922 114.855 260.746 115.58 260.746C116.433 260.746 117.116 260.992 117.628 261.482C118.151 261.962 118.412 262.597 118.412 263.386V269.066H117.132Z" fill="url(#paint2_linear_231_12676)"/>
</g>
<mask id="path-27-outside-1_231_12676" maskUnits="userSpaceOnUse" x="35.7422" y="284.707" width="121" height="43" fill="black">
<rect fill="white" x="35.7422" y="284.707" width="121" height="43"/>
<path d="M35.7422 285.707H156.578V326.293H35.7422V285.707Z"/>
</mask>
<path d="M35.7422 326.293V326.754H36.6576V326.293V325.832H35.7422V326.293ZM38.4885 326.293V326.754H40.3193V326.293V325.832H38.4885V326.293ZM42.1502 326.293V326.754H43.981V326.293V325.832H42.1502V326.293ZM45.8119 326.293V326.754H47.6427V326.293V325.832H45.8119V326.293ZM49.4736 326.293V326.754H51.3044V326.293V325.832H49.4736V326.293ZM53.1353 326.293V326.754H54.9661V326.293V325.832H53.1353V326.293ZM56.797 326.293V326.754H58.6278V326.293V325.832H56.797V326.293ZM60.4587 326.293V326.754H62.2895V326.293V325.832H60.4587V326.293ZM64.1204 326.293V326.754H65.9512V326.293V325.832H64.1204V326.293ZM67.7821 326.293V326.754H69.6129V326.293V325.832H67.7821V326.293ZM71.4438 326.293V326.754H73.2747V326.293V325.832H71.4438V326.293ZM75.1055 326.293V326.754H76.9364V326.293V325.832H75.1055V326.293ZM78.7672 326.293V326.754H80.5981V326.293V325.832H78.7672V326.293ZM82.4289 326.293V326.754H84.2598V326.293V325.832H82.4289V326.293ZM86.0906 326.293V326.754H87.9215V326.293V325.832H86.0906V326.293ZM89.7523 326.293V326.754H91.5832V326.293V325.832H89.7523V326.293ZM93.414 326.293V326.754H95.2449V326.293V325.832H93.414V326.293ZM97.0757 326.293V326.754H98.9066V326.293V325.832H97.0757V326.293ZM100.737 326.293V326.754H102.568V326.293V325.832H100.737V326.293ZM104.399 326.293V326.754H106.23V326.293V325.832H104.399V326.293ZM108.061 326.293V326.754H109.892V326.293V325.832H108.061V326.293ZM111.723 326.293V326.754H113.553V326.293V325.832H111.723V326.293ZM115.384 326.293V326.754H117.215V326.293V325.832H115.384V326.293ZM119.046 326.293V326.754H120.877V326.293V325.832H119.046V326.293ZM122.708 326.293V326.754H124.538V326.293V325.832H122.708V326.293ZM126.369 326.293V326.754H128.2V326.293V325.832H126.369V326.293ZM130.031 326.293V326.754H131.862V326.293V325.832H130.031V326.293ZM133.693 326.293V326.754H135.524V326.293V325.832H133.693V326.293ZM137.354 326.293V326.754H139.185V326.293V325.832H137.354V326.293ZM141.016 326.293V326.754H142.847V326.293V325.832H141.016V326.293ZM144.678 326.293V326.754H146.509V326.293V325.832H144.678V326.293ZM148.34 326.293V326.754H150.17V326.293V325.832H148.34V326.293ZM152.001 326.293V326.754H153.832V326.293V325.832H152.001V326.293ZM155.663 326.293V326.754H156.578V326.293V325.832H155.663V326.293ZM156.578 285.707V285.246H155.663V285.707V286.168H156.578V285.707ZM153.832 285.707V285.246H152.001V285.707V286.168H153.832V285.707ZM150.17 285.707V285.246H148.34V285.707V286.168H150.17V285.707ZM146.509 285.707V285.246H144.678V285.707V286.168H146.509V285.707ZM142.847 285.707V285.246H141.016V285.707V286.168H142.847V285.707ZM139.185 285.707V285.246H137.354V285.707V286.168H139.185V285.707ZM135.524 285.707V285.246H133.693V285.707V286.168H135.524V285.707ZM131.862 285.707V285.246H130.031V285.707V286.168H131.862V285.707ZM128.2 285.707V285.246H126.369V285.707V286.168H128.2V285.707ZM124.538 285.707V285.246H122.708V285.707V286.168H124.538V285.707ZM120.877 285.707V285.246H119.046V285.707V286.168H120.877V285.707ZM117.215 285.707V285.246H115.384V285.707V286.168H117.215V285.707ZM113.553 285.707V285.246H111.723V285.707V286.168H113.553V285.707ZM109.892 285.707V285.246H108.061V285.707V286.168H109.892V285.707ZM106.23 285.707V285.246H104.399V285.707V286.168H106.23V285.707ZM102.568 285.707V285.246H100.737V285.707V286.168H102.568V285.707ZM98.9066 285.707V285.246H97.0757V285.707V286.168H98.9066V285.707ZM95.2449 285.707V285.246H93.414V285.707V286.168H95.2449V285.707ZM91.5831 285.707V285.246H89.7523V285.707V286.168H91.5831V285.707ZM87.9215 285.707V285.246H86.0906V285.707V286.168H87.9215V285.707ZM84.2598 285.707V285.246H82.4289V285.707V286.168H84.2598V285.707ZM80.5981 285.707V285.246H78.7672V285.707V286.168H80.5981V285.707ZM76.9364 285.707V285.246H75.1055V285.707V286.168H76.9364V285.707ZM73.2747 285.707V285.246H71.4438V285.707V286.168H73.2747V285.707ZM69.613 285.707V285.246H67.7821V285.707V286.168H69.613V285.707ZM65.9513 285.707V285.246H64.1204V285.707V286.168H65.9513V285.707ZM62.2896 285.707V285.246H60.4587V285.707V286.168H62.2896V285.707ZM58.6279 285.707V285.246H56.797V285.707V286.168H58.6279V285.707ZM54.9662 285.707V285.246H53.1353V285.707V286.168H54.9662V285.707ZM51.3045 285.707V285.246H49.4736V285.707V286.168H51.3045V285.707ZM47.6428 285.707V285.246H45.8119V285.707V286.168H47.6428V285.707ZM43.9811 285.707V285.246H42.1502V285.707V286.168H43.9811V285.707ZM40.3194 285.707V285.246H38.4885V285.707V286.168H40.3194V285.707ZM36.6577 285.707V285.246H35.7422V285.707V286.168H36.6577V285.707ZM35.7422 326.293V327.216H36.6576V326.293V325.371H35.7422V326.293ZM38.4885 326.293V327.216H40.3193V326.293V325.371H38.4885V326.293ZM42.1502 326.293V327.216H43.981V326.293V325.371H42.1502V326.293ZM45.8119 326.293V327.216H47.6427V326.293V325.371H45.8119V326.293ZM49.4736 326.293V327.216H51.3044V326.293V325.371H49.4736V326.293ZM53.1353 326.293V327.216H54.9661V326.293V325.371H53.1353V326.293ZM56.797 326.293V327.216H58.6278V326.293V325.371H56.797V326.293ZM60.4587 326.293V327.216H62.2895V326.293V325.371H60.4587V326.293ZM64.1204 326.293V327.216H65.9512V326.293V325.371H64.1204V326.293ZM67.7821 326.293V327.216H69.6129V326.293V325.371H67.7821V326.293ZM71.4438 326.293V327.216H73.2747V326.293V325.371H71.4438V326.293ZM75.1055 326.293V327.216H76.9364V326.293V325.371H75.1055V326.293ZM78.7672 326.293V327.216H80.5981V326.293V325.371H78.7672V326.293ZM82.4289 326.293V327.216H84.2598V326.293V325.371H82.4289V326.293ZM86.0906 326.293V327.216H87.9215V326.293V325.371H86.0906V326.293ZM89.7523 326.293V327.216H91.5832V326.293V325.371H89.7523V326.293ZM93.414 326.293V327.216H95.2449V326.293V325.371H93.414V326.293ZM97.0757 326.293V327.216H98.9066V326.293V325.371H97.0757V326.293ZM100.737 326.293V327.216H102.568V326.293V325.371H100.737V326.293ZM104.399 326.293V327.216H106.23V326.293V325.371H104.399V326.293ZM108.061 326.293V327.216H109.892V326.293V325.371H108.061V326.293ZM111.723 326.293V327.216H113.553V326.293V325.371H111.723V326.293ZM115.384 326.293V327.216H117.215V326.293V325.371H115.384V326.293ZM119.046 326.293V327.216H120.877V326.293V325.371H119.046V326.293ZM122.708 326.293V327.216H124.538V326.293V325.371H122.708V326.293ZM126.369 326.293V327.216H128.2V326.293V325.371H126.369V326.293ZM130.031 326.293V327.216H131.862V326.293V325.371H130.031V326.293ZM133.693 326.293V327.216H135.524V326.293V325.371H133.693V326.293ZM137.354 326.293V327.216H139.185V326.293V325.371H137.354V326.293ZM141.016 326.293V327.216H142.847V326.293V325.371H141.016V326.293ZM144.678 326.293V327.216H146.509V326.293V325.371H144.678V326.293ZM148.34 326.293V327.216H150.17V326.293V325.371H148.34V326.293ZM152.001 326.293V327.216H153.832V326.293V325.371H152.001V326.293ZM155.663 326.293V327.216H156.578V326.293V325.371H155.663V326.293ZM156.578 285.707V284.785H155.663V285.707V286.629H156.578V285.707ZM153.832 285.707V284.785H152.001V285.707V286.629H153.832V285.707ZM150.17 285.707V284.785H148.34V285.707V286.629H150.17V285.707ZM146.509 285.707V284.785H144.678V285.707V286.629H146.509V285.707ZM142.847 285.707V284.785H141.016V285.707V286.629H142.847V285.707ZM139.185 285.707V284.785H137.354V285.707V286.629H139.185V285.707ZM135.524 285.707V284.785H133.693V285.707V286.629H135.524V285.707ZM131.862 285.707V284.785H130.031V285.707V286.629H131.862V285.707ZM128.2 285.707V284.785H126.369V285.707V286.629H128.2V285.707ZM124.538 285.707V284.785H122.708V285.707V286.629H124.538V285.707ZM120.877 285.707V284.785H119.046V285.707V286.629H120.877V285.707ZM117.215 285.707V284.785H115.384V285.707V286.629H117.215V285.707ZM113.553 285.707V284.785H111.723V285.707V286.629H113.553V285.707ZM109.892 285.707V284.785H108.061V285.707V286.629H109.892V285.707ZM106.23 285.707V284.785H104.399V285.707V286.629H106.23V285.707ZM102.568 285.707V284.785H100.737V285.707V286.629H102.568V285.707ZM98.9066 285.707V284.785H97.0757V285.707V286.629H98.9066V285.707ZM95.2449 285.707V284.785H93.414V285.707V286.629H95.2449V285.707ZM91.5831 285.707V284.785H89.7523V285.707V286.629H91.5831V285.707ZM87.9215 285.707V284.785H86.0906V285.707V286.629H87.9215V285.707ZM84.2598 285.707V284.785H82.4289V285.707V286.629H84.2598V285.707ZM80.5981 285.707V284.785H78.7672V285.707V286.629H80.5981V285.707ZM76.9364 285.707V284.785H75.1055V285.707V286.629H76.9364V285.707ZM73.2747 285.707V284.785H71.4438V285.707V286.629H73.2747V285.707ZM69.613 285.707V284.785H67.7821V285.707V286.629H69.613V285.707ZM65.9513 285.707V284.785H64.1204V285.707V286.629H65.9513V285.707ZM62.2896 285.707V284.785H60.4587V285.707V286.629H62.2896V285.707ZM58.6279 285.707V284.785H56.797V285.707V286.629H58.6279V285.707ZM54.9662 285.707V284.785H53.1353V285.707V286.629H54.9662V285.707ZM51.3045 285.707V284.785H49.4736V285.707V286.629H51.3045V285.707ZM47.6428 285.707V284.785H45.8119V285.707V286.629H47.6428V285.707ZM43.9811 285.707V284.785H42.1502V285.707V286.629H43.9811V285.707ZM40.3194 285.707V284.785H38.4885V285.707V286.629H40.3194V285.707ZM36.6577 285.707V284.785H35.7422V285.707V286.629H36.6577V285.707Z" fill="#E0E0E0" mask="url(#path-27-outside-1_231_12676)"/>
<path d="M74.5343 315.5L81.5803 296.78H83.9723L77.2383 315.5H74.5343ZM89.0163 315.5L82.2823 296.78H84.8043L91.8763 315.5H89.0163ZM78.0963 308.038H88.1323V310.326H78.0963V308.038ZM101.69 315.734C100.442 315.734 99.4019 315.439 98.5699 314.85C97.7552 314.243 97.2179 313.403 96.9579 312.328L97.3219 312.276V320.83H94.6179V302.24H97.1919V305.282L96.9319 305.204C97.2092 304.199 97.7985 303.41 98.6999 302.838C99.6012 302.266 100.659 301.98 101.872 301.98C103.068 301.98 104.099 302.266 104.966 302.838C105.85 303.41 106.526 304.207 106.994 305.23C107.479 306.253 107.722 307.449 107.722 308.818C107.722 310.205 107.471 311.418 106.968 312.458C106.465 313.498 105.763 314.304 104.862 314.876C103.961 315.448 102.903 315.734 101.69 315.734ZM101.118 313.498C102.297 313.498 103.233 313.082 103.926 312.25C104.619 311.418 104.966 310.274 104.966 308.818C104.966 307.379 104.619 306.261 103.926 305.464C103.233 304.649 102.288 304.242 101.092 304.242C99.9132 304.242 98.9685 304.658 98.2579 305.49C97.5645 306.305 97.2179 307.44 97.2179 308.896C97.2179 310.317 97.5645 311.444 98.2579 312.276C98.9685 313.091 99.9219 313.498 101.118 313.498ZM110.563 315.5V302.24H113.137V305.542H113.267V315.5H110.563ZM113.267 308.584L112.929 305.438C113.241 304.311 113.779 303.453 114.541 302.864C115.304 302.275 116.214 301.98 117.271 301.98C117.67 301.98 117.947 302.015 118.103 302.084V304.632C118.017 304.597 117.895 304.58 117.739 304.58C117.583 304.563 117.393 304.554 117.167 304.554C115.867 304.554 114.888 304.892 114.229 305.568C113.588 306.244 113.267 307.249 113.267 308.584Z" fill="#FF657D"/>
<g opacity="0.5">
<path d="M82.0129 353.93V342.41H84.0289L88.1889 353.514H87.5809L91.7089 342.41H93.7569V353.93H92.4609V343.098H92.6369L88.6209 353.93H87.0529L83.0369 343.194H83.2129V353.93H82.0129ZM101.425 353.93C101.382 353.748 101.35 353.54 101.329 353.306C101.318 353.071 101.313 352.772 101.313 352.41H101.233V348.506C101.233 347.887 101.089 347.434 100.801 347.146C100.524 346.847 100.07 346.698 99.4409 346.698C98.8222 346.698 98.3262 346.826 97.9529 347.082C97.5902 347.327 97.3875 347.679 97.3449 348.138H96.1129C96.1662 347.348 96.4969 346.73 97.1049 346.282C97.7129 345.834 98.5075 345.61 99.4889 345.61C100.502 345.61 101.254 345.85 101.745 346.33C102.236 346.81 102.481 347.53 102.481 348.49V352.41C102.481 352.644 102.497 352.89 102.529 353.146C102.561 353.391 102.604 353.652 102.657 353.93H101.425ZM98.6249 354.09C97.7822 354.09 97.1102 353.887 96.6089 353.482C96.1182 353.066 95.8729 352.5 95.8729 351.786C95.8729 351.071 96.1182 350.516 96.6089 350.122C97.0995 349.727 97.8142 349.45 98.7529 349.29L101.601 348.81V349.866L98.9449 350.282C98.3475 350.378 97.8942 350.538 97.5849 350.762C97.2755 350.986 97.1209 351.311 97.1209 351.738C97.1209 352.154 97.2595 352.468 97.5369 352.682C97.8249 352.895 98.2462 353.002 98.8009 353.002C99.5155 353.002 100.097 352.842 100.545 352.522C101.004 352.191 101.233 351.764 101.233 351.242L101.441 352.378C101.27 352.922 100.934 353.343 100.433 353.642C99.9422 353.94 99.3395 354.09 98.6249 354.09ZM105.293 357.21L107.117 352.97L107.405 352.522L110.077 345.77H111.389L106.653 357.21H105.293ZM107.261 354.01L103.597 345.77H105.005L108.157 353.146L107.261 354.01Z" fill="url(#paint3_linear_231_12676)"/>
<path d="M85.3549 396.519C84.9496 396.519 84.5603 396.487 84.1869 396.423C83.8136 396.37 83.5416 396.301 83.3709 396.215V394.999C83.6269 395.106 83.9363 395.197 84.2989 395.271C84.6616 395.335 85.0296 395.367 85.4029 395.367C86.1709 395.367 86.7523 395.197 87.1469 394.855C87.5416 394.514 87.7389 393.991 87.7389 393.287V384.839H89.0509V393.335C89.0509 394.402 88.7363 395.202 88.1069 395.735C87.4776 396.258 86.5603 396.519 85.3549 396.519ZM94.2057 396.519C93.6723 396.519 93.1977 396.413 92.7817 396.199C92.3657 395.975 92.0403 395.666 91.8057 395.271C91.571 394.866 91.4537 394.402 91.4537 393.879V388.199H92.7337V393.543C92.7337 394.162 92.883 394.626 93.1817 394.935C93.491 395.245 93.9283 395.399 94.4937 395.399C95.0057 395.399 95.459 395.282 95.8537 395.047C96.2483 394.813 96.5577 394.487 96.7817 394.071C97.0163 393.645 97.1337 393.159 97.1337 392.615L97.3417 394.551C97.075 395.159 96.659 395.639 96.0937 395.991C95.5283 396.343 94.899 396.519 94.2057 396.519ZM97.2137 396.359V394.439H97.1337V388.199H98.4137V396.359H97.2137ZM100.972 396.359V388.199H102.172V390.119H102.252V396.359H100.972ZM106.812 396.359V391.015C106.812 390.397 106.657 389.933 106.348 389.623C106.038 389.314 105.58 389.159 104.972 389.159C104.438 389.159 103.964 389.277 103.548 389.511C103.142 389.746 102.822 390.071 102.588 390.487C102.364 390.903 102.252 391.389 102.252 391.943L102.044 390.007C102.321 389.399 102.742 388.919 103.308 388.567C103.884 388.215 104.534 388.039 105.26 388.039C106.113 388.039 106.796 388.285 107.308 388.775C107.83 389.255 108.092 389.89 108.092 390.679V396.359H106.812Z" fill="url(#paint4_linear_231_12676)"/>
</g>
<path d="M156.93 212.379C156.93 208.304 160.234 205 164.309 205H250.741C254.817 205 258.12 208.304 258.12 212.379V407.001H156.93V212.379Z" fill="white"/>
<g opacity="0.5">
<path d="M203.438 230.328V220.12L203.774 220.2C203.646 220.488 203.401 220.776 203.038 221.064C202.676 221.352 202.254 221.603 201.774 221.816C201.305 222.029 200.82 222.173 200.318 222.248V221.016C200.82 220.931 201.3 220.781 201.758 220.568C202.217 220.355 202.622 220.099 202.974 219.8C203.337 219.491 203.604 219.16 203.774 218.808H204.718V230.328H203.438ZM210.762 230.488C209.994 230.488 209.316 230.349 208.73 230.072C208.154 229.784 207.684 229.368 207.322 228.824C206.97 228.28 206.751 227.624 206.666 226.856H208.042C208.159 227.656 208.452 228.269 208.922 228.696C209.391 229.123 210.01 229.336 210.778 229.336C211.503 229.336 212.074 229.144 212.49 228.76C212.906 228.376 213.114 227.853 213.114 227.192C213.114 226.499 212.911 225.939 212.506 225.512C212.1 225.075 211.556 224.856 210.874 224.856H209.434V223.736H210.826C211.444 223.736 211.935 223.56 212.298 223.208C212.671 222.845 212.858 222.365 212.858 221.768C212.858 221.139 212.66 220.653 212.266 220.312C211.882 219.971 211.359 219.8 210.698 219.8C210.047 219.8 209.492 219.992 209.034 220.376C208.575 220.749 208.303 221.288 208.218 221.992H206.826C206.89 221.309 207.092 220.723 207.434 220.232C207.775 219.731 208.228 219.341 208.794 219.064C209.37 218.787 210.015 218.648 210.73 218.648C211.423 218.648 212.036 218.771 212.57 219.016C213.103 219.261 213.519 219.613 213.818 220.072C214.116 220.52 214.266 221.048 214.266 221.656C214.266 222.2 214.143 222.68 213.898 223.096C213.652 223.512 213.316 223.837 212.89 224.072C212.474 224.307 211.994 224.424 211.45 224.424L211.354 224.088C212.004 224.088 212.564 224.227 213.034 224.504C213.514 224.771 213.882 225.139 214.138 225.608C214.404 226.077 214.538 226.621 214.538 227.24C214.538 227.88 214.378 228.445 214.058 228.936C213.738 229.427 213.295 229.811 212.73 230.088C212.164 230.355 211.508 230.488 210.762 230.488Z" fill="url(#paint5_linear_231_12676)"/>
<path d="M203.344 270.914V260.706L203.68 260.786C203.552 261.074 203.307 261.362 202.944 261.65C202.582 261.938 202.16 262.189 201.68 262.402C201.211 262.615 200.726 262.759 200.224 262.834V261.602C200.726 261.517 201.206 261.367 201.664 261.154C202.123 260.941 202.528 260.685 202.88 260.386C203.243 260.077 203.51 259.746 203.68 259.394H204.624V270.914H203.344ZM211.985 270.914V267.874L212.017 267.554V260.978H212.449L207.585 267.634L207.153 267.106H214.833V268.258H206.257V267.266L212.049 259.394H213.361V270.914H211.985Z" fill="url(#paint6_linear_231_12676)"/>
</g>
<mask id="path-35-outside-2_231_12676" maskUnits="userSpaceOnUse" x="156.793" y="284.707" width="102" height="43" fill="black">
<rect fill="white" x="156.793" y="284.707" width="102" height="43"/>
<path d="M156.793 285.707H258.259V326.293H156.793V285.707Z"/>
</mask>
<path d="M156.793 326.293V326.754H157.699V326.293V325.832H156.793V326.293ZM159.511 326.293V326.754H161.323V326.293V325.832H159.511V326.293ZM163.135 326.293V326.754H164.946V326.293V325.832H163.135V326.293ZM166.758 326.293V326.754H168.57V326.293V325.832H166.758V326.293ZM170.382 326.293V326.754H172.194V326.293V325.832H170.382V326.293ZM174.006 326.293V326.754H175.818V326.293V325.832H174.006V326.293ZM177.63 326.293V326.754H179.442V326.293V325.832H177.63V326.293ZM181.253 326.293V326.754H183.065V326.293V325.832H181.253V326.293ZM184.877 326.293V326.754H186.689V326.293V325.832H184.877V326.293ZM188.501 326.293V326.754H190.313V326.293V325.832H188.501V326.293ZM192.125 326.293V326.754H193.937V326.293V325.832H192.125V326.293ZM195.748 326.293V326.754H197.56V326.293V325.832H195.748V326.293ZM199.372 326.293V326.754H201.184V326.293V325.832H199.372V326.293ZM202.996 326.293V326.754H204.808V326.293V325.832H202.996V326.293ZM206.62 326.293V326.754H208.432V326.293V325.832H206.62V326.293ZM210.244 326.293V326.754H212.055V326.293V325.832H210.244V326.293ZM213.867 326.293V326.754H215.679V326.293V325.832H213.867V326.293ZM217.491 326.293V326.754H219.303V326.293V325.832H217.491V326.293ZM221.115 326.293V326.754H222.927V326.293V325.832H221.115V326.293ZM224.739 326.293V326.754H226.551V326.293V325.832H224.739V326.293ZM228.362 326.293V326.754H230.174V326.293V325.832H228.362V326.293ZM231.986 326.293V326.754H233.798V326.293V325.832H231.986V326.293ZM235.61 326.293V326.754H237.422V326.293V325.832H235.61V326.293ZM239.234 326.293V326.754H241.046V326.293V325.832H239.234V326.293ZM242.857 326.293V326.754H244.669V326.293V325.832H242.857V326.293ZM246.481 326.293V326.754H248.293V326.293V325.832H246.481V326.293ZM250.105 326.293V326.754H251.917V326.293V325.832H250.105V326.293ZM253.729 326.293V326.754H255.541V326.293V325.832H253.729V326.293ZM257.353 326.293V326.754H258.259V326.293V325.832H257.353V326.293ZM258.259 285.707V285.246H257.353V285.707V286.168H258.259V285.707ZM255.541 285.707V285.246H253.729V285.707V286.168H255.541V285.707ZM251.917 285.707V285.246H250.105V285.707V286.168H251.917V285.707ZM248.293 285.707V285.246H246.481V285.707V286.168H248.293V285.707ZM244.669 285.707V285.246H242.857V285.707V286.168H244.669V285.707ZM241.046 285.707V285.246H239.234V285.707V286.168H241.046V285.707ZM237.422 285.707V285.246H235.61V285.707V286.168H237.422V285.707ZM233.798 285.707V285.246H231.986V285.707V286.168H233.798V285.707ZM230.174 285.707V285.246H228.362V285.707V286.168H230.174V285.707ZM226.551 285.707V285.246H224.739V285.707V286.168H226.551V285.707ZM222.927 285.707V285.246H221.115V285.707V286.168H222.927V285.707ZM219.303 285.707V285.246H217.491V285.707V286.168H219.303V285.707ZM215.679 285.707V285.246H213.867V285.707V286.168H215.679V285.707ZM212.055 285.707V285.246H210.244V285.707V286.168H212.055V285.707ZM208.432 285.707V285.246H206.62V285.707V286.168H208.432V285.707ZM204.808 285.707V285.246H202.996V285.707V286.168H204.808V285.707ZM201.184 285.707V285.246H199.372V285.707V286.168H201.184V285.707ZM197.56 285.707V285.246H195.748V285.707V286.168H197.56V285.707ZM193.937 285.707V285.246H192.125V285.707V286.168H193.937V285.707ZM190.313 285.707V285.246H188.501V285.707V286.168H190.313V285.707ZM186.689 285.707V285.246H184.877V285.707V286.168H186.689V285.707ZM183.065 285.707V285.246H181.253V285.707V286.168H183.065V285.707ZM179.442 285.707V285.246H177.63V285.707V286.168H179.442V285.707ZM175.818 285.707V285.246H174.006V285.707V286.168H175.818V285.707ZM172.194 285.707V285.246H170.382V285.707V286.168H172.194V285.707ZM168.57 285.707V285.246H166.758V285.707V286.168H168.57V285.707ZM164.946 285.707V285.246H163.135V285.707V286.168H164.946V285.707ZM161.323 285.707V285.246H159.511V285.707V286.168H161.323V285.707ZM157.699 285.707V285.246H156.793V285.707V286.168H157.699V285.707ZM156.793 326.293V327.216H157.699V326.293V325.371H156.793V326.293ZM159.511 326.293V327.216H161.323V326.293V325.371H159.511V326.293ZM163.135 326.293V327.216H164.946V326.293V325.371H163.135V326.293ZM166.758 326.293V327.216H168.57V326.293V325.371H166.758V326.293ZM170.382 326.293V327.216H172.194V326.293V325.371H170.382V326.293ZM174.006 326.293V327.216H175.818V326.293V325.371H174.006V326.293ZM177.63 326.293V327.216H179.442V326.293V325.371H177.63V326.293ZM181.253 326.293V327.216H183.065V326.293V325.371H181.253V326.293ZM184.877 326.293V327.216H186.689V326.293V325.371H184.877V326.293ZM188.501 326.293V327.216H190.313V326.293V325.371H188.501V326.293ZM192.125 326.293V327.216H193.937V326.293V325.371H192.125V326.293ZM195.748 326.293V327.216H197.56V326.293V325.371H195.748V326.293ZM199.372 326.293V327.216H201.184V326.293V325.371H199.372V326.293ZM202.996 326.293V327.216H204.808V326.293V325.371H202.996V326.293ZM206.62 326.293V327.216H208.432V326.293V325.371H206.62V326.293ZM210.244 326.293V327.216H212.055V326.293V325.371H210.244V326.293ZM213.867 326.293V327.216H215.679V326.293V325.371H213.867V326.293ZM217.491 326.293V327.216H219.303V326.293V325.371H217.491V326.293ZM221.115 326.293V327.216H222.927V326.293V325.371H221.115V326.293ZM224.739 326.293V327.216H226.551V326.293V325.371H224.739V326.293ZM228.362 326.293V327.216H230.174V326.293V325.371H228.362V326.293ZM231.986 326.293V327.216H233.798V326.293V325.371H231.986V326.293ZM235.61 326.293V327.216H237.422V326.293V325.371H235.61V326.293ZM239.234 326.293V327.216H241.046V326.293V325.371H239.234V326.293ZM242.857 326.293V327.216H244.669V326.293V325.371H242.857V326.293ZM246.481 326.293V327.216H248.293V326.293V325.371H246.481V326.293ZM250.105 326.293V327.216H251.917V326.293V325.371H250.105V326.293ZM253.729 326.293V327.216H255.541V326.293V325.371H253.729V326.293ZM257.353 326.293V327.216H258.259V326.293V325.371H257.353V326.293ZM258.259 285.707V284.785H257.353V285.707V286.629H258.259V285.707ZM255.541 285.707V284.785H253.729V285.707V286.629H255.541V285.707ZM251.917 285.707V284.785H250.105V285.707V286.629H251.917V285.707ZM248.293 285.707V284.785H246.481V285.707V286.629H248.293V285.707ZM244.669 285.707V284.785H242.857V285.707V286.629H244.669V285.707ZM241.046 285.707V284.785H239.234V285.707V286.629H241.046V285.707ZM237.422 285.707V284.785H235.61V285.707V286.629H237.422V285.707ZM233.798 285.707V284.785H231.986V285.707V286.629H233.798V285.707ZM230.174 285.707V284.785H228.362V285.707V286.629H230.174V285.707ZM226.551 285.707V284.785H224.739V285.707V286.629H226.551V285.707ZM222.927 285.707V284.785H221.115V285.707V286.629H222.927V285.707ZM219.303 285.707V284.785H217.491V285.707V286.629H219.303V285.707ZM215.679 285.707V284.785H213.867V285.707V286.629H215.679V285.707ZM212.055 285.707V284.785H210.244V285.707V286.629H212.055V285.707ZM208.432 285.707V284.785H206.62V285.707V286.629H208.432V285.707ZM204.808 285.707V284.785H202.996V285.707V286.629H204.808V285.707ZM201.184 285.707V284.785H199.372V285.707V286.629H201.184V285.707ZM197.56 285.707V284.785H195.748V285.707V286.629H197.56V285.707ZM193.937 285.707V284.785H192.125V285.707V286.629H193.937V285.707ZM190.313 285.707V284.785H188.501V285.707V286.629H190.313V285.707ZM186.689 285.707V284.785H184.877V285.707V286.629H186.689V285.707ZM183.065 285.707V284.785H181.253V285.707V286.629H183.065V285.707ZM179.442 285.707V284.785H177.63V285.707V286.629H179.442V285.707ZM175.818 285.707V284.785H174.006V285.707V286.629H175.818V285.707ZM172.194 285.707V284.785H170.382V285.707V286.629H172.194V285.707ZM168.57 285.707V284.785H166.758V285.707V286.629H168.57V285.707ZM164.946 285.707V284.785H163.135V285.707V286.629H164.946V285.707ZM161.323 285.707V284.785H159.511V285.707V286.629H161.323V285.707ZM157.699 285.707V284.785H156.793V285.707V286.629H157.699V285.707Z" fill="#E0E0E0" mask="url(#path-35-outside-2_231_12676)"/>
<path d="M200.583 315.5V299.354L201.077 299.562C200.852 300.047 200.462 300.524 199.907 300.992C199.353 301.46 198.711 301.867 197.983 302.214C197.255 302.543 196.484 302.777 195.669 302.916V300.264C196.432 300.143 197.177 299.917 197.905 299.588C198.633 299.241 199.283 298.825 199.855 298.34C200.427 297.837 200.852 297.317 201.129 296.78H203.261V315.5H200.583ZM212.566 315.76C210.677 315.76 209.16 315.266 208.016 314.278C206.872 313.273 206.17 311.947 205.91 310.3H208.744C208.952 311.305 209.394 312.094 210.07 312.666C210.746 313.221 211.552 313.498 212.488 313.498C213.494 313.498 214.334 313.177 215.01 312.536C215.704 311.877 216.05 310.855 216.05 309.468C216.05 308.099 215.712 307.067 215.036 306.374C214.36 305.663 213.494 305.308 212.436 305.308C211.726 305.308 211.093 305.464 210.538 305.776C209.984 306.071 209.585 306.461 209.342 306.946H206.846L207.756 296.78H217.922V299.042H209.056L210.252 298.444L209.706 305.412L208.952 305.23C209.299 304.641 209.81 304.164 210.486 303.8C211.18 303.419 212.029 303.228 213.034 303.228C214.196 303.228 215.227 303.479 216.128 303.982C217.03 304.485 217.732 305.204 218.234 306.14C218.737 307.076 218.988 308.185 218.988 309.468C218.988 310.785 218.72 311.912 218.182 312.848C217.662 313.784 216.917 314.503 215.946 315.006C214.993 315.509 213.866 315.76 212.566 315.76Z" fill="#FF657D"/>
<g opacity="0.5">
<path d="M203.212 352.086V341.878L203.548 341.958C203.42 342.246 203.174 342.534 202.812 342.822C202.449 343.11 202.028 343.361 201.548 343.574C201.078 343.787 200.593 343.931 200.092 344.006V342.774C200.593 342.689 201.073 342.539 201.532 342.326C201.99 342.113 202.396 341.857 202.748 341.558C203.11 341.249 203.377 340.918 203.548 340.566H204.492V352.086H203.212ZM210.886 352.246C209.531 352.246 208.486 351.755 207.75 350.774C207.024 349.782 206.662 348.353 206.662 346.486C206.662 345.195 206.832 344.097 207.174 343.19C207.526 342.283 208.027 341.595 208.678 341.126C209.328 340.646 210.102 340.406 210.998 340.406C211.979 340.406 212.79 340.689 213.43 341.254C214.07 341.819 214.459 342.598 214.598 343.59H213.19C213.094 342.929 212.848 342.427 212.454 342.086C212.07 341.734 211.579 341.558 210.982 341.558C210.032 341.558 209.312 341.963 208.822 342.774C208.342 343.585 208.102 344.801 208.102 346.422V347.462L207.734 347.318C207.83 346.817 208.043 346.379 208.374 346.006C208.704 345.633 209.115 345.345 209.606 345.142C210.096 344.929 210.624 344.822 211.19 344.822C211.915 344.822 212.544 344.982 213.078 345.302C213.622 345.611 214.043 346.049 214.342 346.614C214.651 347.169 214.806 347.819 214.806 348.566C214.806 349.302 214.64 349.947 214.31 350.502C213.979 351.057 213.52 351.489 212.934 351.798C212.347 352.097 211.664 352.246 210.886 352.246ZM210.934 351.094C211.659 351.094 212.246 350.865 212.694 350.406C213.142 349.947 213.366 349.329 213.366 348.55C213.366 347.739 213.147 347.105 212.71 346.646C212.283 346.177 211.68 345.942 210.902 345.942C210.155 345.942 209.531 346.161 209.03 346.598C208.539 347.035 208.294 347.638 208.294 348.406C208.294 348.939 208.406 349.409 208.63 349.814C208.864 350.219 209.179 350.534 209.574 350.758C209.979 350.982 210.432 351.094 210.934 351.094Z" fill="url(#paint7_linear_231_12676)"/>
<path d="M203.821 392.672V382.464L204.157 382.544C204.029 382.832 203.784 383.12 203.421 383.408C203.058 383.696 202.637 383.947 202.157 384.16C201.688 384.373 201.202 384.517 200.701 384.592V383.36C201.202 383.275 201.682 383.125 202.141 382.912C202.6 382.699 203.005 382.443 203.357 382.144C203.72 381.835 203.986 381.504 204.157 381.152H205.101V392.672H203.821ZM208.939 392.672C209.088 390.859 209.509 389.067 210.203 387.296C210.907 385.515 211.957 383.696 213.355 381.84L213.435 382.304H206.699V381.152H214.475V382.112C213.621 383.36 212.912 384.565 212.347 385.728C211.792 386.891 211.36 388.043 211.051 389.184C210.741 390.315 210.544 391.477 210.459 392.672H208.939Z" fill="url(#paint8_linear_231_12676)"/>
</g>
<path d="M255.809 212.416C255.809 208.32 259.129 205 263.224 205H350.084C354.179 205 357.499 208.32 357.499 212.416V408H255.809V212.416Z" fill="white"/>
<g opacity="0.5">
<path d="M293.246 230.426V220.218L293.582 220.298C293.454 220.586 293.208 220.874 292.846 221.162C292.483 221.45 292.062 221.7 291.582 221.914C291.112 222.127 290.627 222.271 290.126 222.346V221.114C290.627 221.028 291.107 220.879 291.566 220.666C292.024 220.452 292.43 220.196 292.782 219.898C293.144 219.588 293.411 219.258 293.582 218.906H294.526V230.426H293.246ZM300.582 230.586C299.91 230.586 299.307 230.458 298.774 230.202C298.24 229.935 297.808 229.546 297.478 229.034C297.147 228.511 296.934 227.86 296.838 227.082H298.246C298.352 227.914 298.614 228.516 299.03 228.89C299.446 229.252 299.974 229.434 300.614 229.434C301.083 229.434 301.488 229.338 301.83 229.146C302.171 228.954 302.454 228.66 302.678 228.266C302.902 227.871 303.067 227.37 303.174 226.762C303.28 226.143 303.334 225.412 303.334 224.57V223.53L303.702 223.578C303.606 224.068 303.392 224.506 303.062 224.89C302.731 225.263 302.32 225.556 301.83 225.77C301.339 225.972 300.811 226.074 300.246 226.074C299.542 226.074 298.923 225.919 298.39 225.61C297.856 225.29 297.435 224.852 297.126 224.298C296.827 223.743 296.678 223.114 296.678 222.41C296.678 221.663 296.843 221.018 297.174 220.474C297.504 219.93 297.963 219.508 298.55 219.21C299.147 218.9 299.83 218.746 300.598 218.746C301.963 218.746 302.998 219.242 303.702 220.234C304.416 221.226 304.774 222.682 304.774 224.602C304.774 225.882 304.608 226.97 304.278 227.866C303.958 228.751 303.483 229.428 302.854 229.898C302.235 230.356 301.478 230.586 300.582 230.586ZM300.582 224.954C301.318 224.954 301.926 224.746 302.406 224.33C302.896 223.914 303.142 223.316 303.142 222.538C303.142 222.015 303.024 221.556 302.79 221.162C302.566 220.767 302.256 220.458 301.862 220.234C301.467 220.01 301.019 219.898 300.518 219.898C299.803 219.898 299.222 220.127 298.774 220.586C298.336 221.034 298.118 221.652 298.118 222.442C298.118 223.199 298.331 223.807 298.758 224.266C299.195 224.724 299.803 224.954 300.582 224.954ZM310.519 230.586C309.847 230.586 309.245 230.458 308.711 230.202C308.178 229.935 307.746 229.546 307.415 229.034C307.085 228.511 306.871 227.86 306.775 227.082H308.183C308.29 227.914 308.551 228.516 308.967 228.89C309.383 229.252 309.911 229.434 310.551 229.434C311.021 229.434 311.426 229.338 311.767 229.146C312.109 228.954 312.391 228.66 312.615 228.266C312.839 227.871 313.005 227.37 313.111 226.762C313.218 226.143 313.271 225.412 313.271 224.57V223.53L313.639 223.578C313.543 224.068 313.33 224.506 312.999 224.89C312.669 225.263 312.258 225.556 311.767 225.77C311.277 225.972 310.749 226.074 310.183 226.074C309.479 226.074 308.861 225.919 308.327 225.61C307.794 225.29 307.373 224.852 307.063 224.298C306.765 223.743 306.615 223.114 306.615 222.41C306.615 221.663 306.781 221.018 307.111 220.474C307.442 219.93 307.901 219.508 308.487 219.21C309.085 218.9 309.767 218.746 310.535 218.746C311.901 218.746 312.935 219.242 313.639 220.234C314.354 221.226 314.711 222.682 314.711 224.602C314.711 225.882 314.546 226.97 314.215 227.866C313.895 228.751 313.421 229.428 312.791 229.898C312.173 230.356 311.415 230.586 310.519 230.586ZM310.519 224.954C311.255 224.954 311.863 224.746 312.343 224.33C312.834 223.914 313.079 223.316 313.079 222.538C313.079 222.015 312.962 221.556 312.727 221.162C312.503 220.767 312.194 220.458 311.799 220.234C311.405 220.01 310.957 219.898 310.455 219.898C309.741 219.898 309.159 220.127 308.711 220.586C308.274 221.034 308.055 221.652 308.055 222.442C308.055 223.199 308.269 223.807 308.695 224.266C309.133 224.724 309.741 224.954 310.519 224.954ZM317.77 230.426C317.919 228.612 318.34 226.82 319.034 225.05C319.738 223.268 320.788 221.45 322.186 219.594L322.266 220.058H315.53V218.906H323.306V219.866C322.452 221.114 321.743 222.319 321.178 223.482C320.623 224.644 320.191 225.796 319.882 226.938C319.572 228.068 319.375 229.231 319.29 230.426H317.77Z" fill="url(#paint9_linear_231_12676)"/>
<path d="M292.386 271.211V261.003L292.722 261.083C292.594 261.371 292.349 261.659 291.986 261.947C291.624 262.235 291.202 262.486 290.722 262.699C290.253 262.912 289.768 263.056 289.266 263.131V261.899C289.768 261.814 290.248 261.664 290.706 261.451C291.165 261.238 291.57 260.982 291.922 260.683C292.285 260.374 292.552 260.043 292.722 259.691H293.666V271.211H292.386ZM299.722 271.371C299.05 271.371 298.448 271.243 297.914 270.987C297.381 270.72 296.949 270.331 296.618 269.819C296.288 269.296 296.074 268.646 295.978 267.867H297.386C297.493 268.699 297.754 269.302 298.17 269.675C298.586 270.038 299.114 270.219 299.754 270.219C300.224 270.219 300.629 270.123 300.97 269.931C301.312 269.739 301.594 269.446 301.818 269.051C302.042 268.656 302.208 268.155 302.314 267.547C302.421 266.928 302.474 266.198 302.474 265.355V264.315L302.842 264.363C302.746 264.854 302.533 265.291 302.202 265.675C301.872 266.048 301.461 266.342 300.97 266.555C300.48 266.758 299.952 266.859 299.386 266.859C298.682 266.859 298.064 266.704 297.53 266.395C296.997 266.075 296.576 265.638 296.266 265.083C295.968 264.528 295.818 263.899 295.818 263.195C295.818 262.448 295.984 261.803 296.314 261.259C296.645 260.715 297.104 260.294 297.69 259.995C298.288 259.686 298.97 259.531 299.738 259.531C301.104 259.531 302.138 260.027 302.842 261.019C303.557 262.011 303.914 263.467 303.914 265.387C303.914 266.667 303.749 267.755 303.418 268.651C303.098 269.536 302.624 270.214 301.994 270.683C301.376 271.142 300.618 271.371 299.722 271.371ZM299.722 265.739C300.458 265.739 301.066 265.531 301.546 265.115C302.037 264.699 302.282 264.102 302.282 263.323C302.282 262.8 302.165 262.342 301.93 261.947C301.706 261.552 301.397 261.243 301.002 261.019C300.608 260.795 300.16 260.683 299.658 260.683C298.944 260.683 298.362 260.912 297.914 261.371C297.477 261.819 297.258 262.438 297.258 263.227C297.258 263.984 297.472 264.592 297.898 265.051C298.336 265.51 298.944 265.739 299.722 265.739ZM309.66 271.371C308.988 271.371 308.385 271.243 307.852 270.987C307.319 270.72 306.887 270.331 306.556 269.819C306.225 269.296 306.012 268.646 305.916 267.867H307.324C307.431 268.699 307.692 269.302 308.108 269.675C308.524 270.038 309.052 270.219 309.692 270.219C310.161 270.219 310.567 270.123 310.908 269.931C311.249 269.739 311.532 269.446 311.756 269.051C311.98 268.656 312.145 268.155 312.252 267.547C312.359 266.928 312.412 266.198 312.412 265.355V264.315L312.78 264.363C312.684 264.854 312.471 265.291 312.14 265.675C311.809 266.048 311.399 266.342 310.908 266.555C310.417 266.758 309.889 266.859 309.324 266.859C308.62 266.859 308.001 266.704 307.468 266.395C306.935 266.075 306.513 265.638 306.204 265.083C305.905 264.528 305.756 263.899 305.756 263.195C305.756 262.448 305.921 261.803 306.252 261.259C306.583 260.715 307.041 260.294 307.628 259.995C308.225 259.686 308.908 259.531 309.676 259.531C311.041 259.531 312.076 260.027 312.78 261.019C313.495 262.011 313.852 263.467 313.852 265.387C313.852 266.667 313.687 267.755 313.356 268.651C313.036 269.536 312.561 270.214 311.932 270.683C311.313 271.142 310.556 271.371 309.66 271.371ZM309.66 265.739C310.396 265.739 311.004 265.531 311.484 265.115C311.975 264.699 312.22 264.102 312.22 263.323C312.22 262.8 312.103 262.342 311.868 261.947C311.644 261.552 311.335 261.243 310.94 261.019C310.545 260.795 310.097 260.683 309.596 260.683C308.881 260.683 308.3 260.912 307.852 261.371C307.415 261.819 307.196 262.438 307.196 263.227C307.196 263.984 307.409 264.592 307.836 265.051C308.273 265.51 308.881 265.739 309.66 265.739ZM319.967 271.371C318.612 271.371 317.567 270.88 316.831 269.899C316.105 268.907 315.743 267.478 315.743 265.611C315.743 264.32 315.913 263.222 316.255 262.315C316.607 261.408 317.108 260.72 317.759 260.251C318.409 259.771 319.183 259.531 320.079 259.531C321.06 259.531 321.871 259.814 322.511 260.379C323.151 260.944 323.54 261.723 323.679 262.715H322.271C322.175 262.054 321.929 261.552 321.535 261.211C321.151 260.859 320.66 260.683 320.063 260.683C319.113 260.683 318.393 261.088 317.903 261.899C317.423 262.71 317.183 263.926 317.183 265.547V266.587L316.815 266.443C316.911 265.942 317.124 265.504 317.455 265.131C317.785 264.758 318.196 264.47 318.687 264.267C319.177 264.054 319.705 263.947 320.271 263.947C320.996 263.947 321.625 264.107 322.159 264.427C322.703 264.736 323.124 265.174 323.423 265.739C323.732 266.294 323.887 266.944 323.887 267.691C323.887 268.427 323.721 269.072 323.391 269.627C323.06 270.182 322.601 270.614 322.015 270.923C321.428 271.222 320.745 271.371 319.967 271.371ZM320.015 270.219C320.74 270.219 321.327 269.99 321.775 269.531C322.223 269.072 322.447 268.454 322.447 267.675C322.447 266.864 322.228 266.23 321.791 265.771C321.364 265.302 320.761 265.067 319.983 265.067C319.236 265.067 318.612 265.286 318.111 265.723C317.62 266.16 317.375 266.763 317.375 267.531C317.375 268.064 317.487 268.534 317.711 268.939C317.945 269.344 318.26 269.659 318.655 269.883C319.06 270.107 319.513 270.219 320.015 270.219Z" fill="url(#paint10_linear_231_12676)"/>
</g>
<mask id="path-43-outside-3_231_12676" maskUnits="userSpaceOnUse" x="255.67" y="285.105" width="102" height="43" fill="black">
<rect fill="white" x="255.67" y="285.105" width="102" height="43"/>
<path d="M255.67 286.105H357.637V326.892H255.67V286.105Z"/>
</mask>
<path d="M255.67 326.892V327.356H256.58V326.892V326.429H255.67V326.892ZM258.401 326.892V327.356H260.222V326.892V326.429H258.401V326.892ZM262.043 326.892V327.356H263.864V326.892V326.429H262.043V326.892ZM265.685 326.892V327.356H267.505V326.892V326.429H265.685V326.892ZM269.326 326.892V327.356H271.147V326.892V326.429H269.326V326.892ZM272.968 326.892V327.356H274.789V326.892V326.429H272.968V326.892ZM276.61 326.892V327.356H278.43V326.892V326.429H276.61V326.892ZM280.251 326.892V327.356H282.072V326.892V326.429H280.251V326.892ZM283.893 326.892V327.356H285.714V326.892V326.429H283.893V326.892ZM287.535 326.892V327.356H289.356V326.892V326.429H287.535V326.892ZM291.176 326.892V327.356H292.997V326.892V326.429H291.176V326.892ZM294.818 326.892V327.356H296.639V326.892V326.429H294.818V326.892ZM298.46 326.892V327.356H300.281V326.892V326.429H298.46V326.892ZM302.101 326.892V327.356H303.922V326.892V326.429H302.101V326.892ZM305.743 326.892V327.356H307.564V326.892V326.429H305.743V326.892ZM309.385 326.892V327.356H311.206V326.892V326.429H309.385V326.892ZM313.026 326.892V327.356H314.847V326.892V326.429H313.026V326.892ZM316.668 326.892V327.356H318.489V326.892V326.429H316.668V326.892ZM320.31 326.892V327.356H322.131V326.892V326.429H320.31V326.892ZM323.952 326.892V327.356H325.772V326.892V326.429H323.952V326.892ZM327.593 326.892V327.356H329.414V326.892V326.429H327.593V326.892ZM331.235 326.892V327.356H333.056V326.892V326.429H331.235V326.892ZM334.877 326.892V327.356H336.697V326.892V326.429H334.877V326.892ZM338.518 326.892V327.356H340.339V326.892V326.429H338.518V326.892ZM342.16 326.892V327.356H343.981V326.892V326.429H342.16V326.892ZM345.802 326.892V327.356H347.622V326.892V326.429H345.802V326.892ZM349.443 326.892V327.356H351.264V326.892V326.429H349.443V326.892ZM353.085 326.892V327.356H354.906V326.892V326.429H353.085V326.892ZM356.727 326.892V327.356H357.637V326.892V326.429H356.727V326.892ZM357.637 286.105V285.642H356.727V286.105V286.569H357.637V286.105ZM354.906 286.105V285.642H353.085V286.105V286.569H354.906V286.105ZM351.264 286.105V285.642H349.443V286.105V286.569H351.264V286.105ZM347.622 286.105V285.642H345.802V286.105V286.569H347.622V286.105ZM343.981 286.105V285.642H342.16V286.105V286.569H343.981V286.105ZM340.339 286.105V285.642H338.518V286.105V286.569H340.339V286.105ZM336.697 286.105V285.642H334.877V286.105V286.569H336.697V286.105ZM333.056 286.105V285.642H331.235V286.105V286.569H333.056V286.105ZM329.414 286.105V285.642H327.593V286.105V286.569H329.414V286.105ZM325.772 286.105V285.642H323.952V286.105V286.569H325.772V286.105ZM322.131 286.105V285.642H320.31V286.105V286.569H322.131V286.105ZM318.489 286.105V285.642H316.668V286.105V286.569H318.489V286.105ZM314.847 286.105V285.642H313.026V286.105V286.569H314.847V286.105ZM311.206 286.105V285.642H309.385V286.105V286.569H311.206V286.105ZM307.564 286.105V285.642H305.743V286.105V286.569H307.564V286.105ZM303.922 286.105V285.642H302.101V286.105V286.569H303.922V286.105ZM300.281 286.105V285.642H298.46V286.105V286.569H300.281V286.105ZM296.639 286.105V285.642H294.818V286.105V286.569H296.639V286.105ZM292.997 286.105V285.642H291.176V286.105V286.569H292.997V286.105ZM289.356 286.105V285.642H287.535V286.105V286.569H289.356V286.105ZM285.714 286.105V285.642H283.893V286.105V286.569H285.714V286.105ZM282.072 286.105V285.642H280.251V286.105V286.569H282.072V286.105ZM278.43 286.105V285.642H276.61V286.105V286.569H278.43V286.105ZM274.789 286.105V285.642H272.968V286.105V286.569H274.789V286.105ZM271.147 286.105V285.642H269.326V286.105V286.569H271.147V286.105ZM267.505 286.105V285.642H265.685V286.105V286.569H267.505V286.105ZM263.864 286.105V285.642H262.043V286.105V286.569H263.864V286.105ZM260.222 286.105V285.642H258.401V286.105V286.569H260.222V286.105ZM256.58 286.105V285.642H255.67V286.105V286.569H256.58V286.105ZM255.67 326.892V327.819H256.58V326.892V325.965H255.67V326.892ZM258.401 326.892V327.819H260.222V326.892V325.965H258.401V326.892ZM262.043 326.892V327.819H263.864V326.892V325.965H262.043V326.892ZM265.685 326.892V327.819H267.505V326.892V325.965H265.685V326.892ZM269.326 326.892V327.819H271.147V326.892V325.965H269.326V326.892ZM272.968 326.892V327.819H274.789V326.892V325.965H272.968V326.892ZM276.61 326.892V327.819H278.43V326.892V325.965H276.61V326.892ZM280.251 326.892V327.819H282.072V326.892V325.965H280.251V326.892ZM283.893 326.892V327.819H285.714V326.892V325.965H283.893V326.892ZM287.535 326.892V327.819H289.356V326.892V325.965H287.535V326.892ZM291.176 326.892V327.819H292.997V326.892V325.965H291.176V326.892ZM294.818 326.892V327.819H296.639V326.892V325.965H294.818V326.892ZM298.46 326.892V327.819H300.281V326.892V325.965H298.46V326.892ZM302.101 326.892V327.819H303.922V326.892V325.965H302.101V326.892ZM305.743 326.892V327.819H307.564V326.892V325.965H305.743V326.892ZM309.385 326.892V327.819H311.206V326.892V325.965H309.385V326.892ZM313.026 326.892V327.819H314.847V326.892V325.965H313.026V326.892ZM316.668 326.892V327.819H318.489V326.892V325.965H316.668V326.892ZM320.31 326.892V327.819H322.131V326.892V325.965H320.31V326.892ZM323.952 326.892V327.819H325.772V326.892V325.965H323.952V326.892ZM327.593 326.892V327.819H329.414V326.892V325.965H327.593V326.892ZM331.235 326.892V327.819H333.056V326.892V325.965H331.235V326.892ZM334.877 326.892V327.819H336.697V326.892V325.965H334.877V326.892ZM338.518 326.892V327.819H340.339V326.892V325.965H338.518V326.892ZM342.16 326.892V327.819H343.981V326.892V325.965H342.16V326.892ZM345.802 326.892V327.819H347.622V326.892V325.965H345.802V326.892ZM349.443 326.892V327.819H351.264V326.892V325.965H349.443V326.892ZM353.085 326.892V327.819H354.906V326.892V325.965H353.085V326.892ZM356.727 326.892V327.819H357.637V326.892V325.965H356.727V326.892ZM357.637 286.105V285.178H356.727V286.105V287.032H357.637V286.105ZM354.906 286.105V285.178H353.085V286.105V287.032H354.906V286.105ZM351.264 286.105V285.178H349.443V286.105V287.032H351.264V286.105ZM347.622 286.105V285.178H345.802V286.105V287.032H347.622V286.105ZM343.981 286.105V285.178H342.16V286.105V287.032H343.981V286.105ZM340.339 286.105V285.178H338.518V286.105V287.032H340.339V286.105ZM336.697 286.105V285.178H334.877V286.105V287.032H336.697V286.105ZM333.056 286.105V285.178H331.235V286.105V287.032H333.056V286.105ZM329.414 286.105V285.178H327.593V286.105V287.032H329.414V286.105ZM325.772 286.105V285.178H323.952V286.105V287.032H325.772V286.105ZM322.131 286.105V285.178H320.31V286.105V287.032H322.131V286.105ZM318.489 286.105V285.178H316.668V286.105V287.032H318.489V286.105ZM314.847 286.105V285.178H313.026V286.105V287.032H314.847V286.105ZM311.206 286.105V285.178H309.385V286.105V287.032H311.206V286.105ZM307.564 286.105V285.178H305.743V286.105V287.032H307.564V286.105ZM303.922 286.105V285.178H302.101V286.105V287.032H303.922V286.105ZM300.281 286.105V285.178H298.46V286.105V287.032H300.281V286.105ZM296.639 286.105V285.178H294.818V286.105V287.032H296.639V286.105ZM292.997 286.105V285.178H291.176V286.105V287.032H292.997V286.105ZM289.356 286.105V285.178H287.535V286.105V287.032H289.356V286.105ZM285.714 286.105V285.178H283.893V286.105V287.032H285.714V286.105ZM282.072 286.105V285.178H280.251V286.105V287.032H282.072V286.105ZM278.43 286.105V285.178H276.61V286.105V287.032H278.43V286.105ZM274.789 286.105V285.178H272.968V286.105V287.032H274.789V286.105ZM271.147 286.105V285.178H269.326V286.105V287.032H271.147V286.105ZM267.505 286.105V285.178H265.685V286.105V287.032H267.505V286.105ZM263.864 286.105V285.178H262.043V286.105V287.032H263.864V286.105ZM260.222 286.105V285.178H258.401V286.105V287.032H260.222V286.105ZM256.58 286.105V285.178H255.67V286.105V287.032H256.58V286.105Z" fill="#E0E0E0" mask="url(#path-43-outside-3_231_12676)"/>
<path d="M283.88 316V299.854L284.374 300.062C284.148 300.547 283.758 301.024 283.204 301.492C282.649 301.96 282.008 302.367 281.28 302.714C280.552 303.043 279.78 303.277 278.966 303.416V300.764C279.728 300.643 280.474 300.417 281.202 300.088C281.93 299.741 282.58 299.325 283.152 298.84C283.724 298.337 284.148 297.817 284.426 297.28H286.558V316H283.88ZM296.063 316.26C294.885 316.26 293.845 316.035 292.943 315.584C292.059 315.133 291.349 314.483 290.811 313.634C290.274 312.785 289.936 311.745 289.797 310.514H292.631C292.787 311.727 293.169 312.611 293.775 313.166C294.382 313.721 295.171 313.998 296.141 313.998C296.869 313.998 297.485 313.851 297.987 313.556C298.507 313.261 298.923 312.811 299.235 312.204C299.565 311.597 299.807 310.826 299.963 309.89C300.119 308.937 300.197 307.801 300.197 306.484V304.794L300.951 304.846C300.778 305.661 300.431 306.38 299.911 307.004C299.391 307.611 298.741 308.079 297.961 308.408C297.199 308.737 296.349 308.902 295.413 308.902C294.252 308.902 293.229 308.651 292.345 308.148C291.461 307.645 290.768 306.952 290.265 306.068C289.763 305.167 289.511 304.144 289.511 303C289.511 301.787 289.789 300.738 290.343 299.854C290.898 298.953 291.669 298.259 292.657 297.774C293.663 297.271 294.815 297.02 296.115 297.02C298.421 297.02 300.18 297.826 301.393 299.438C302.624 301.05 303.239 303.399 303.239 306.484C303.239 308.547 302.953 310.315 302.381 311.788C301.827 313.244 301.012 314.353 299.937 315.116C298.88 315.879 297.589 316.26 296.063 316.26ZM296.219 306.692C297.346 306.692 298.247 306.38 298.923 305.756C299.617 305.132 299.963 304.265 299.963 303.156C299.963 302.411 299.799 301.752 299.469 301.18C299.157 300.591 298.715 300.131 298.143 299.802C297.571 299.455 296.904 299.282 296.141 299.282C295.049 299.282 294.174 299.629 293.515 300.322C292.874 300.998 292.553 301.899 292.553 303.026C292.553 304.118 292.874 305.002 293.515 305.678C294.157 306.354 295.058 306.692 296.219 306.692ZM312.288 316.26C311.109 316.26 310.069 316.035 309.168 315.584C308.284 315.133 307.573 314.483 307.036 313.634C306.499 312.785 306.161 311.745 306.022 310.514H308.856C309.012 311.727 309.393 312.611 310 313.166C310.607 313.721 311.395 313.998 312.366 313.998C313.094 313.998 313.709 313.851 314.212 313.556C314.732 313.261 315.148 312.811 315.46 312.204C315.789 311.597 316.032 310.826 316.188 309.89C316.344 308.937 316.422 307.801 316.422 306.484V304.794L317.176 304.846C317.003 305.661 316.656 306.38 316.136 307.004C315.616 307.611 314.966 308.079 314.186 308.408C313.423 308.737 312.574 308.902 311.638 308.902C310.477 308.902 309.454 308.651 308.57 308.148C307.686 307.645 306.993 306.952 306.49 306.068C305.987 305.167 305.736 304.144 305.736 303C305.736 301.787 306.013 300.738 306.568 299.854C307.123 298.953 307.894 298.259 308.882 297.774C309.887 297.271 311.04 297.02 312.34 297.02C314.645 297.02 316.405 297.826 317.618 299.438C318.849 301.05 319.464 303.399 319.464 306.484C319.464 308.547 319.178 310.315 318.606 311.788C318.051 313.244 317.237 314.353 316.162 315.116C315.105 315.879 313.813 316.26 312.288 316.26ZM312.444 306.692C313.571 306.692 314.472 306.38 315.148 305.756C315.841 305.132 316.188 304.265 316.188 303.156C316.188 302.411 316.023 301.752 315.694 301.18C315.382 300.591 314.94 300.131 314.368 299.802C313.796 299.455 313.129 299.282 312.366 299.282C311.274 299.282 310.399 299.629 309.74 300.322C309.099 300.998 308.778 301.899 308.778 303.026C308.778 304.118 309.099 305.002 309.74 305.678C310.381 306.354 311.283 306.692 312.444 306.692ZM321.528 316V313.738C323.348 312.247 324.864 310.947 326.078 309.838C327.308 308.729 328.288 307.741 329.016 306.874C329.744 306.007 330.264 305.219 330.576 304.508C330.888 303.797 331.044 303.087 331.044 302.376C331.044 301.405 330.758 300.651 330.186 300.114C329.631 299.559 328.86 299.282 327.872 299.282C326.849 299.282 326.017 299.585 325.376 300.192C324.734 300.781 324.336 301.622 324.18 302.714H321.372C321.545 300.998 322.212 299.62 323.374 298.58C324.552 297.54 326.104 297.02 328.028 297.02C329.865 297.02 331.312 297.505 332.37 298.476C333.444 299.447 333.982 300.781 333.982 302.48C333.982 303.347 333.817 304.213 333.488 305.08C333.176 305.929 332.656 306.822 331.928 307.758C331.2 308.677 330.22 309.699 328.99 310.826C327.776 311.935 326.268 313.201 324.466 314.622L323.816 313.738H334.32V316H321.528Z" fill="#FF657D"/>
<g opacity="0.5">
<path d="M292.511 352.789V342.581L292.847 342.661C292.719 342.949 292.474 343.237 292.111 343.525C291.749 343.813 291.327 344.064 290.847 344.277C290.378 344.49 289.893 344.634 289.391 344.709V343.477C289.893 343.392 290.373 343.242 290.831 343.029C291.29 342.816 291.695 342.56 292.047 342.261C292.41 341.952 292.677 341.621 292.847 341.269H293.791V352.789H292.511ZM299.847 352.949C299.175 352.949 298.573 352.821 298.039 352.565C297.506 352.298 297.074 351.909 296.743 351.397C296.413 350.874 296.199 350.224 296.103 349.445H297.511C297.618 350.277 297.879 350.88 298.295 351.253C298.711 351.616 299.239 351.797 299.879 351.797C300.349 351.797 300.754 351.701 301.095 351.509C301.437 351.317 301.719 351.024 301.943 350.629C302.167 350.234 302.333 349.733 302.439 349.125C302.546 348.506 302.599 347.776 302.599 346.933V345.893L302.967 345.941C302.871 346.432 302.658 346.869 302.327 347.253C301.997 347.626 301.586 347.92 301.095 348.133C300.605 348.336 300.077 348.437 299.511 348.437C298.807 348.437 298.189 348.282 297.655 347.973C297.122 347.653 296.701 347.216 296.391 346.661C296.093 346.106 295.943 345.477 295.943 344.773C295.943 344.026 296.109 343.381 296.439 342.837C296.77 342.293 297.229 341.872 297.815 341.573C298.413 341.264 299.095 341.109 299.863 341.109C301.229 341.109 302.263 341.605 302.967 342.597C303.682 343.589 304.039 345.045 304.039 346.965C304.039 348.245 303.874 349.333 303.543 350.229C303.223 351.114 302.749 351.792 302.119 352.261C301.501 352.72 300.743 352.949 299.847 352.949ZM299.847 347.317C300.583 347.317 301.191 347.109 301.671 346.693C302.162 346.277 302.407 345.68 302.407 344.901C302.407 344.378 302.29 343.92 302.055 343.525C301.831 343.13 301.522 342.821 301.127 342.597C300.733 342.373 300.285 342.261 299.783 342.261C299.069 342.261 298.487 342.49 298.039 342.949C297.602 343.397 297.383 344.016 297.383 344.805C297.383 345.562 297.597 346.17 298.023 346.629C298.461 347.088 299.069 347.317 299.847 347.317ZM309.785 352.949C309.113 352.949 308.51 352.821 307.977 352.565C307.444 352.298 307.012 351.909 306.681 351.397C306.35 350.874 306.137 350.224 306.041 349.445H307.449C307.556 350.277 307.817 350.88 308.233 351.253C308.649 351.616 309.177 351.797 309.817 351.797C310.286 351.797 310.692 351.701 311.033 351.509C311.374 351.317 311.657 351.024 311.881 350.629C312.105 350.234 312.27 349.733 312.377 349.125C312.484 348.506 312.537 347.776 312.537 346.933V345.893L312.905 345.941C312.809 346.432 312.596 346.869 312.265 347.253C311.934 347.626 311.524 347.92 311.033 348.133C310.542 348.336 310.014 348.437 309.449 348.437C308.745 348.437 308.126 348.282 307.593 347.973C307.06 347.653 306.638 347.216 306.329 346.661C306.03 346.106 305.881 345.477 305.881 344.773C305.881 344.026 306.046 343.381 306.377 342.837C306.708 342.293 307.166 341.872 307.753 341.573C308.35 341.264 309.033 341.109 309.801 341.109C311.166 341.109 312.201 341.605 312.905 342.597C313.62 343.589 313.977 345.045 313.977 346.965C313.977 348.245 313.812 349.333 313.481 350.229C313.161 351.114 312.686 351.792 312.057 352.261C311.438 352.72 310.681 352.949 309.785 352.949ZM309.785 347.317C310.521 347.317 311.129 347.109 311.609 346.693C312.1 346.277 312.345 345.68 312.345 344.901C312.345 344.378 312.228 343.92 311.993 343.525C311.769 343.13 311.46 342.821 311.065 342.597C310.67 342.373 310.222 342.261 309.721 342.261C309.006 342.261 308.425 342.49 307.977 342.949C307.54 343.397 307.321 344.016 307.321 344.805C307.321 345.562 307.534 346.17 307.961 346.629C308.398 347.088 309.006 347.317 309.785 347.317ZM321.074 352.789V349.749L321.106 349.429V342.853H321.538L316.674 349.509L316.242 348.981H323.922V350.133H315.346V349.141L321.138 341.269H322.45V352.789H321.074Z" fill="url(#paint11_linear_231_12676)"/>
<path d="M292.722 393.574V383.366L293.058 383.446C292.93 383.734 292.685 384.022 292.322 384.31C291.96 384.598 291.538 384.849 291.058 385.062C290.589 385.276 290.104 385.42 289.602 385.494V384.262C290.104 384.177 290.584 384.028 291.042 383.814C291.501 383.601 291.906 383.345 292.258 383.046C292.621 382.737 292.888 382.406 293.058 382.054H294.002V393.574H292.722ZM300.058 393.734C299.386 393.734 298.784 393.606 298.25 393.35C297.717 393.084 297.285 392.694 296.954 392.182C296.624 391.66 296.41 391.009 296.314 390.23H297.722C297.829 391.062 298.09 391.665 298.506 392.038C298.922 392.401 299.45 392.582 300.09 392.582C300.56 392.582 300.965 392.486 301.306 392.294C301.648 392.102 301.93 391.809 302.154 391.414C302.378 391.02 302.544 390.518 302.65 389.91C302.757 389.292 302.81 388.561 302.81 387.718V386.678L303.178 386.726C303.082 387.217 302.869 387.654 302.538 388.038C302.208 388.412 301.797 388.705 301.306 388.918C300.816 389.121 300.288 389.222 299.722 389.222C299.018 389.222 298.4 389.068 297.866 388.758C297.333 388.438 296.912 388.001 296.602 387.446C296.304 386.892 296.154 386.262 296.154 385.558C296.154 384.812 296.32 384.166 296.65 383.622C296.981 383.078 297.44 382.657 298.026 382.358C298.624 382.049 299.306 381.894 300.074 381.894C301.44 381.894 302.474 382.39 303.178 383.382C303.893 384.374 304.25 385.83 304.25 387.75C304.25 389.03 304.085 390.118 303.754 391.014C303.434 391.9 302.96 392.577 302.33 393.046C301.712 393.505 300.954 393.734 300.058 393.734ZM300.058 388.102C300.794 388.102 301.402 387.894 301.882 387.478C302.373 387.062 302.618 386.465 302.618 385.686C302.618 385.164 302.501 384.705 302.266 384.31C302.042 383.916 301.733 383.606 301.338 383.382C300.944 383.158 300.496 383.046 299.994 383.046C299.28 383.046 298.698 383.276 298.25 383.734C297.813 384.182 297.594 384.801 297.594 385.59C297.594 386.348 297.808 386.956 298.234 387.414C298.672 387.873 299.28 388.102 300.058 388.102ZM309.996 393.734C309.324 393.734 308.721 393.606 308.188 393.35C307.655 393.084 307.223 392.694 306.892 392.182C306.561 391.66 306.348 391.009 306.252 390.23H307.66C307.767 391.062 308.028 391.665 308.444 392.038C308.86 392.401 309.388 392.582 310.028 392.582C310.497 392.582 310.903 392.486 311.244 392.294C311.585 392.102 311.868 391.809 312.092 391.414C312.316 391.02 312.481 390.518 312.588 389.91C312.695 389.292 312.748 388.561 312.748 387.718V386.678L313.116 386.726C313.02 387.217 312.807 387.654 312.476 388.038C312.145 388.412 311.735 388.705 311.244 388.918C310.753 389.121 310.225 389.222 309.66 389.222C308.956 389.222 308.337 389.068 307.804 388.758C307.271 388.438 306.849 388.001 306.54 387.446C306.241 386.892 306.092 386.262 306.092 385.558C306.092 384.812 306.257 384.166 306.588 383.622C306.919 383.078 307.377 382.657 307.964 382.358C308.561 382.049 309.244 381.894 310.012 381.894C311.377 381.894 312.412 382.39 313.116 383.382C313.831 384.374 314.188 385.83 314.188 387.75C314.188 389.03 314.023 390.118 313.692 391.014C313.372 391.9 312.897 392.577 312.268 393.046C311.649 393.505 310.892 393.734 309.996 393.734ZM309.996 388.102C310.732 388.102 311.34 387.894 311.82 387.478C312.311 387.062 312.556 386.465 312.556 385.686C312.556 385.164 312.439 384.705 312.204 384.31C311.98 383.916 311.671 383.606 311.276 383.382C310.881 383.158 310.433 383.046 309.932 383.046C309.217 383.046 308.636 383.276 308.188 383.734C307.751 384.182 307.532 384.801 307.532 385.59C307.532 386.348 307.745 386.956 308.172 387.414C308.609 387.873 309.217 388.102 309.996 388.102ZM319.733 393.734C318.965 393.734 318.288 393.596 317.701 393.318C317.125 393.03 316.656 392.614 316.293 392.07C315.941 391.526 315.723 390.87 315.637 390.102H317.013C317.131 390.902 317.424 391.516 317.893 391.942C318.363 392.369 318.981 392.582 319.749 392.582C320.475 392.582 321.045 392.39 321.461 392.006C321.877 391.622 322.085 391.1 322.085 390.438C322.085 389.745 321.883 389.185 321.477 388.758C321.072 388.321 320.528 388.102 319.845 388.102H318.405V386.982H319.797C320.416 386.982 320.907 386.806 321.269 386.454C321.643 386.092 321.829 385.612 321.829 385.014C321.829 384.385 321.632 383.9 321.237 383.558C320.853 383.217 320.331 383.046 319.669 383.046C319.019 383.046 318.464 383.238 318.005 383.622C317.547 383.996 317.275 384.534 317.189 385.238H315.797C315.861 384.556 316.064 383.969 316.405 383.478C316.747 382.977 317.2 382.588 317.765 382.31C318.341 382.033 318.987 381.894 319.701 381.894C320.395 381.894 321.008 382.017 321.541 382.262C322.075 382.508 322.491 382.86 322.789 383.318C323.088 383.766 323.237 384.294 323.237 384.902C323.237 385.446 323.115 385.926 322.869 386.342C322.624 386.758 322.288 387.084 321.861 387.318C321.445 387.553 320.965 387.67 320.421 387.67L320.325 387.334C320.976 387.334 321.536 387.473 322.005 387.75C322.485 388.017 322.853 388.385 323.109 388.854C323.376 389.324 323.509 389.868 323.509 390.486C323.509 391.126 323.349 391.692 323.029 392.182C322.709 392.673 322.267 393.057 321.701 393.334C321.136 393.601 320.48 393.734 319.733 393.734Z" fill="url(#paint12_linear_231_12676)"/>
</g>
</g>
<defs>
<linearGradient id="paint0_linear_231_12676" x1="196.5" y1="0" x2="196.5" y2="852" gradientUnits="userSpaceOnUse">
<stop stop-color="white"/>
<stop offset="1" stop-color="#FFF0F2"/>
</linearGradient>
<linearGradient id="paint1_linear_231_12676" x1="96.1603" y1="230.637" x2="96.1603" y2="211.637" gradientUnits="userSpaceOnUse">
<stop stop-color="#8C8C8C"/>
<stop offset="1" stop-color="white"/>
</linearGradient>
<linearGradient id="paint2_linear_231_12676" x1="96.1603" y1="254.066" x2="96.1603" y2="273.066" gradientUnits="userSpaceOnUse">
<stop stop-color="#A3A3A3"/>
<stop offset="1"/>
</linearGradient>
<linearGradient id="paint3_linear_231_12676" x1="96.1603" y1="338.93" x2="96.1603" y2="357.93" gradientUnits="userSpaceOnUse">
<stop/>
<stop offset="1" stop-color="#A3A3A3"/>
</linearGradient>
<linearGradient id="paint4_linear_231_12676" x1="96.1603" y1="400.359" x2="96.1603" y2="381.359" gradientUnits="userSpaceOnUse">
<stop stop-color="white"/>
<stop offset="1" stop-color="#8C8C8C"/>
</linearGradient>
<linearGradient id="paint5_linear_231_12676" x1="207.526" y1="234.328" x2="207.526" y2="215.328" gradientUnits="userSpaceOnUse">
<stop stop-color="#8C8C8C"/>
<stop offset="1" stop-color="white"/>
</linearGradient>
<linearGradient id="paint6_linear_231_12676" x1="207.526" y1="255.914" x2="207.526" y2="274.914" gradientUnits="userSpaceOnUse">
<stop stop-color="#A3A3A3"/>
<stop offset="1"/>
</linearGradient>
<linearGradient id="paint7_linear_231_12676" x1="207.526" y1="337.086" x2="207.526" y2="356.086" gradientUnits="userSpaceOnUse">
<stop/>
<stop offset="1" stop-color="#A3A3A3"/>
</linearGradient>
<linearGradient id="paint8_linear_231_12676" x1="207.526" y1="396.672" x2="207.526" y2="377.672" gradientUnits="userSpaceOnUse">
<stop stop-color="white"/>
<stop offset="1" stop-color="#8C8C8C"/>
</linearGradient>
<linearGradient id="paint9_linear_231_12676" x1="306.654" y1="234.426" x2="306.654" y2="215.426" gradientUnits="userSpaceOnUse">
<stop stop-color="#8C8C8C"/>
<stop offset="1" stop-color="white"/>
</linearGradient>
<linearGradient id="paint10_linear_231_12676" x1="306.654" y1="256.211" x2="306.654" y2="275.211" gradientUnits="userSpaceOnUse">
<stop stop-color="#A3A3A3"/>
<stop offset="1"/>
</linearGradient>
<linearGradient id="paint11_linear_231_12676" x1="306.654" y1="337.789" x2="306.654" y2="356.789" gradientUnits="userSpaceOnUse">
<stop/>
<stop offset="1" stop-color="#A3A3A3"/>
</linearGradient>
<linearGradient id="paint12_linear_231_12676" x1="306.654" y1="397.574" x2="306.654" y2="378.574" gradientUnits="userSpaceOnUse">
<stop stop-color="white"/>
<stop offset="1" stop-color="#8C8C8C"/>
</linearGradient>
<clipPath id="clip0_231_12676">
<rect width="393" height="852" rx="40" fill="white"/>
</clipPath>
</defs>
</svg>